<?xml version="1.0" encoding="utf-8" standalone="no"?>
<!DOCTYPE svg PUBLIC "-//W3C//DTD SVG 1.1//EN"
  "http://www.w3.org/Graphics/SVG/1.1/DTD/svg11.dtd">
<!-- Created with matplotlib (http://matplotlib.org/) -->
<svg height="396pt" version="1.1" viewBox="0 0 576 396" width="576pt" xmlns="http://www.w3.org/2000/svg" xmlns:xlink="http://www.w3.org/1999/xlink">
 <defs>
  <style type="text/css">
*{stroke-linecap:butt;stroke-linejoin:round;stroke-miterlimit:100000;}
  </style>
 </defs>
 <g id="figure_1">
  <g id="patch_1">
   <path d="M 0 396 
L 576 396 
L 576 0 
L 0 0 
z
" style="fill:#ffffff;"/>
  </g>
  <g id="axes_1">
   <g id="patch_2">
    <path d="M 72 346.5 
L 518.4 346.5 
L 518.4 39.6 
L 72 39.6 
z
" style="fill:#eaeaf2;"/>
   </g>
   <g id="matplotlib.axis_1">
    <g id="xtick_1">
     <g id="line2d_1">
      <path clip-path="url(#pe2421250bb)" d="M 72 346.5 
L 72 39.6 
" style="fill:none;stroke:#ffffff;stroke-linecap:round;"/>
     </g>
     <g id="line2d_2">
      <defs>
       <path d="M 0 0 
L 0 0 
" id="m4158870ca2" style="stroke:#262626;"/>
      </defs>
      <g>
       <use style="fill:#262626;stroke:#262626;" x="72.0" xlink:href="#m4158870ca2" y="346.5"/>
      </g>
     </g>
     <g id="line2d_3">
      <g>
       <use style="fill:#262626;stroke:#262626;" x="72.0" xlink:href="#m4158870ca2" y="39.6"/>
      </g>
     </g>
     <g id="text_1">
      <!-- $-0.20$ -->
      <defs>
       <path d="M 42 31.640625 
C 42 37.75 41.90625 48.125 37.703125 56.109375 
C 34 63.109375 28.09375 65.59375 22.90625 65.59375 
C 18.09375 65.59375 12 63.40625 8.203125 56.203125 
C 4.203125 48.71875 3.796875 39.4375 3.796875 31.640625 
C 3.796875 25.953125 3.90625 17.28125 7 9.671875 
C 11.296875 -0.609375 19 -2 22.90625 -2 
C 27.5 -2 34.5 -0.109375 38.59375 9.375 
C 41.59375 16.28125 42 24.359375 42 31.640625 
M 22.90625 -0.40625 
C 16.5 -0.40625 12.703125 5.078125 11.296875 12.6875 
C 10.203125 18.5625 10.203125 27.15625 10.203125 32.75 
C 10.203125 40.4375 10.203125 46.828125 11.5 52.921875 
C 13.40625 61.390625 19 64 22.90625 64 
C 27 64 32.296875 61.296875 34.203125 53.125 
C 35.5 47.4375 35.59375 40.734375 35.59375 32.75 
C 35.59375 26.25 35.59375 18.265625 34.40625 12.375 
C 32.296875 1.484375 26.40625 -0.40625 22.90625 -0.40625 
" id="CMR17-48"/>
       <path d="M 41.703125 15.453125 
L 39.90625 15.453125 
C 38.90625 8.375 38.09375 7.171875 37.703125 6.5625 
C 37.203125 5.765625 30 5.765625 28.59375 5.765625 
L 9.40625 5.765625 
C 13 9.671875 20 16.75 28.5 24.953125 
C 34.59375 30.734375 41.703125 37.53125 41.703125 47.421875 
C 41.703125 59.21875 32.296875 66 21.796875 66 
C 10.796875 66 4.09375 56.3125 4.09375 47.34375 
C 4.09375 43.4375 7 42.9375 8.203125 42.9375 
C 9.203125 42.9375 12.203125 43.546875 12.203125 47.03125 
C 12.203125 50.109375 9.59375 51 8.203125 51 
C 7.59375 51 7 50.90625 6.59375 50.703125 
C 8.5 59.21875 14.296875 63.40625 20.40625 63.40625 
C 29.09375 63.40625 34.796875 56.515625 34.796875 47.421875 
C 34.796875 38.734375 29.703125 31.25 24 24.75 
L 4.09375 2.28125 
L 4.09375 0 
L 39.296875 0 
z
" id="CMR17-50"/>
       <path d="M 65.90625 23 
C 67.59375 23 69.40625 23 69.40625 25 
C 69.40625 27 67.59375 27 65.90625 27 
L 11.796875 27 
C 10.09375 27 8.296875 27 8.296875 25 
C 8.296875 23 10.09375 23 11.796875 23 
z
" id="CMSY10-0"/>
       <path d="M 18.40625 4.796875 
C 18.40625 7.6875 16 9.671875 13.59375 9.671875 
C 10.703125 9.671875 8.703125 7.28125 8.703125 4.890625 
C 8.703125 2 11.09375 0 13.5 0 
C 16.40625 0 18.40625 2.390625 18.40625 4.796875 
" id="CMMI12-58"/>
      </defs>
      <g style="fill:#262626;" transform="translate(59.2699210237 360.41849838)scale(0.1 -0.1)">
       <use transform="scale(0.9962640099626402)" xlink:href="#CMSY10-0"/>
       <use transform="translate(77.4874676506071 0.0)scale(0.9962640099626402)" xlink:href="#CMR17-48"/>
       <use transform="translate(123.17794476766814 0.0)scale(0.9962640099626402)" xlink:href="#CMMI12-58"/>
       <use transform="translate(150.27512185748756 0.0)scale(0.9962640099626402)" xlink:href="#CMR17-50"/>
       <use transform="translate(195.96559897454858 0.0)scale(0.9962640099626402)" xlink:href="#CMR17-48"/>
      </g>
     </g>
    </g>
    <g id="xtick_2">
     <g id="line2d_4">
      <path clip-path="url(#pe2421250bb)" d="M 127.8 346.5 
L 127.8 39.6 
" style="fill:none;stroke:#ffffff;stroke-linecap:round;"/>
     </g>
     <g id="line2d_5">
      <g>
       <use style="fill:#262626;stroke:#262626;" x="127.8" xlink:href="#m4158870ca2" y="346.5"/>
      </g>
     </g>
     <g id="line2d_6">
      <g>
       <use style="fill:#262626;stroke:#262626;" x="127.8" xlink:href="#m4158870ca2" y="39.6"/>
      </g>
     </g>
     <g id="text_2">
      <!-- $-0.15$ -->
      <defs>
       <path d="M 26.59375 63.3125 
C 26.59375 65.40625 26.5 65.5 25.09375 65.5 
C 21.203125 61.1875 15.296875 59.796875 9.703125 59.796875 
C 9.40625 59.796875 8.90625 59.796875 8.796875 59.609375 
C 8.703125 59.390625 8.703125 59.171875 8.703125 57 
C 11.796875 57 17 57.59375 21 59.984375 
L 21 7.203125 
C 21 3.6875 20.796875 2.5 12.203125 2.5 
L 9.203125 2.5 
L 9.203125 0 
C 14 0 19 0 23.796875 0 
C 28.59375 0 33.59375 0 38.40625 0 
L 38.40625 2.5 
L 35.40625 2.5 
C 26.796875 2.5 26.59375 3.59375 26.59375 7.15625 
z
" id="CMR17-49"/>
       <path d="M 11.40625 57.6875 
C 12.40625 57.28125 16.5 56 20.703125 56 
C 30 56 35.09375 61.015625 38 63.921875 
C 38 64.734375 38 65.25 37.40625 65.25 
C 37.296875 65.25 37.09375 65.25 36.296875 64.828125 
C 32.796875 63.3125 28.703125 62.078125 23.703125 62.078125 
C 20.703125 62.078125 16.203125 62.5 11.296875 64.734375 
C 10.203125 65.25 10 65.25 9.90625 65.25 
C 9.40625 65.25 9.296875 65.140625 9.296875 63.15625 
L 9.296875 34.28125 
C 9.296875 32.5 9.296875 32 10.296875 32 
C 10.796875 32 11 32.203125 11.5 32.90625 
C 14.703125 37.484375 19.09375 39.40625 24.09375 39.40625 
C 27.59375 39.40625 35.09375 37.21875 35.09375 20.140625 
C 35.09375 16.953125 35.09375 11.171875 32.09375 6.578125 
C 29.59375 2.484375 25.703125 0.390625 21.40625 0.390625 
C 14.796875 0.390625 8.09375 5 6.296875 12.71875 
C 6.703125 12.609375 7.5 12.421875 7.90625 12.421875 
C 9.203125 12.421875 11.703125 13.125 11.703125 16.21875 
C 11.703125 18.90625 9.796875 20 7.90625 20 
C 5.59375 20 4.09375 18.59375 4.09375 15.796875 
C 4.09375 7.09375 11 -2 21.59375 -2 
C 31.90625 -2 41.703125 6.875 41.703125 19.75 
C 41.703125 31.71875 33.90625 41 24.203125 41 
C 19.09375 41 14.796875 39.09375 11.40625 35.453125 
z
" id="CMR17-53"/>
      </defs>
      <g style="fill:#262626;" transform="translate(115.069921024 360.41849838)scale(0.1 -0.1)">
       <use transform="scale(0.9962640099626402)" xlink:href="#CMSY10-0"/>
       <use transform="translate(77.4874676506071 0.0)scale(0.9962640099626402)" xlink:href="#CMR17-48"/>
       <use transform="translate(123.17794476766814 0.0)scale(0.9962640099626402)" xlink:href="#CMMI12-58"/>
       <use transform="translate(150.27512185748756 0.0)scale(0.9962640099626402)" xlink:href="#CMR17-49"/>
       <use transform="translate(195.96559897454858 0.0)scale(0.9962640099626402)" xlink:href="#CMR17-53"/>
      </g>
     </g>
    </g>
    <g id="xtick_3">
     <g id="line2d_7">
      <path clip-path="url(#pe2421250bb)" d="M 183.6 346.5 
L 183.6 39.6 
" style="fill:none;stroke:#ffffff;stroke-linecap:round;"/>
     </g>
     <g id="line2d_8">
      <g>
       <use style="fill:#262626;stroke:#262626;" x="183.6" xlink:href="#m4158870ca2" y="346.5"/>
      </g>
     </g>
     <g id="line2d_9">
      <g>
       <use style="fill:#262626;stroke:#262626;" x="183.6" xlink:href="#m4158870ca2" y="39.6"/>
      </g>
     </g>
     <g id="text_3">
      <!-- $-0.10$ -->
      <g style="fill:#262626;" transform="translate(170.869921024 360.41849838)scale(0.1 -0.1)">
       <use transform="scale(0.9962640099626402)" xlink:href="#CMSY10-0"/>
       <use transform="translate(77.4874676506071 0.0)scale(0.9962640099626402)" xlink:href="#CMR17-48"/>
       <use transform="translate(123.17794476766814 0.0)scale(0.9962640099626402)" xlink:href="#CMMI12-58"/>
       <use transform="translate(150.27512185748756 0.0)scale(0.9962640099626402)" xlink:href="#CMR17-49"/>
       <use transform="translate(195.96559897454858 0.0)scale(0.9962640099626402)" xlink:href="#CMR17-48"/>
      </g>
     </g>
    </g>
    <g id="xtick_4">
     <g id="line2d_10">
      <path clip-path="url(#pe2421250bb)" d="M 239.4 346.5 
L 239.4 39.6 
" style="fill:none;stroke:#ffffff;stroke-linecap:round;"/>
     </g>
     <g id="line2d_11">
      <g>
       <use style="fill:#262626;stroke:#262626;" x="239.4" xlink:href="#m4158870ca2" y="346.5"/>
      </g>
     </g>
     <g id="line2d_12">
      <g>
       <use style="fill:#262626;stroke:#262626;" x="239.4" xlink:href="#m4158870ca2" y="39.6"/>
      </g>
     </g>
     <g id="text_4">
      <!-- $-0.05$ -->
      <g style="fill:#262626;" transform="translate(226.669921024 360.41849838)scale(0.1 -0.1)">
       <use transform="scale(0.9962640099626402)" xlink:href="#CMSY10-0"/>
       <use transform="translate(77.4874676506071 0.0)scale(0.9962640099626402)" xlink:href="#CMR17-48"/>
       <use transform="translate(123.17794476766814 0.0)scale(0.9962640099626402)" xlink:href="#CMMI12-58"/>
       <use transform="translate(150.27512185748756 0.0)scale(0.9962640099626402)" xlink:href="#CMR17-48"/>
       <use transform="translate(195.96559897454858 0.0)scale(0.9962640099626402)" xlink:href="#CMR17-53"/>
      </g>
     </g>
    </g>
    <g id="xtick_5">
     <g id="line2d_13">
      <path clip-path="url(#pe2421250bb)" d="M 295.2 346.5 
L 295.2 39.6 
" style="fill:none;stroke:#ffffff;stroke-linecap:round;"/>
     </g>
     <g id="line2d_14">
      <g>
       <use style="fill:#262626;stroke:#262626;" x="295.2" xlink:href="#m4158870ca2" y="346.5"/>
      </g>
     </g>
     <g id="line2d_15">
      <g>
       <use style="fill:#262626;stroke:#262626;" x="295.2" xlink:href="#m4158870ca2" y="39.6"/>
      </g>
     </g>
     <g id="text_5">
      <!-- $0.00$ -->
      <g style="fill:#262626;" transform="translate(286.344292886 360.41849838)scale(0.1 -0.1)">
       <use transform="scale(0.9962640099626402)" xlink:href="#CMR17-48"/>
       <use transform="translate(45.69047711706103 0.0)scale(0.9962640099626402)" xlink:href="#CMMI12-58"/>
       <use transform="translate(72.78765420688046 0.0)scale(0.9962640099626402)" xlink:href="#CMR17-48"/>
       <use transform="translate(118.47813132394148 0.0)scale(0.9962640099626402)" xlink:href="#CMR17-48"/>
      </g>
     </g>
    </g>
    <g id="xtick_6">
     <g id="line2d_16">
      <path clip-path="url(#pe2421250bb)" d="M 351 346.5 
L 351 39.6 
" style="fill:none;stroke:#ffffff;stroke-linecap:round;"/>
     </g>
     <g id="line2d_17">
      <g>
       <use style="fill:#262626;stroke:#262626;" x="351.0" xlink:href="#m4158870ca2" y="346.5"/>
      </g>
     </g>
     <g id="line2d_18">
      <g>
       <use style="fill:#262626;stroke:#262626;" x="351.0" xlink:href="#m4158870ca2" y="39.6"/>
      </g>
     </g>
     <g id="text_6">
      <!-- $0.05$ -->
      <g style="fill:#262626;" transform="translate(342.144292886 360.41849838)scale(0.1 -0.1)">
       <use transform="scale(0.9962640099626402)" xlink:href="#CMR17-48"/>
       <use transform="translate(45.69047711706103 0.0)scale(0.9962640099626402)" xlink:href="#CMMI12-58"/>
       <use transform="translate(72.78765420688046 0.0)scale(0.9962640099626402)" xlink:href="#CMR17-48"/>
       <use transform="translate(118.47813132394148 0.0)scale(0.9962640099626402)" xlink:href="#CMR17-53"/>
      </g>
     </g>
    </g>
    <g id="xtick_7">
     <g id="line2d_19">
      <path clip-path="url(#pe2421250bb)" d="M 406.8 346.5 
L 406.8 39.6 
" style="fill:none;stroke:#ffffff;stroke-linecap:round;"/>
     </g>
     <g id="line2d_20">
      <g>
       <use style="fill:#262626;stroke:#262626;" x="406.8" xlink:href="#m4158870ca2" y="346.5"/>
      </g>
     </g>
     <g id="line2d_21">
      <g>
       <use style="fill:#262626;stroke:#262626;" x="406.8" xlink:href="#m4158870ca2" y="39.6"/>
      </g>
     </g>
     <g id="text_7">
      <!-- $0.10$ -->
      <g style="fill:#262626;" transform="translate(397.944292886 360.41849838)scale(0.1 -0.1)">
       <use transform="scale(0.9962640099626402)" xlink:href="#CMR17-48"/>
       <use transform="translate(45.69047711706103 0.0)scale(0.9962640099626402)" xlink:href="#CMMI12-58"/>
       <use transform="translate(72.78765420688046 0.0)scale(0.9962640099626402)" xlink:href="#CMR17-49"/>
       <use transform="translate(118.47813132394148 0.0)scale(0.9962640099626402)" xlink:href="#CMR17-48"/>
      </g>
     </g>
    </g>
    <g id="xtick_8">
     <g id="line2d_22">
      <path clip-path="url(#pe2421250bb)" d="M 462.6 346.5 
L 462.6 39.6 
" style="fill:none;stroke:#ffffff;stroke-linecap:round;"/>
     </g>
     <g id="line2d_23">
      <g>
       <use style="fill:#262626;stroke:#262626;" x="462.6" xlink:href="#m4158870ca2" y="346.5"/>
      </g>
     </g>
     <g id="line2d_24">
      <g>
       <use style="fill:#262626;stroke:#262626;" x="462.6" xlink:href="#m4158870ca2" y="39.6"/>
      </g>
     </g>
     <g id="text_8">
      <!-- $0.15$ -->
      <g style="fill:#262626;" transform="translate(453.744292886 360.41849838)scale(0.1 -0.1)">
       <use transform="scale(0.9962640099626402)" xlink:href="#CMR17-48"/>
       <use transform="translate(45.69047711706103 0.0)scale(0.9962640099626402)" xlink:href="#CMMI12-58"/>
       <use transform="translate(72.78765420688046 0.0)scale(0.9962640099626402)" xlink:href="#CMR17-49"/>
       <use transform="translate(118.47813132394148 0.0)scale(0.9962640099626402)" xlink:href="#CMR17-53"/>
      </g>
     </g>
    </g>
    <g id="xtick_9">
     <g id="line2d_25">
      <path clip-path="url(#pe2421250bb)" d="M 518.4 346.5 
L 518.4 39.6 
" style="fill:none;stroke:#ffffff;stroke-linecap:round;"/>
     </g>
     <g id="line2d_26">
      <g>
       <use style="fill:#262626;stroke:#262626;" x="518.4" xlink:href="#m4158870ca2" y="346.5"/>
      </g>
     </g>
     <g id="line2d_27">
      <g>
       <use style="fill:#262626;stroke:#262626;" x="518.4" xlink:href="#m4158870ca2" y="39.6"/>
      </g>
     </g>
     <g id="text_9">
      <!-- $0.20$ -->
      <g style="fill:#262626;" transform="translate(509.544292886 360.41849838)scale(0.1 -0.1)">
       <use transform="scale(0.9962640099626402)" xlink:href="#CMR17-48"/>
       <use transform="translate(45.69047711706103 0.0)scale(0.9962640099626402)" xlink:href="#CMMI12-58"/>
       <use transform="translate(72.78765420688046 0.0)scale(0.9962640099626402)" xlink:href="#CMR17-50"/>
       <use transform="translate(118.47813132394148 0.0)scale(0.9962640099626402)" xlink:href="#CMR17-48"/>
      </g>
     </g>
    </g>
    <g id="text_10">
     <!-- $t [\mu s]$ -->
     <defs>
      <path d="M 22.796875 20 
C 24.5 19.703125 27.203125 19.109375 27.796875 19 
C 29.09375 18.625 33.59375 17.03125 33.59375 12.234375 
C 33.59375 9.15625 30.796875 1.09375 19.203125 1.09375 
C 17.09375 1.09375 9.59375 1.09375 7.59375 6.8125 
C 11.59375 6.3125 13.59375 9.421875 13.59375 11.640625 
C 13.59375 13.75 12.203125 14.84375 10.203125 14.84375 
C 8 14.84375 5.09375 13.140625 5.09375 8.625 
C 5.09375 2.703125 11.09375 -1 19.09375 -1 
C 34.296875 -1 38.796875 10.171875 38.796875 15.375 
C 38.796875 16.859375 38.796875 19.65625 35.59375 22.84375 
C 33.09375 25.25 30.703125 25.75 25.296875 26.84375 
C 22.59375 27.4375 18.296875 28.34375 18.296875 32.828125 
C 18.296875 34.828125 20.09375 42.015625 29.59375 42.015625 
C 33.796875 42.015625 37.90625 40.453125 38.90625 37 
C 34.5 37 34.296875 33.203125 34.296875 33.109375 
C 34.296875 31 36.203125 30.40625 37.09375 30.40625 
C 38.5 30.40625 41.296875 31.484375 41.296875 35.640625 
C 41.296875 39.765625 37.5 44 29.703125 44 
C 16.59375 44 13.09375 33.75 13.09375 29.671875 
C 13.09375 22.09375 20.5 20.5 22.796875 20 
" id="CMMI12-115"/>
      <path d="M 20.09375 40.09375 
L 29.296875 40.09375 
C 31.203125 40.09375 32.203125 40.09375 32.203125 41.890625 
C 32.203125 43 31.59375 43 29.59375 43 
L 20.796875 43 
L 24.5 57.6875 
C 24.90625 59.078125 24.90625 59.28125 24.90625 60 
C 24.90625 61.609375 23.59375 62.5 22.296875 62.5 
C 21.5 62.5 19.203125 62.203125 18.40625 58.984375 
L 14.5 43 
L 5.09375 43 
C 3.09375 43 2.203125 43 2.203125 41.09375 
C 2.203125 40.09375 2.90625 40.09375 4.796875 40.09375 
L 13.703125 40.09375 
L 7.09375 13.765625 
C 6.296875 10.28125 6 9.28125 6 7.984375 
C 6 3.296875 9.296875 -1 14.90625 -1 
C 25 -1 30.40625 13.578125 30.40625 14.265625 
C 30.40625 14.875 30 15.171875 29.40625 15.171875 
C 29.203125 15.171875 28.796875 15.171875 28.59375 14.765625 
C 28.5 14.671875 28.40625 14.5625 27.703125 12.96875 
C 25.59375 7.984375 21 1 15.203125 1 
C 12.203125 1 12 3.5 12 5.6875 
C 12 5.78125 12 7.6875 12.296875 8.875 
z
" id="CMMI12-116"/>
      <path d="M 14.296875 74.484375 
L 1.40625 74.484375 
L 1.40625 71 
L 10.796875 71 
L 10.796875 -21.515625 
L 1.40625 -21.515625 
L 1.40625 -25 
L 14.296875 -25 
z
" id="CMR17-93"/>
      <path d="M 23.5 -25 
L 23.5 -21.515625 
L 14.09375 -21.515625 
L 14.09375 71 
L 23.5 71 
L 23.5 74.484375 
L 10.59375 74.484375 
L 10.59375 -25 
z
" id="CMR17-91"/>
      <path d="M 14.40625 2.1875 
C 16.90625 -0.09375 20.59375 -1 24 -1 
C 30.40625 -1 34.796875 3.25 37.09375 6.328125 
C 38.09375 1.078125 42.296875 -1 45.796875 -1 
C 48.796875 -1 51.203125 0.78125 53 4.328125 
C 54.59375 7.703125 56 13.734375 56 14.109375 
C 56 14.609375 55.59375 15 55 15 
C 54.09375 15 54 14.5 53.59375 13.03125 
C 52.09375 7.203125 50.203125 1 46.09375 1 
C 43.203125 1 43 3.578125 43 5.59375 
C 43 7.875 43.90625 11.46875 44.59375 14.46875 
L 47.40625 25.234375 
C 47.796875 27.140625 48.90625 31.609375 49.40625 33.421875 
C 50 35.8125 51.09375 40.109375 51.09375 40.5 
C 51.09375 42 49.90625 43 48.40625 43 
C 47.5 43 45.40625 42.59375 44.59375 39.609375 
L 37.59375 11.875 
C 37.09375 9.875 37.09375 9.671875 35.796875 8.078125 
C 34.59375 6.390625 30.703125 1 24.40625 1 
C 18.796875 1 17 5.09375 17 9.765625 
C 17 12.671875 17.90625 16.15625 18.296875 17.859375 
L 22.796875 35.828125 
C 23.296875 37.71875 24.09375 40.90625 24.09375 41.515625 
C 24.09375 43.109375 22.796875 44 21.5 44 
C 20.59375 44 18.40625 43.703125 17.59375 40.5 
L 3.09375 -17.296875 
C 3 -17.796875 2.796875 -18.390625 2.796875 -19 
C 2.796875 -20.5 4 -21.5 5.5 -21.5 
C 8.40625 -21.5 9 -19.1875 9.703125 -16.40625 
z
" id="CMMI12-22"/>
     </defs>
     <g style="fill:#262626;" transform="translate(284.307033621 375.574854793)scale(0.11 -0.11)">
      <use transform="scale(0.9962640099626402)" xlink:href="#CMMI12-116"/>
      <use transform="translate(35.226330216765255 0.0)scale(0.9962640099626402)" xlink:href="#CMR17-91"/>
      <use transform="translate(60.09738869863014 0.0)scale(0.9962640099626402)" xlink:href="#CMMI12-22"/>
      <use transform="translate(118.78881015041253 0.0)scale(0.9962640099626402)" xlink:href="#CMMI12-115"/>
      <use transform="translate(164.73885770158782 0.0)scale(0.9962640099626402)" xlink:href="#CMR17-93"/>
     </g>
    </g>
   </g>
   <g id="matplotlib.axis_2">
    <g id="ytick_1">
     <g id="line2d_28">
      <path clip-path="url(#pe2421250bb)" d="M 72 346.5 
L 518.4 346.5 
" style="fill:none;stroke:#ffffff;stroke-linecap:round;"/>
     </g>
     <g id="line2d_29">
      <g>
       <use style="fill:#262626;stroke:#262626;" x="72.0" xlink:href="#m4158870ca2" y="346.5"/>
      </g>
     </g>
     <g id="line2d_30">
      <g>
       <use style="fill:#262626;stroke:#262626;" x="518.4" xlink:href="#m4158870ca2" y="346.5"/>
      </g>
     </g>
     <g id="text_11">
      <!-- $-100$ -->
      <g style="fill:#262626;" transform="translate(42.3072505205 348.990660025)scale(0.1 -0.1)">
       <use transform="scale(0.9962640099626402)" xlink:href="#CMSY10-0"/>
       <use transform="translate(77.4874676506071 0.0)scale(0.9962640099626402)" xlink:href="#CMR17-49"/>
       <use transform="translate(123.17794476766814 0.0)scale(0.9962640099626402)" xlink:href="#CMR17-48"/>
       <use transform="translate(168.86842188472914 0.0)scale(0.9962640099626402)" xlink:href="#CMR17-48"/>
      </g>
     </g>
    </g>
    <g id="ytick_2">
     <g id="line2d_31">
      <path clip-path="url(#pe2421250bb)" d="M 72 269.775 
L 518.4 269.775 
" style="fill:none;stroke:#ffffff;stroke-linecap:round;"/>
     </g>
     <g id="line2d_32">
      <g>
       <use style="fill:#262626;stroke:#262626;" x="72.0" xlink:href="#m4158870ca2" y="269.775"/>
      </g>
     </g>
     <g id="line2d_33">
      <g>
       <use style="fill:#262626;stroke:#262626;" x="518.4" xlink:href="#m4158870ca2" y="269.775"/>
      </g>
     </g>
     <g id="text_12">
      <!-- $-50$ -->
      <g style="fill:#262626;" transform="translate(47.2885857721 272.265660025)scale(0.1 -0.1)">
       <use transform="scale(0.9962640099626402)" xlink:href="#CMSY10-0"/>
       <use transform="translate(77.4874676506071 0.0)scale(0.9962640099626402)" xlink:href="#CMR17-53"/>
       <use transform="translate(123.17794476766814 0.0)scale(0.9962640099626402)" xlink:href="#CMR17-48"/>
      </g>
     </g>
    </g>
    <g id="ytick_3">
     <g id="line2d_34">
      <path clip-path="url(#pe2421250bb)" d="M 72 193.05 
L 518.4 193.05 
" style="fill:none;stroke:#ffffff;stroke-linecap:round;"/>
     </g>
     <g id="line2d_35">
      <g>
       <use style="fill:#262626;stroke:#262626;" x="72.0" xlink:href="#m4158870ca2" y="193.05"/>
      </g>
     </g>
     <g id="line2d_36">
      <g>
       <use style="fill:#262626;stroke:#262626;" x="518.4" xlink:href="#m4158870ca2" y="193.05"/>
      </g>
     </g>
     <g id="text_13">
      <!-- $0$ -->
      <g style="fill:#262626;" transform="translate(60.0186647484 195.540660025)scale(0.1 -0.1)">
       <use transform="scale(0.9962640099626402)" xlink:href="#CMR17-48"/>
      </g>
     </g>
    </g>
    <g id="ytick_4">
     <g id="line2d_37">
      <path clip-path="url(#pe2421250bb)" d="M 72 116.325 
L 518.4 116.325 
" style="fill:none;stroke:#ffffff;stroke-linecap:round;"/>
     </g>
     <g id="line2d_38">
      <g>
       <use style="fill:#262626;stroke:#262626;" x="72.0" xlink:href="#m4158870ca2" y="116.325"/>
      </g>
     </g>
     <g id="line2d_39">
      <g>
       <use style="fill:#262626;stroke:#262626;" x="518.4" xlink:href="#m4158870ca2" y="116.325"/>
      </g>
     </g>
     <g id="text_14">
      <!-- $50$ -->
      <g style="fill:#262626;" transform="translate(55.0373294968 118.815660025)scale(0.1 -0.1)">
       <use transform="scale(0.9962640099626402)" xlink:href="#CMR17-53"/>
       <use transform="translate(45.69047711706103 0.0)scale(0.9962640099626402)" xlink:href="#CMR17-48"/>
      </g>
     </g>
    </g>
    <g id="ytick_5">
     <g id="line2d_40">
      <path clip-path="url(#pe2421250bb)" d="M 72 39.6 
L 518.4 39.6 
" style="fill:none;stroke:#ffffff;stroke-linecap:round;"/>
     </g>
     <g id="line2d_41">
      <g>
       <use style="fill:#262626;stroke:#262626;" x="72.0" xlink:href="#m4158870ca2" y="39.6"/>
      </g>
     </g>
     <g id="line2d_42">
      <g>
       <use style="fill:#262626;stroke:#262626;" x="518.4" xlink:href="#m4158870ca2" y="39.6"/>
      </g>
     </g>
     <g id="text_15">
      <!-- $100$ -->
      <g style="fill:#262626;" transform="translate(50.0559942452 42.0906600249)scale(0.1 -0.1)">
       <use transform="scale(0.9962640099626402)" xlink:href="#CMR17-49"/>
       <use transform="translate(45.69047711706103 0.0)scale(0.9962640099626402)" xlink:href="#CMR17-48"/>
       <use transform="translate(91.38095423412206 0.0)scale(0.9962640099626402)" xlink:href="#CMR17-48"/>
      </g>
     </g>
    </g>
    <g id="text_16">
     <!-- $A [mV]$ -->
     <defs>
      <path d="M 17 10.796875 
C 13.5 4.90625 10.09375 2.90625 5.296875 2.90625 
C 4.203125 2.90625 3.40625 2.90625 3.40625 1.046875 
C 3.40625 0.421875 3.90625 0 4.59375 0 
C 6.40625 0 10.90625 0 12.703125 0 
C 15.59375 0 18.796875 0 21.59375 0 
C 22.203125 0 23.40625 0 23.40625 1.90625 
C 23.40625 2.8125 22.59375 2.90625 22 2.90625 
C 19.703125 3.109375 17.796875 3.890625 17.796875 6.21875 
C 17.796875 7.59375 18.40625 8.671875 19.703125 10.828125 
L 27.296875 23.109375 
L 52.796875 23.109375 
C 52.90625 22.234375 52.90625 21.4375 53 20.546875 
C 53.296875 17.984375 54.5 7.734375 54.5 5.875 
C 54.5 2.90625 49.40625 2.90625 47.796875 2.90625 
C 46.703125 2.90625 45.59375 2.90625 45.59375 1.09375 
C 45.59375 0 46.5 0 47.09375 0 
C 48.796875 0 50.796875 0 52.5 0 
L 58.203125 0 
C 64.296875 0 68.703125 0 68.796875 0 
C 69.5 0 70.59375 0 70.59375 1.90625 
C 70.59375 2.90625 69.703125 2.90625 68.203125 2.90625 
C 62.703125 2.90625 62.59375 3.8125 62.296875 6.78125 
L 56.203125 68.8125 
C 56 70.796875 55.59375 71 54.5 71 
C 53.5 71 52.90625 70.796875 52 69.296875 
z
M 29 26 
L 49.09375 59.671875 
L 52.5 26 
z
" id="CMMI12-65"/>
      <path d="M 61.90625 56.71875 
C 65.296875 62.109375 68.40625 64.5 73.5 64.90625 
C 74.5 65 75.296875 65 75.296875 66.734375 
C 75.296875 67.125 75.09375 67.703125 74.203125 67.703125 
C 72.40625 67.703125 68.09375 67.703125 66.296875 67.703125 
C 63.40625 67.703125 60.40625 67.703125 57.59375 67.703125 
C 56.796875 67.703125 55.796875 67.703125 55.796875 65.9375 
C 55.796875 65.09375 56.703125 65 57.09375 65 
C 60.796875 64.703125 61.203125 62.90625 61.203125 61.703125 
C 61.203125 60.1875 59.796875 57.890625 59.703125 57.796875 
L 28.296875 7.984375 
L 21.296875 61.8125 
C 21.296875 65 26.5 65 27.59375 65 
C 29.09375 65 30 65 30 66.765625 
C 30 67.703125 28.90625 67.703125 28.59375 67.703125 
C 26.90625 67.703125 24.90625 67.703125 23.203125 67.703125 
L 17.59375 67.703125 
C 10.296875 67.703125 7.296875 67.703125 7.203125 67.703125 
C 6.59375 67.703125 5.40625 67.703125 5.40625 66.015625 
C 5.40625 65 6.09375 65 7.703125 65 
C 12.796875 65 13.09375 64.09375 13.40625 61.609375 
L 21.40625 -0.109375 
C 21.703125 -2.203125 21.703125 -2.5 23.09375 -2.5 
C 24.296875 -2.5 24.796875 -2.203125 25.796875 -0.609375 
z
" id="CMMI12-86"/>
      <path d="M 20.59375 29.234375 
C 20.796875 29.84375 23.296875 34.828125 27 38.015625 
C 29.59375 40.40625 33 42.015625 36.90625 42.015625 
C 40.90625 42.015625 42.296875 39.015625 42.296875 35.03125 
C 42.296875 34.421875 42.296875 32.4375 41.09375 27.734375 
L 38.59375 17.46875 
C 37.796875 14.46875 35.90625 7.078125 35.703125 5.984375 
C 35.296875 4.484375 34.703125 1.890625 34.703125 1.5 
C 34.703125 0.09375 35.796875 -1 37.296875 -1 
C 40.296875 -1 40.796875 1.296875 41.703125 4.890625 
L 47.703125 28.734375 
C 47.90625 29.53125 53.09375 42.015625 64.09375 42.015625 
C 68.09375 42.015625 69.5 39.015625 69.5 35.03125 
C 69.5 29.4375 65.59375 18.5625 63.40625 12.578125 
C 62.5 10.171875 62 8.875 62 7.078125 
C 62 2.59375 65.09375 -1 69.90625 -1 
C 79.203125 -1 82.703125 13.671875 82.703125 14.265625 
C 82.703125 14.765625 82.296875 15.171875 81.703125 15.171875 
C 80.796875 15.171875 80.703125 14.875 80.203125 13.171875 
C 77.90625 5.1875 74.203125 1 70.203125 1 
C 69.203125 1 67.59375 1 67.59375 4.203125 
C 67.59375 6.8125 68.796875 10 69.203125 11.09375 
C 71 15.90625 75.5 27.703125 75.5 33.515625 
C 75.5 39.5 72 44 64.40625 44 
C 57.703125 44 52.296875 40.21875 48.296875 34.328125 
C 48 39.71875 44.703125 44 37.203125 44 
C 28.296875 44 23.59375 37.734375 21.796875 35.234375 
C 21.5 40.90625 17.40625 44 13 44 
C 10.09375 44 7.796875 42.609375 5.90625 38.8125 
C 4.09375 35.21875 2.703125 29.140625 2.703125 28.734375 
C 2.703125 28.34375 3.09375 27.84375 3.796875 27.84375 
C 4.59375 27.84375 4.703125 27.9375 5.296875 30.234375 
C 6.796875 36.125 8.703125 42.015625 12.703125 42.015625 
C 15 42.015625 15.796875 40.40625 15.796875 37.421875 
C 15.796875 35.21875 14.796875 31.328125 14.09375 28.234375 
L 11.296875 17.46875 
C 10.90625 15.5625 9.796875 11.078125 9.296875 9.28125 
C 8.59375 6.6875 7.5 2 7.5 1.5 
C 7.5 0.09375 8.59375 -1 10.09375 -1 
C 11.296875 -1 12.703125 -0.40625 13.5 1.09375 
C 13.703125 1.59375 14.59375 5.09375 15.09375 7.078125 
L 17.296875 16.0625 
z
" id="CMMI12-109"/>
     </defs>
     <g style="fill:#262626;" transform="translate(34.5675244931 209.428772778)rotate(-90.0)scale(0.11 -0.11)">
      <use transform="scale(0.9962640099626402)" xlink:href="#CMMI12-65"/>
      <use transform="translate(73.12788529829547 0.0)scale(0.9962640099626402)" xlink:href="#CMR17-91"/>
      <use transform="translate(97.99894378016035 0.0)scale(0.9962640099626402)" xlink:href="#CMMI12-109"/>
      <use transform="translate(183.32616822657224 0.0)scale(0.9962640099626402)" xlink:href="#CMMI12-86"/>
      <use transform="translate(261.8734889428316 0.0)scale(0.9962640099626402)" xlink:href="#CMR17-93"/>
     </g>
    </g>
   </g>
   <g id="line2d_43">
    <path clip-path="url(#pe2421250bb)" d="M 71.67636 180.262505 
L 72.23436 181.285495 
L 72.79236 180.262505 
L 73.35036 181.285495 
L 73.90836 181.797005 
L 74.46636 180.262505 
L 75.02436 180.774 
L 75.58236 182.3085 
L 76.14036 180.774 
L 76.69836 180.774 
L 77.25636 181.797005 
L 77.81436 180.774 
L 78.37236 180.262505 
L 78.93036 181.797005 
L 79.48836 180.262505 
L 80.04636 181.797005 
L 80.60436 182.819995 
L 81.16236 181.285495 
L 81.72036 182.819995 
L 82.27836 183.331505 
L 82.83636 182.3085 
L 83.39436 182.819995 
L 84.51036 182.819995 
L 85.06836 183.843 
L 85.62636 183.331505 
L 86.18436 183.843 
L 86.74236 184.866005 
L 87.30036 184.354495 
L 87.85836 182.819995 
L 88.41636 185.3775 
L 88.97436 185.3775 
L 89.53236 184.866005 
L 90.09036 185.888995 
L 91.20636 184.866005 
L 91.76436 186.912 
L 92.32236 184.866005 
L 92.88036 185.888995 
L 93.43836 187.423495 
L 94.55436 186.400505 
L 95.11236 187.423495 
L 95.67036 186.400505 
L 96.22836 187.423495 
L 96.78636 187.935005 
L 97.34436 187.423495 
L 98.46036 189.469505 
L 99.01836 188.4465 
L 99.57636 189.469505 
L 100.13436 189.981 
L 100.69236 188.957995 
L 101.25036 189.981 
L 102.36636 189.981 
L 102.92436 190.492495 
L 103.48236 191.5155 
L 104.04036 189.981 
L 104.59836 192.026999 
L 105.15636 192.538501 
L 105.71436 191.5155 
L 106.27236 192.538501 
L 106.83036 192.026999 
L 107.38836 192.026999 
L 107.94636 193.05 
L 108.50436 192.026999 
L 109.06236 193.561499 
L 109.62036 195.607505 
L 110.17836 193.05 
L 111.29436 195.095995 
L 111.85236 194.5845 
L 112.41036 194.5845 
L 112.96836 195.607505 
L 113.52636 194.5845 
L 114.64236 195.607505 
L 115.20036 194.5845 
L 115.75836 195.095995 
L 116.31636 197.142005 
L 116.87436 195.095995 
L 117.43236 196.630495 
L 117.99036 197.142005 
L 118.54836 196.119 
L 119.10636 197.142005 
L 119.66436 196.119 
L 120.22236 196.119 
L 120.78036 198.164995 
L 121.33836 196.630495 
L 121.89636 196.119 
L 122.45436 198.164995 
L 123.01236 197.6535 
L 123.57036 198.164995 
L 124.12836 197.6535 
L 124.68636 198.164995 
L 125.24436 196.119 
L 125.80236 198.164995 
L 126.36036 196.630495 
L 126.91836 196.119 
L 127.47636 199.188 
L 128.03436 197.142005 
L 129.15036 198.164995 
L 129.70836 197.6535 
L 130.26636 198.164995 
L 130.82436 197.6535 
L 131.38236 196.630495 
L 131.94036 198.676505 
L 133.05636 196.630495 
L 133.61436 197.6535 
L 134.17236 198.164995 
L 134.73036 197.142005 
L 135.28836 196.630495 
L 135.84636 198.164995 
L 136.40436 196.630495 
L 137.52036 197.6535 
L 138.07836 195.095995 
L 138.63636 197.142005 
L 139.19436 197.142005 
L 139.75236 194.5845 
L 140.31036 197.142005 
L 140.86836 195.095995 
L 141.42636 195.607505 
L 141.98436 195.607505 
L 142.54236 194.073001 
L 143.10036 195.607505 
L 143.65836 195.607505 
L 144.21636 194.073001 
L 145.89036 194.073001 
L 146.44836 192.538501 
L 147.00636 194.073001 
L 147.56436 192.538501 
L 148.12236 191.5155 
L 148.68036 193.561499 
L 149.23836 191.004005 
L 149.79636 191.5155 
L 150.35436 193.05 
L 150.91236 189.981 
L 151.47036 191.5155 
L 152.02836 189.981 
L 152.58636 189.981 
L 153.14436 191.5155 
L 153.70236 189.469505 
L 154.26036 189.469505 
L 154.81836 190.492495 
L 155.37636 189.469505 
L 155.93436 188.957995 
L 157.05036 189.981 
L 157.60836 188.4465 
L 158.16636 187.935005 
L 158.72436 188.4465 
L 159.28236 185.888995 
L 159.84036 188.4465 
L 160.39836 186.400505 
L 160.95636 185.888995 
L 161.51436 188.4465 
L 162.07236 185.888995 
L 162.63036 186.400505 
L 163.18836 185.888995 
L 163.74636 184.354495 
L 164.30436 185.888995 
L 164.86236 184.866005 
L 165.42036 184.354495 
L 165.97836 184.866005 
L 167.09436 183.843 
L 167.65236 183.843 
L 168.21036 184.866005 
L 168.76836 183.843 
L 169.32636 182.3085 
L 169.88436 184.354495 
L 170.44236 182.3085 
L 171.00036 183.331505 
L 171.55836 183.331505 
L 172.11636 180.262505 
L 172.67436 183.331505 
L 173.23236 182.819995 
L 173.79036 181.285495 
L 174.34836 182.819995 
L 174.90636 181.285495 
L 175.46436 181.797005 
L 176.02236 181.285495 
L 176.58036 180.262505 
L 177.69636 182.3085 
L 178.81236 180.262505 
L 179.37036 181.797005 
L 179.92836 182.3085 
L 180.48636 180.774 
L 181.04436 182.3085 
L 182.16036 180.262505 
L 182.71836 182.3085 
L 183.27636 179.2395 
L 183.83436 181.797005 
L 184.39236 181.797005 
L 184.95036 180.262505 
L 185.50836 181.285495 
L 186.06636 180.262505 
L 186.62436 180.262505 
L 187.18236 181.797005 
L 187.74036 180.262505 
L 188.85636 181.285495 
L 189.97236 180.262505 
L 190.53036 181.285495 
L 191.08836 182.819995 
L 191.64636 180.774 
L 192.20436 182.3085 
L 192.76236 182.819995 
L 193.32036 182.3085 
L 193.87836 183.331505 
L 194.43636 182.3085 
L 194.99436 181.797005 
L 195.55236 184.866005 
L 196.11036 182.819995 
L 196.66836 183.331505 
L 198.34236 183.331505 
L 198.90036 184.354495 
L 199.45836 183.331505 
L 200.01636 184.354495 
L 200.57436 185.888995 
L 201.13236 184.354495 
L 202.24836 186.400505 
L 202.80636 185.3775 
L 203.36436 184.866005 
L 203.92236 186.400505 
L 204.48036 184.866005 
L 205.03836 186.400505 
L 205.59636 186.400505 
L 206.15436 184.354495 
L 206.71236 187.935005 
L 207.27036 187.935005 
L 207.82836 187.423495 
L 208.38636 188.4465 
L 208.94436 187.423495 
L 209.50236 188.4465 
L 211.17636 188.4465 
L 211.73436 190.492495 
L 212.29236 188.957995 
L 212.85036 188.957995 
L 213.40836 191.5155 
L 214.52436 189.469505 
L 215.08236 191.004005 
L 215.64036 189.981 
L 216.19836 191.004005 
L 216.75636 193.05 
L 217.31436 191.004005 
L 218.43036 194.073001 
L 218.98836 192.538501 
L 219.54636 193.561499 
L 220.10436 193.561499 
L 220.66236 193.05 
L 221.22036 194.5845 
L 222.33636 193.561499 
L 222.89436 195.095995 
L 223.45236 194.5845 
L 224.01036 193.05 
L 224.56836 196.119 
L 225.12636 195.607505 
L 226.24236 195.607505 
L 226.80036 196.119 
L 227.35836 195.607505 
L 227.91636 196.630495 
L 229.03236 194.5845 
L 229.59036 197.142005 
L 230.14836 196.630495 
L 230.70636 196.630495 
L 231.26436 197.6535 
L 231.82236 196.630495 
L 232.38036 197.6535 
L 232.93836 197.6535 
L 233.49636 197.142005 
L 234.61236 199.188 
L 235.17036 197.6535 
L 236.28636 198.676505 
L 236.84436 198.164995 
L 237.40236 197.142005 
L 237.96036 198.164995 
L 238.51836 197.142005 
L 239.63436 198.164995 
L 240.19236 196.119 
L 240.75036 197.142005 
L 241.30836 197.6535 
L 241.86636 196.119 
L 242.42436 197.6535 
L 242.98236 197.142005 
L 243.54036 197.6535 
L 244.09836 198.676505 
L 244.65636 196.630495 
L 245.21436 197.142005 
L 245.77236 198.164995 
L 246.33036 196.630495 
L 246.88836 196.630495 
L 247.44636 197.6535 
L 248.00436 197.142005 
L 248.56236 196.119 
L 249.67836 196.119 
L 250.23636 194.5845 
L 250.79436 196.119 
L 251.35236 194.5845 
L 251.91036 195.095995 
L 252.46836 196.119 
L 253.02636 194.073001 
L 253.58436 195.095995 
L 254.14236 195.095995 
L 254.70036 193.561499 
L 255.25836 195.095995 
L 255.81636 193.561499 
L 256.37436 192.538501 
L 256.93236 194.5845 
L 257.49036 193.05 
L 258.04836 192.538501 
L 258.60636 193.561499 
L 259.16436 193.561499 
L 259.72236 192.538501 
L 260.83836 192.538501 
L 261.39636 191.5155 
L 261.95436 192.538501 
L 262.51236 191.004005 
L 263.07036 189.981 
L 263.62836 191.5155 
L 264.74436 189.469505 
L 265.30236 191.004005 
L 265.86036 188.4465 
L 266.41836 190.492495 
L 267.53436 188.4465 
L 268.09236 189.469505 
L 268.65036 189.469505 
L 269.20836 188.4465 
L 269.76636 188.4465 
L 270.32436 188.957995 
L 270.88236 188.4465 
L 271.44036 186.912 
L 271.99836 188.4465 
L 272.55636 186.400505 
L 273.11436 185.888995 
L 273.67236 187.423495 
L 274.23036 184.354495 
L 274.78836 186.400505 
L 275.34636 185.888995 
L 275.90436 183.843 
L 276.46236 184.866005 
L 277.57836 183.843 
L 278.13636 184.866005 
L 278.69436 182.819995 
L 279.25236 183.843 
L 279.81036 184.354495 
L 280.36836 183.843 
L 280.92636 182.819995 
L 281.48436 183.843 
L 282.04236 183.331505 
L 282.60036 182.3085 
L 283.15836 182.819995 
L 283.71636 182.3085 
L 284.27436 181.285495 
L 284.83236 183.843 
L 285.39036 181.797005 
L 285.94836 182.3085 
L 286.50636 184.866005 
L 287.06436 182.819995 
L 287.62236 183.843 
L 288.18036 183.843 
L 288.73836 182.3085 
L 289.29636 183.843 
L 289.85436 181.797005 
L 290.41236 181.285495 
L 290.97036 181.797005 
L 291.52836 181.285495 
L 292.08636 180.262505 
L 292.64436 180.262505 
L 293.20236 181.285495 
L 293.76036 179.2395 
L 294.31836 179.2395 
L 294.87636 179.750995 
L 295.43436 177.705 
L 295.99236 180.262505 
L 296.55036 179.2395 
L 297.10836 178.728005 
L 297.66636 181.797005 
L 298.22436 180.262505 
L 298.78236 180.774 
L 299.34036 181.797005 
L 299.89836 180.262505 
L 300.45636 181.797005 
L 301.01436 181.285495 
L 301.57236 180.262505 
L 302.13036 182.3085 
L 302.68836 182.3085 
L 303.24636 181.797005 
L 303.80436 182.3085 
L 304.36236 183.331505 
L 304.92036 182.3085 
L 305.47836 181.797005 
L 306.03636 183.843 
L 306.59436 181.797005 
L 307.15236 183.331505 
L 307.71036 183.331505 
L 308.26836 181.797005 
L 308.82636 183.331505 
L 309.38436 183.331505 
L 309.94236 181.797005 
L 310.50036 183.331505 
L 311.05836 182.819995 
L 311.61636 183.843 
L 313.29036 183.843 
L 313.84836 185.3775 
L 314.40636 185.3775 
L 314.96436 184.866005 
L 315.52236 187.423495 
L 316.08036 186.400505 
L 316.63836 186.400505 
L 317.19636 187.935005 
L 317.75436 187.935005 
L 318.31236 187.423495 
L 318.87036 188.957995 
L 319.42836 186.912 
L 319.98636 187.935005 
L 320.54436 189.469505 
L 321.10236 187.935005 
L 321.66036 189.469505 
L 322.21836 188.957995 
L 322.77636 188.957995 
L 323.33436 189.469505 
L 323.89236 188.957995 
L 324.45036 188.957995 
L 325.00836 190.492495 
L 325.56636 189.981 
L 326.12436 188.957995 
L 326.68236 190.492495 
L 327.24036 191.5155 
L 327.79836 190.492495 
L 328.35636 191.5155 
L 328.91436 191.5155 
L 329.47236 190.492495 
L 330.03036 192.538501 
L 330.58836 191.5155 
L 331.14636 191.004005 
L 331.70436 193.05 
L 332.26236 192.538501 
L 332.82036 192.538501 
L 333.37836 194.073001 
L 333.93636 193.05 
L 334.49436 194.073001 
L 335.05236 194.5845 
L 335.61036 194.073001 
L 336.16836 195.607505 
L 336.72636 196.119 
L 337.28436 195.095995 
L 337.84236 195.607505 
L 338.40036 197.142005 
L 338.95836 196.119 
L 339.51636 196.119 
L 340.07436 196.630495 
L 340.63236 196.119 
L 341.74836 197.142005 
L 342.30636 196.119 
L 342.86436 197.142005 
L 343.42236 197.142005 
L 343.98036 196.119 
L 344.53836 197.142005 
L 345.09636 196.630495 
L 346.21236 197.6535 
L 346.77036 197.142005 
L 347.32836 197.6535 
L 347.88636 199.188 
L 348.44436 197.6535 
L 349.00236 197.142005 
L 350.11836 198.164995 
L 350.67636 196.630495 
L 351.23436 197.6535 
L 351.79236 197.142005 
L 352.35036 197.142005 
L 352.90836 199.188 
L 353.46636 197.142005 
L 354.02436 197.6535 
L 354.58236 199.188 
L 355.14036 197.6535 
L 355.69836 197.142005 
L 356.25636 198.164995 
L 356.81436 197.142005 
L 357.37236 197.6535 
L 357.93036 197.142005 
L 358.48836 196.119 
L 359.04636 197.142005 
L 359.60436 196.630495 
L 360.16236 195.607505 
L 360.72036 197.142005 
L 361.27836 197.142005 
L 361.83636 196.119 
L 362.95236 196.119 
L 363.51036 195.095995 
L 364.06836 196.119 
L 364.62636 195.607505 
L 365.18436 194.073001 
L 365.74236 196.119 
L 366.30036 196.119 
L 366.85836 194.5845 
L 367.41636 195.095995 
L 367.97436 193.561499 
L 369.09036 193.561499 
L 369.64836 192.538501 
L 370.76436 193.561499 
L 371.32236 191.5155 
L 371.88036 192.538501 
L 372.43836 193.05 
L 372.99636 192.538501 
L 373.55436 191.004005 
L 374.11236 192.538501 
L 374.67036 191.004005 
L 375.22836 191.5155 
L 375.78636 192.538501 
L 376.34436 189.981 
L 376.90236 191.004005 
L 377.46036 191.5155 
L 378.01836 189.469505 
L 378.57636 189.981 
L 379.69236 188.957995 
L 380.25036 189.981 
L 380.80836 187.423495 
L 381.36636 188.4465 
L 381.92436 188.957995 
L 382.48236 187.423495 
L 383.04036 186.400505 
L 383.59836 187.423495 
L 384.71436 186.400505 
L 385.27236 186.912 
L 385.83036 186.400505 
L 386.38836 184.354495 
L 386.94636 186.400505 
L 387.50436 184.354495 
L 388.06236 182.819995 
L 388.62036 185.888995 
L 389.17836 182.819995 
L 389.73636 183.843 
L 390.29436 184.354495 
L 390.85236 183.331505 
L 391.41036 184.354495 
L 392.52636 182.3085 
L 393.08436 183.843 
L 394.20036 181.797005 
L 394.75836 182.819995 
L 395.31636 183.331505 
L 395.87436 182.3085 
L 396.43236 181.797005 
L 396.99036 182.819995 
L 397.54836 180.774 
L 398.10636 182.819995 
L 398.66436 181.797005 
L 399.22236 179.750995 
L 399.78036 182.3085 
L 400.89636 180.262505 
L 401.45436 181.797005 
L 402.01236 180.262505 
L 402.57036 181.285495 
L 403.12836 181.797005 
L 403.68636 180.262505 
L 404.24436 181.797005 
L 404.80236 182.3085 
L 405.36036 181.285495 
L 405.91836 181.285495 
L 406.47636 181.797005 
L 407.03436 181.285495 
L 407.59236 180.262505 
L 408.15036 181.285495 
L 408.70836 180.262505 
L 409.26636 180.262505 
L 409.82436 181.797005 
L 410.38236 179.2395 
L 410.94036 181.285495 
L 411.49836 182.3085 
L 412.05636 181.285495 
L 412.61436 181.797005 
L 413.17236 181.797005 
L 413.73036 180.774 
L 414.28836 182.3085 
L 414.84636 180.774 
L 415.40436 181.797005 
L 415.96236 182.3085 
L 416.52036 181.797005 
L 417.07836 181.797005 
L 417.63636 182.819995 
L 418.19436 182.819995 
L 418.75236 182.3085 
L 419.86836 183.331505 
L 420.42636 181.797005 
L 420.98436 184.354495 
L 421.54236 181.797005 
L 422.10036 182.3085 
L 422.65836 184.866005 
L 423.21636 183.331505 
L 423.77436 184.354495 
L 424.89036 184.354495 
L 425.44836 184.866005 
L 426.00636 184.866005 
L 426.56436 184.354495 
L 427.12236 186.400505 
L 428.79636 186.400505 
L 429.35436 188.957995 
L 429.91236 186.400505 
L 431.02836 188.4465 
L 431.58636 186.912 
L 432.14436 188.957995 
L 432.70236 188.957995 
L 433.26036 187.423495 
L 433.81836 190.492495 
L 434.37636 189.469505 
L 434.93436 188.957995 
L 435.49236 189.981 
L 436.05036 188.4465 
L 436.60836 190.492495 
L 437.16636 189.981 
L 437.72436 189.981 
L 438.28236 190.492495 
L 438.84036 192.026999 
L 439.39836 190.492495 
L 439.95636 191.004005 
L 440.51436 192.026999 
L 441.07236 192.026999 
L 441.63036 191.5155 
L 442.18836 193.05 
L 442.74636 192.026999 
L 443.30436 192.538501 
L 443.86236 194.5845 
L 444.42036 191.5155 
L 444.97836 194.5845 
L 445.53636 194.5845 
L 446.09436 194.073001 
L 446.65236 195.095995 
L 447.76836 195.095995 
L 448.32636 196.119 
L 448.88436 195.095995 
L 449.44236 195.607505 
L 450.00036 197.142005 
L 450.55836 196.119 
L 451.11636 196.119 
L 452.23236 198.164995 
L 452.79036 196.119 
L 453.34836 198.164995 
L 453.90636 197.142005 
L 454.46436 196.630495 
L 455.02236 198.164995 
L 455.58036 196.630495 
L 456.13836 196.630495 
L 456.69636 198.164995 
L 457.25436 196.630495 
L 457.81236 197.6535 
L 458.37036 198.164995 
L 458.92836 197.6535 
L 460.04436 197.6535 
L 460.60236 197.142005 
L 461.16036 197.6535 
L 461.71836 198.676505 
L 462.27636 196.630495 
L 462.83436 197.6535 
L 463.39236 199.188 
L 463.95036 197.6535 
L 464.50836 197.6535 
L 465.06636 198.676505 
L 465.62436 197.6535 
L 466.18236 198.676505 
L 467.29836 196.630495 
L 467.85636 198.676505 
L 468.97236 196.630495 
L 469.53036 197.6535 
L 470.08836 196.630495 
L 471.20436 197.6535 
L 471.76236 196.119 
L 472.87836 198.164995 
L 473.43636 196.119 
L 473.99436 195.095995 
L 474.55236 196.119 
L 475.11036 195.607505 
L 475.66836 195.607505 
L 476.22636 196.119 
L 477.34236 195.095995 
L 477.90036 195.607505 
L 478.45836 194.073001 
L 479.57436 195.095995 
L 480.13236 194.073001 
L 481.24836 194.073001 
L 481.80636 192.538501 
L 482.36436 193.561499 
L 482.92236 192.026999 
L 483.48036 191.5155 
L 484.03836 193.05 
L 484.59636 191.5155 
L 485.15436 190.492495 
L 485.71236 192.026999 
L 486.27036 191.5155 
L 486.82836 190.492495 
L 487.38636 191.004005 
L 487.94436 190.492495 
L 488.50236 188.4465 
L 489.06036 189.981 
L 490.17636 187.935005 
L 490.73436 189.981 
L 491.29236 188.4465 
L 491.85036 187.935005 
L 492.40836 188.957995 
L 492.96636 187.935005 
L 494.08236 187.935005 
L 494.64036 186.400505 
L 495.19836 187.935005 
L 496.31436 185.888995 
L 496.87236 186.912 
L 497.43036 187.423495 
L 498.54636 185.3775 
L 499.10436 186.400505 
L 499.66236 184.866005 
L 500.77836 185.888995 
L 501.33636 183.843 
L 501.89436 185.3775 
L 502.45236 184.866005 
L 503.01036 182.819995 
L 503.56836 184.866005 
L 504.12636 182.819995 
L 504.68436 183.843 
L 505.24236 183.331505 
L 505.80036 182.3085 
L 506.35836 182.819995 
L 506.91636 183.843 
L 507.47436 182.3085 
L 508.03236 182.3085 
L 508.59036 183.331505 
L 509.14836 182.3085 
L 509.70636 181.797005 
L 510.26436 182.3085 
L 510.82236 182.3085 
L 511.38036 180.774 
L 511.93836 183.331505 
L 512.49636 180.262505 
L 513.61236 182.3085 
L 514.17036 180.774 
L 514.72836 181.797005 
L 515.28636 181.285495 
L 515.84436 180.262505 
L 516.40236 181.285495 
L 516.96036 180.262505 
L 517.51836 179.750995 
L 518.07636 182.3085 
L 518.63436 180.774 
L 518.63436 180.774 
" style="fill:none;stroke:#4c72b0;stroke-linecap:round;stroke-width:1.75;"/>
   </g>
   <g id="line2d_44">
    <path clip-path="url(#pe2421250bb)" d="M 71.721 147.015 
L 72.279 157.245051 
L 72.837 136.784949 
L 73.395 136.784949 
L 73.953 116.325 
L 74.511 126.555051 
L 75.069 116.325 
L 80.091 116.325 
L 80.649 106.094949 
L 81.765 106.094949 
L 82.323 85.635 
L 83.997 85.635 
L 85.113 65.175051 
L 85.671 75.404949 
L 86.229 65.175051 
L 88.461 65.175051 
L 89.019 75.404949 
L 89.577 65.175051 
L 90.135 85.635 
L 90.693 65.175051 
L 91.251 85.635 
L 91.809 65.175051 
L 92.367 75.404949 
L 92.925 65.175051 
L 93.483 65.175051 
L 94.041 54.945 
L 94.599 65.175051 
L 95.157 54.945 
L 95.715 65.175051 
L 96.273 54.945 
L 96.831 65.175051 
L 97.389 54.945 
L 99.063 54.945 
L 100.179 75.404949 
L 100.737 65.175051 
L 101.295 85.635 
L 101.853 75.404949 
L 102.411 85.635 
L 102.969 85.635 
L 103.527 75.404949 
L 104.085 85.635 
L 104.643 75.404949 
L 105.201 75.404949 
L 105.759 85.635 
L 106.317 75.404949 
L 106.875 85.635 
L 109.107 85.635 
L 109.665 95.865051 
L 110.223 95.865051 
L 110.781 106.094949 
L 111.339 126.555051 
L 111.897 116.325 
L 112.455 126.555051 
L 114.687 126.555051 
L 115.803 147.015 
L 116.361 136.784949 
L 116.919 147.015 
L 117.477 136.784949 
L 118.035 157.245051 
L 118.593 147.015 
L 119.151 157.245051 
L 119.709 147.015 
L 120.267 157.245051 
L 121.941 157.245051 
L 122.499 187.935005 
L 123.057 177.705 
L 123.615 198.164995 
L 124.173 208.395 
L 124.731 198.164995 
L 125.289 208.395 
L 125.847 198.164995 
L 126.963 218.625051 
L 127.521 208.395 
L 128.079 218.625051 
L 128.637 208.395 
L 129.195 218.625051 
L 130.869 218.625051 
L 131.427 228.854949 
L 131.985 228.854949 
L 132.543 239.085 
L 133.101 228.854949 
L 133.659 259.544949 
L 134.775 259.544949 
L 135.333 269.775 
L 137.565 269.775 
L 138.123 280.005051 
L 138.681 269.775 
L 139.239 280.005051 
L 139.797 269.775 
L 140.355 280.005051 
L 140.913 269.775 
L 143.145 269.775 
L 143.703 280.005051 
L 144.261 269.775 
L 144.819 280.005051 
L 145.377 300.465 
L 145.935 290.234949 
L 147.051 310.695051 
L 147.609 300.465 
L 148.167 310.695051 
L 148.725 300.465 
L 149.283 310.695051 
L 149.841 300.465 
L 152.073 300.465 
L 152.631 290.234949 
L 153.747 290.234949 
L 154.305 280.005051 
L 154.863 290.234949 
L 155.421 280.005051 
L 156.537 300.465 
L 159.327 300.465 
L 159.885 290.234949 
L 161.001 290.234949 
L 161.559 280.005051 
L 163.233 280.005051 
L 163.791 269.775 
L 164.349 269.775 
L 164.907 259.544949 
L 166.581 259.544949 
L 167.139 249.315051 
L 167.697 259.544949 
L 168.255 249.315051 
L 168.813 259.544949 
L 169.371 249.315051 
L 169.929 259.544949 
L 170.487 249.315051 
L 171.045 249.315051 
L 172.719 218.625051 
L 173.277 218.625051 
L 173.835 208.395 
L 174.951 208.395 
L 175.509 198.164995 
L 176.067 198.164995 
L 176.625 187.935005 
L 177.183 187.935005 
L 177.741 177.705 
L 178.299 187.935005 
L 178.857 177.705 
L 179.415 187.935005 
L 179.973 177.705 
L 180.531 187.935005 
L 181.089 167.474949 
L 181.647 177.705 
L 183.321 147.015 
L 183.879 157.245051 
L 184.437 136.784949 
L 184.995 147.015 
L 185.553 136.784949 
L 186.111 136.784949 
L 186.669 116.325 
L 187.227 126.555051 
L 187.785 116.325 
L 189.459 116.325 
L 190.017 106.094949 
L 190.575 116.325 
L 192.807 116.325 
L 193.365 106.094949 
L 193.923 106.094949 
L 194.481 95.865051 
L 195.039 106.094949 
L 195.597 75.404949 
L 196.155 85.635 
L 196.713 75.404949 
L 197.271 75.404949 
L 197.829 65.175051 
L 198.387 65.175051 
L 198.945 54.945 
L 199.503 65.175051 
L 200.061 54.945 
L 200.619 65.175051 
L 201.177 54.945 
L 201.735 65.175051 
L 203.409 65.175051 
L 203.967 75.404949 
L 204.525 65.175051 
L 205.083 75.404949 
L 205.641 65.175051 
L 206.199 75.404949 
L 206.757 65.175051 
L 209.547 65.175051 
L 210.105 54.945 
L 210.663 65.175051 
L 212.337 65.175051 
L 213.453 85.635 
L 214.569 85.635 
L 215.127 95.865051 
L 215.685 85.635 
L 216.243 95.865051 
L 216.801 85.635 
L 217.359 95.865051 
L 219.033 95.865051 
L 219.591 106.094949 
L 220.149 95.865051 
L 220.707 106.094949 
L 221.265 95.865051 
L 222.381 95.865051 
L 222.939 106.094949 
L 223.497 95.865051 
L 224.055 106.094949 
L 224.613 126.555051 
L 225.171 136.784949 
L 225.729 136.784949 
L 226.287 147.015 
L 226.845 136.784949 
L 227.403 147.015 
L 227.961 136.784949 
L 229.077 157.245051 
L 229.635 147.015 
L 230.193 147.015 
L 230.751 157.245051 
L 231.309 157.245051 
L 231.867 167.474949 
L 232.425 157.245051 
L 232.983 167.474949 
L 233.541 167.474949 
L 234.099 177.705 
L 234.657 167.474949 
L 236.331 198.164995 
L 236.889 198.164995 
L 237.447 218.625051 
L 239.679 218.625051 
L 240.237 228.854949 
L 240.795 228.854949 
L 241.353 218.625051 
L 241.911 228.854949 
L 242.469 228.854949 
L 243.027 239.085 
L 243.585 228.854949 
L 244.143 239.085 
L 244.701 228.854949 
L 245.259 239.085 
L 246.375 239.085 
L 247.491 280.005051 
L 248.049 269.775 
L 249.165 290.234949 
L 249.723 280.005051 
L 250.281 290.234949 
L 250.839 280.005051 
L 258.093 280.005051 
L 258.651 290.234949 
L 260.325 290.234949 
L 260.883 300.465 
L 261.441 300.465 
L 261.999 290.234949 
L 262.557 290.234949 
L 263.115 300.465 
L 263.673 290.234949 
L 264.231 300.465 
L 264.789 290.234949 
L 265.347 300.465 
L 265.905 290.234949 
L 266.463 300.465 
L 267.021 290.234949 
L 267.579 300.465 
L 268.137 290.234949 
L 268.695 290.234949 
L 269.253 280.005051 
L 269.811 290.234949 
L 270.369 290.234949 
L 270.927 280.005051 
L 271.485 290.234949 
L 272.043 280.005051 
L 273.159 280.005051 
L 273.717 259.544949 
L 274.275 280.005051 
L 274.833 259.544949 
L 276.507 259.544949 
L 278.181 228.854949 
L 278.739 239.085 
L 279.297 228.854949 
L 279.855 239.085 
L 280.413 228.854949 
L 281.529 249.315051 
L 282.087 239.085 
L 283.203 259.544949 
L 283.761 249.315051 
L 284.319 259.544949 
L 284.877 239.085 
L 285.993 239.085 
L 286.551 218.625051 
L 287.109 208.395 
L 287.667 208.395 
L 288.225 187.935005 
L 288.783 187.935005 
L 289.341 157.245051 
L 289.899 167.474949 
L 290.457 157.245051 
L 291.015 157.245051 
L 291.573 136.784949 
L 292.131 157.245051 
L 292.689 136.784949 
L 293.247 157.245051 
L 293.805 136.784949 
L 294.363 157.245051 
L 294.921 157.245051 
L 295.479 167.474949 
L 296.037 157.245051 
L 297.711 157.245051 
L 298.269 147.015 
L 298.827 157.245051 
L 299.385 136.784949 
L 299.943 147.015 
L 300.501 126.555051 
L 301.059 136.784949 
L 301.617 126.555051 
L 302.175 126.555051 
L 302.733 116.325 
L 306.081 116.325 
L 306.639 106.094949 
L 307.197 85.635 
L 308.313 65.175051 
L 308.871 75.404949 
L 309.429 54.945 
L 309.987 65.175051 
L 310.545 54.945 
L 311.103 65.175051 
L 311.661 54.945 
L 312.219 65.175051 
L 312.777 54.945 
L 313.335 65.175051 
L 313.893 65.175051 
L 315.009 85.635 
L 315.567 106.094949 
L 316.125 95.865051 
L 316.683 106.094949 
L 317.799 106.094949 
L 318.357 95.865051 
L 318.915 95.865051 
L 319.473 75.404949 
L 320.031 95.865051 
L 320.589 65.175051 
L 321.147 75.404949 
L 321.705 65.175051 
L 322.821 65.175051 
L 323.379 54.945 
L 323.937 54.945 
L 324.495 65.175051 
L 325.053 54.945 
L 325.611 65.175051 
L 326.169 54.945 
L 327.285 75.404949 
L 329.517 75.404949 
L 330.075 85.635 
L 330.633 75.404949 
L 331.191 95.865051 
L 331.749 95.865051 
L 332.307 106.094949 
L 332.865 106.094949 
L 333.423 116.325 
L 333.981 116.325 
L 334.539 126.555051 
L 335.097 116.325 
L 335.655 136.784949 
L 336.213 126.555051 
L 336.771 136.784949 
L 337.329 126.555051 
L 337.887 147.015 
L 339.561 147.015 
L 340.119 167.474949 
L 340.677 147.015 
L 341.235 167.474949 
L 341.793 157.245051 
L 342.351 177.705 
L 342.909 167.474949 
L 344.025 167.474949 
L 344.583 177.705 
L 345.141 167.474949 
L 347.373 167.474949 
L 347.931 177.705 
L 348.489 177.705 
L 349.047 187.935005 
L 349.605 208.395 
L 350.163 208.395 
L 350.721 218.625051 
L 351.279 239.085 
L 351.837 228.854949 
L 352.395 249.315051 
L 352.953 239.085 
L 353.511 259.544949 
L 355.185 259.544949 
L 355.743 269.775 
L 356.301 259.544949 
L 356.859 269.775 
L 357.417 259.544949 
L 357.975 269.775 
L 358.533 259.544949 
L 359.091 269.775 
L 359.649 259.544949 
L 360.207 269.775 
L 360.765 269.775 
L 361.323 280.005051 
L 361.881 269.775 
L 362.439 280.005051 
L 364.113 280.005051 
L 364.671 269.775 
L 365.229 280.005051 
L 365.787 269.775 
L 366.903 269.775 
L 367.461 280.005051 
L 369.135 280.005051 
L 370.251 300.465 
L 371.367 300.465 
L 371.925 320.924949 
L 372.483 331.155 
L 373.041 320.924949 
L 373.599 331.155 
L 374.715 331.155 
L 375.831 310.695051 
L 376.389 320.924949 
L 377.505 300.465 
L 378.063 300.465 
L 378.621 280.005051 
L 379.737 280.005051 
L 380.295 269.775 
L 380.853 280.005051 
L 381.411 269.775 
L 383.085 269.775 
L 383.643 280.005051 
L 384.201 269.775 
L 384.759 280.005051 
L 386.433 280.005051 
L 386.991 269.775 
L 388.107 269.775 
L 388.665 259.544949 
L 389.223 269.775 
L 390.897 269.775 
L 391.455 259.544949 
L 393.129 259.544949 
L 394.245 239.085 
L 394.803 249.315051 
L 395.361 239.085 
L 395.919 239.085 
L 396.477 228.854949 
L 397.035 228.854949 
L 398.709 198.164995 
L 399.267 208.395 
L 399.825 187.935005 
L 400.383 187.935005 
L 400.941 177.705 
L 401.499 187.935005 
L 402.057 167.474949 
L 403.173 147.015 
L 403.731 157.245051 
L 404.289 147.015 
L 404.847 157.245051 
L 405.405 136.784949 
L 405.963 157.245051 
L 406.521 147.015 
L 407.079 157.245051 
L 409.311 157.245051 
L 409.869 136.784949 
L 410.427 157.245051 
L 410.985 136.784949 
L 411.543 136.784949 
L 412.101 126.555051 
L 412.659 136.784949 
L 413.217 116.325 
L 413.775 116.325 
L 414.333 106.094949 
L 414.891 106.094949 
L 415.449 85.635 
L 416.007 95.865051 
L 416.565 65.175051 
L 417.123 85.635 
L 417.681 75.404949 
L 420.471 75.404949 
L 421.029 65.175051 
L 421.587 75.404949 
L 422.145 65.175051 
L 422.703 75.404949 
L 423.261 65.175051 
L 423.819 75.404949 
L 424.377 65.175051 
L 426.609 65.175051 
L 427.167 75.404949 
L 427.725 65.175051 
L 428.841 85.635 
L 429.957 85.635 
L 430.515 95.865051 
L 431.073 85.635 
L 431.631 95.865051 
L 432.189 75.404949 
L 432.747 85.635 
L 433.305 75.404949 
L 433.863 75.404949 
L 434.421 65.175051 
L 436.095 65.175051 
L 436.653 54.945 
L 437.769 54.945 
L 438.327 65.175051 
L 438.885 54.945 
L 439.443 65.175051 
L 440.001 65.175051 
L 440.559 85.635 
L 441.117 85.635 
L 442.233 106.094949 
L 444.465 106.094949 
L 445.023 126.555051 
L 445.581 106.094949 
L 446.139 126.555051 
L 446.697 116.325 
L 447.255 126.555051 
L 447.813 116.325 
L 448.371 126.555051 
L 450.603 126.555051 
L 451.719 147.015 
L 452.277 136.784949 
L 452.835 157.245051 
L 453.393 157.245051 
L 453.951 167.474949 
L 454.509 157.245051 
L 455.067 167.474949 
L 455.625 157.245051 
L 456.183 167.474949 
L 456.741 157.245051 
L 457.299 167.474949 
L 457.857 167.474949 
L 458.973 187.935005 
L 460.089 187.935005 
L 460.647 198.164995 
L 461.205 198.164995 
L 461.763 208.395 
L 462.321 208.395 
L 462.879 228.854949 
L 463.437 228.854949 
L 465.111 259.544949 
L 471.249 259.544949 
L 471.807 269.775 
L 472.365 259.544949 
L 472.923 269.775 
L 473.481 259.544949 
L 474.597 280.005051 
L 475.155 269.775 
L 476.271 290.234949 
L 476.829 280.005051 
L 477.387 300.465 
L 477.945 280.005051 
L 478.503 300.465 
L 479.061 290.234949 
L 480.177 290.234949 
L 480.735 300.465 
L 485.199 300.465 
L 485.757 320.924949 
L 486.315 300.465 
L 486.873 310.695051 
L 488.547 310.695051 
L 489.105 300.465 
L 490.221 300.465 
L 490.779 290.234949 
L 491.895 290.234949 
L 492.453 280.005051 
L 493.569 280.005051 
L 494.127 269.775 
L 496.359 269.775 
L 496.917 280.005051 
L 500.265 280.005051 
L 500.823 269.775 
L 501.381 269.775 
L 501.939 259.544949 
L 503.055 259.544949 
L 503.613 249.315051 
L 504.171 249.315051 
L 504.729 228.854949 
L 505.845 228.854949 
L 506.403 218.625051 
L 506.961 218.625051 
L 507.519 208.395 
L 510.309 208.395 
L 510.867 198.164995 
L 511.425 198.164995 
L 511.983 187.935005 
L 513.099 187.935005 
L 513.657 167.474949 
L 514.215 177.705 
L 514.773 167.474949 
L 515.889 167.474949 
L 516.447 157.245051 
L 517.005 157.245051 
L 517.563 147.015 
L 518.121 147.015 
L 518.679 136.784949 
L 518.679 136.784949 
" style="fill:none;stroke:#55a868;stroke-linecap:round;stroke-width:1.75;"/>
   </g>
   <g id="patch_3">
    <path d="M 72 39.6 
L 518.4 39.6 
" style="fill:none;"/>
   </g>
   <g id="patch_4">
    <path d="M 72 346.5 
L 518.4 346.5 
" style="fill:none;"/>
   </g>
   <g id="patch_5">
    <path d="M 72 346.5 
L 72 39.6 
" style="fill:none;"/>
   </g>
   <g id="patch_6">
    <path d="M 518.4 346.5 
L 518.4 39.6 
" style="fill:none;"/>
   </g>
   <g id="legend_1">
    <g id="line2d_45">
     <path d="M 451.429032 52.1 
L 471.429032 52.1 
" style="fill:none;stroke:#4c72b0;stroke-linecap:round;stroke-width:1.75;"/>
    </g>
    <g id="line2d_46"/>
    <g id="text_17">
     <!-- Input -->
     <defs>
      <path d="M 40.90625 29.328125 
C 40.90625 35.671875 39.40625 44 28.09375 44 
C 21.703125 44 17.5 40.71875 14.703125 37.328125 
L 14.703125 43.09375 
L 7.40625 43.09375 
L 7.40625 0 
L 15 0 
L 15 24.359375 
C 15 30.6875 17.40625 37.9375 24.203125 37.9375 
C 33 37.9375 33.296875 32 33.296875 28.578125 
L 33.296875 0 
L 40.90625 0 
z
" id="CMSS17-110"/>
      <path d="M 15.09375 5.203125 
C 18.40625 2.015625 22.90625 -0.078125 27.703125 -0.078125 
C 37 -0.078125 45 9.421875 45 22.0625 
C 45 33.734375 39 44 30.40625 44 
C 25.40625 44 19.40625 42.21875 14.90625 38.625 
L 14.90625 43.203125 
L 7.5 43.203125 
L 7.5 -19 
L 15.09375 -19 
z
M 15.09375 32.8125 
C 15.90625 34 19.296875 37.734375 24.796875 37.734375 
C 31.796875 37.734375 37.40625 30.625 37.40625 22.0625 
C 37.40625 12.296875 30.59375 6 23.90625 6 
C 21.90625 6 19.796875 6.484375 17.796875 8.171875 
C 15.09375 10.53125 15.09375 12 15.09375 13.390625 
z
" id="CMSS17-112"/>
      <path d="M 16.703125 37 
L 29.703125 37 
L 29.703125 42.765625 
L 16.703125 42.765625 
L 16.703125 55 
L 9.59375 55 
L 9.59375 42.765625 
L 1.703125 42.765625 
L 1.703125 37 
L 9.40625 37 
L 9.40625 11.703125 
C 9.40625 6 10.703125 -1 17.296875 -1 
C 22.296875 -1 26.90625 0.390625 31.296875 2.6875 
L 29.703125 8.5625 
C 27.296875 6.46875 24.40625 5.265625 21.296875 5.265625 
C 16.90625 5.265625 16.703125 10.875 16.703125 13.375 
z
" id="CMSS17-116"/>
      <path d="M 40.90625 42.796875 
L 33.296875 42.796875 
L 33.296875 15.1875 
C 33.296875 7.78125 27.90625 4.78125 22.203125 4.78125 
C 15.59375 4.78125 15 6.984375 15 11.078125 
L 15 42.796875 
L 7.40625 42.796875 
L 7.40625 10.59375 
C 7.40625 2.796875 10.09375 -1 17 -1 
C 20.40625 -1 28.09375 -0.203125 33.5 4.78125 
L 33.5 0 
L 40.90625 0 
z
" id="CMSS17-117"/>
      <path d="M 17.09375 69.078125 
L 8.703125 69.078125 
L 8.703125 0 
L 17.09375 0 
z
" id="CMSS17-73"/>
     </defs>
     <g style="fill:#262626;" transform="translate(479.429032364 55.6)scale(0.1 -0.1)">
      <use transform="scale(0.9962640099626402)" xlink:href="#CMSS17-73"/>
      <use transform="translate(25.783925513698634 0.0)scale(0.9962640099626402)" xlink:href="#CMSS17-110"/>
      <use transform="translate(73.98886864687111 0.0)scale(0.9962640099626402)" xlink:href="#CMSS17-112"/>
      <use transform="translate(122.1938117800436 0.0)scale(0.9962640099626402)" xlink:href="#CMSS17-117"/>
      <use transform="translate(170.3987549132161 0.0)scale(0.9962640099626402)" xlink:href="#CMSS17-116"/>
     </g>
    </g>
    <g id="line2d_47">
     <path d="M 451.429032 66.037178 
L 471.429032 66.037178 
" style="fill:none;stroke:#55a868;stroke-linecap:round;stroke-width:1.75;"/>
    </g>
    <g id="line2d_48"/>
    <g id="text_18">
     <!-- Output -->
     <defs>
      <path d="M 64 34.03125 
C 64 54.734375 50.296875 70.265625 34.59375 70.265625 
C 18.90625 70.265625 5.203125 54.640625 5.203125 34.03125 
C 5.203125 13.234375 19.09375 -2 34.59375 -2 
C 50.09375 -2 64 13.234375 64 34.03125 
M 34.59375 4.265625 
C 23.59375 4.265625 13.59375 16.515625 13.59375 35.328125 
C 13.59375 53.640625 24.203125 64 34.59375 64 
C 45 64 55.59375 53.640625 55.59375 35.328125 
C 55.59375 16.421875 45.5 4.265625 34.59375 4.265625 
" id="CMSS17-79"/>
     </defs>
     <g style="fill:#262626;" transform="translate(479.429032364 69.5371783303)scale(0.1 -0.1)">
      <use transform="scale(0.9962640099626402)" xlink:href="#CMSS17-79"/>
      <use transform="translate(69.02425535589198 0.0)scale(0.9962640099626402)" xlink:href="#CMSS17-117"/>
      <use transform="translate(117.22919848906446 0.0)scale(0.9962640099626402)" xlink:href="#CMSS17-116"/>
      <use transform="translate(151.06076517259498 0.0)scale(0.9962640099626402)" xlink:href="#CMSS17-112"/>
      <use transform="translate(199.26570830576745 0.0)scale(0.9962640099626402)" xlink:href="#CMSS17-117"/>
      <use transform="translate(247.47065143893994 0.0)scale(0.9962640099626402)" xlink:href="#CMSS17-116"/>
     </g>
    </g>
   </g>
  </g>
 </g>
 <defs>
  <clipPath id="pe2421250bb">
   <rect height="306.9" width="446.4" x="72.0" y="39.6"/>
  </clipPath>
 </defs>
</svg>
