<?xml version="1.0" encoding="utf-8" standalone="no"?>
<!DOCTYPE svg PUBLIC "-//W3C//DTD SVG 1.1//EN"
  "http://www.w3.org/Graphics/SVG/1.1/DTD/svg11.dtd">
<!-- Created with matplotlib (http://matplotlib.org/) -->
<svg height="936pt" version="1.1" viewBox="0 0 936 936" width="936pt" xmlns="http://www.w3.org/2000/svg" xmlns:xlink="http://www.w3.org/1999/xlink">
 <defs>
  <style type="text/css">
*{stroke-linecap:butt;stroke-linejoin:round;stroke-miterlimit:100000;}
  </style>
 </defs>
 <g id="figure_1">
  <g id="patch_1">
   <path d="M 0 936 
L 936 936 
L 936 0 
L 0 0 
z
" style="fill:#ffffff;"/>
  </g>
  <g id="axes_1">
   <g id="patch_2">
    <path d="M 479.7 786.357 
C 567.23214 786.357 651.190973 751.580112 713.085543 689.685543 
C 774.980112 627.790973 809.757 543.83214 809.757 456.3 
C 809.757 368.76786 774.980112 284.809027 713.085543 222.914457 
C 651.190973 161.019888 567.23214 126.243 479.7 126.243 
C 392.16786 126.243 308.209027 161.019888 246.314457 222.914457 
C 184.419888 284.809027 149.643 368.76786 149.643 456.3 
C 149.643 543.83214 184.419888 627.790973 246.314457 689.685543 
C 308.209027 751.580112 392.16786 786.357 479.7 786.357 
z
" style="fill:#eaeaf2;"/>
   </g>
   <g id="matplotlib.axis_1">
    <g id="xtick_1">
     <g id="line2d_1">
      <path clip-path="url(#pbce86c77e5)" d="M 798.876 456.300016 
L 798.876 456.299984 
" style="fill:none;stroke:#ffffff;stroke-linecap:round;"/>
     </g>
    </g>
    <g id="xtick_2">
     <g id="line2d_2">
      <path clip-path="url(#pbce86c77e5)" d="M 798.876 456.300016 
L 798.876 456.299984 
" style="fill:none;stroke:#ffffff;stroke-linecap:round;"/>
     </g>
     <g id="text_1">
      <g id="patch_3">
       <path clip-path="url(#pbce86c77e5)" d="M 253.75039 459.790668 
C 255.25039 457.790668 255.25039 454.809332 253.75039 452.809332 
C 252.25039 450.809332 244.894713 450.809332 243.394713 452.809332 
C 241.894713 454.809332 241.894713 457.790668 243.394713 459.790668 
C 244.894713 461.790668 252.25039 461.790668 253.75039 459.790668 
z
" style="fill:#ffffff;stroke:#ffffff;stroke-linejoin:miter;stroke-width:0.3;"/>
      </g>
      <!-- 8 -->
      <defs>
       <path d="M 30.203125 34.71875 
C 37.796875 37.1875 41.703125 43.125 41.703125 48.96875 
C 41.703125 58.15625 33.703125 66.078125 23.5 66.078125 
C 12.90625 66.078125 5.203125 57.9375 5.203125 49.125 
C 5.203125 43.4375 9 37.546875 16.703125 35.015625 
C 6.90625 31.203125 3.90625 23.625 3.90625 17.953125 
C 3.90625 6.96875 12.796875 -2 23.40625 -2 
C 34.40625 -2 43 7.109375 43 17.78125 
C 43 24.328125 39.09375 31.25 30.203125 34.71875 
M 23.5 38 
C 16.796875 38 12.296875 42.375 12.296875 49 
C 12.296875 55.71875 16.796875 60 23.5 60 
C 29.703125 60 34.59375 56.109375 34.59375 49 
C 34.59375 41.984375 29.796875 38 23.5 38 
M 23.5 4.171875 
C 17.796875 4.171875 11.703125 8.078125 11.703125 18.0625 
C 11.703125 28.328125 18.5 31.921875 23.40625 31.921875 
C 28.796875 31.921875 35.203125 28.125 35.203125 18.0625 
C 35.203125 7.671875 28.59375 4.171875 23.5 4.171875 
" id="CMSS17-56"/>
      </defs>
      <g style="fill:#262626;" transform="translate(251.063211749 458.790667626)rotate(-90.0)scale(0.1 -0.1)">
       <use transform="scale(0.9962640099626402)" xlink:href="#CMSS17-56"/>
      </g>
     </g>
    </g>
    <g id="xtick_3">
     <g id="line2d_3">
      <path clip-path="url(#pbce86c77e5)" d="M 798.876 456.300016 
L 798.876 456.299984 
" style="fill:none;stroke:#ffffff;stroke-linecap:round;"/>
     </g>
     <g id="text_2">
      <g id="patch_4">
       <path clip-path="url(#pbce86c77e5)" d="M 334.677368 462.281335 
C 336.177368 460.281335 336.177368 452.318665 334.677368 450.318665 
C 333.177368 448.318665 325.821691 448.318665 324.321691 450.318665 
C 322.821691 452.318665 322.821691 460.281335 324.321691 462.281335 
C 325.821691 464.281335 333.177368 464.281335 334.677368 462.281335 
z
" style="fill:#ffffff;stroke:#ffffff;stroke-linejoin:miter;stroke-width:0.3;"/>
      </g>
      <!-- 18 -->
      <defs>
       <path d="M 28.40625 67 
L 26.5 67 
C 21.09375 61.5625 14.796875 60.78125 8.40625 60.78125 
L 8.40625 55 
C 11.296875 55 16 55 20.703125 57.296875 
L 20.703125 5.765625 
L 8.90625 5.765625 
L 8.90625 0 
L 40.203125 0 
L 40.203125 5.765625 
L 28.40625 5.765625 
z
" id="CMSS17-49"/>
      </defs>
      <g style="fill:#262626;" transform="translate(331.990189437 461.281335252)rotate(-90.0)scale(0.1 -0.1)">
       <use transform="scale(0.9962640099626402)" xlink:href="#CMSS17-49"/>
       <use transform="translate(46.84362352117061 0.0)scale(0.9962640099626402)" xlink:href="#CMSS17-56"/>
      </g>
     </g>
    </g>
    <g id="xtick_4">
     <g id="line2d_4">
      <path clip-path="url(#pbce86c77e5)" d="M 798.876 456.300016 
L 798.876 456.299984 
" style="fill:none;stroke:#ffffff;stroke-linecap:round;"/>
     </g>
     <g id="text_3">
      <g id="patch_5">
       <path clip-path="url(#pbce86c77e5)" d="M 410.009394 462.281335 
C 411.509394 460.281335 411.509394 452.318665 410.009394 450.318665 
C 408.509394 448.318665 401.153717 448.318665 399.653717 450.318665 
C 398.153717 452.318665 398.153717 460.281335 399.653717 462.281335 
C 401.153717 464.281335 408.509394 464.281335 410.009394 462.281335 
z
" style="fill:#ffffff;stroke:#ffffff;stroke-linejoin:miter;stroke-width:0.3;"/>
      </g>
      <!-- 31 -->
      <defs>
       <path d="M 15.703125 31.640625 
L 22.5 31.640625 
C 31.90625 31.640625 34.59375 23.546875 34.59375 17.90625 
C 34.59375 10.203125 30.203125 4.171875 23 4.171875 
C 17.40625 4.171875 9.5 6.9375 5 14.25 
C 4.296875 10.796875 4.296875 10.59375 3.90625 8.21875 
C 8.59375 1.375 16.203125 -2 23.203125 -2 
C 34.59375 -2 43 7.390625 43 17.78125 
C 43 25.59375 37.5 32.140625 30 34.609375 
C 36 37.875 40.40625 44 40.40625 51.140625 
C 40.40625 59.453125 32.703125 66.078125 23.296875 66.078125 
C 14.703125 66.078125 8 60.8125 5.203125 55.15625 
C 5.90625 54.1875 7.703125 51.3125 8.59375 49.828125 
C 10.796875 55.65625 16.5 60 23.203125 60 
C 28.796875 60 32.5 56.359375 32.5 51.109375 
C 32.5 45.671875 29 39.734375 23.09375 38.359375 
C 22.703125 38.359375 16.5 37.765625 15.703125 37.671875 
z
" id="CMSS17-51"/>
      </defs>
      <g style="fill:#262626;" transform="translate(407.32221558 461.281335252)rotate(-90.0)scale(0.1 -0.1)">
       <use transform="scale(0.9962640099626402)" xlink:href="#CMSS17-51"/>
       <use transform="translate(46.84362352117061 0.0)scale(0.9962640099626402)" xlink:href="#CMSS17-49"/>
      </g>
     </g>
    </g>
    <g id="xtick_5">
     <g id="line2d_5">
      <path clip-path="url(#pbce86c77e5)" d="M 798.876 456.300016 
L 798.876 456.299984 
" style="fill:none;stroke:#ffffff;stroke-linecap:round;"/>
     </g>
     <g id="text_4">
      <g id="patch_6">
       <path clip-path="url(#pbce86c77e5)" d="M 484.877838 462.281335 
C 486.377838 460.281335 486.377838 452.318665 484.877838 450.318665 
C 483.377838 448.318665 476.022162 448.318665 474.522162 450.318665 
C 473.022162 452.318665 473.022162 460.281335 474.522162 462.281335 
C 476.022162 464.281335 483.377838 464.281335 484.877838 462.281335 
z
" style="fill:#ffffff;stroke:#ffffff;stroke-linejoin:miter;stroke-width:0.3;"/>
      </g>
      <!-- 50 -->
      <defs>
       <path d="M 14.59375 58.625 
L 39.09375 58.625 
L 39.09375 65 
L 7.296875 65 
L 7.296875 27.828125 
L 14 27.828125 
C 15.796875 31.96875 19.5 35 24.296875 35 
C 28.796875 35 33.796875 31.078125 33.796875 19.78125 
C 33.796875 7.703125 26.703125 4.171875 21.5 4.171875 
C 15.09375 4.171875 9.203125 8 6.59375 13.296875 
L 3.40625 7.796875 
C 8 0.765625 15.5 -2 21.5 -2 
C 33.09375 -2 42.203125 7.765625 42.203125 19.578125 
C 42.203125 31.71875 34.09375 41.078125 24.40625 41.078125 
C 20.90625 41.078125 17.5 39.890625 14.59375 37.484375 
z
" id="CMSS17-53"/>
       <path d="M 43.09375 31.9375 
C 43.09375 37.578125 43 48.078125 38.90625 56.1875 
C 34.796875 64 28.203125 66.078125 23.5 66.078125 
C 16.703125 66.078125 10.90625 62.109375 7.90625 55.78125 
C 4.703125 49.15625 3.796875 42.328125 3.796875 31.9375 
C 3.796875 24.828125 4.09375 16.109375 7.703125 8.484375 
C 11.796875 0.078125 18.703125 -2 23.40625 -2 
C 29.59375 -2 35.59375 1.265625 39 8.09375 
C 42.5 15.21875 43.09375 23.03125 43.09375 31.9375 
M 23.40625 4.078125 
C 15.796875 4.078125 13.5 12.671875 12.796875 15.546875 
C 11.59375 20.46875 11.40625 25.21875 11.40625 33.03125 
C 11.40625 39.15625 11.40625 46.0625 13.296875 51.515625 
C 15.59375 57.828125 19.59375 60 23.40625 60 
C 30.796875 60 33.203125 52.6875 34 50.125 
C 35.5 44.890625 35.5 38.765625 35.5 33.03125 
C 35.5 23.84375 35.5 4.078125 23.40625 4.078125 
" id="CMSS17-48"/>
      </defs>
      <g style="fill:#262626;" transform="translate(482.190660025 461.281335252)rotate(-90.0)scale(0.1 -0.1)">
       <use transform="scale(0.9962640099626402)" xlink:href="#CMSS17-53"/>
       <use transform="translate(46.84362352117061 0.0)scale(0.9962640099626402)" xlink:href="#CMSS17-48"/>
      </g>
     </g>
    </g>
    <g id="xtick_6">
     <g id="line2d_6">
      <path clip-path="url(#pbce86c77e5)" d="M 798.876 456.300016 
L 798.876 456.299984 
" style="fill:none;stroke:#ffffff;stroke-linecap:round;"/>
     </g>
     <g id="text_5">
      <g id="patch_7">
       <path clip-path="url(#pbce86c77e5)" d="M 558.533838 462.281335 
C 560.033838 460.281335 560.033838 452.318665 558.533838 450.318665 
C 557.033838 448.318665 549.678162 448.318665 548.178162 450.318665 
C 546.678162 452.318665 546.678162 460.281335 548.178162 462.281335 
C 549.678162 464.281335 557.033838 464.281335 558.533838 462.281335 
z
" style="fill:#ffffff;stroke:#ffffff;stroke-linejoin:miter;stroke-width:0.3;"/>
      </g>
      <!-- 80 -->
      <g style="fill:#262626;" transform="translate(555.846660025 461.281335252)rotate(-90.0)scale(0.1 -0.1)">
       <use transform="scale(0.9962640099626402)" xlink:href="#CMSS17-56"/>
       <use transform="translate(46.84362352117061 0.0)scale(0.9962640099626402)" xlink:href="#CMSS17-48"/>
      </g>
     </g>
    </g>
    <g id="xtick_7">
     <g id="line2d_7">
      <path clip-path="url(#pbce86c77e5)" d="M 798.876 456.300016 
L 798.876 456.299984 
" style="fill:none;stroke:#ffffff;stroke-linecap:round;"/>
     </g>
     <g id="text_6">
      <g id="patch_8">
       <path clip-path="url(#pbce86c77e5)" d="M 636.06647 464.772003 
C 637.56647 462.772003 637.56647 449.827997 636.06647 447.827997 
C 634.56647 445.827997 627.210793 445.827997 625.710793 447.827997 
C 624.210793 449.827997 624.210793 462.772003 625.710793 464.772003 
C 627.210793 466.772003 634.56647 466.772003 636.06647 464.772003 
z
" style="fill:#ffffff;stroke:#ffffff;stroke-linejoin:miter;stroke-width:0.3;"/>
      </g>
      <!-- 140 -->
      <defs>
       <path d="M 35.203125 17 
L 44.296875 17 
L 44.296875 23.078125 
L 35.203125 23.078125 
L 35.203125 65.5 
L 26.40625 65.5 
L 2.59375 23.078125 
L 2.59375 17 
L 27.296875 17 
L 27.296875 0 
L 35.203125 0 
z
M 10.296875 23.078125 
C 16.09375 33.234375 27.59375 53.734375 27.59375 60.703125 
L 27.59375 23.078125 
z
" id="CMSS17-52"/>
      </defs>
      <g style="fill:#262626;" transform="translate(633.379291604 463.772002877)rotate(-90.0)scale(0.1 -0.1)">
       <use transform="scale(0.9962640099626402)" xlink:href="#CMSS17-49"/>
       <use transform="translate(46.84362352117061 0.0)scale(0.9962640099626402)" xlink:href="#CMSS17-52"/>
       <use transform="translate(93.68724704234123 0.0)scale(0.9962640099626402)" xlink:href="#CMSS17-48"/>
      </g>
     </g>
    </g>
    <g id="xtick_8">
     <g id="line2d_8">
      <path clip-path="url(#pbce86c77e5)" d="M 798.876 456.300016 
L 798.876 456.299984 
" style="fill:none;stroke:#ffffff;stroke-linecap:round;"/>
     </g>
     <g id="text_7">
      <g id="patch_9">
       <path clip-path="url(#pbce86c77e5)" d="M 712.860695 464.772003 
C 714.360695 462.772003 714.360695 449.827997 712.860695 447.827997 
C 711.360695 445.827997 704.005019 445.827997 702.505019 447.827997 
C 701.005019 449.827997 701.005019 462.772003 702.505019 464.772003 
C 704.005019 466.772003 711.360695 466.772003 712.860695 464.772003 
z
" style="fill:#ffffff;stroke:#ffffff;stroke-linejoin:miter;stroke-width:0.3;"/>
      </g>
      <!-- 300 -->
      <g style="fill:#262626;" transform="translate(710.173517168 463.772002877)rotate(-90.0)scale(0.1 -0.1)">
       <use transform="scale(0.9962640099626402)" xlink:href="#CMSS17-51"/>
       <use transform="translate(46.84362352117061 0.0)scale(0.9962640099626402)" xlink:href="#CMSS17-48"/>
       <use transform="translate(93.68724704234123 0.0)scale(0.9962640099626402)" xlink:href="#CMSS17-48"/>
      </g>
     </g>
    </g>
    <g id="xtick_9">
     <g id="line2d_9">
      <path clip-path="url(#pbce86c77e5)" d="M 798.875994 456.300013 
L 798.875994 456.299987 
" style="fill:none;stroke:#ffffff;stroke-linecap:round;"/>
     </g>
    </g>
    <g id="xtick_10"/>
    <g id="xtick_11"/>
    <g id="xtick_12"/>
    <g id="xtick_13"/>
    <g id="xtick_14"/>
    <g id="xtick_15"/>
    <g id="xtick_16"/>
    <g id="xtick_17"/>
    <g id="xtick_18"/>
    <g id="xtick_19"/>
    <g id="xtick_20"/>
    <g id="xtick_21"/>
    <g id="xtick_22"/>
    <g id="xtick_23"/>
    <g id="xtick_24"/>
    <g id="xtick_25"/>
    <g id="xtick_26"/>
    <g id="xtick_27"/>
    <g id="xtick_28"/>
    <g id="xtick_29"/>
    <g id="xtick_30"/>
    <g id="xtick_31"/>
    <g id="xtick_32"/>
    <g id="xtick_33"/>
   </g>
   <g id="matplotlib.axis_2">
    <g id="ytick_1">
     <g id="line2d_10">
      <path clip-path="url(#pbce86c77e5)" d="M 798.876 456.300032 
L 798.875987 456.300006 
" style="fill:none;stroke:#ffffff;stroke-linecap:round;"/>
     </g>
    </g>
    <g id="ytick_2">
     <g id="line2d_11">
      <path clip-path="url(#pbce86c77e5)" d="M 735.0408 647.8056 
L 798.875984 456.3 
" style="fill:none;stroke:#ffffff;stroke-linecap:round;"/>
     </g>
     <g id="text_8">
      <!-- -150j -->
      <defs>
       <path d="M 17.40625 66 
L 9 66 
L 9 57.640625 
L 17.40625 57.640625 
z
M -5.796875 -16.625 
C -2.59375 -18.609375 1.296875 -20 5.5 -20 
C 11.796875 -20 17.40625 -14.609375 17.40625 -5.71875 
L 17.40625 43.234375 
L 10 43.234375 
L 10 -6.640625 
C 10 -12.734375 5.40625 -13.640625 2.796875 -13.640625 
C 0.59375 -13.640625 -2 -12.9375 -4.296875 -10.546875 
z
" id="CMSS17-106"/>
       <path d="M 26 19 
L 26 24.765625 
L 1 24.765625 
L 1 19 
z
" id="CMSS17-45"/>
      </defs>
      <g style="fill:#262626;" transform="translate(739.6328749 658.115845606)scale(0.1 -0.1)">
       <use transform="scale(0.9962640099626402)" xlink:href="#CMSS17-45"/>
       <use transform="translate(31.229112751011833 0.0)scale(0.9962640099626402)" xlink:href="#CMSS17-49"/>
       <use transform="translate(78.07273627218245 0.0)scale(0.9962640099626402)" xlink:href="#CMSS17-53"/>
       <use transform="translate(124.91635979335307 0.0)scale(0.9962640099626402)" xlink:href="#CMSS17-48"/>
       <use transform="translate(171.75998331452368 0.0)scale(0.9962640099626402)" xlink:href="#CMSS17-106"/>
      </g>
     </g>
    </g>
    <g id="ytick_3">
     <g id="line2d_12">
      <path clip-path="url(#pbce86c77e5)" d="M 619.56364 743.199775 
L 798.875984 456.3 
" style="fill:none;stroke:#ffffff;stroke-linecap:round;"/>
     </g>
     <g id="text_9">
      <!-- -80j -->
      <g style="fill:#262626;" transform="translate(621.613299526 757.391847168)scale(0.1 -0.1)">
       <use transform="scale(0.9962640099626402)" xlink:href="#CMSS17-45"/>
       <use transform="translate(31.229112751011833 0.0)scale(0.9962640099626402)" xlink:href="#CMSS17-56"/>
       <use transform="translate(78.07273627218245 0.0)scale(0.9962640099626402)" xlink:href="#CMSS17-48"/>
       <use transform="translate(124.91635979335307 0.0)scale(0.9962640099626402)" xlink:href="#CMSS17-106"/>
      </g>
     </g>
    </g>
    <g id="ytick_4">
     <g id="line2d_13">
      <path clip-path="url(#pbce86c77e5)" d="M 479.7 775.476 
L 798.875984 456.3 
" style="fill:none;stroke:#ffffff;stroke-linecap:round;"/>
     </g>
     <g id="text_10">
      <!-- -50j -->
      <g style="fill:#262626;" transform="translate(470.707941353 790.966596221)scale(0.1 -0.1)">
       <use transform="scale(0.9962640099626402)" xlink:href="#CMSS17-45"/>
       <use transform="translate(31.229112751011833 0.0)scale(0.9962640099626402)" xlink:href="#CMSS17-53"/>
       <use transform="translate(78.07273627218245 0.0)scale(0.9962640099626402)" xlink:href="#CMSS17-48"/>
       <use transform="translate(124.91635979335307 0.0)scale(0.9962640099626402)" xlink:href="#CMSS17-106"/>
      </g>
     </g>
    </g>
    <g id="ytick_5">
     <g id="line2d_14">
      <path clip-path="url(#pbce86c77e5)" d="M 337.772273 742.184311 
L 798.875984 456.3 
" style="fill:none;stroke:#ffffff;stroke-linecap:round;"/>
     </g>
     <g id="text_11">
      <!-- -31j -->
      <g style="fill:#262626;" transform="translate(317.701775817 756.302759127)scale(0.1 -0.1)">
       <use transform="scale(0.9962640099626402)" xlink:href="#CMSS17-45"/>
       <use transform="translate(31.229112751011833 0.0)scale(0.9962640099626402)" xlink:href="#CMSS17-51"/>
       <use transform="translate(78.07273627218245 0.0)scale(0.9962640099626402)" xlink:href="#CMSS17-49"/>
       <use transform="translate(124.91635979335307 0.0)scale(0.9962640099626402)" xlink:href="#CMSS17-106"/>
      </g>
     </g>
    </g>
    <g id="ytick_6">
     <g id="line2d_15">
      <path clip-path="url(#pbce86c77e5)" d="M 219.819396 641.598113 
L 798.875984 456.3 
" style="fill:none;stroke:#ffffff;stroke-linecap:round;"/>
     </g>
     <g id="text_12">
      <!-- -16j -->
      <defs>
       <path d="M 39 64.078125 
C 34.796875 65.78125 31.796875 66.078125 29 66.078125 
C 16 66.078125 3.90625 52.625 3.90625 31.34375 
C 3.90625 4.140625 15.40625 -2 23.59375 -2 
C 28.09375 -2 32.59375 -0.609375 36.90625 4.375 
C 41.296875 9.640625 43 14.03125 43 21.703125 
C 43 34.046875 36.90625 45 27.796875 45 
C 21.203125 45 15.5 41.515625 12 37.125 
C 13 50.90625 19.59375 60 29.09375 60 
C 31.703125 60 35.09375 59.625 39 57.96875 
z
M 12.09375 21.390625 
C 12.09375 22.1875 12.09375 22.6875 12.203125 24.1875 
C 12.203125 31.953125 16.703125 38.921875 24 38.921875 
C 28.703125 38.921875 31.09375 36.4375 32.90625 33.359375 
C 35 29.46875 35.09375 25.78125 35.09375 21.6875 
C 35.09375 17.8125 35.09375 13.921875 32.796875 9.953125 
C 30.90625 6.859375 28.40625 4.171875 23.59375 4.171875 
C 14.09375 4.171875 12.5 17.40625 12.09375 21.390625 
" id="CMSS17-54"/>
      </defs>
      <g style="fill:#262626;" transform="translate(197.172213493 651.616726683)scale(0.1 -0.1)">
       <use transform="scale(0.9962640099626402)" xlink:href="#CMSS17-45"/>
       <use transform="translate(31.229112751011833 0.0)scale(0.9962640099626402)" xlink:href="#CMSS17-49"/>
       <use transform="translate(78.07273627218245 0.0)scale(0.9962640099626402)" xlink:href="#CMSS17-54"/>
       <use transform="translate(124.91635979335307 0.0)scale(0.9962640099626402)" xlink:href="#CMSS17-106"/>
      </g>
     </g>
    </g>
    <g id="ytick_7">
     <g id="line2d_16">
      <path clip-path="url(#pbce86c77e5)" d="M 160.524 456.3 
L 798.875984 456.3 
" style="fill:none;stroke:#ffffff;stroke-linecap:round;"/>
     </g>
     <g id="text_13">
      <!-- 0 -->
      <g style="fill:#262626;" transform="translate(147.542664748 458.790660025)scale(0.1 -0.1)">
       <use transform="scale(0.9962640099626402)" xlink:href="#CMSS17-48"/>
      </g>
     </g>
    </g>
    <g id="ytick_8">
     <g id="line2d_17">
      <path clip-path="url(#pbce86c77e5)" d="M 219.819396 271.001887 
L 798.875984 456.3 
" style="fill:none;stroke:#ffffff;stroke-linecap:round;"/>
     </g>
     <g id="text_14">
      <!-- 16j -->
      <g style="fill:#262626;" transform="translate(200.493088459 265.964593367)scale(0.1 -0.1)">
       <use transform="scale(0.9962640099626402)" xlink:href="#CMSS17-49"/>
       <use transform="translate(46.84362352117061 0.0)scale(0.9962640099626402)" xlink:href="#CMSS17-54"/>
       <use transform="translate(93.68724704234123 0.0)scale(0.9962640099626402)" xlink:href="#CMSS17-106"/>
      </g>
     </g>
    </g>
    <g id="ytick_9">
     <g id="line2d_18">
      <path clip-path="url(#pbce86c77e5)" d="M 337.772273 170.415689 
L 798.875984 456.3 
" style="fill:none;stroke:#ffffff;stroke-linecap:round;"/>
     </g>
     <g id="text_15">
      <!-- 31j -->
      <g style="fill:#262626;" transform="translate(321.022650783 161.278560923)scale(0.1 -0.1)">
       <use transform="scale(0.9962640099626402)" xlink:href="#CMSS17-51"/>
       <use transform="translate(46.84362352117061 0.0)scale(0.9962640099626402)" xlink:href="#CMSS17-49"/>
       <use transform="translate(93.68724704234123 0.0)scale(0.9962640099626402)" xlink:href="#CMSS17-106"/>
      </g>
     </g>
    </g>
    <g id="ytick_10">
     <g id="line2d_19">
      <path clip-path="url(#pbce86c77e5)" d="M 479.7 137.124 
L 798.875984 456.3 
" style="fill:none;stroke:#ffffff;stroke-linecap:round;"/>
     </g>
     <g id="text_16">
      <!-- 50j -->
      <g style="fill:#262626;" transform="translate(472.368378836 126.614723829)scale(0.1 -0.1)">
       <use transform="scale(0.9962640099626402)" xlink:href="#CMSS17-53"/>
       <use transform="translate(46.84362352117061 0.0)scale(0.9962640099626402)" xlink:href="#CMSS17-48"/>
       <use transform="translate(93.68724704234123 0.0)scale(0.9962640099626402)" xlink:href="#CMSS17-106"/>
      </g>
     </g>
    </g>
    <g id="ytick_11">
     <g id="line2d_20">
      <path clip-path="url(#pbce86c77e5)" d="M 619.56364 169.400225 
L 798.875984 456.3 
" style="fill:none;stroke:#ffffff;stroke-linecap:round;"/>
     </g>
     <g id="text_17">
      <!-- 80j -->
      <g style="fill:#262626;" transform="translate(621.613299526 160.189472882)scale(0.1 -0.1)">
       <use transform="scale(0.9962640099626402)" xlink:href="#CMSS17-56"/>
       <use transform="translate(46.84362352117061 0.0)scale(0.9962640099626402)" xlink:href="#CMSS17-48"/>
       <use transform="translate(93.68724704234123 0.0)scale(0.9962640099626402)" xlink:href="#CMSS17-106"/>
      </g>
     </g>
    </g>
    <g id="ytick_12">
     <g id="line2d_21">
      <path clip-path="url(#pbce86c77e5)" d="M 735.0408 264.7944 
L 798.875984 456.3 
" style="fill:none;stroke:#ffffff;stroke-linecap:round;"/>
     </g>
     <g id="text_18">
      <!-- 150j -->
      <g style="fill:#262626;" transform="translate(739.6328749 259.465474444)scale(0.1 -0.1)">
       <use transform="scale(0.9962640099626402)" xlink:href="#CMSS17-49"/>
       <use transform="translate(46.84362352117061 0.0)scale(0.9962640099626402)" xlink:href="#CMSS17-53"/>
       <use transform="translate(93.68724704234123 0.0)scale(0.9962640099626402)" xlink:href="#CMSS17-48"/>
       <use transform="translate(140.53087056351185 0.0)scale(0.9962640099626402)" xlink:href="#CMSS17-106"/>
      </g>
     </g>
    </g>
    <g id="ytick_13">
     <g id="line2d_22">
      <path clip-path="url(#pbce86c77e5)" d="M 798.876 456.299968 
L 798.875987 456.299994 
" style="fill:none;stroke:#ffffff;stroke-linecap:round;"/>
     </g>
     <g id="text_19">
      <!-- âˆ  -->
      <defs>
       <path d="M 50.796875 27.03125 
C 45.40625 33.84375 44.203125 35.34375 41.09375 37.84375 
C 35.5 42.34375 29.90625 44.140625 24.796875 44.140625 
C 13.09375 44.140625 5.5 33.15625 5.5 21.46875 
C 5.5 9.984375 12.90625 -1.09375 24.40625 -1.09375 
C 35.90625 -1.09375 44.203125 7.984375 49.09375 15.96875 
C 54.5 9.1875 55.703125 7.6875 58.796875 5.1875 
C 64.40625 0.703125 70 -1.09375 75.09375 -1.09375 
C 86.796875 -1.09375 94.40625 9.890625 94.40625 21.5625 
C 94.40625 33.046875 87 44.140625 75.5 44.140625 
C 64 44.140625 55.703125 35.03125 50.796875 27.03125 
M 53.40625 23.65625 
C 57.5 30.859375 64.90625 40.9375 76.203125 40.9375 
C 86.796875 40.9375 92.203125 30.546875 92.203125 21.5625 
C 92.203125 11.765625 85.5 3.6875 76.703125 3.6875 
C 70.90625 3.6875 66.40625 7.890625 64.296875 9.96875 
C 61.796875 12.671875 59.5 15.765625 53.40625 23.65625 
M 46.5 19.375 
C 42.40625 12.1875 35 2.09375 23.703125 2.09375 
C 13.09375 2.09375 7.703125 12.484375 7.703125 21.46875 
C 7.703125 31.25 14.40625 39.34375 23.203125 39.34375 
C 29 39.34375 33.5 35.140625 35.59375 33.046875 
C 38.09375 30.359375 40.40625 27.25 46.5 19.375 
" id="CMSY10-49"/>
      </defs>
      <g style="fill:#262626;" transform="translate(804.876 460.782584756)scale(0.18 -0.18)">
       <use transform="scale(0.9962640099626402)" xlink:href="#CMSY10-49"/>
      </g>
     </g>
    </g>
    <g id="ytick_14"/>
    <g id="ytick_15"/>
    <g id="ytick_16"/>
    <g id="ytick_17"/>
    <g id="ytick_18"/>
    <g id="ytick_19"/>
    <g id="ytick_20"/>
    <g id="ytick_21"/>
    <g id="ytick_22"/>
    <g id="ytick_23"/>
    <g id="ytick_24"/>
    <g id="ytick_25"/>
    <g id="ytick_26"/>
    <g id="ytick_27"/>
    <g id="ytick_28"/>
    <g id="ytick_29"/>
    <g id="ytick_30"/>
    <g id="ytick_31"/>
    <g id="ytick_32"/>
    <g id="ytick_33"/>
    <g id="ytick_34"/>
    <g id="ytick_35"/>
    <g id="ytick_36"/>
    <g id="ytick_37"/>
    <g id="ytick_38"/>
    <g id="ytick_39"/>
    <g id="ytick_40"/>
    <g id="ytick_41"/>
    <g id="ytick_42"/>
    <g id="ytick_43"/>
    <g id="ytick_44"/>
    <g id="ytick_45"/>
    <g id="ytick_46"/>
    <g id="ytick_47"/>
    <g id="ytick_48"/>
    <g id="ytick_49"/>
   </g>
   <g id="line2d_23">
    <path clip-path="url(#pbce86c77e5)" d="M 160.524 456.3 
L 798.875968 456.3 
" style="fill:none;stroke:#333333;stroke-linecap:round;"/>
   </g>
   <g id="line2d_24">
    <path clip-path="url(#pbce86c77e5)" d="M 219.819396 271.001887 
C 270.544448 307.169481 324.546641 338.505272 381.117676 364.598254 
C 437.688711 390.691237 496.58017 411.426829 557.019623 426.533061 
" style="fill:none;stroke:#333333;stroke-linecap:round;"/>
   </g>
   <g id="line2d_25">
    <path clip-path="url(#pbce86c77e5)" d="M 219.819396 641.598113 
C 270.544448 605.430519 324.546641 574.094728 381.117676 548.001746 
C 437.688711 521.908763 496.58017 501.173171 557.019623 486.066939 
" style="fill:none;stroke:#333333;stroke-linecap:round;"/>
   </g>
   <g id="line2d_26">
    <path clip-path="url(#pbce86c77e5)" d="M 337.772273 170.415689 
C 367.876642 231.05477 409.649272 285.16403 460.692739 329.638019 
C 511.736206 374.112009 571.054965 408.083312 635.244582 429.602242 
" style="fill:none;stroke:#333333;stroke-linecap:round;"/>
   </g>
   <g id="line2d_27">
    <path clip-path="url(#pbce86c77e5)" d="M 337.772273 742.184311 
C 367.876642 681.54523 409.649272 627.43597 460.692739 582.961981 
C 511.736206 538.487991 571.054965 504.516688 635.244582 482.997758 
" style="fill:none;stroke:#333333;stroke-linecap:round;"/>
   </g>
   <g id="line2d_28">
    <path clip-path="url(#pbce86c77e5)" d="M 619.56364 169.400225 
C 601.543151 206.365332 595.386537 248.013814 601.941409 288.611731 
C 608.496281 329.209648 627.447357 366.804284 656.185553 396.219812 
" style="fill:none;stroke:#333333;stroke-linecap:round;"/>
   </g>
   <g id="line2d_29">
    <path clip-path="url(#pbce86c77e5)" d="M 619.56364 743.199775 
C 601.543151 706.234668 595.386537 664.586186 601.941409 623.988269 
C 608.496281 583.390352 627.447357 545.795716 656.185553 516.380188 
" style="fill:none;stroke:#333333;stroke-linecap:round;"/>
   </g>
   <g id="line2d_30">
    <path clip-path="url(#pbce86c77e5)" d="M 479.7 137.124 
C 479.7 206.172365 502.106181 273.390908 543.5352 328.6296 
C 584.964219 383.868292 643.220289 424.199418 709.50672 443.53296 
" style="fill:none;stroke:#333333;stroke-linecap:round;"/>
   </g>
   <g id="line2d_31">
    <path clip-path="url(#pbce86c77e5)" d="M 479.7 775.476 
C 479.7 706.427635 502.106181 639.209092 543.5352 583.9704 
C 584.964219 528.731708 643.220289 488.400582 709.50672 469.06704 
" style="fill:none;stroke:#333333;stroke-linecap:round;"/>
   </g>
   <g id="line2d_32">
    <path clip-path="url(#pbce86c77e5)" d="M 735.0408 264.7944 
C 717.179655 278.190259 703.980417 296.874467 697.323398 318.185347 
C 690.666379 339.496228 690.883447 362.371376 697.943682 383.552089 
C 705.003916 404.732803 718.555344 423.163167 736.667484 436.217665 
C 754.779624 449.272162 776.549537 456.299993 798.875968 456.3 
" style="fill:none;stroke:#333333;stroke-linecap:round;"/>
   </g>
   <g id="line2d_33">
    <path clip-path="url(#pbce86c77e5)" d="M 735.0408 647.8056 
C 717.179655 634.409741 703.980417 615.725533 697.323398 594.414653 
C 690.666379 573.103772 690.883447 550.228624 697.943682 529.047911 
C 705.003916 507.867197 718.555344 489.436833 736.667484 476.382335 
C 754.779624 463.327838 776.549537 456.300007 798.875968 456.3 
" style="fill:none;stroke:#333333;stroke-linecap:round;"/>
   </g>
   <g id="line2d_34">
    <path clip-path="url(#pbce86c77e5)" d="M 798.876 456.299968 
C 798.875996 456.299968 798.875992 456.29997 798.875989 456.299973 
C 798.875986 456.299976 798.875984 456.29998 798.875984 456.299984 
" style="fill:none;stroke:#333333;stroke-linecap:round;"/>
   </g>
   <g id="line2d_35">
    <path clip-path="url(#pbce86c77e5)" d="M 798.876 456.300032 
C 798.875996 456.300032 798.875992 456.30003 798.875989 456.300027 
C 798.875986 456.300024 798.875984 456.30002 798.875984 456.300016 
" style="fill:none;stroke:#333333;stroke-linecap:round;"/>
   </g>
   <g id="line2d_36">
    <path clip-path="url(#pbce86c77e5)" d="M 609.279441 717.812495 
C 567.967418 731.327937 524.034741 734.863683 481.092973 728.12907 
C 438.151205 721.394457 397.410198 704.579229 362.219137 679.065709 
C 327.028075 653.55219 298.378442 620.059204 278.62543 581.340101 
C 258.872417 542.620998 248.572552 499.766659 248.572552 456.3 
C 248.572552 412.833341 258.872417 369.979002 278.62543 331.259899 
C 298.378442 292.540796 327.028075 259.04781 362.219137 233.534291 
C 397.410198 208.020771 438.151205 191.205543 481.092973 184.47093 
C 524.034741 177.736317 567.967418 181.272063 609.279441 194.787505 
" style="fill:none;stroke:#333333;stroke-linecap:round;"/>
   </g>
   <g id="line2d_37">
    <path clip-path="url(#pbce86c77e5)" d="M 599.406391 653.307021 
C 547.60001 652.663439 498.082635 631.610072 461.675417 594.747764 
C 425.268199 557.885455 404.831556 508.110378 404.831556 456.3 
C 404.831556 404.489622 425.268199 354.714545 461.675417 317.852236 
C 498.082635 280.989928 547.60001 259.936561 599.406391 259.292979 
" style="fill:none;stroke:#333333;stroke-linecap:round;"/>
   </g>
   <g id="line2d_38">
    <path clip-path="url(#pbce86c77e5)" d="M 718.858421 632.809364 
C 684.941049 662.530293 643.165237 681.854535 598.55457 688.458331 
C 553.943903 695.062126 508.36121 688.669717 467.287857 670.049797 
C 426.214504 651.429877 391.365611 621.359967 366.931794 583.456005 
C 342.497976 545.552044 329.499529 501.396804 329.499529 456.3 
C 329.499529 411.203196 342.497976 367.047956 366.931794 329.143995 
C 391.365611 291.240033 426.214504 261.170123 467.287857 242.550203 
C 508.36121 223.930283 553.943903 217.537874 598.55457 224.141669 
C 643.165237 230.745465 684.941049 250.069707 718.858421 279.790636 
" style="fill:none;stroke:#333333;stroke-linecap:round;"/>
   </g>
   <g id="line2d_39">
    <path clip-path="url(#pbce86c77e5)" d="M 700.668 603.612 
C 676.417722 613.716282 650.043492 617.677885 623.894852 615.143888 
C 597.746213 612.609891 572.62341 603.657846 550.764505 589.085242 
C 528.9056 574.512639 510.979557 554.765454 498.583314 531.602863 
C 486.187071 508.440271 479.7 482.571134 479.7 456.3 
C 479.7 430.028866 486.187071 404.159729 498.583314 380.997137 
C 510.979557 357.834546 528.9056 338.087361 550.764505 323.514758 
C 572.62341 308.942154 597.746213 299.990109 623.894852 297.456112 
C 650.043492 294.922115 676.417722 298.883718 700.668 308.988 
" style="fill:none;stroke:#333333;stroke-linecap:round;"/>
   </g>
   <g id="line2d_40">
    <path clip-path="url(#pbce86c77e5)" d="M 693.564122 577.813706 
C 676.147825 580.314507 658.395713 579.041967 641.514192 574.082564 
C 624.632671 569.123162 609.01302 560.591846 595.716727 549.068392 
C 582.420434 537.544938 571.755678 523.296435 564.447221 507.29119 
C 557.138764 491.285945 553.356 473.894926 553.356 456.3 
C 553.356 438.705074 557.138764 421.314055 564.447221 405.30881 
C 571.755678 389.303565 582.420434 375.055062 595.716727 363.531608 
C 609.01302 352.008154 624.632671 343.476838 641.514192 338.517436 
C 658.395713 333.558033 676.147825 332.285493 693.564122 334.786294 
" style="fill:none;stroke:#333333;stroke-linecap:round;"/>
   </g>
   <g id="line2d_41">
    <path clip-path="url(#pbce86c77e5)" d="M 695.388901 538.000341 
C 677.021488 533.617941 660.657858 523.16714 648.957121 508.346207 
C 637.256384 493.525273 630.888632 475.18299 630.888632 456.3 
C 630.888632 437.41701 637.256384 419.074727 648.957121 404.253793 
C 660.657858 389.43286 677.021488 378.982059 695.388901 374.599659 
" style="fill:none;stroke:#333333;stroke-linecap:round;"/>
   </g>
   <g id="line2d_42">
    <path clip-path="url(#pbce86c77e5)" d="M 721.833517 489.318207 
C 717.362086 485.059701 713.801953 479.936937 711.369567 474.261369 
C 708.937181 468.585802 707.682857 462.474833 707.682857 456.3 
C 707.682857 450.125167 708.937181 444.014198 711.369567 438.338631 
C 713.801953 432.663063 717.362086 427.540299 721.833517 423.281793 
" style="fill:none;stroke:#333333;stroke-linecap:round;"/>
   </g>
   <g id="line2d_43">
    <path clip-path="url(#pbce86c77e5)" d="M 798.875968 456.3 
C 798.875968 456.3 798.875968 456.3 798.875968 456.3 
C 798.875968 456.3 798.875968 456.3 798.875968 456.3 
" style="fill:none;stroke:#333333;stroke-linecap:round;"/>
   </g>
   <g id="patch_10">
    <path d="M 479.7 775.476 
C 564.346465 775.476 645.537425 741.845603 705.391514 681.991514 
C 765.245603 622.137425 798.876 540.946465 798.876 456.3 
C 798.876 371.653535 765.245603 290.462575 705.391514 230.608486 
C 645.537425 170.754397 564.346465 137.124 479.7 137.124 
C 395.053535 137.124 313.862575 170.754397 254.008486 230.608486 
C 194.154397 290.462575 160.524 371.653535 160.524 456.3 
C 160.524 540.946465 194.154397 622.137425 254.008486 681.991514 
C 313.862575 741.845603 395.053535 775.476 479.7 775.476 
z
" style="fill:none;"/>
   </g>
   <g id="text_20">
    <g id="patch_11">
     <path clip-path="url(#pbce86c77e5)" d="M 253.75039 459.790668 
C 255.25039 457.790668 255.25039 454.809332 253.75039 452.809332 
C 252.25039 450.809332 244.894713 450.809332 243.394713 452.809332 
C 241.894713 454.809332 241.894713 457.790668 243.394713 459.790668 
C 244.894713 461.790668 252.25039 461.790668 253.75039 459.790668 
z
" style="fill:#ffffff;stroke:#ffffff;stroke-linejoin:miter;stroke-width:0.3;"/>
    </g>
    <!-- 8 -->
    <g style="fill:#262626;" transform="translate(251.063211749 458.790667626)rotate(-90.0)scale(0.1 -0.1)">
     <use transform="scale(0.9962640099626402)" xlink:href="#CMSS17-56"/>
    </g>
   </g>
   <g id="text_21">
    <g id="patch_12">
     <path clip-path="url(#pbce86c77e5)" d="M 334.677368 462.281335 
C 336.177368 460.281335 336.177368 452.318665 334.677368 450.318665 
C 333.177368 448.318665 325.821691 448.318665 324.321691 450.318665 
C 322.821691 452.318665 322.821691 460.281335 324.321691 462.281335 
C 325.821691 464.281335 333.177368 464.281335 334.677368 462.281335 
z
" style="fill:#ffffff;stroke:#ffffff;stroke-linejoin:miter;stroke-width:0.3;"/>
    </g>
    <!-- 18 -->
    <g style="fill:#262626;" transform="translate(331.990189437 461.281335252)rotate(-90.0)scale(0.1 -0.1)">
     <use transform="scale(0.9962640099626402)" xlink:href="#CMSS17-49"/>
     <use transform="translate(46.84362352117061 0.0)scale(0.9962640099626402)" xlink:href="#CMSS17-56"/>
    </g>
   </g>
   <g id="text_22">
    <g id="patch_13">
     <path clip-path="url(#pbce86c77e5)" d="M 410.009394 462.281335 
C 411.509394 460.281335 411.509394 452.318665 410.009394 450.318665 
C 408.509394 448.318665 401.153717 448.318665 399.653717 450.318665 
C 398.153717 452.318665 398.153717 460.281335 399.653717 462.281335 
C 401.153717 464.281335 408.509394 464.281335 410.009394 462.281335 
z
" style="fill:#ffffff;stroke:#ffffff;stroke-linejoin:miter;stroke-width:0.3;"/>
    </g>
    <!-- 31 -->
    <g style="fill:#262626;" transform="translate(407.32221558 461.281335252)rotate(-90.0)scale(0.1 -0.1)">
     <use transform="scale(0.9962640099626402)" xlink:href="#CMSS17-51"/>
     <use transform="translate(46.84362352117061 0.0)scale(0.9962640099626402)" xlink:href="#CMSS17-49"/>
    </g>
   </g>
   <g id="text_23">
    <g id="patch_14">
     <path clip-path="url(#pbce86c77e5)" d="M 484.877838 462.281335 
C 486.377838 460.281335 486.377838 452.318665 484.877838 450.318665 
C 483.377838 448.318665 476.022162 448.318665 474.522162 450.318665 
C 473.022162 452.318665 473.022162 460.281335 474.522162 462.281335 
C 476.022162 464.281335 483.377838 464.281335 484.877838 462.281335 
z
" style="fill:#ffffff;stroke:#ffffff;stroke-linejoin:miter;stroke-width:0.3;"/>
    </g>
    <!-- 50 -->
    <g style="fill:#262626;" transform="translate(482.190660025 461.281335252)rotate(-90.0)scale(0.1 -0.1)">
     <use transform="scale(0.9962640099626402)" xlink:href="#CMSS17-53"/>
     <use transform="translate(46.84362352117061 0.0)scale(0.9962640099626402)" xlink:href="#CMSS17-48"/>
    </g>
   </g>
   <g id="text_24">
    <g id="patch_15">
     <path clip-path="url(#pbce86c77e5)" d="M 558.533838 462.281335 
C 560.033838 460.281335 560.033838 452.318665 558.533838 450.318665 
C 557.033838 448.318665 549.678162 448.318665 548.178162 450.318665 
C 546.678162 452.318665 546.678162 460.281335 548.178162 462.281335 
C 549.678162 464.281335 557.033838 464.281335 558.533838 462.281335 
z
" style="fill:#ffffff;stroke:#ffffff;stroke-linejoin:miter;stroke-width:0.3;"/>
    </g>
    <!-- 80 -->
    <g style="fill:#262626;" transform="translate(555.846660025 461.281335252)rotate(-90.0)scale(0.1 -0.1)">
     <use transform="scale(0.9962640099626402)" xlink:href="#CMSS17-56"/>
     <use transform="translate(46.84362352117061 0.0)scale(0.9962640099626402)" xlink:href="#CMSS17-48"/>
    </g>
   </g>
   <g id="text_25">
    <g id="patch_16">
     <path clip-path="url(#pbce86c77e5)" d="M 636.06647 464.772003 
C 637.56647 462.772003 637.56647 449.827997 636.06647 447.827997 
C 634.56647 445.827997 627.210793 445.827997 625.710793 447.827997 
C 624.210793 449.827997 624.210793 462.772003 625.710793 464.772003 
C 627.210793 466.772003 634.56647 466.772003 636.06647 464.772003 
z
" style="fill:#ffffff;stroke:#ffffff;stroke-linejoin:miter;stroke-width:0.3;"/>
    </g>
    <!-- 140 -->
    <g style="fill:#262626;" transform="translate(633.379291604 463.772002877)rotate(-90.0)scale(0.1 -0.1)">
     <use transform="scale(0.9962640099626402)" xlink:href="#CMSS17-49"/>
     <use transform="translate(46.84362352117061 0.0)scale(0.9962640099626402)" xlink:href="#CMSS17-52"/>
     <use transform="translate(93.68724704234123 0.0)scale(0.9962640099626402)" xlink:href="#CMSS17-48"/>
    </g>
   </g>
   <g id="text_26">
    <g id="patch_17">
     <path clip-path="url(#pbce86c77e5)" d="M 712.860695 464.772003 
C 714.360695 462.772003 714.360695 449.827997 712.860695 447.827997 
C 711.360695 445.827997 704.005019 445.827997 702.505019 447.827997 
C 701.005019 449.827997 701.005019 462.772003 702.505019 464.772003 
C 704.005019 466.772003 711.360695 466.772003 712.860695 464.772003 
z
" style="fill:#ffffff;stroke:#ffffff;stroke-linejoin:miter;stroke-width:0.3;"/>
    </g>
    <!-- 300 -->
    <g style="fill:#262626;" transform="translate(710.173517168 463.772002877)rotate(-90.0)scale(0.1 -0.1)">
     <use transform="scale(0.9962640099626402)" xlink:href="#CMSS17-51"/>
     <use transform="translate(46.84362352117061 0.0)scale(0.9962640099626402)" xlink:href="#CMSS17-48"/>
     <use transform="translate(93.68724704234123 0.0)scale(0.9962640099626402)" xlink:href="#CMSS17-48"/>
    </g>
   </g>
   <g id="line2d_44">
    <path clip-path="url(#pbce86c77e5)" d="M 485.323605 493.880335 
L 484.721412 476.713488 
L 485.139485 468.167011 
L 484.588877 467.093497 
L 484.064769 464.632499 
L 484.721683 460.596982 
L 484.258888 458.840991 
L 484.642516 458.6431 
L 484.598486 458.030819 
L 485.079632 456.926541 
L 485.079632 456.926541 
L 485.079632 456.926541 
L 484.444069 458.410035 
L 484.668521 456.605609 
L 485.261853 457.902797 
L 484.72805 456.2678 
L 484.879581 456.135235 
L 484.808352 456.405341 
L 484.622347 456.273654 
L 485.331648 455.093868 
L 485.327215 455.901572 
L 485.550095 455.836058 
L 485.778329 455.535909 
L 485.556069 454.56624 
L 484.734534 455.141361 
L 485.539256 454.12506 
L 485.993825 455.130769 
L 485.706922 454.603635 
L 485.935204 454.242613 
L 485.642592 453.686884 
L 485.642592 453.686884 
L 485.642592 453.686884 
L 486.300849 454.954125 
L 486.382608 453.478155 
L 486.113269 453.781839 
L 486.391219 453.541968 
L 486.391219 453.541968 
L 486.455305 453.260599 
L 486.750705 454.163641 
L 487.119814 453.602686 
L 486.819373 453.921144 
L 486.989012 452.993107 
L 486.965448 453.081688 
L 486.551788 452.496559 
L 486.873823 452.622606 
L 487.52087 451.890206 
L 487.463978 452.744152 
L 487.860548 453.160552 
L 487.739134 451.664088 
L 487.739134 451.664088 
L 487.739134 451.664088 
L 487.815294 453.168094 
L 488.104532 452.395026 
L 487.860141 451.510331 
L 487.952526 452.31966 
L 488.517443 451.249533 
L 488.338179 451.668002 
L 488.908423 452.559144 
L 488.283991 451.853329 
L 489.13268 451.01903 
L 489.067717 451.228951 
L 489.328028 451.622094 
L 489.676999 451.703119 
L 489.718911 451.370333 
L 489.778807 451.67832 
L 490.436692 451.192625 
L 490.033525 451.158832 
L 490.033525 451.158832 
L 490.033525 451.158832 
L 490.649091 451.236967 
L 490.660676 451.05693 
L 490.27943 451.337206 
L 490.726323 450.810525 
L 490.669569 451.466923 
L 491.008638 450.326436 
L 491.639299 450.454723 
L 491.621653 450.658027 
L 492.053707 450.023258 
L 491.981804 451.039364 
L 492.419218 450.538703 
L 492.354482 450.676801 
L 492.746615 449.569743 
L 492.878661 450.56347 
L 493.105626 450.200117 
L 493.41572 450.511483 
L 493.514304 450.004838 
L 493.851473 450.694699 
L 493.657873 450.354089 
L 494.121581 450.626349 
L 493.996721 449.742372 
L 494.406069 450.786703 
L 494.743077 449.753967 
L 494.563637 450.601797 
L 494.895618 450.247832 
L 495.334333 448.956418 
L 495.491353 450.111025 
L 496.026148 449.804244 
L 495.968362 450.337464 
L 496.21819 449.592617 
L 496.15593 450.176062 
L 496.63139 450.528522 
L 496.645865 449.207792 
L 496.968968 450.257076 
L 497.38504 448.953648 
L 497.563061 450.164557 
L 498.219117 450.346899 
L 497.998925 449.970774 
L 498.457597 449.129491 
L 498.467551 449.516494 
L 498.687722 450.136106 
L 498.477256 450.50638 
L 499.709752 449.523121 
L 499.51815 449.325128 
L 499.92629 450.732776 
L 500.379014 449.730248 
L 500.55413 450.415399 
L 500.55413 450.415399 
L 500.55413 450.415399 
L 500.400451 449.708582 
L 500.898383 450.173185 
L 500.918639 450.458419 
L 501.144556 450.511007 
L 501.439142 450.360992 
L 501.877508 450.99666 
L 501.931402 451.682647 
L 502.554563 451.092575 
L 502.54891 450.529837 
L 502.727862 449.959907 
L 502.838932 450.774278 
L 503.523435 451.022645 
L 503.315811 450.850333 
L 503.546548 451.941575 
L 504.373757 451.747676 
L 504.732954 452.384545 
L 504.198457 451.73864 
L 505.199957 450.56854 
L 504.29884 451.04417 
L 505.546759 451.804812 
L 505.601249 451.581582 
L 505.629446 451.521828 
L 506.660126 452.451171 
L 507.259715 450.165919 
L 506.818226 453.04198 
L 508.026459 452.308688 
L 508.492654 453.405382 
L 507.960455 451.419772 
L 508.561888 453.371964 
L 508.481381 452.899821 
L 509.319908 452.64413 
L 509.451974 453.381001 
L 509.744798 453.013103 
L 509.683072 453.710198 
L 510.517164 452.99696 
L 510.316455 453.822029 
L 510.747802 454.343264 
L 511.248571 454.235838 
L 512.022964 455.395904 
L 511.841831 455.375774 
L 511.841831 455.375774 
L 511.841831 455.375774 
L 512.376202 455.35057 
L 513.203991 454.533894 
L 513.383732 454.897427 
L 513.221851 456.281369 
L 513.292271 456.842501 
L 513.671791 455.998548 
L 514.401956 456.281926 
L 514.237511 456.293289 
L 515.132545 456.175036 
L 514.803173 456.569759 
L 514.931157 457.183653 
L 515.550074 457.205006 
L 515.57523 457.464879 
L 516.459138 456.990227 
L 516.200583 457.239775 
L 517.074106 457.313597 
L 516.470498 458.209077 
L 517.542961 458.338469 
L 517.880408 460.019795 
L 517.682854 458.383781 
L 518.304245 459.548863 
L 518.69802 459.716261 
L 519.185815 460.340325 
L 518.853899 459.716478 
L 519.303152 461.135026 
L 519.623661 460.821066 
L 520.413086 461.493577 
L 519.992928 460.648487 
L 519.485838 460.752633 
L 520.802564 462.060125 
L 520.735774 461.941963 
L 521.291533 461.7818 
L 521.437406 461.618085 
L 521.847154 462.705357 
L 521.712368 462.203207 
L 522.564313 464.202926 
L 523.177789 464.133958 
L 523.177789 464.133958 
" style="fill:none;stroke:#8000ff;stroke-linecap:round;stroke-width:1.75;"/>
   </g>
   <g id="legend_1">
    <g id="line2d_45">
     <path d="M 788.103701 106.1 
L 808.103701 106.1 
" style="fill:none;stroke:#8000ff;stroke-linecap:round;stroke-width:1.75;"/>
    </g>
    <g id="line2d_46"/>
    <g id="text_27">
     <!-- min -->
     <defs>
      <path d="M 67 29.328125 
C 67 36.0625 65.296875 44 54.09375 44 
C 46.59375 44 42.09375 39.3125 40.09375 36.421875 
C 38.296875 41.71875 34.09375 44 28.09375 44 
C 21.296875 44 17 40.125 14.703125 37.328125 
L 14.703125 43.09375 
L 7.40625 43.09375 
L 7.40625 0 
L 15 0 
L 15 24.359375 
C 15 30.296875 17.203125 37.9375 24.296875 37.9375 
C 33.40625 37.9375 33.40625 31.5 33.40625 28.578125 
L 33.40625 0 
L 41 0 
L 41 24.359375 
C 41 30.296875 43.203125 37.9375 50.296875 37.9375 
C 59.40625 37.9375 59.40625 31.5 59.40625 28.578125 
L 59.40625 0 
L 67 0 
z
" id="CMSS17-109"/>
      <path d="M 15.296875 65.359375 
L 6.90625 65.359375 
L 6.90625 57 
L 15.296875 57 
z
M 14.796875 42.796875 
L 7.40625 42.796875 
L 7.40625 0 
L 14.796875 0 
z
" id="CMSS17-105"/>
      <path d="M 40.90625 29.328125 
C 40.90625 35.671875 39.40625 44 28.09375 44 
C 21.703125 44 17.5 40.71875 14.703125 37.328125 
L 14.703125 43.09375 
L 7.40625 43.09375 
L 7.40625 0 
L 15 0 
L 15 24.359375 
C 15 30.6875 17.40625 37.9375 24.203125 37.9375 
C 33 37.9375 33.296875 32 33.296875 28.578125 
L 33.296875 0 
L 40.90625 0 
z
" id="CMSS17-110"/>
     </defs>
     <g style="fill:#262626;" transform="translate(816.103700844 109.6)scale(0.1 -0.1)">
      <use transform="scale(0.9962640099626402)" xlink:href="#CMSS17-109"/>
      <use transform="translate(74.2292544316236 0.0)scale(0.9962640099626402)" xlink:href="#CMSS17-105"/>
      <use transform="translate(96.40997747703923 0.0)scale(0.9962640099626402)" xlink:href="#CMSS17-110"/>
     </g>
    </g>
    <g id="line2d_47">
     <path d="M 788.103701 120.037178 
L 808.103701 120.037178 
" style="fill:none;stroke:#ff0000;stroke-linecap:round;stroke-width:1.75;"/>
    </g>
    <g id="line2d_48"/>
    <g id="text_28">
     <!-- max -->
     <defs>
      <path d="M 37.59375 27.984375 
C 37.59375 37.375 30.90625 43.875 21.90625 43.875 
C 17.5 43.875 12.703125 43.078125 7.203125 39.890625 
L 7.796875 33.359375 
C 10.296875 35.125 14.59375 38 21.796875 38 
C 26.90625 38 30 34.0625 30 27.84375 
L 30 24 
C 14 24 4 19.34375 4 11.34375 
C 4 7.203125 6.5 -1 14.796875 -1 
C 16.296875 -1 24.40625 -1 30.203125 3.390625 
L 30.203125 -0.296875 
L 37.59375 -0.296875 
z
M 30 12.75 
C 30 10.953125 30 8.5625 27 6.78125 
C 24.40625 5.078125 21.09375 5.078125 19.703125 5.078125 
C 14.703125 5.078125 11.296875 7.984375 11.296875 11.625 
C 11.296875 18.921875 26.90625 18.921875 30 18.921875 
z
" id="CMSS17-97"/>
      <path d="M 24.796875 22.09375 
L 41.5 42.796875 
L 32.796875 42.796875 
L 21.296875 27.765625 
L 9.40625 42.796875 
L 0.5 42.796875 
L 17.796875 22.09375 
L 0 0 
L 8.796875 0 
L 21.296875 17.515625 
L 34.296875 0 
L 43.09375 0 
z
" id="CMSS17-120"/>
     </defs>
     <g style="fill:#262626;" transform="translate(816.103700844 123.53717833)scale(0.1 -0.1)">
      <use transform="scale(0.9962640099626402)" xlink:href="#CMSS17-109"/>
      <use transform="translate(74.2292544316236 0.0)scale(0.9962640099626402)" xlink:href="#CMSS17-97"/>
      <use transform="translate(119.15117503697074 0.0)scale(0.9962640099626402)" xlink:href="#CMSS17-120"/>
     </g>
    </g>
   </g>
   <g id="line2d_49">
    <path clip-path="url(#pbce86c77e5)" d="M 494.254273 490.498557 
L 489.234019 474.887878 
L 486.936399 465.674515 
L 487.186429 465.02884 
L 486.979748 461.993001 
L 486.758934 461.228004 
L 487.107774 460.876894 
L 486.989496 460.0237 
L 486.704751 458.908424 
L 486.962061 458.912249 
L 487.225349 457.988609 
L 487.238534 457.295249 
L 486.816157 458.276539 
L 486.763438 457.618752 
L 487.698959 457.501286 
L 486.98936 456.624201 
L 487.189489 456.565807 
L 486.876351 456.356213 
L 486.947473 455.858462 
L 486.895409 457.235202 
L 486.895409 457.235202 
L 486.895409 457.235202 
L 487.01981 455.830831 
L 487.228347 456.005535 
L 487.576889 454.408175 
L 487.620153 454.492597 
L 487.620549 454.614827 
L 487.184378 455.566934 
L 487.514031 454.461509 
L 487.743285 454.495364 
L 488.125187 455.900319 
L 488.193365 454.325229 
L 488.05142 454.513616 
L 488.063487 454.009915 
L 488.313991 453.50913 
L 488.20726 454.824159 
L 488.346698 453.829984 
L 488.458109 454.3827 
L 488.974614 454.183651 
L 488.488128 452.950898 
L 488.737908 453.504991 
L 489.078877 453.015904 
L 489.693675 453.603364 
L 489.110791 453.364552 
L 489.460715 452.936045 
L 489.111325 452.549909 
L 489.626027 452.282278 
L 489.613867 453.067309 
L 489.560606 452.650866 
L 490.607242 451.748743 
L 489.711654 452.201169 
L 490.302744 452.12121 
L 489.994879 451.395032 
L 489.994879 451.395032 
L 489.994879 451.395032 
L 490.792476 452.728297 
L 490.703713 451.738166 
L 491.122774 451.186757 
L 491.151294 452.027711 
L 491.665671 451.735236 
L 491.665671 451.735236 
L 491.665671 451.735236 
L 491.086292 452.06703 
L 491.086292 452.06703 
L 491.086292 452.06703 
L 492.397934 451.240511 
L 492.051731 451.926775 
L 491.810825 451.121781 
L 492.516534 450.855394 
L 492.845488 451.305138 
L 492.746635 450.912015 
L 492.646478 451.088728 
L 493.030909 450.6622 
L 492.963645 450.794456 
L 493.147107 450.327518 
L 493.370969 451.334293 
L 493.625452 450.483393 
L 493.918377 450.162527 
L 493.917662 450.402554 
L 494.29884 449.833617 
L 494.80943 451.562927 
L 494.942112 450.572575 
L 495.01839 450.600731 
L 495.048805 450.790721 
L 495.672032 449.576225 
L 496.012291 450.393625 
L 496.122076 449.702608 
L 496.526245 449.870767 
L 496.389906 449.973067 
L 496.95427 450.287465 
L 497.146667 451.653747 
L 497.146667 451.653747 
L 497.146667 451.653747 
L 497.035177 450.164388 
L 497.15533 450.180613 
L 497.724927 450.942925 
L 498.523368 449.649139 
L 498.063146 450.031495 
L 498.564336 450.563858 
L 498.439749 450.159438 
L 498.835033 450.897265 
L 499.416574 449.393796 
L 499.310018 450.669973 
L 499.310018 450.669973 
L 499.310018 450.669973 
L 499.338775 449.029784 
L 499.802037 450.512948 
L 500.121277 449.75926 
L 500.313784 450.666399 
L 500.98841 450.613083 
L 500.717309 449.773465 
L 501.268144 449.587014 
L 501.084179 450.422111 
L 501.21543 450.129612 
L 502.012953 450.358945 
L 502.255191 449.319585 
L 502.410068 451.430056 
L 502.636541 450.615714 
L 503.195409 450.335446 
L 503.115454 449.97867 
L 503.115454 449.97867 
L 503.115454 449.97867 
L 503.26169 450.976177 
L 503.705089 451.412948 
L 503.723325 450.717243 
L 504.231038 449.873715 
L 504.186324 451.065835 
L 504.69577 450.862249 
L 504.934676 450.617031 
L 505.036172 450.715242 
L 505.148289 451.206631 
L 505.345145 450.320106 
L 505.859437 451.060332 
L 506.534817 450.422071 
L 505.885609 450.849271 
L 506.467564 450.692751 
L 506.526203 450.8495 
L 506.758577 450.793386 
L 506.967415 451.911107 
L 508.436657 450.391043 
L 508.07042 451.670266 
L 508.45644 451.98737 
L 508.931108 451.653208 
L 508.267724 452.494809 
L 508.524004 451.736936 
L 508.943815 451.286151 
L 509.441352 451.299509 
L 509.708541 451.915754 
L 510.099327 451.675916 
L 509.666051 452.46131 
L 511.218444 452.467092 
L 510.896816 453.894094 
L 510.8765 453.633269 
L 511.571262 452.431186 
L 511.861842 454.041539 
L 511.80914 452.768654 
L 511.954314 453.863102 
L 513.2062 453.828669 
L 512.685801 454.04421 
L 512.467043 454.613264 
L 513.163044 453.760293 
L 513.832625 453.992586 
L 514.097838 453.728219 
L 514.242675 453.888909 
L 514.739125 455.038293 
L 514.889779 454.607868 
L 515.161611 454.879868 
L 515.35347 455.314036 
L 515.826821 455.282603 
L 515.823139 456.010238 
L 516.152805 456.80959 
L 516.843097 456.013923 
L 516.70111 456.099036 
L 517.427939 456.66667 
L 517.003678 456.09088 
L 517.840412 457.023448 
L 517.971071 456.952096 
L 517.993286 457.792734 
L 518.84887 457.309966 
L 518.65791 457.817043 
L 519.321064 457.559405 
L 519.756805 458.373302 
L 520.201692 458.900963 
L 521.07624 459.598726 
L 520.874584 459.582175 
L 521.595781 459.918763 
L 521.815429 459.392373 
L 522.020071 460.394186 
L 521.847748 460.884706 
L 522.69049 461.480556 
L 522.372221 461.44526 
L 522.724875 461.710489 
L 523.574009 461.357323 
L 523.453354 461.792726 
L 524.028433 461.336134 
L 524.182467 461.607664 
L 524.131588 462.169873 
L 524.334835 461.937123 
L 525.291707 463.435473 
L 525.351191 463.750509 
L 525.351191 463.750509 
" style="fill:none;stroke:#ff0000;stroke-linecap:round;stroke-width:1.75;"/>
   </g>
  </g>
 </g>
 <defs>
  <clipPath id="pbce86c77e5">
   <path d="M 479.7 786.357 
C 567.23214 786.357 651.190973 751.580112 713.085543 689.685543 
C 774.980112 627.790973 809.757 543.83214 809.757 456.3 
C 809.757 368.76786 774.980112 284.809027 713.085543 222.914457 
C 651.190973 161.019888 567.23214 126.243 479.7 126.243 
C 392.16786 126.243 308.209027 161.019888 246.314457 222.914457 
C 184.419888 284.809027 149.643 368.76786 149.643 456.3 
C 149.643 543.83214 184.419888 627.790973 246.314457 689.685543 
C 308.209027 751.580112 392.16786 786.357 479.7 786.357 
z
"/>
  </clipPath>
 </defs>
</svg>
