<?xml version="1.0" encoding="utf-8" standalone="no"?>
<!DOCTYPE svg PUBLIC "-//W3C//DTD SVG 1.1//EN"
  "http://www.w3.org/Graphics/SVG/1.1/DTD/svg11.dtd">
<!-- Created with matplotlib (http://matplotlib.org/) -->
<svg height="432pt" version="1.1" viewBox="0 0 432 432" width="432pt" xmlns="http://www.w3.org/2000/svg" xmlns:xlink="http://www.w3.org/1999/xlink">
 <defs>
  <style type="text/css">
*{stroke-linecap:butt;stroke-linejoin:round;stroke-miterlimit:100000;}
  </style>
 </defs>
 <g id="figure_1">
  <g id="patch_1">
   <path d="M 0 432 
L 432 432 
L 432 0 
L 0 0 
z
" style="fill:#ffffff;"/>
  </g>
  <g id="axes_1">
   <g id="patch_2">
    <path d="M 221.4 316.062 
C 249.368849 316.062 276.195932 304.949858 295.972895 285.172895 
C 315.749858 265.395932 326.862 238.568849 326.862 210.6 
C 326.862 182.631151 315.749858 155.804068 295.972895 136.027105 
C 276.195932 116.250142 249.368849 105.138 221.4 105.138 
C 193.431151 105.138 166.604068 116.250142 146.827105 136.027105 
C 127.050142 155.804068 115.938 182.631151 115.938 210.6 
C 115.938 238.568849 127.050142 265.395932 146.827105 285.172895 
C 166.604068 304.949858 193.431151 316.062 221.4 316.062 
z
" style="fill:#eaeaf2;"/>
   </g>
   <g id="matplotlib.axis_1">
    <g id="xtick_1">
     <g id="line2d_1">
      <path clip-path="url(#p039c819975)" d="M 321.84 210.600005 
L 321.84 210.599995 
" style="fill:none;stroke:#ffffff;stroke-linecap:round;"/>
     </g>
    </g>
    <g id="xtick_2">
     <g id="line2d_2">
      <path clip-path="url(#p039c819975)" d="M 321.84 210.600005 
L 321.84 210.599995 
" style="fill:none;stroke:#ffffff;stroke-linecap:round;"/>
     </g>
     <g id="text_1">
      <g id="patch_3">
       <path clip-path="url(#p039c819975)" d="M 153.845425 214.090668 
C 155.345425 212.090668 155.345425 209.109332 153.845425 207.109332 
C 152.345425 205.109332 144.989748 205.109332 143.489748 207.109332 
C 141.989748 209.109332 141.989748 212.090668 143.489748 214.090668 
C 144.989748 216.090668 152.345425 216.090668 153.845425 214.090668 
z
" style="fill:#ffffff;stroke:#ffffff;stroke-linejoin:miter;stroke-width:0.3;"/>
      </g>
      <!-- 8 -->
      <defs>
       <path d="M 30.203125 35.015625 
C 37.796875 37.46875 41.703125 43.34375 41.703125 49.125 
C 41.703125 58.234375 33.703125 66.078125 23.5 66.078125 
C 12.90625 66.078125 5.203125 57.9375 5.203125 49.125 
C 5.203125 43.4375 9 37.546875 16.703125 35.015625 
C 6.90625 31.203125 3.90625 23.625 3.90625 17.953125 
C 3.90625 6.96875 12.796875 -2 23.40625 -2 
C 34.40625 -2 43 7.171875 43 17.953125 
C 43 24.546875 39.09375 31.53125 30.203125 35.015625 
M 23.5 38 
C 16.796875 38 12.296875 42.375 12.296875 49 
C 12.296875 55.71875 16.796875 60 23.5 60 
C 29.703125 60 34.59375 56.109375 34.59375 49 
C 34.59375 41.984375 29.796875 38 23.5 38 
M 23.5 4.171875 
C 17.796875 4.171875 11.703125 8.078125 11.703125 18.0625 
C 11.703125 28.328125 18.5 31.921875 23.40625 31.921875 
C 28.796875 31.921875 35.203125 28.125 35.203125 18.0625 
C 35.203125 7.671875 28.59375 4.171875 23.5 4.171875 
" id="CMSS17-56"/>
      </defs>
      <g style="fill:#262626;" transform="translate(151.158246232 213.090667626)rotate(-90.0)scale(0.1 -0.1)">
       <use transform="scale(0.9962640099626402)" xlink:href="#CMSS17-56"/>
      </g>
     </g>
    </g>
    <g id="xtick_3">
     <g id="line2d_3">
      <path clip-path="url(#p039c819975)" d="M 321.84 210.600005 
L 321.84 210.599995 
" style="fill:none;stroke:#ffffff;stroke-linecap:round;"/>
     </g>
     <g id="text_2">
      <g id="patch_4">
       <path clip-path="url(#p039c819975)" d="M 179.311956 216.581335 
C 180.811956 214.581335 180.811956 206.618665 179.311956 204.618665 
C 177.811956 202.618665 170.456279 202.618665 168.956279 204.618665 
C 167.456279 206.618665 167.456279 214.581335 168.956279 216.581335 
C 170.456279 218.581335 177.811956 218.581335 179.311956 216.581335 
z
" style="fill:#ffffff;stroke:#ffffff;stroke-linejoin:miter;stroke-width:0.3;"/>
      </g>
      <!-- 18 -->
      <defs>
       <path d="M 28.40625 67 
L 26.5 67 
C 21.09375 61.5625 14.796875 60.78125 8.40625 60.78125 
L 8.40625 55 
C 11.296875 55 16 55 20.703125 57.296875 
L 20.703125 5.765625 
L 8.90625 5.765625 
L 8.90625 0 
L 40.203125 0 
L 40.203125 5.765625 
L 28.40625 5.765625 
z
" id="CMSS17-49"/>
      </defs>
      <g style="fill:#262626;" transform="translate(176.624777672 215.581335252)rotate(-90.0)scale(0.1 -0.1)">
       <use transform="scale(0.9962640099626402)" xlink:href="#CMSS17-49"/>
       <use transform="translate(46.84362352117061 0.0)scale(0.9962640099626402)" xlink:href="#CMSS17-56"/>
      </g>
     </g>
    </g>
    <g id="xtick_4">
     <g id="line2d_4">
      <path clip-path="url(#p039c819975)" d="M 321.84 210.600005 
L 321.84 210.599995 
" style="fill:none;stroke:#ffffff;stroke-linecap:round;"/>
     </g>
     <g id="text_3">
      <g id="patch_5">
       <path clip-path="url(#p039c819975)" d="M 203.017838 216.581335 
C 204.517838 214.581335 204.517838 206.618665 203.017838 204.618665 
C 201.517838 202.618665 194.162162 202.618665 192.662162 204.618665 
C 191.162162 206.618665 191.162162 214.581335 192.662162 216.581335 
C 194.162162 218.581335 201.517838 218.581335 203.017838 216.581335 
z
" style="fill:#ffffff;stroke:#ffffff;stroke-linejoin:miter;stroke-width:0.3;"/>
      </g>
      <!-- 31 -->
      <defs>
       <path d="M 15.703125 31.640625 
L 22.5 31.640625 
C 31.90625 31.640625 34.59375 23.546875 34.59375 17.90625 
C 34.59375 10.203125 30.203125 4.171875 23 4.171875 
C 17.40625 4.171875 9.5 6.9375 5 14.25 
C 4.296875 10.796875 4.296875 10.59375 3.90625 8.21875 
C 8.59375 1.375 16.203125 -2 23.203125 -2 
C 34.59375 -2 43 7.390625 43 17.78125 
C 43 25.59375 37.5 32.140625 30 34.609375 
C 36 37.875 40.40625 44 40.40625 51.140625 
C 40.40625 59.453125 32.703125 66.078125 23.296875 66.078125 
C 14.703125 66.078125 8 60.8125 5.203125 55.15625 
C 5.90625 54.1875 7.703125 51.3125 8.59375 49.828125 
C 10.796875 55.65625 16.5 60 23.203125 60 
C 28.796875 60 32.5 56.359375 32.5 51.109375 
C 32.5 45.6875 29 39.734375 23.09375 38.359375 
C 22.703125 38.359375 16.5 37.765625 15.703125 37.671875 
z
" id="CMSS17-51"/>
      </defs>
      <g style="fill:#262626;" transform="translate(200.330660025 215.581335252)rotate(-90.0)scale(0.1 -0.1)">
       <use transform="scale(0.9962640099626402)" xlink:href="#CMSS17-51"/>
       <use transform="translate(46.84362352117061 0.0)scale(0.9962640099626402)" xlink:href="#CMSS17-49"/>
      </g>
     </g>
    </g>
    <g id="xtick_5">
     <g id="line2d_5">
      <path clip-path="url(#p039c819975)" d="M 321.84 210.600005 
L 321.84 210.599995 
" style="fill:none;stroke:#ffffff;stroke-linecap:round;"/>
     </g>
     <g id="text_4">
      <g id="patch_6">
       <path clip-path="url(#p039c819975)" d="M 226.577838 216.581335 
C 228.077838 214.581335 228.077838 206.618665 226.577838 204.618665 
C 225.077838 202.618665 217.722162 202.618665 216.222162 204.618665 
C 214.722162 206.618665 214.722162 214.581335 216.222162 216.581335 
C 217.722162 218.581335 225.077838 218.581335 226.577838 216.581335 
z
" style="fill:#ffffff;stroke:#ffffff;stroke-linejoin:miter;stroke-width:0.3;"/>
      </g>
      <!-- 50 -->
      <defs>
       <path d="M 43.09375 31.9375 
C 43.09375 37.578125 43 48.078125 38.90625 56.1875 
C 34.796875 64 28.203125 66.078125 23.5 66.078125 
C 16.703125 66.078125 10.90625 62.125 7.90625 55.78125 
C 4.703125 49.15625 3.796875 42.328125 3.796875 31.9375 
C 3.796875 24.828125 4.09375 16.109375 7.703125 8.484375 
C 11.796875 0.078125 18.703125 -2 23.40625 -2 
C 29.59375 -2 35.59375 1.265625 39 8.09375 
C 42.5 15.21875 43.09375 23.03125 43.09375 31.9375 
M 23.40625 4.078125 
C 15.796875 4.078125 13.5 12.671875 12.796875 15.546875 
C 11.59375 20.46875 11.40625 25.21875 11.40625 33.03125 
C 11.40625 39.15625 11.40625 46.0625 13.296875 51.515625 
C 15.59375 57.828125 19.59375 60 23.40625 60 
C 30.796875 60 33.203125 52.6875 34 50.125 
C 35.5 44.890625 35.5 38.765625 35.5 33.03125 
C 35.5 23.84375 35.5 4.078125 23.40625 4.078125 
" id="CMSS17-48"/>
       <path d="M 14.59375 58.625 
L 39.09375 58.625 
L 39.09375 65 
L 7.296875 65 
L 7.296875 27.828125 
L 14 27.828125 
C 15.796875 31.96875 19.5 35 24.296875 35 
C 28.796875 35 33.796875 31.078125 33.796875 19.78125 
C 33.796875 7.703125 26.703125 4.171875 21.5 4.171875 
C 15.09375 4.171875 9.203125 8 6.59375 13.296875 
L 3.40625 7.796875 
C 8 0.765625 15.5 -2 21.5 -2 
C 33.09375 -2 42.203125 7.765625 42.203125 19.578125 
C 42.203125 31.71875 34.09375 41.078125 24.40625 41.078125 
C 20.90625 41.078125 17.5 39.890625 14.59375 37.484375 
z
" id="CMSS17-53"/>
      </defs>
      <g style="fill:#262626;" transform="translate(223.890660025 215.581335252)rotate(-90.0)scale(0.1 -0.1)">
       <use transform="scale(0.9962640099626402)" xlink:href="#CMSS17-53"/>
       <use transform="translate(46.84362352117061 0.0)scale(0.9962640099626402)" xlink:href="#CMSS17-48"/>
      </g>
     </g>
    </g>
    <g id="xtick_6">
     <g id="line2d_6">
      <path clip-path="url(#p039c819975)" d="M 321.84 210.600005 
L 321.84 210.599995 
" style="fill:none;stroke:#ffffff;stroke-linecap:round;"/>
     </g>
     <g id="text_5">
      <g id="patch_7">
       <path clip-path="url(#p039c819975)" d="M 249.7563 216.581335 
C 251.2563 214.581335 251.2563 206.618665 249.7563 204.618665 
C 248.2563 202.618665 240.900623 202.618665 239.400623 204.618665 
C 237.900623 206.618665 237.900623 214.581335 239.400623 216.581335 
C 240.900623 218.581335 248.2563 218.581335 249.7563 216.581335 
z
" style="fill:#ffffff;stroke:#ffffff;stroke-linejoin:miter;stroke-width:0.3;"/>
      </g>
      <!-- 80 -->
      <g style="fill:#262626;" transform="translate(247.069121563 215.581335252)rotate(-90.0)scale(0.1 -0.1)">
       <use transform="scale(0.9962640099626402)" xlink:href="#CMSS17-56"/>
       <use transform="translate(46.84362352117061 0.0)scale(0.9962640099626402)" xlink:href="#CMSS17-48"/>
      </g>
     </g>
    </g>
    <g id="xtick_7">
     <g id="line2d_7">
      <path clip-path="url(#p039c819975)" d="M 321.84 210.600005 
L 321.84 210.599995 
" style="fill:none;stroke:#ffffff;stroke-linecap:round;"/>
     </g>
     <g id="text_6">
      <g id="patch_8">
       <path clip-path="url(#p039c819975)" d="M 274.15468 219.072003 
C 275.65468 217.072003 275.65468 204.127997 274.15468 202.127997 
C 272.65468 200.127997 265.299004 200.127997 263.799004 202.127997 
C 262.299004 204.127997 262.299004 217.072003 263.799004 219.072003 
C 265.299004 221.072003 272.65468 221.072003 274.15468 219.072003 
z
" style="fill:#ffffff;stroke:#ffffff;stroke-linejoin:miter;stroke-width:0.3;"/>
      </g>
      <!-- 140 -->
      <defs>
       <path d="M 35.203125 17 
L 44.296875 17 
L 44.296875 23.078125 
L 35.203125 23.078125 
L 35.203125 65.296875 
L 26.40625 65.296875 
L 2.59375 23.078125 
L 2.59375 17 
L 27.296875 17 
L 27.296875 0 
L 35.203125 0 
z
M 10.296875 23.078125 
C 16.09375 33.234375 27.59375 53.734375 27.59375 60.703125 
L 27.59375 23.078125 
z
" id="CMSS17-52"/>
      </defs>
      <g style="fill:#262626;" transform="translate(271.46750213 218.072002877)rotate(-90.0)scale(0.1 -0.1)">
       <use transform="scale(0.9962640099626402)" xlink:href="#CMSS17-49"/>
       <use transform="translate(46.84362352117061 0.0)scale(0.9962640099626402)" xlink:href="#CMSS17-52"/>
       <use transform="translate(93.68724704234123 0.0)scale(0.9962640099626402)" xlink:href="#CMSS17-48"/>
      </g>
     </g>
    </g>
    <g id="xtick_8">
     <g id="line2d_8">
      <path clip-path="url(#p039c819975)" d="M 321.84 210.600005 
L 321.84 210.599995 
" style="fill:none;stroke:#ffffff;stroke-linecap:round;"/>
     </g>
     <g id="text_7">
      <g id="patch_9">
       <path clip-path="url(#p039c819975)" d="M 298.320695 219.072003 
C 299.820695 217.072003 299.820695 204.127997 298.320695 202.127997 
C 296.820695 200.127997 289.465019 200.127997 287.965019 202.127997 
C 286.465019 204.127997 286.465019 217.072003 287.965019 219.072003 
C 289.465019 221.072003 296.820695 221.072003 298.320695 219.072003 
z
" style="fill:#ffffff;stroke:#ffffff;stroke-linejoin:miter;stroke-width:0.3;"/>
      </g>
      <!-- 300 -->
      <g style="fill:#262626;" transform="translate(295.633517168 218.072002877)rotate(-90.0)scale(0.1 -0.1)">
       <use transform="scale(0.9962640099626402)" xlink:href="#CMSS17-51"/>
       <use transform="translate(46.84362352117061 0.0)scale(0.9962640099626402)" xlink:href="#CMSS17-48"/>
       <use transform="translate(93.68724704234123 0.0)scale(0.9962640099626402)" xlink:href="#CMSS17-48"/>
      </g>
     </g>
    </g>
    <g id="xtick_9">
     <g id="line2d_9">
      <path clip-path="url(#p039c819975)" d="M 321.839998 210.600004 
L 321.839998 210.599996 
" style="fill:none;stroke:#ffffff;stroke-linecap:round;"/>
     </g>
    </g>
    <g id="xtick_10"/>
    <g id="xtick_11"/>
    <g id="xtick_12"/>
    <g id="xtick_13"/>
    <g id="xtick_14"/>
    <g id="xtick_15"/>
    <g id="xtick_16"/>
    <g id="xtick_17"/>
    <g id="xtick_18"/>
    <g id="xtick_19"/>
    <g id="xtick_20"/>
    <g id="xtick_21"/>
    <g id="xtick_22"/>
    <g id="xtick_23"/>
    <g id="xtick_24"/>
    <g id="xtick_25"/>
    <g id="xtick_26"/>
    <g id="xtick_27"/>
    <g id="xtick_28"/>
    <g id="xtick_29"/>
    <g id="xtick_30"/>
    <g id="xtick_31"/>
    <g id="xtick_32"/>
    <g id="xtick_33"/>
   </g>
   <g id="matplotlib.axis_2">
    <g id="ytick_1">
     <g id="line2d_10">
      <path clip-path="url(#p039c819975)" d="M 321.84 210.60001 
L 321.839996 210.600002 
" style="fill:none;stroke:#ffffff;stroke-linecap:round;"/>
     </g>
    </g>
    <g id="ytick_2">
     <g id="line2d_11">
      <path clip-path="url(#p039c819975)" d="M 301.752 270.864 
L 321.839995 210.6 
" style="fill:none;stroke:#ffffff;stroke-linecap:round;"/>
     </g>
     <g id="text_8">
      <!-- -150j -->
      <defs>
       <path d="M 17.40625 66 
L 9 66 
L 9 57.640625 
L 17.40625 57.640625 
z
M -5.796875 -16.625 
C -2.59375 -18.609375 1.296875 -20 5.5 -20 
C 11.796875 -20 17.40625 -14.609375 17.40625 -5.71875 
L 17.40625 43.234375 
L 10 43.234375 
L 10 -6.640625 
C 10 -12.734375 5.40625 -13.640625 2.796875 -13.640625 
C 0.59375 -13.640625 -2 -12.9375 -4.296875 -10.546875 
z
" id="CMSS17-106"/>
       <path d="M 26 19 
L 26 24.765625 
L 1 24.765625 
L 1 19 
z
" id="CMSS17-45"/>
      </defs>
      <g style="fill:#262626;" transform="translate(306.326607884 281.217142929)scale(0.1 -0.1)">
       <use transform="scale(0.9962640099626402)" xlink:href="#CMSS17-45"/>
       <use transform="translate(31.229112751011833 0.0)scale(0.9962640099626402)" xlink:href="#CMSS17-49"/>
       <use transform="translate(78.07273627218245 0.0)scale(0.9962640099626402)" xlink:href="#CMSS17-53"/>
       <use transform="translate(124.91635979335307 0.0)scale(0.9962640099626402)" xlink:href="#CMSS17-48"/>
       <use transform="translate(171.75998331452368 0.0)scale(0.9962640099626402)" xlink:href="#CMSS17-106"/>
      </g>
     </g>
    </g>
    <g id="ytick_3">
     <g id="line2d_12">
      <path clip-path="url(#p039c819975)" d="M 265.413034 300.883146 
L 321.839995 210.6 
" style="fill:none;stroke:#ffffff;stroke-linecap:round;"/>
     </g>
     <g id="text_9">
      <!-- -80j -->
      <g style="fill:#262626;" transform="translate(267.423770316 315.109929986)scale(0.1 -0.1)">
       <use transform="scale(0.9962640099626402)" xlink:href="#CMSS17-45"/>
       <use transform="translate(31.229112751011833 0.0)scale(0.9962640099626402)" xlink:href="#CMSS17-56"/>
       <use transform="translate(78.07273627218245 0.0)scale(0.9962640099626402)" xlink:href="#CMSS17-48"/>
       <use transform="translate(124.91635979335307 0.0)scale(0.9962640099626402)" xlink:href="#CMSS17-106"/>
      </g>
     </g>
    </g>
    <g id="ytick_4">
     <g id="line2d_13">
      <path clip-path="url(#p039c819975)" d="M 221.4 311.04 
L 321.839995 210.6 
" style="fill:none;stroke:#ffffff;stroke-linecap:round;"/>
     </g>
     <g id="text_10">
      <!-- -50j -->
      <g style="fill:#262626;" transform="translate(212.360182823 326.530015755)scale(0.1 -0.1)">
       <use transform="scale(0.9962640099626402)" xlink:href="#CMSS17-45"/>
       <use transform="translate(31.229112751011833 0.0)scale(0.9962640099626402)" xlink:href="#CMSS17-53"/>
       <use transform="translate(78.07273627218245 0.0)scale(0.9962640099626402)" xlink:href="#CMSS17-48"/>
       <use transform="translate(124.91635979335307 0.0)scale(0.9962640099626402)" xlink:href="#CMSS17-106"/>
      </g>
     </g>
    </g>
    <g id="ytick_5">
     <g id="line2d_14">
      <path clip-path="url(#p039c819975)" d="M 176.737428 300.563594 
L 321.839995 210.6 
" style="fill:none;stroke:#ffffff;stroke-linecap:round;"/>
     </g>
     <g id="text_11">
      <!-- -31j -->
      <g style="fill:#262626;" transform="translate(156.628948208 314.646507616)scale(0.1 -0.1)">
       <use transform="scale(0.9962640099626402)" xlink:href="#CMSS17-45"/>
       <use transform="translate(31.229112751011833 0.0)scale(0.9962640099626402)" xlink:href="#CMSS17-51"/>
       <use transform="translate(78.07273627218245 0.0)scale(0.9962640099626402)" xlink:href="#CMSS17-49"/>
       <use transform="translate(124.91635979335307 0.0)scale(0.9962640099626402)" xlink:href="#CMSS17-106"/>
      </g>
     </g>
    </g>
    <g id="ytick_6">
     <g id="line2d_15">
      <path clip-path="url(#p039c819975)" d="M 139.61939 268.910595 
L 321.839995 210.6 
" style="fill:none;stroke:#ffffff;stroke-linecap:round;"/>
     </g>
     <g id="text_12">
      <!-- -16j -->
      <defs>
       <path d="M 39 64.078125 
C 34.796875 65.78125 31.796875 66.078125 29 66.078125 
C 16 66.078125 3.90625 52.625 3.90625 31.34375 
C 3.90625 4.140625 15.40625 -2 23.59375 -2 
C 28.09375 -2 32.59375 -0.609375 36.90625 4.375 
C 41.296875 9.640625 43 14.03125 43 21.703125 
C 43 34.046875 36.90625 45 27.796875 45 
C 21.203125 45 15.5 41.515625 12 37.125 
C 13 50.90625 19.59375 60 29.09375 60 
C 31.703125 60 35.09375 59.625 39 57.96875 
z
M 12.09375 21.390625 
C 12.09375 22.1875 12.09375 22.6875 12.203125 24.1875 
C 12.203125 31.953125 16.703125 38.921875 24 38.921875 
C 28.703125 38.921875 31.09375 36.4375 32.90625 33.359375 
C 35 29.46875 35.09375 25.78125 35.09375 21.703125 
C 35.09375 17.8125 35.09375 13.921875 32.796875 9.953125 
C 30.90625 6.859375 28.40625 4.171875 23.59375 4.171875 
C 14.09375 4.171875 12.5 17.40625 12.09375 21.390625 
" id="CMSS17-54"/>
      </defs>
      <g style="fill:#262626;" transform="translate(116.956364773 278.887612201)scale(0.1 -0.1)">
       <use transform="scale(0.9962640099626402)" xlink:href="#CMSS17-45"/>
       <use transform="translate(31.229112751011833 0.0)scale(0.9962640099626402)" xlink:href="#CMSS17-49"/>
       <use transform="translate(78.07273627218245 0.0)scale(0.9962640099626402)" xlink:href="#CMSS17-54"/>
       <use transform="translate(124.91635979335307 0.0)scale(0.9962640099626402)" xlink:href="#CMSS17-106"/>
      </g>
     </g>
    </g>
    <g id="ytick_7">
     <g id="line2d_16">
      <path clip-path="url(#p039c819975)" d="M 120.96 210.6 
L 321.839995 210.6 
" style="fill:none;stroke:#ffffff;stroke-linecap:round;"/>
     </g>
     <g id="text_13">
      <!-- 0 -->
      <g style="fill:#262626;" transform="translate(107.978664748 213.090660025)scale(0.1 -0.1)">
       <use transform="scale(0.9962640099626402)" xlink:href="#CMSS17-48"/>
      </g>
     </g>
    </g>
    <g id="ytick_8">
     <g id="line2d_17">
      <path clip-path="url(#p039c819975)" d="M 139.61939 152.289405 
L 321.839995 210.6 
" style="fill:none;stroke:#ffffff;stroke-linecap:round;"/>
     </g>
     <g id="text_14">
      <!-- 16j -->
      <g style="fill:#262626;" transform="translate(120.277239739 147.293707849)scale(0.1 -0.1)">
       <use transform="scale(0.9962640099626402)" xlink:href="#CMSS17-49"/>
       <use transform="translate(46.84362352117061 0.0)scale(0.9962640099626402)" xlink:href="#CMSS17-54"/>
       <use transform="translate(93.68724704234123 0.0)scale(0.9962640099626402)" xlink:href="#CMSS17-106"/>
      </g>
     </g>
    </g>
    <g id="ytick_9">
     <g id="line2d_18">
      <path clip-path="url(#p039c819975)" d="M 176.737428 120.636406 
L 321.839995 210.6 
" style="fill:none;stroke:#ffffff;stroke-linecap:round;"/>
     </g>
     <g id="text_15">
      <!-- 31j -->
      <g style="fill:#262626;" transform="translate(159.949823174 111.534812434)scale(0.1 -0.1)">
       <use transform="scale(0.9962640099626402)" xlink:href="#CMSS17-51"/>
       <use transform="translate(46.84362352117061 0.0)scale(0.9962640099626402)" xlink:href="#CMSS17-49"/>
       <use transform="translate(93.68724704234123 0.0)scale(0.9962640099626402)" xlink:href="#CMSS17-106"/>
      </g>
     </g>
    </g>
    <g id="ytick_10">
     <g id="line2d_19">
      <path clip-path="url(#p039c819975)" d="M 221.4 110.16 
L 321.839995 210.6 
" style="fill:none;stroke:#ffffff;stroke-linecap:round;"/>
     </g>
     <g id="text_16">
      <!-- 50j -->
      <g style="fill:#262626;" transform="translate(214.020620306 99.6513042945)scale(0.1 -0.1)">
       <use transform="scale(0.9962640099626402)" xlink:href="#CMSS17-53"/>
       <use transform="translate(46.84362352117061 0.0)scale(0.9962640099626402)" xlink:href="#CMSS17-48"/>
       <use transform="translate(93.68724704234123 0.0)scale(0.9962640099626402)" xlink:href="#CMSS17-106"/>
      </g>
     </g>
    </g>
    <g id="ytick_11">
     <g id="line2d_20">
      <path clip-path="url(#p039c819975)" d="M 265.413034 120.316854 
L 321.839995 210.6 
" style="fill:none;stroke:#ffffff;stroke-linecap:round;"/>
     </g>
     <g id="text_17">
      <!-- 80j -->
      <g style="fill:#262626;" transform="translate(267.423770316 111.071390064)scale(0.1 -0.1)">
       <use transform="scale(0.9962640099626402)" xlink:href="#CMSS17-56"/>
       <use transform="translate(46.84362352117061 0.0)scale(0.9962640099626402)" xlink:href="#CMSS17-48"/>
       <use transform="translate(93.68724704234123 0.0)scale(0.9962640099626402)" xlink:href="#CMSS17-106"/>
      </g>
     </g>
    </g>
    <g id="ytick_12">
     <g id="line2d_21">
      <path clip-path="url(#p039c819975)" d="M 301.752 150.336 
L 321.839995 210.6 
" style="fill:none;stroke:#ffffff;stroke-linecap:round;"/>
     </g>
     <g id="text_18">
      <!-- 150j -->
      <g style="fill:#262626;" transform="translate(306.326607884 144.964177121)scale(0.1 -0.1)">
       <use transform="scale(0.9962640099626402)" xlink:href="#CMSS17-49"/>
       <use transform="translate(46.84362352117061 0.0)scale(0.9962640099626402)" xlink:href="#CMSS17-53"/>
       <use transform="translate(93.68724704234123 0.0)scale(0.9962640099626402)" xlink:href="#CMSS17-48"/>
       <use transform="translate(140.53087056351185 0.0)scale(0.9962640099626402)" xlink:href="#CMSS17-106"/>
      </g>
     </g>
    </g>
    <g id="ytick_13">
     <g id="line2d_22">
      <path clip-path="url(#p039c819975)" d="M 321.84 210.59999 
L 321.839996 210.599998 
" style="fill:none;stroke:#ffffff;stroke-linecap:round;"/>
     </g>
     <g id="text_19">
      <!-- âˆ  -->
      <defs>
       <path d="M 50.796875 27.0625 
C 45.40625 33.859375 44.203125 35.359375 41.09375 37.859375 
C 35.5 42.34375 29.90625 44.140625 24.796875 44.140625 
C 13.09375 44.140625 5.5 33.15625 5.5 21.46875 
C 5.5 9.984375 12.90625 -1.09375 24.40625 -1.09375 
C 35.90625 -1.09375 44.203125 7.984375 49.09375 15.96875 
C 54.5 9.1875 55.703125 7.6875 58.796875 5.1875 
C 64.40625 0.703125 70 -1.09375 75.09375 -1.09375 
C 86.796875 -1.09375 94.40625 9.890625 94.40625 21.5625 
C 94.40625 33.046875 87 44.140625 75.5 44.140625 
C 64 44.140625 55.703125 35.046875 50.796875 27.0625 
M 53.40625 23.65625 
C 57.5 30.859375 64.90625 40.9375 76.203125 40.9375 
C 86.796875 40.9375 92.203125 30.546875 92.203125 21.5625 
C 92.203125 11.765625 85.5 3.6875 76.703125 3.6875 
C 70.90625 3.6875 66.40625 7.890625 64.296875 9.96875 
C 61.796875 12.671875 59.5 15.765625 53.40625 23.65625 
M 46.5 19.375 
C 42.40625 12.1875 35 2.09375 23.703125 2.09375 
C 13.09375 2.09375 7.703125 12.484375 7.703125 21.46875 
C 7.703125 31.25 14.40625 39.34375 23.203125 39.34375 
C 29 39.34375 33.5 35.140625 35.59375 33.046875 
C 38.09375 30.359375 40.40625 27.25 46.5 19.375 
" id="CMSY10-49"/>
      </defs>
      <g style="fill:#262626;" transform="translate(327.84 215.082606621)scale(0.18 -0.18)">
       <use transform="scale(0.9962640099626402)" xlink:href="#CMSY10-49"/>
      </g>
     </g>
    </g>
    <g id="ytick_14"/>
    <g id="ytick_15"/>
    <g id="ytick_16"/>
    <g id="ytick_17"/>
    <g id="ytick_18"/>
    <g id="ytick_19"/>
    <g id="ytick_20"/>
    <g id="ytick_21"/>
    <g id="ytick_22"/>
    <g id="ytick_23"/>
    <g id="ytick_24"/>
    <g id="ytick_25"/>
    <g id="ytick_26"/>
    <g id="ytick_27"/>
    <g id="ytick_28"/>
    <g id="ytick_29"/>
    <g id="ytick_30"/>
    <g id="ytick_31"/>
    <g id="ytick_32"/>
    <g id="ytick_33"/>
    <g id="ytick_34"/>
    <g id="ytick_35"/>
    <g id="ytick_36"/>
    <g id="ytick_37"/>
    <g id="ytick_38"/>
    <g id="ytick_39"/>
    <g id="ytick_40"/>
    <g id="ytick_41"/>
    <g id="ytick_42"/>
    <g id="ytick_43"/>
    <g id="ytick_44"/>
    <g id="ytick_45"/>
    <g id="ytick_46"/>
    <g id="ytick_47"/>
    <g id="ytick_48"/>
    <g id="ytick_49"/>
   </g>
   <g id="line2d_23">
    <path clip-path="url(#p039c819975)" d="M 120.96 210.6 
L 321.83999 210.6 
" style="fill:none;stroke:#333333;stroke-linecap:round;"/>
   </g>
   <g id="line2d_24">
    <path clip-path="url(#p039c819975)" d="M 139.61939 152.289405 
C 155.581819 163.670816 172.575516 173.531729 190.37759 181.742807 
C 208.179664 189.953886 226.711942 196.479072 245.73135 201.232782 
" style="fill:none;stroke:#333333;stroke-linecap:round;"/>
   </g>
   <g id="line2d_25">
    <path clip-path="url(#p039c819975)" d="M 139.61939 268.910595 
C 155.581819 257.529184 172.575516 247.668271 190.37759 239.457193 
C 208.179664 231.246114 226.711942 224.720928 245.73135 219.967218 
" style="fill:none;stroke:#333333;stroke-linecap:round;"/>
   </g>
   <g id="line2d_26">
    <path clip-path="url(#p039c819975)" d="M 176.737428 120.636406 
C 186.210832 139.718634 199.356065 156.746024 215.418694 170.741335 
C 231.481324 184.736646 250.148066 195.426916 270.347596 202.198608 
" style="fill:none;stroke:#333333;stroke-linecap:round;"/>
   </g>
   <g id="line2d_27">
    <path clip-path="url(#p039c819975)" d="M 176.737428 300.563594 
C 186.210832 281.481366 199.356065 264.453976 215.418694 250.458665 
C 231.481324 236.463354 250.148066 225.773084 270.347596 219.001392 
" style="fill:none;stroke:#333333;stroke-linecap:round;"/>
   </g>
   <g id="line2d_28">
    <path clip-path="url(#p039c819975)" d="M 265.413034 120.316854 
C 259.74225 131.94923 257.804854 145.055396 259.867576 157.830964 
C 261.930298 170.606532 267.893923 182.437013 276.937412 191.693647 
" style="fill:none;stroke:#333333;stroke-linecap:round;"/>
   </g>
   <g id="line2d_29">
    <path clip-path="url(#p039c819975)" d="M 265.413034 300.883146 
C 259.74225 289.25077 257.804854 276.144604 259.867576 263.369036 
C 261.930298 250.593468 267.893923 238.762987 276.937412 229.506353 
" style="fill:none;stroke:#333333;stroke-linecap:round;"/>
   </g>
   <g id="line2d_30">
    <path clip-path="url(#p039c819975)" d="M 221.4 110.16 
C 221.4 131.888507 228.450896 153.041195 241.488 170.424 
C 254.525104 187.806805 272.857434 200.498418 293.7168 206.5824 
" style="fill:none;stroke:#333333;stroke-linecap:round;"/>
   </g>
   <g id="line2d_31">
    <path clip-path="url(#p039c819975)" d="M 221.4 311.04 
C 221.4 289.311493 228.450896 268.158805 241.488 250.776 
C 254.525104 233.393195 272.857434 220.701582 293.7168 214.6176 
" style="fill:none;stroke:#333333;stroke-linecap:round;"/>
   </g>
   <g id="line2d_32">
    <path clip-path="url(#p039c819975)" d="M 301.752 150.336 
C 296.13136 154.55148 291.977754 160.431126 289.882887 167.137347 
C 287.788021 173.843568 287.85633 181.042041 290.078082 187.707301 
C 292.299834 194.37256 296.564269 200.172325 302.263894 204.280384 
C 307.963518 208.388443 314.81419 210.599998 321.83999 210.6 
" style="fill:none;stroke:#333333;stroke-linecap:round;"/>
   </g>
   <g id="line2d_33">
    <path clip-path="url(#p039c819975)" d="M 301.752 270.864 
C 296.13136 266.64852 291.977754 260.768874 289.882887 254.062653 
C 287.788021 247.356432 287.85633 240.157959 290.078082 233.492699 
C 292.299834 226.82744 296.564269 221.027675 302.263894 216.919616 
C 307.963518 212.811557 314.81419 210.600002 321.83999 210.6 
" style="fill:none;stroke:#333333;stroke-linecap:round;"/>
   </g>
   <g id="line2d_34">
    <path clip-path="url(#p039c819975)" d="M 321.84 210.59999 
C 321.839999 210.59999 321.839997 210.59999 321.839996 210.599991 
C 321.839996 210.599992 321.839995 210.599994 321.839995 210.599995 
" style="fill:none;stroke:#333333;stroke-linecap:round;"/>
   </g>
   <g id="line2d_35">
    <path clip-path="url(#p039c819975)" d="M 321.84 210.60001 
C 321.839999 210.60001 321.839997 210.60001 321.839996 210.600009 
C 321.839996 210.600008 321.839995 210.600006 321.839995 210.600005 
" style="fill:none;stroke:#333333;stroke-linecap:round;"/>
   </g>
   <g id="line2d_36">
    <path clip-path="url(#p039c819975)" d="M 262.176747 292.894142 
C 249.17646 297.147253 235.351492 298.2599 221.838348 296.140616 
C 208.325204 294.021333 195.504608 288.729827 184.430498 280.701097 
C 173.356387 272.672367 164.340769 262.132617 158.124786 249.948284 
C 151.908803 237.76395 148.667586 224.278319 148.667586 210.6 
C 148.667586 196.921681 151.908803 183.43605 158.124786 171.251716 
C 164.340769 159.067383 173.356387 148.527633 184.430498 140.498903 
C 195.504608 132.470173 208.325204 127.178667 221.838348 125.059384 
C 235.351492 122.9401 249.17646 124.052747 262.176747 128.305858 
" style="fill:none;stroke:#333333;stroke-linecap:round;"/>
   </g>
   <g id="line2d_37">
    <path clip-path="url(#p039c819975)" d="M 259.069843 272.595216 
C 242.767136 272.392691 227.184745 265.767505 215.727928 254.167478 
C 204.271112 242.567451 197.84 226.903965 197.84 210.6 
C 197.84 194.296035 204.271112 178.632549 215.727928 167.032522 
C 227.184745 155.432495 242.767136 148.807309 259.069843 148.604784 
" style="fill:none;stroke:#333333;stroke-linecap:round;"/>
   </g>
   <g id="line2d_38">
    <path clip-path="url(#p039c819975)" d="M 296.659643 266.144905 
C 285.986344 275.497645 272.84011 281.5787 258.801788 283.656817 
C 244.763466 285.734935 230.419262 283.723337 217.494081 277.863922 
C 204.5689 272.004507 193.602465 262.541948 185.913502 250.614128 
C 178.224538 238.686307 174.134118 224.791302 174.134118 210.6 
C 174.134118 196.408698 178.224538 182.513693 185.913502 170.585872 
C 193.602465 158.658052 204.5689 149.195493 217.494081 143.336078 
C 230.419262 137.476663 244.763466 135.465065 258.801788 137.543183 
C 272.84011 139.6213 285.986344 145.702355 296.659643 155.055095 
" style="fill:none;stroke:#333333;stroke-linecap:round;"/>
   </g>
   <g id="line2d_39">
    <path clip-path="url(#p039c819975)" d="M 290.935385 256.956923 
C 283.304178 260.136592 275.004595 261.38325 266.776002 260.585839 
C 258.54741 259.788427 250.641633 256.97135 243.762956 252.385566 
C 236.88428 247.799782 231.243217 241.585632 227.342302 234.296705 
C 223.441386 227.007778 221.4 218.86714 221.4 210.6 
C 221.4 202.33286 223.441386 194.192222 227.342302 186.903295 
C 231.243217 179.614368 236.88428 173.400218 243.762956 168.814434 
C 250.641633 164.22865 258.54741 161.411573 266.776002 160.614161 
C 275.004595 159.81675 283.304178 161.063408 290.935385 164.243077 
" style="fill:none;stroke:#333333;stroke-linecap:round;"/>
   </g>
   <g id="line2d_40">
    <path clip-path="url(#p039c819975)" d="M 288.699898 248.838579 
C 283.219246 249.625544 277.632917 249.225094 272.32055 247.664443 
C 267.008183 246.103792 262.092909 243.419112 257.90876 239.792851 
C 253.724612 236.166589 250.36857 231.682794 248.068706 226.646179 
C 245.768842 221.609563 244.578462 216.136865 244.578462 210.6 
C 244.578462 205.063135 245.768842 199.590437 248.068706 194.553821 
C 250.36857 189.517206 253.724612 185.033411 257.90876 181.407149 
C 262.092909 177.780888 267.008183 175.096208 272.32055 173.535557 
C 277.632917 171.974906 283.219246 171.574456 288.699898 172.361421 
" style="fill:none;stroke:#333333;stroke-linecap:round;"/>
   </g>
   <g id="line2d_41">
    <path clip-path="url(#p039c819975)" d="M 289.27413 236.309898 
C 283.494174 234.930821 278.34478 231.642107 274.66273 226.978177 
C 270.98068 222.314247 268.976842 216.5422 268.976842 210.6 
C 268.976842 204.6578 270.98068 198.885753 274.66273 194.221823 
C 278.34478 189.557893 283.494174 186.269179 289.27413 184.890102 
" style="fill:none;stroke:#333333;stroke-linecap:round;"/>
   </g>
   <g id="line2d_42">
    <path clip-path="url(#p039c819975)" d="M 297.595862 220.990345 
C 296.188768 219.650256 295.068447 218.038197 294.30301 216.252179 
C 293.537574 214.466162 293.142857 212.543129 293.142857 210.6 
C 293.142857 208.656871 293.537574 206.733838 294.30301 204.947821 
C 295.068447 203.161803 296.188768 201.549744 297.595862 200.209655 
" style="fill:none;stroke:#333333;stroke-linecap:round;"/>
   </g>
   <g id="line2d_43">
    <path clip-path="url(#p039c819975)" d="M 321.83999 210.6 
C 321.83999 210.6 321.83999 210.6 321.83999 210.6 
C 321.83999 210.6 321.83999 210.6 321.83999 210.6 
" style="fill:none;stroke:#333333;stroke-linecap:round;"/>
   </g>
   <g id="patch_10">
    <path d="M 221.4 311.04 
C 248.036999 311.04 273.586602 300.457008 292.421805 281.621805 
C 311.257008 262.786602 321.84 237.236999 321.84 210.6 
C 321.84 183.963001 311.257008 158.413398 292.421805 139.578195 
C 273.586602 120.742992 248.036999 110.16 221.4 110.16 
C 194.763001 110.16 169.213398 120.742992 150.378195 139.578195 
C 131.542992 158.413398 120.96 183.963001 120.96 210.6 
C 120.96 237.236999 131.542992 262.786602 150.378195 281.621805 
C 169.213398 300.457008 194.763001 311.04 221.4 311.04 
L 221.4 311.04 
z
" style="fill:none;"/>
   </g>
   <g id="text_20">
    <g id="patch_11">
     <path clip-path="url(#p039c819975)" d="M 153.845425 214.090668 
C 155.345425 212.090668 155.345425 209.109332 153.845425 207.109332 
C 152.345425 205.109332 144.989748 205.109332 143.489748 207.109332 
C 141.989748 209.109332 141.989748 212.090668 143.489748 214.090668 
C 144.989748 216.090668 152.345425 216.090668 153.845425 214.090668 
z
" style="fill:#ffffff;stroke:#ffffff;stroke-linejoin:miter;stroke-width:0.3;"/>
    </g>
    <!-- 8 -->
    <g style="fill:#262626;" transform="translate(151.158246232 213.090667626)rotate(-90.0)scale(0.1 -0.1)">
     <use transform="scale(0.9962640099626402)" xlink:href="#CMSS17-56"/>
    </g>
   </g>
   <g id="text_21">
    <g id="patch_12">
     <path clip-path="url(#p039c819975)" d="M 179.311956 216.581335 
C 180.811956 214.581335 180.811956 206.618665 179.311956 204.618665 
C 177.811956 202.618665 170.456279 202.618665 168.956279 204.618665 
C 167.456279 206.618665 167.456279 214.581335 168.956279 216.581335 
C 170.456279 218.581335 177.811956 218.581335 179.311956 216.581335 
z
" style="fill:#ffffff;stroke:#ffffff;stroke-linejoin:miter;stroke-width:0.3;"/>
    </g>
    <!-- 18 -->
    <g style="fill:#262626;" transform="translate(176.624777672 215.581335252)rotate(-90.0)scale(0.1 -0.1)">
     <use transform="scale(0.9962640099626402)" xlink:href="#CMSS17-49"/>
     <use transform="translate(46.84362352117061 0.0)scale(0.9962640099626402)" xlink:href="#CMSS17-56"/>
    </g>
   </g>
   <g id="text_22">
    <g id="patch_13">
     <path clip-path="url(#p039c819975)" d="M 203.017838 216.581335 
C 204.517838 214.581335 204.517838 206.618665 203.017838 204.618665 
C 201.517838 202.618665 194.162162 202.618665 192.662162 204.618665 
C 191.162162 206.618665 191.162162 214.581335 192.662162 216.581335 
C 194.162162 218.581335 201.517838 218.581335 203.017838 216.581335 
z
" style="fill:#ffffff;stroke:#ffffff;stroke-linejoin:miter;stroke-width:0.3;"/>
    </g>
    <!-- 31 -->
    <g style="fill:#262626;" transform="translate(200.330660025 215.581335252)rotate(-90.0)scale(0.1 -0.1)">
     <use transform="scale(0.9962640099626402)" xlink:href="#CMSS17-51"/>
     <use transform="translate(46.84362352117061 0.0)scale(0.9962640099626402)" xlink:href="#CMSS17-49"/>
    </g>
   </g>
   <g id="text_23">
    <g id="patch_14">
     <path clip-path="url(#p039c819975)" d="M 226.577838 216.581335 
C 228.077838 214.581335 228.077838 206.618665 226.577838 204.618665 
C 225.077838 202.618665 217.722162 202.618665 216.222162 204.618665 
C 214.722162 206.618665 214.722162 214.581335 216.222162 216.581335 
C 217.722162 218.581335 225.077838 218.581335 226.577838 216.581335 
z
" style="fill:#ffffff;stroke:#ffffff;stroke-linejoin:miter;stroke-width:0.3;"/>
    </g>
    <!-- 50 -->
    <g style="fill:#262626;" transform="translate(223.890660025 215.581335252)rotate(-90.0)scale(0.1 -0.1)">
     <use transform="scale(0.9962640099626402)" xlink:href="#CMSS17-53"/>
     <use transform="translate(46.84362352117061 0.0)scale(0.9962640099626402)" xlink:href="#CMSS17-48"/>
    </g>
   </g>
   <g id="text_24">
    <g id="patch_15">
     <path clip-path="url(#p039c819975)" d="M 249.7563 216.581335 
C 251.2563 214.581335 251.2563 206.618665 249.7563 204.618665 
C 248.2563 202.618665 240.900623 202.618665 239.400623 204.618665 
C 237.900623 206.618665 237.900623 214.581335 239.400623 216.581335 
C 240.900623 218.581335 248.2563 218.581335 249.7563 216.581335 
z
" style="fill:#ffffff;stroke:#ffffff;stroke-linejoin:miter;stroke-width:0.3;"/>
    </g>
    <!-- 80 -->
    <g style="fill:#262626;" transform="translate(247.069121563 215.581335252)rotate(-90.0)scale(0.1 -0.1)">
     <use transform="scale(0.9962640099626402)" xlink:href="#CMSS17-56"/>
     <use transform="translate(46.84362352117061 0.0)scale(0.9962640099626402)" xlink:href="#CMSS17-48"/>
    </g>
   </g>
   <g id="text_25">
    <g id="patch_16">
     <path clip-path="url(#p039c819975)" d="M 274.15468 219.072003 
C 275.65468 217.072003 275.65468 204.127997 274.15468 202.127997 
C 272.65468 200.127997 265.299004 200.127997 263.799004 202.127997 
C 262.299004 204.127997 262.299004 217.072003 263.799004 219.072003 
C 265.299004 221.072003 272.65468 221.072003 274.15468 219.072003 
z
" style="fill:#ffffff;stroke:#ffffff;stroke-linejoin:miter;stroke-width:0.3;"/>
    </g>
    <!-- 140 -->
    <g style="fill:#262626;" transform="translate(271.46750213 218.072002877)rotate(-90.0)scale(0.1 -0.1)">
     <use transform="scale(0.9962640099626402)" xlink:href="#CMSS17-49"/>
     <use transform="translate(46.84362352117061 0.0)scale(0.9962640099626402)" xlink:href="#CMSS17-52"/>
     <use transform="translate(93.68724704234123 0.0)scale(0.9962640099626402)" xlink:href="#CMSS17-48"/>
    </g>
   </g>
   <g id="text_26">
    <g id="patch_17">
     <path clip-path="url(#p039c819975)" d="M 298.320695 219.072003 
C 299.820695 217.072003 299.820695 204.127997 298.320695 202.127997 
C 296.820695 200.127997 289.465019 200.127997 287.965019 202.127997 
C 286.465019 204.127997 286.465019 217.072003 287.965019 219.072003 
C 289.465019 221.072003 296.820695 221.072003 298.320695 219.072003 
z
" style="fill:#ffffff;stroke:#ffffff;stroke-linejoin:miter;stroke-width:0.3;"/>
    </g>
    <!-- 300 -->
    <g style="fill:#262626;" transform="translate(295.633517168 218.072002877)rotate(-90.0)scale(0.1 -0.1)">
     <use transform="scale(0.9962640099626402)" xlink:href="#CMSS17-51"/>
     <use transform="translate(46.84362352117061 0.0)scale(0.9962640099626402)" xlink:href="#CMSS17-48"/>
     <use transform="translate(93.68724704234123 0.0)scale(0.9962640099626402)" xlink:href="#CMSS17-48"/>
    </g>
   </g>
   <g id="line2d_44">
    <path clip-path="url(#p039c819975)" d="M 223.169666 222.42598 
L 222.980165 217.023825 
L 223.111726 214.334374 
L 222.938458 213.996555 
L 222.773529 213.222115 
L 222.912307 211.71747 
L 222.834615 211.399613 
L 222.955337 211.337339 
L 222.941481 211.144663 
L 223.092891 210.797163 
L 223.092891 210.797163 
L 223.092891 210.797163 
L 222.892889 211.263997 
L 222.962068 211.030554 
L 222.963521 210.696171 
L 223.150234 211.104377 
L 223.150234 211.104377 
L 223.150234 211.104377 
L 223.029938 210.548151 
L 222.94899 210.591709 
L 223.172197 210.220448 
L 223.170802 210.47462 
L 223.240939 210.454004 
L 223.312761 210.359552 
L 223.242819 210.054411 
L 222.984294 210.235393 
L 223.237528 209.915578 
L 223.380574 210.23206 
L 223.362127 209.95257 
L 223.362127 209.95257 
L 223.270047 209.777691 
L 223.270047 209.777691 
L 223.270047 209.777691 
L 223.47719 210.176473 
L 223.525795 209.643545 
L 223.618753 209.927719 
L 223.734907 209.751195 
L 223.640362 209.851409 
L 223.693745 209.559369 
L 223.68633 209.587244 
L 223.556157 209.403113 
L 223.657497 209.442778 
L 223.861113 209.212303 
L 223.84321 209.481027 
L 223.968005 209.612062 
L 223.929797 209.141147 
L 223.929797 209.141147 
L 223.929797 209.141147 
L 223.953764 209.614435 
L 224.044783 209.371162 
L 224.044783 209.371162 
L 223.967877 209.092761 
L 223.996949 209.347445 
L 224.17472 209.010692 
L 224.118308 209.142378 
L 224.297755 209.422808 
L 224.101256 209.200698 
L 224.368326 208.938156 
L 224.347883 209.004215 
L 224.539615 209.153429 
L 224.552804 209.048706 
L 224.571652 209.145625 
L 224.869822 208.872543 
L 224.851962 209.079102 
L 224.851962 209.079102 
L 224.851962 209.079102 
L 224.958662 208.720207 
L 225.151569 208.824554 
L 225.28753 208.624801 
L 225.264903 208.944555 
L 225.402551 208.787004 
L 225.38218 208.830462 
L 225.505578 208.482087 
L 225.547131 208.794798 
L 225.618554 208.680456 
L 225.716136 208.778439 
L 225.747158 208.619005 
L 225.93826 208.814585 
L 225.898968 208.536411 
L 225.898968 208.536411 
L 225.898968 208.536411 
L 226.027784 208.865047 
L 226.319895 208.289083 
L 226.369307 208.65242 
L 226.537599 208.555881 
L 226.519415 208.723678 
L 226.519415 208.723678 
L 226.519415 208.723678 
L 226.598032 208.489285 
L 226.57844 208.672887 
L 226.72806 208.783801 
L 226.732615 208.368186 
L 226.834291 208.69838 
L 226.965222 208.288211 
L 227.021243 208.669266 
L 227.227694 208.726646 
L 227.158403 208.608286 
L 227.30274 208.343546 
L 227.305873 208.46533 
L 227.308927 208.776833 
L 227.696775 208.467416 
L 227.636481 208.40511 
L 227.764916 208.848076 
L 227.907382 208.532596 
L 227.962489 208.748203 
L 227.962489 208.748203 
L 227.962489 208.748203 
L 227.914128 208.525777 
L 228.378936 208.931117 
L 228.395896 209.146987 
L 228.591995 208.9613 
L 228.64653 208.604866 
L 228.681482 208.861136 
L 228.896885 208.939294 
L 228.831549 208.88507 
L 228.904158 209.228468 
L 229.164469 209.16745 
L 229.277503 209.367864 
L 229.277503 209.367864 
L 229.277503 209.367864 
L 229.109305 209.164607 
L 229.424462 208.796394 
L 229.140894 208.946067 
L 229.883956 209.38883 
L 230.072638 208.669695 
L 230.072638 208.669695 
L 230.072638 208.669695 
L 229.933708 209.574749 
L 230.313921 209.343993 
L 230.460625 209.689106 
L 230.460625 209.689106 
L 230.460625 209.689106 
L 230.29315 209.064264 
L 230.457078 209.530014 
L 230.72095 209.449552 
L 230.762509 209.681434 
L 230.854657 209.565662 
L 230.835233 209.785027 
L 231.097709 209.560582 
L 231.034549 209.820219 
L 231.170287 209.984244 
L 231.327872 209.950439 
L 231.682721 210.301228 
L 231.943214 210.044232 
L 231.999776 210.158631 
L 231.970994 210.770717 
L 232.090424 210.505137 
L 232.320196 210.594312 
L 232.268448 210.597888 
L 232.550101 210.560676 
L 232.446453 210.684889 
L 232.486728 210.878073 
L 233.161082 210.918964 
L 232.971136 211.200759 
L 233.308624 211.241476 
L 233.414814 211.770565 
L 233.352646 211.255735 
L 233.672104 211.675047 
L 233.825606 211.871431 
L 233.721157 211.675116 
L 233.86253 212.121512 
L 233.96339 212.022713 
L 234.21181 212.234342 
L 234.079593 211.968405 
L 233.920019 212.001178 
L 234.334373 212.412627 
L 234.313355 212.375443 
L 234.534149 212.273523 
L 234.88877 213.086935 
L 235.081822 213.065232 
L 235.081822 213.065232 
" style="fill:none;stroke:#8000ff;stroke-linecap:round;stroke-width:1.75;"/>
   </g>
   <g id="legend_1">
    <g id="line2d_45">
     <path d="M 232.25368 72.44 
L 252.25368 72.44 
" style="fill:none;stroke:#8000ff;stroke-linecap:round;stroke-width:1.75;"/>
    </g>
    <g id="line2d_46"/>
    <g id="text_27">
     <!-- $\mathrm{minimale\,Impedanz}$ -->
     <defs>
      <path d="M 15.296875 68.6875 
L 3.40625 67.59375 
L 3.40625 65 
C 9.296875 65 10.203125 64.40625 10.203125 59.640625 
L 10.203125 6.65625 
C 10.203125 2.875 9.796875 2.390625 3.40625 2.390625 
L 3.40625 -0.203125 
C 5.796875 0 10.203125 0 12.703125 0 
C 15.296875 0 19.703125 0 22.09375 -0.203125 
L 22.09375 2.390625 
C 15.703125 2.390625 15.296875 2.78125 15.296875 6.65625 
z
" id="CMR17-108"/>
      <path d="M 19.703125 61.015625 
C 19.703125 65.5 20.90625 65.5 28.09375 65.5 
L 28.09375 68 
C 24.90625 68 19.796875 68 16.40625 68 
C 13 68 7.90625 68 4.703125 68 
L 4.703125 65.5 
C 11.90625 65.5 13.09375 65.5 13.09375 61.015625 
L 13.09375 6.984375 
C 13.09375 2.5 11.90625 2.5 4.703125 2.5 
L 4.703125 0 
C 7.90625 0 13 0 16.40625 0 
C 19.796875 0 24.90625 0 28.09375 0 
L 28.09375 2.5 
C 20.90625 2.5 19.703125 2.5 19.703125 6.984375 
z
" id="CMR17-73"/>
      <path d="M 15.5 61.078125 
C 15.5 63.265625 13.703125 65.15625 11.40625 65.15625 
C 9.203125 65.15625 7.296875 63.375 7.296875 61.078125 
C 7.296875 58.890625 9.09375 57 11.40625 57 
C 13.59375 57 15.5 58.796875 15.5 61.078125 
M 3.796875 42.28125 
L 3.796875 39.703125 
C 9.40625 39.703125 10.203125 39.09375 10.203125 34.328125 
L 10.203125 6.671875 
C 10.203125 2.875 9.796875 2.390625 3.40625 2.390625 
L 3.40625 -0.203125 
C 5.796875 0 10.09375 0 12.59375 0 
C 15 0 19.09375 0 21.40625 -0.203125 
L 21.40625 2.390625 
C 15.5 2.390625 15.296875 2.984375 15.296875 6.5625 
L 15.296875 43.375 
z
" id="CMR17-105"/>
      <path d="M 22 -16.609375 
C 15.59375 -16.609375 15.203125 -16.203125 15.203125 -12.328125 
L 15.203125 6.28125 
C 18.09375 2.09375 22.296875 -0.59375 27.59375 -0.59375 
C 37.59375 -0.59375 47.703125 8.171875 47.703125 21.6875 
C 47.703125 34.234375 39 43.78125 28.703125 43.78125 
C 22.703125 43.78125 17.796875 40.5 15 36.53125 
L 15 43.78125 
L 3.09375 42.6875 
L 3.09375 40.109375 
C 9 40.109375 9.90625 39.5 9.90625 34.734375 
L 9.90625 -12.328125 
C 9.90625 -16.109375 9.5 -16.609375 3.09375 -16.609375 
L 3.09375 -19.1875 
C 5.5 -19 9.90625 -19 12.5 -19 
C 15.09375 -19 19.59375 -19 22 -19.1875 
z
M 15.203125 31.4375 
C 15.203125 32.84375 15.203125 34.921875 19.09375 38.609375 
C 19.59375 39.015625 23 42 28 42 
C 35.296875 42 41.296875 32.9375 41.296875 21.59375 
C 41.296875 10.25 34.90625 1 27 1 
C 23.40625 1 19.5 2.6875 16.5 7.375 
C 15.203125 9.5625 15.203125 10.15625 15.203125 11.75 
z
" id="CMR17-112"/>
      <path d="M 41.5 30.203125 
C 41.5 35.296875 40.5 43.59375 28.703125 43.59375 
C 20.796875 43.59375 16.703125 37.5 15.203125 33.5 
L 15.09375 33.5 
L 15.09375 43.59375 
L 3.296875 42.5 
L 3.296875 39.90625 
C 9.203125 39.90625 10.09375 39.296875 10.09375 34.5 
L 10.09375 6.6875 
C 10.09375 2.875 9.703125 2.390625 3.296875 2.390625 
L 3.296875 -0.203125 
C 5.703125 0 10.09375 0 12.703125 0 
C 15.296875 0 19.796875 0 22.203125 -0.203125 
L 22.203125 2.390625 
C 15.796875 2.390625 15.40625 2.78125 15.40625 6.6875 
L 15.40625 25.90625 
C 15.40625 35.109375 21 42 28 42 
C 35.40625 42 36.203125 35.40625 36.203125 30.59375 
L 36.203125 6.6875 
C 36.203125 2.875 35.796875 2.390625 29.40625 2.390625 
L 29.40625 -0.203125 
C 31.796875 0 36.203125 0 38.796875 0 
C 41.40625 0 45.90625 0 48.296875 -0.203125 
L 48.296875 2.390625 
C 41.90625 2.390625 41.5 2.78125 41.5 6.6875 
z
" id="CMR17-110"/>
      <path d="M 36.09375 40.703125 
C 36.90625 41.71875 36.90625 41.90625 36.90625 42.109375 
C 36.90625 43 36.5 43 34.703125 43 
L 4.296875 43 
L 3.296875 27.5 
L 5.09375 27.5 
C 5.796875 37.203125 6.90625 41.40625 18.40625 41.40625 
L 30.59375 41.40625 
L 2 1.5 
C 2 0.09375 2.09375 0 4.203125 0 
L 35.796875 0 
L 37.203125 18 
L 35.40625 18 
C 34.59375 6.90625 33.296875 1.796875 21.09375 1.796875 
L 8.296875 1.796875 
z
" id="CMR17-122"/>
      <path d="M 38.09375 23 
C 38.5 23.40625 38.5 23.609375 38.5 24.625 
C 38.5 34.96875 33.09375 44 21.703125 44 
C 11.09375 44 2.703125 33.890625 2.703125 21.609375 
C 2.703125 8.609375 12.203125 -1 22.796875 -1 
C 34 -1 38.40625 9.46875 38.40625 11.546875 
C 38.40625 12.25 37.796875 12.25 37.59375 12.25 
C 36.90625 12.25 36.796875 12.046875 36.40625 10.875 
C 34.203125 4.140625 28.703125 0.796875 23.5 0.796875 
C 19.203125 0.796875 14.90625 3.171875 12.203125 7.5 
C 9.09375 12.546875 9.09375 18.375 9.09375 23 
z
M 9.203125 24.5 
C 9.90625 39.140625 17.59375 42.40625 21.59375 42.40625 
C 28.40625 42.40625 33 35.890625 33.09375 24.5 
z
" id="CMR17-101"/>
      <path d="M 29.203125 67.59375 
L 29.203125 65 
C 35.09375 65 36 64.40625 36 59.6875 
L 36 36.640625 
C 35.59375 37.140625 31.5 43.59375 23.40625 43.59375 
C 13.203125 43.59375 3.296875 34.5 3.296875 21.3125 
C 3.296875 8.203125 12.59375 -1 22.40625 -1 
C 30.90625 -1 35.296875 5.265625 35.796875 5.9375 
L 35.796875 -0.984375 
L 47.90625 -0.984375 
L 47.90625 2 
C 42 2 41.09375 2.59375 41.09375 7.390625 
L 41.09375 68.6875 
z
M 35.796875 11.796875 
C 35.796875 8.796875 34 6.09375 31.703125 4.09375 
C 28.296875 1.09375 24.90625 0.59375 23 0.59375 
C 20.09375 0.59375 9.703125 2.09375 9.703125 21.1875 
C 9.703125 40.8125 21.296875 42 23.90625 42 
C 28.5 42 32.203125 39.40625 34.5 35.796875 
C 35.796875 33.703125 35.796875 33.40625 35.796875 31.609375 
z
" id="CMR17-100"/>
      <path d="M 36 25.828125 
C 36 32.375 36 35.84375 31.796875 39.734375 
C 28.09375 43 23.796875 44 20.40625 44 
C 12.5 44 6.796875 37.609375 6.796875 30.796875 
C 6.796875 27 9.796875 27 10.40625 27 
C 11.703125 27 14 27.78125 14 30.53125 
C 14 33 12.09375 34.078125 10.40625 34.078125 
C 10 34.078125 9.5 33.96875 9.203125 33.875 
C 11.296875 40.5 16.703125 42.40625 20.203125 42.40625 
C 25.203125 42.40625 30.703125 37.953125 30.703125 29.453125 
L 30.703125 25 
C 24.796875 25 17.703125 24.203125 12.09375 21.203125 
C 5.796875 17.703125 4 12.703125 4 8.90625 
C 4 1.203125 13 -1 18.296875 -1 
C 23.796875 -1 28.90625 2.171875 31.09375 7.984375 
C 31.296875 3.640625 34.09375 -0.28125 38.5 -0.28125 
C 40.59375 -0.28125 45.90625 1.09375 45.90625 8.859375 
L 45.90625 14.375 
L 44.09375 14.375 
L 44.09375 8.78125 
C 44.09375 2.78125 41.40625 2 40.09375 2 
C 36 2 36 7.15625 36 11.53125 
z
M 30.703125 13.59375 
C 30.703125 4.953125 24.5 0.59375 19 0.59375 
C 14 0.59375 10.09375 4.296875 10.09375 8.90625 
C 10.09375 11.890625 11.40625 17.1875 17.203125 20.390625 
C 22 23.09375 27.5 23.5 30.703125 23.5 
z
" id="CMR17-97"/>
      <path d="M 67.59375 30.203125 
C 67.59375 35.1875 66.703125 43.59375 54.796875 43.59375 
C 48 43.59375 43.296875 39 41.5 33.59375 
L 41.40625 33.59375 
C 40.203125 41.796875 34.296875 43.59375 28.703125 43.59375 
C 20.796875 43.59375 16.703125 37.5625 15.203125 33.59375 
L 15.09375 33.59375 
L 15.09375 43.59375 
L 3.296875 42.5 
L 3.296875 39.90625 
C 9.203125 39.90625 10.09375 39.296875 10.09375 34.5 
L 10.09375 6.6875 
C 10.09375 2.875 9.703125 2.390625 3.296875 2.390625 
L 3.296875 -0.203125 
C 5.703125 0 10.09375 0 12.703125 0 
C 15.296875 0 19.796875 0 22.203125 -0.203125 
L 22.203125 2.390625 
C 15.796875 2.390625 15.40625 2.78125 15.40625 6.6875 
L 15.40625 25.90625 
C 15.40625 35.109375 21 42 28 42 
C 35.40625 42 36.203125 35.40625 36.203125 30.59375 
L 36.203125 6.6875 
C 36.203125 2.875 35.796875 2.390625 29.40625 2.390625 
L 29.40625 -0.203125 
C 31.796875 0 36.203125 0 38.796875 0 
C 41.40625 0 45.90625 0 48.296875 -0.203125 
L 48.296875 2.390625 
C 41.90625 2.390625 41.5 2.78125 41.5 6.6875 
L 41.5 25.90625 
C 41.5 35.109375 47.09375 42 54.09375 42 
C 61.5 42 62.296875 35.40625 62.296875 30.59375 
L 62.296875 6.6875 
C 62.296875 2.875 61.90625 2.390625 55.5 2.390625 
L 55.5 -0.203125 
C 57.90625 0 62.296875 0 64.90625 0 
C 67.5 0 72 0 74.40625 -0.203125 
L 74.40625 2.390625 
C 68 2.390625 67.59375 2.78125 67.59375 6.6875 
z
" id="CMR17-109"/>
     </defs>
     <g style="fill:#262626;" transform="translate(260.253680096 75.94)scale(0.1 -0.1)">
      <use transform="scale(0.9962640099626402)" xlink:href="#CMR17-109"/>
      <use transform="translate(76.91958986807286 0.0)scale(0.9962640099626402)" xlink:href="#CMR17-105"/>
      <use transform="translate(101.79064834993774 0.0)scale(0.9962640099626402)" xlink:href="#CMR17-110"/>
      <use transform="translate(152.68601813025376 0.0)scale(0.9962640099626402)" xlink:href="#CMR17-105"/>
      <use transform="translate(177.55707661211864 0.0)scale(0.9962640099626402)" xlink:href="#CMR17-109"/>
      <use transform="translate(254.47666648019148 0.0)scale(0.9962640099626402)" xlink:href="#CMR17-97"/>
      <use transform="translate(300.1671435972525 0.0)scale(0.9962640099626402)" xlink:href="#CMR17-108"/>
      <use transform="translate(325.0382020791174 0.0)scale(0.9962640099626402)" xlink:href="#CMR17-101"/>
      <use transform="translate(382.12826777514016 0.0)scale(0.9962640099626402)" xlink:href="#CMR17-73"/>
      <use transform="translate(414.7666769633406 0.0)scale(0.9962640099626402)" xlink:href="#CMR17-109"/>
      <use transform="translate(491.6862668314135 0.0)scale(0.9962640099626402)" xlink:href="#CMR17-112"/>
      <use transform="translate(545.1840753424658 0.0)scale(0.9962640099626402)" xlink:href="#CMR17-101"/>
      <use transform="translate(585.6697358051838 0.0)scale(0.9962640099626402)" xlink:href="#CMR17-100"/>
      <use transform="translate(636.5651055854997 0.0)scale(0.9962640099626402)" xlink:href="#CMR17-97"/>
      <use transform="translate(682.2555827025608 0.0)scale(0.9962640099626402)" xlink:href="#CMR17-110"/>
      <use transform="translate(733.1509524828767 0.0)scale(0.9962640099626402)" xlink:href="#CMR17-122"/>
     </g>
    </g>
    <g id="line2d_47">
     <path d="M 232.25368 86.377178 
L 252.25368 86.377178 
" style="fill:none;stroke:#ff0000;stroke-linecap:round;stroke-width:1.75;"/>
    </g>
    <g id="line2d_48"/>
    <g id="text_28">
     <!-- $\mathrm{maximale\,Impedanz}$ -->
     <defs>
      <path d="M 26 23.09375 
C 29 26.984375 32.40625 31.359375 35.203125 34.625 
C 38.5 38.40625 42.296875 40 46.703125 40 
L 46.703125 42.59375 
C 45 42.59375 41.5 42.59375 39.703125 42.59375 
C 37 42.59375 33.90625 42.59375 31.59375 42.6875 
L 31.59375 40.09375 
C 33 39.890625 33.796875 38.890625 33.796875 37.5 
C 33.796875 35.703125 32.796875 34.609375 32.296875 33.921875 
L 24.90625 24.578125 
L 16.09375 36.03125 
C 15.203125 37.125 15.203125 37.3125 15.203125 37.8125 
C 15.203125 39.015625 16.203125 40 17.90625 40 
L 17.90625 42.6875 
C 15.5 42.59375 11.203125 42.59375 8.703125 42.59375 
C 6 42.59375 2.796875 42.59375 0.59375 42.6875 
L 0.59375 40 
C 6 40 7.203125 39.59375 9.59375 36.609375 
L 21.09375 21.796875 
C 21.296875 21.59375 21.796875 21 21.796875 20.703125 
C 21.796875 20.296875 13.09375 9.671875 12 8.28125 
C 7.5 2.890625 2.796875 2.5 0.09375 2.5 
L 0.09375 0 
C 1.796875 0 5.296875 0 7.09375 0 
C 9.09375 0 13.5 0 15.296875 -0.09375 
L 15.296875 2.5 
C 14.703125 2.59375 13.09375 2.796875 13.09375 5.078125 
C 13.09375 6.875 13.90625 7.96875 14.796875 9.15625 
L 23.09375 19.3125 
L 31.796875 8 
C 32.59375 6.90625 33.796875 5.40625 33.796875 4.703125 
C 33.796875 3.296875 32.59375 2.5 31 2.5 
L 31 -0.09375 
C 33.40625 0 37.703125 0 40.203125 0 
C 42.90625 0 46.09375 0 48.296875 -0.09375 
L 48.296875 2.5 
C 43.296875 2.5 41.796875 2.6875 39.40625 5.78125 
z
" id="CMR17-120"/>
     </defs>
     <g style="fill:#262626;" transform="translate(260.253680096 89.8771783303)scale(0.1 -0.1)">
      <use transform="scale(0.9962640099626402)" xlink:href="#CMR17-109"/>
      <use transform="translate(76.91958986807286 0.0)scale(0.9962640099626402)" xlink:href="#CMR17-97"/>
      <use transform="translate(122.61006698513388 0.0)scale(0.9962640099626402)" xlink:href="#CMR17-120"/>
      <use transform="translate(170.9029828329312 0.0)scale(0.9962640099626402)" xlink:href="#CMR17-105"/>
      <use transform="translate(195.7740413147961 0.0)scale(0.9962640099626402)" xlink:href="#CMR17-109"/>
      <use transform="translate(272.69363118286896 0.0)scale(0.9962640099626402)" xlink:href="#CMR17-97"/>
      <use transform="translate(318.38410829993 0.0)scale(0.9962640099626402)" xlink:href="#CMR17-108"/>
      <use transform="translate(343.25516678179486 0.0)scale(0.9962640099626402)" xlink:href="#CMR17-101"/>
      <use transform="translate(400.3452324778176 0.0)scale(0.9962640099626402)" xlink:href="#CMR17-73"/>
      <use transform="translate(432.9836416660181 0.0)scale(0.9962640099626402)" xlink:href="#CMR17-109"/>
      <use transform="translate(509.90323153409093 0.0)scale(0.9962640099626402)" xlink:href="#CMR17-112"/>
      <use transform="translate(563.4010400451433 0.0)scale(0.9962640099626402)" xlink:href="#CMR17-101"/>
      <use transform="translate(603.8867005078612 0.0)scale(0.9962640099626402)" xlink:href="#CMR17-100"/>
      <use transform="translate(654.7820702881772 0.0)scale(0.9962640099626402)" xlink:href="#CMR17-97"/>
      <use transform="translate(700.4725474052383 0.0)scale(0.9962640099626402)" xlink:href="#CMR17-110"/>
      <use transform="translate(751.3679171855542 0.0)scale(0.9962640099626402)" xlink:href="#CMR17-122"/>
     </g>
    </g>
   </g>
   <g id="line2d_49">
    <path clip-path="url(#p039c819975)" d="M 225.980016 221.361784 
L 224.400216 216.449332 
L 223.755869 213.346838 
L 223.604292 211.420833 
L 223.685264 211.422036 
L 223.772266 210.91319 
L 223.63935 211.221988 
L 223.62276 211.014992 
L 223.917155 210.978027 
L 223.658292 210.617689 
L 223.680673 210.461054 
L 223.680673 210.461054 
L 223.680673 210.461054 
L 223.66429 210.894294 
L 223.66429 210.894294 
L 223.66429 210.894294 
L 223.813387 210.26779 
L 223.878741 210.00467 
L 223.892481 210.069701 
L 223.892481 210.069701 
L 223.755224 210.369315 
L 223.755224 210.369315 
L 223.755224 210.369315 
L 223.931104 210.032108 
L 224.051282 210.474226 
L 224.110696 209.721754 
L 224.156048 209.996654 
L 224.318585 209.934016 
L 224.165495 209.546087 
L 224.244097 209.720452 
L 224.351395 209.566543 
L 224.544863 209.751408 
L 224.471554 209.541413 
L 224.361606 209.419902 
L 224.523575 209.335682 
L 224.519748 209.582719 
L 224.622804 209.351767 
L 224.832349 209.167786 
L 224.832349 209.167786 
L 224.832349 209.167786 
L 224.55052 209.310158 
L 224.736528 209.284996 
L 224.639647 209.056478 
L 224.639647 209.056478 
L 224.639647 209.056478 
L 224.890639 209.476037 
L 224.862707 209.164458 
L 224.994579 208.990937 
L 225.003554 209.255573 
L 225.165421 209.163536 
L 225.165421 209.163536 
L 225.165421 209.163536 
L 224.983099 209.267946 
L 224.983099 209.267946 
L 224.983099 209.267946 
L 225.395853 209.007853 
L 225.286908 209.22381 
L 225.211099 208.97049 
L 225.433175 208.886662 
L 225.536692 209.02819 
L 225.474067 208.960089 
L 225.631607 208.720548 
L 225.702053 209.037365 
L 225.874315 208.668627 
L 225.874089 208.74416 
L 225.994041 208.565124 
L 226.154716 209.109313 
L 226.196469 208.797663 
L 226.230044 208.866311 
L 226.426164 208.484127 
L 226.533238 208.741351 
L 226.567786 208.523898 
L 226.829665 208.707943 
L 226.89021 209.137892 
L 226.89021 209.137892 
L 226.89021 209.137892 
L 226.855126 208.669213 
L 226.892936 208.674319 
L 227.07218 208.914207 
L 227.323438 208.507072 
L 227.178612 208.627394 
L 227.421514 208.899839 
L 227.604516 208.426719 
L 227.570985 208.828313 
L 227.570985 208.828313 
L 227.570985 208.828313 
L 227.580034 208.31217 
L 227.725816 208.7789 
L 227.826276 208.541725 
L 227.886855 208.827188 
L 228.09915 208.810411 
L 228.013839 208.546195 
L 228.187178 208.487522 
L 228.129287 208.750315 
L 228.17059 208.658269 
L 228.421559 208.730437 
L 228.497788 208.403366 
L 228.546525 209.0675 
L 228.617793 208.811239 
L 228.79366 208.723042 
L 228.7685 208.61077 
L 228.7685 208.61077 
L 228.7685 208.61077 
L 228.814518 208.924671 
L 228.954049 209.062117 
L 228.959788 208.843188 
L 229.119557 208.577743 
L 229.105486 208.952885 
L 229.372921 208.842559 
L 229.408203 208.997191 
L 229.47015 208.718215 
L 229.631991 208.951153 
L 229.844523 208.750302 
L 229.841812 208.884808 
L 229.914937 208.867149 
L 229.980655 209.21888 
L 230.443004 208.740538 
L 230.327755 209.143091 
L 230.449229 209.242879 
L 230.598601 209.137723 
L 230.598601 209.137723 
L 230.598601 209.137723 
L 230.389843 209.402562 
L 230.470491 209.164071 
L 230.470491 209.164071 
L 230.602599 209.022215 
L 230.759167 209.026419 
L 230.843247 209.220342 
L 230.966222 209.144869 
L 230.829876 209.392021 
L 231.318391 209.39384 
L 231.21718 209.842897 
L 231.210787 209.760819 
L 231.210787 209.760819 
L 231.429418 209.382541 
L 231.52086 209.889296 
L 231.549959 209.833144 
L 231.943909 209.822309 
L 231.780147 209.890136 
L 231.711307 210.069209 
L 231.711307 210.069209 
L 231.711307 210.069209 
L 231.930329 209.800791 
L 232.270073 209.841265 
L 232.426298 210.202959 
L 232.473707 210.067511 
L 232.767421 210.508816 
L 232.871163 210.760361 
L 233.088387 210.509976 
L 233.043706 210.536759 
L 233.443344 210.805205 
L 233.450335 211.069741 
L 233.719574 210.917821 
L 233.659482 211.077391 
L 233.868167 210.996316 
L 234.119591 211.380552 
L 234.148298 211.381947 
L 234.145288 211.418485 
L 234.583987 211.738771 
L 234.653107 211.573124 
L 234.663277 212.04274 
L 234.939296 212.302602 
L 235.206506 212.191465 
L 235.168538 212.32848 
L 235.349507 212.184797 
L 235.397979 212.270244 
L 235.381968 212.447163 
L 235.445927 212.37392 
L 235.765759 212.944566 
L 235.765759 212.944566 
" style="fill:none;stroke:#ff0000;stroke-linecap:round;stroke-width:1.75;"/>
   </g>
  </g>
 </g>
 <defs>
  <clipPath id="p039c819975">
   <path d="M 221.4 316.062 
C 249.368849 316.062 276.195932 304.949858 295.972895 285.172895 
C 315.749858 265.395932 326.862 238.568849 326.862 210.6 
C 326.862 182.631151 315.749858 155.804068 295.972895 136.027105 
C 276.195932 116.250142 249.368849 105.138 221.4 105.138 
C 193.431151 105.138 166.604068 116.250142 146.827105 136.027105 
C 127.050142 155.804068 115.938 182.631151 115.938 210.6 
C 115.938 238.568849 127.050142 265.395932 146.827105 285.172895 
C 166.604068 304.949858 193.431151 316.062 221.4 316.062 
z
"/>
  </clipPath>
 </defs>
</svg>
