<?xml version="1.0" encoding="utf-8" standalone="no"?>
<!DOCTYPE svg PUBLIC "-//W3C//DTD SVG 1.1//EN"
  "http://www.w3.org/Graphics/SVG/1.1/DTD/svg11.dtd">
<!-- Created with matplotlib (http://matplotlib.org/) -->
<svg height="360pt" version="1.1" viewBox="0 0 936 360" width="936pt" xmlns="http://www.w3.org/2000/svg" xmlns:xlink="http://www.w3.org/1999/xlink">
 <defs>
  <style type="text/css">
*{stroke-linecap:butt;stroke-linejoin:round;stroke-miterlimit:100000;}
  </style>
 </defs>
 <g id="figure_1">
  <g id="patch_1">
   <path d="M 0 360 
L 936 360 
L 936 0 
L 0 0 
z
" style="fill:#ffffff;"/>
  </g>
  <g id="axes_1">
   <g id="patch_2">
    <path d="M 117 162.818182 
L 842.4 162.818182 
L 842.4 36 
L 117 36 
z
" style="fill:#eaeaf2;"/>
   </g>
   <g id="matplotlib.axis_1">
    <g id="xtick_1">
     <g id="line2d_1">
      <path clip-path="url(#p26dc8854d3)" d="M 117 162.818182 
L 117 36 
" style="fill:none;stroke:#ffffff;stroke-linecap:round;"/>
     </g>
     <g id="line2d_2"/>
     <g id="line2d_3"/>
    </g>
    <g id="xtick_2">
     <g id="line2d_4">
      <path clip-path="url(#p26dc8854d3)" d="M 256.5 162.818182 
L 256.5 36 
" style="fill:none;stroke:#ffffff;stroke-linecap:round;"/>
     </g>
     <g id="line2d_5"/>
     <g id="line2d_6"/>
    </g>
    <g id="xtick_3">
     <g id="line2d_7">
      <path clip-path="url(#p26dc8854d3)" d="M 396 162.818182 
L 396 36 
" style="fill:none;stroke:#ffffff;stroke-linecap:round;"/>
     </g>
     <g id="line2d_8"/>
     <g id="line2d_9"/>
    </g>
    <g id="xtick_4">
     <g id="line2d_10">
      <path clip-path="url(#p26dc8854d3)" d="M 535.5 162.818182 
L 535.5 36 
" style="fill:none;stroke:#ffffff;stroke-linecap:round;"/>
     </g>
     <g id="line2d_11"/>
     <g id="line2d_12"/>
    </g>
    <g id="xtick_5">
     <g id="line2d_13">
      <path clip-path="url(#p26dc8854d3)" d="M 675 162.818182 
L 675 36 
" style="fill:none;stroke:#ffffff;stroke-linecap:round;"/>
     </g>
     <g id="line2d_14"/>
     <g id="line2d_15"/>
    </g>
    <g id="xtick_6">
     <g id="line2d_16">
      <path clip-path="url(#p26dc8854d3)" d="M 814.5 162.818182 
L 814.5 36 
" style="fill:none;stroke:#ffffff;stroke-linecap:round;"/>
     </g>
     <g id="line2d_17"/>
     <g id="line2d_18"/>
    </g>
   </g>
   <g id="matplotlib.axis_2">
    <g id="ytick_1">
     <g id="line2d_19">
      <path clip-path="url(#p26dc8854d3)" d="M 117 162.818182 
L 842.4 162.818182 
" style="fill:none;stroke:#ffffff;stroke-linecap:round;"/>
     </g>
     <g id="line2d_20"/>
     <g id="line2d_21"/>
     <g id="text_1">
      <!-- $20$ -->
      <defs>
       <path d="M 42 31.640625 
C 42 37.75 41.90625 48.125 37.703125 56.109375 
C 34 63.109375 28.09375 65.59375 22.90625 65.59375 
C 18.09375 65.59375 12 63.40625 8.203125 56.203125 
C 4.203125 48.71875 3.796875 39.4375 3.796875 31.640625 
C 3.796875 25.953125 3.90625 17.28125 7 9.671875 
C 11.296875 -0.609375 19 -2 22.90625 -2 
C 27.5 -2 34.5 -0.109375 38.59375 9.375 
C 41.59375 16.28125 42 24.359375 42 31.640625 
M 22.90625 -0.40625 
C 16.5 -0.40625 12.703125 5.078125 11.296875 12.6875 
C 10.203125 18.5625 10.203125 27.15625 10.203125 32.75 
C 10.203125 40.4375 10.203125 46.828125 11.5 52.921875 
C 13.40625 61.390625 19 64 22.90625 64 
C 27 64 32.296875 61.296875 34.203125 53.125 
C 35.5 47.4375 35.59375 40.734375 35.59375 32.75 
C 35.59375 26.25 35.59375 18.265625 34.40625 12.375 
C 32.296875 1.484375 26.40625 -0.40625 22.90625 -0.40625 
" id="CMR17-48"/>
       <path d="M 41.703125 15.453125 
L 39.90625 15.453125 
C 38.90625 8.375 38.09375 7.171875 37.703125 6.5625 
C 37.203125 5.765625 30 5.765625 28.59375 5.765625 
L 9.40625 5.765625 
C 13 9.671875 20 16.75 28.5 24.953125 
C 34.59375 30.734375 41.703125 37.53125 41.703125 47.421875 
C 41.703125 59.21875 32.296875 66 21.796875 66 
C 10.796875 66 4.09375 56.3125 4.09375 47.34375 
C 4.09375 43.4375 7 42.9375 8.203125 42.9375 
C 9.203125 42.9375 12.203125 43.546875 12.203125 47.03125 
C 12.203125 50.109375 9.59375 51 8.203125 51 
C 7.59375 51 7 50.90625 6.59375 50.703125 
C 8.5 59.21875 14.296875 63.40625 20.40625 63.40625 
C 29.09375 63.40625 34.796875 56.515625 34.796875 47.421875 
C 34.796875 38.734375 29.703125 31.25 24 24.75 
L 4.09375 2.28125 
L 4.09375 0 
L 39.296875 0 
z
" id="CMR17-50"/>
      </defs>
      <g style="fill:#262626;" transform="translate(100.037329497 165.308841843)scale(0.1 -0.1)">
       <use transform="scale(0.9962640099626402)" xlink:href="#CMR17-50"/>
       <use transform="translate(45.69047711706103 0.0)scale(0.9962640099626402)" xlink:href="#CMR17-48"/>
      </g>
     </g>
    </g>
    <g id="ytick_2">
     <g id="line2d_22">
      <path clip-path="url(#p26dc8854d3)" d="M 117 141.681818 
L 842.4 141.681818 
" style="fill:none;stroke:#ffffff;stroke-linecap:round;"/>
     </g>
     <g id="line2d_23"/>
     <g id="line2d_24"/>
     <g id="text_2">
      <!-- $30$ -->
      <defs>
       <path d="M 22.09375 33.703125 
C 31 33.703125 34.90625 25.96875 34.90625 17.03125 
C 34.90625 5 28.5 0.390625 22.703125 0.390625 
C 17.40625 0.390625 8.796875 3.03125 6.09375 10.828125 
C 6.59375 10.625 7.09375 10.625 7.59375 10.625 
C 10 10.625 11.796875 12.21875 11.796875 14.8125 
C 11.796875 17.703125 9.59375 19 7.59375 19 
C 5.90625 19 3.296875 18.203125 3.296875 14.46875 
C 3.296875 5.234375 12.296875 -2 22.90625 -2 
C 34 -2 42.5 6.71875 42.5 16.953125 
C 42.5 26.671875 34.5 33.703125 25 34.796875 
C 32.59375 36.375 39.90625 43.0625 39.90625 52.015625 
C 39.90625 59.6875 32 65.296875 23 65.296875 
C 13.90625 65.296875 5.90625 59.828125 5.90625 52.015625 
C 5.90625 48.59375 8.5 48 9.796875 48 
C 11.90625 48 13.703125 49.296875 13.703125 51.890625 
C 13.703125 54.46875 11.90625 55.765625 9.796875 55.765625 
C 9.40625 55.765625 8.90625 55.765625 8.5 55.578125 
C 11.40625 61.859375 19.296875 63 22.796875 63 
C 26.296875 63 32.90625 61.328125 32.90625 51.875 
C 32.90625 49.109375 32.5 44.1875 29.09375 39.84375 
C 26.09375 36 22.703125 36 19.40625 35.6875 
C 18.90625 35.6875 16.59375 35.453125 16.203125 35.453125 
C 15.5 35.359375 15.09375 35.265625 15.09375 34.5 
C 15.09375 33.796875 15.203125 33.703125 17.203125 33.703125 
z
" id="CMR17-51"/>
      </defs>
      <g style="fill:#262626;" transform="translate(100.037329497 144.172478207)scale(0.1 -0.1)">
       <use transform="scale(0.9962640099626402)" xlink:href="#CMR17-51"/>
       <use transform="translate(45.69047711706103 0.0)scale(0.9962640099626402)" xlink:href="#CMR17-48"/>
      </g>
     </g>
    </g>
    <g id="ytick_3">
     <g id="line2d_25">
      <path clip-path="url(#p26dc8854d3)" d="M 117 120.545455 
L 842.4 120.545455 
" style="fill:none;stroke:#ffffff;stroke-linecap:round;"/>
     </g>
     <g id="line2d_26"/>
     <g id="line2d_27"/>
     <g id="text_3">
      <!-- $40$ -->
      <defs>
       <path d="M 33.59375 64.40625 
C 33.59375 66.5 33.5 66.5 31.703125 66.5 
L 2 19.59375 
L 2 17 
L 27.796875 17 
L 27.796875 7.140625 
C 27.796875 3.5 27.59375 2.5 20.59375 2.5 
L 18.703125 2.5 
L 18.703125 0 
C 21.90625 0 27.296875 0 30.703125 0 
C 34.09375 0 39.5 0 42.703125 0 
L 42.703125 2.5 
L 40.796875 2.5 
C 33.796875 2.5 33.59375 3.5 33.59375 7.140625 
L 33.59375 17 
L 43.796875 17 
L 43.796875 19.59375 
L 33.59375 19.59375 
z
M 28.09375 57.859375 
L 28.09375 19.59375 
L 4 19.59375 
z
" id="CMR17-52"/>
      </defs>
      <g style="fill:#262626;" transform="translate(100.037329497 123.03611457)scale(0.1 -0.1)">
       <use transform="scale(0.9962640099626402)" xlink:href="#CMR17-52"/>
       <use transform="translate(45.69047711706103 0.0)scale(0.9962640099626402)" xlink:href="#CMR17-48"/>
      </g>
     </g>
    </g>
    <g id="ytick_4">
     <g id="line2d_28">
      <path clip-path="url(#p26dc8854d3)" d="M 117 99.409091 
L 842.4 99.409091 
" style="fill:none;stroke:#ffffff;stroke-linecap:round;"/>
     </g>
     <g id="line2d_29"/>
     <g id="line2d_30"/>
     <g id="text_4">
      <!-- $50$ -->
      <defs>
       <path d="M 11.40625 57.6875 
C 12.40625 57.28125 16.5 56 20.703125 56 
C 30 56 35.09375 61.109375 38 64.0625 
C 38 64.953125 38 65.5 37.40625 65.5 
C 37.296875 65.5 37.09375 65.5 36.296875 65.046875 
C 32.796875 63.40625 28.703125 62.078125 23.703125 62.078125 
C 20.703125 62.078125 16.203125 62.484375 11.296875 64.671875 
C 10.203125 65.171875 10 65.171875 9.90625 65.171875 
C 9.40625 65.171875 9.296875 65.0625 9.296875 63.078125 
L 9.296875 34.421875 
C 9.296875 32.640625 9.296875 32.140625 10.296875 32.140625 
C 10.796875 32.140625 11 32.34375 11.5 33.03125 
C 14.703125 37.515625 19.09375 39.40625 24.09375 39.40625 
C 27.59375 39.40625 35.09375 37.21875 35.09375 20.140625 
C 35.09375 16.953125 35.09375 11.171875 32.09375 6.578125 
C 29.59375 2.484375 25.703125 0.390625 21.40625 0.390625 
C 14.796875 0.390625 8.09375 5 6.296875 12.71875 
C 6.703125 12.609375 7.5 12.421875 7.90625 12.421875 
C 9.203125 12.421875 11.703125 13.125 11.703125 16.21875 
C 11.703125 18.90625 9.796875 20 7.90625 20 
C 5.59375 20 4.09375 18.59375 4.09375 15.796875 
C 4.09375 7.09375 11 -2 21.59375 -2 
C 31.90625 -2 41.703125 6.875 41.703125 19.75 
C 41.703125 31.71875 33.90625 41 24.203125 41 
C 19.09375 41 14.796875 39.109375 11.40625 35.53125 
z
" id="CMR17-53"/>
      </defs>
      <g style="fill:#262626;" transform="translate(100.037329497 101.899750934)scale(0.1 -0.1)">
       <use transform="scale(0.9962640099626402)" xlink:href="#CMR17-53"/>
       <use transform="translate(45.69047711706103 0.0)scale(0.9962640099626402)" xlink:href="#CMR17-48"/>
      </g>
     </g>
    </g>
    <g id="ytick_5">
     <g id="line2d_31">
      <path clip-path="url(#p26dc8854d3)" d="M 117 78.272727 
L 842.4 78.272727 
" style="fill:none;stroke:#ffffff;stroke-linecap:round;"/>
     </g>
     <g id="line2d_32"/>
     <g id="line2d_33"/>
     <g id="text_5">
      <!-- $60$ -->
      <defs>
       <path d="M 10.59375 34 
C 10.59375 57.65625 21.796875 63 28.296875 63 
C 30.40625 63 35.5 62.640625 37.5 59 
C 35.90625 59 32.90625 59 32.90625 55.515625 
C 32.90625 52.828125 35.09375 51.921875 36.5 51.921875 
C 37.40625 51.921875 40.09375 52.3125 40.09375 55.625 
C 40.09375 61.78125 35.09375 65.296875 28.203125 65.296875 
C 16.296875 65.296875 3.796875 52.96875 3.796875 31 
C 3.796875 3.953125 15.09375 -2 23.09375 -2 
C 32.796875 -2 42 6.671875 42 20.046875 
C 42 32.515625 33.90625 41.59375 23.703125 41.59375 
C 17.59375 41.59375 13.09375 37.609375 10.59375 30.625 
z
M 23.09375 0.390625 
C 10.796875 0.390625 10.796875 18.75 10.796875 22.4375 
C 10.796875 29.625 14.203125 40 23.5 40 
C 25.203125 40 30.09375 40 33.40625 33.125 
C 35.203125 29.21875 35.203125 25.140625 35.203125 20.140625 
C 35.203125 14.75 35.203125 10.78125 33.09375 6.78125 
C 30.90625 2.671875 27.703125 0.390625 23.09375 0.390625 
" id="CMR17-54"/>
      </defs>
      <g style="fill:#262626;" transform="translate(100.037329497 80.7633872976)scale(0.1 -0.1)">
       <use transform="scale(0.9962640099626402)" xlink:href="#CMR17-54"/>
       <use transform="translate(45.69047711706103 0.0)scale(0.9962640099626402)" xlink:href="#CMR17-48"/>
      </g>
     </g>
    </g>
    <g id="ytick_6">
     <g id="line2d_34">
      <path clip-path="url(#p26dc8854d3)" d="M 117 57.136364 
L 842.4 57.136364 
" style="fill:none;stroke:#ffffff;stroke-linecap:round;"/>
     </g>
     <g id="line2d_35"/>
     <g id="line2d_36"/>
     <g id="text_6">
      <!-- $70$ -->
      <defs>
       <path d="M 45.09375 61.578125 
L 45.09375 63.765625 
L 21.59375 63.765625 
C 9.90625 63.765625 9.703125 65.078125 9.296875 67 
L 7.5 67 
L 4.59375 48.34375 
L 6.40625 48.34375 
C 6.703125 50.234375 7.40625 55.3125 8.59375 57.203125 
C 9.203125 58 16.59375 58 18.296875 58 
L 40.296875 58 
L 29.203125 41.578125 
C 21.796875 30.53125 16.703125 15.609375 16.703125 2.578125 
C 16.703125 1.390625 16.703125 -2 20.296875 -2 
C 23.90625 -2 23.90625 1.390625 23.90625 2.671875 
L 23.90625 7.265625 
C 23.90625 23.5625 26.703125 34.3125 31.296875 41.1875 
z
" id="CMR17-55"/>
      </defs>
      <g style="fill:#262626;" transform="translate(100.037329497 59.6270236613)scale(0.1 -0.1)">
       <use transform="scale(0.9962640099626402)" xlink:href="#CMR17-55"/>
       <use transform="translate(45.69047711706103 0.0)scale(0.9962640099626402)" xlink:href="#CMR17-48"/>
      </g>
     </g>
    </g>
    <g id="ytick_7">
     <g id="line2d_37">
      <path clip-path="url(#p26dc8854d3)" d="M 117 36 
L 842.4 36 
" style="fill:none;stroke:#ffffff;stroke-linecap:round;"/>
     </g>
     <g id="line2d_38"/>
     <g id="line2d_39"/>
     <g id="text_7">
      <!-- $80$ -->
      <defs>
       <path d="M 27.203125 35.375 
C 33.5 38.546875 39.90625 43.328125 39.90625 50.984375 
C 39.90625 60.015625 31.09375 65.296875 23 65.296875 
C 13.90625 65.296875 5.90625 58.734375 5.90625 49.6875 
C 5.90625 47.203125 6.5 42.921875 10.40625 39.140625 
C 11.40625 38.15625 15.59375 35.171875 18.296875 33.28125 
C 13.796875 30.984375 3.296875 25.53125 3.296875 14.59375 
C 3.296875 4.359375 13.09375 -2 22.796875 -2 
C 33.5 -2 42.5 5.65625 42.5 15.78125 
C 42.5 24.84375 36.40625 29.015625 32.40625 31.703125 
z
M 14.09375 44.09375 
C 13.296875 44.59375 9.296875 47.671875 9.296875 52.359375 
C 9.296875 58.421875 15.59375 63 22.796875 63 
C 30.703125 63 36.5 57.4375 36.5 50.96875 
C 36.5 41.703125 26.09375 36.421875 25.59375 36.421875 
C 25.5 36.421875 25.40625 36.421875 24.59375 37.03125 
z
M 32.5 23.734375 
C 34 22.640625 38.796875 19.375 38.796875 13.296875 
C 38.796875 5.953125 31.40625 0.390625 23 0.390625 
C 13.90625 0.390625 7 6.84375 7 14.6875 
C 7 22.546875 13.09375 29.09375 20 32.1875 
z
" id="CMR17-56"/>
      </defs>
      <g style="fill:#262626;" transform="translate(100.037329497 38.4906600249)scale(0.1 -0.1)">
       <use transform="scale(0.9962640099626402)" xlink:href="#CMR17-56"/>
       <use transform="translate(45.69047711706103 0.0)scale(0.9962640099626402)" xlink:href="#CMR17-48"/>
      </g>
     </g>
    </g>
   </g>
   <g id="PathCollection_1">
    <defs>
     <path d="M 0 2.236068 
C 0.593012 2.236068 1.161816 2.000462 1.581139 1.581139 
C 2.000462 1.161816 2.236068 0.593012 2.236068 0 
C 2.236068 -0.593012 2.000462 -1.161816 1.581139 -1.581139 
C 1.161816 -2.000462 0.593012 -2.236068 0 -2.236068 
C -0.593012 -2.236068 -1.161816 -2.000462 -1.581139 -1.581139 
C -2.000462 -1.161816 -2.236068 -0.593012 -2.236068 0 
C -2.236068 0.593012 -2.000462 1.161816 -1.581139 1.581139 
C -1.161816 2.000462 -0.593012 2.236068 0 2.236068 
z
" id="m512a9e2e4f" style="stroke:#ffa256;stroke-width:0.3;"/>
    </defs>
    <g clip-path="url(#p26dc8854d3)">
     <use style="fill:#ffa256;stroke:#ffa256;stroke-width:0.3;" x="144.9" xlink:href="#m512a9e2e4f" y="157.023374752"/>
     <use style="fill:#ffa256;stroke:#ffa256;stroke-width:0.3;" x="151.875" xlink:href="#m512a9e2e4f" y="156.739857547"/>
     <use style="fill:#ffa256;stroke:#ffa256;stroke-width:0.3;" x="158.85" xlink:href="#m512a9e2e4f" y="155.98729536"/>
     <use style="fill:#ffa256;stroke:#ffa256;stroke-width:0.3;" x="165.825" xlink:href="#m512a9e2e4f" y="155.207581292"/>
     <use style="fill:#ffa256;stroke:#ffa256;stroke-width:0.3;" x="172.8" xlink:href="#m512a9e2e4f" y="154.241857687"/>
     <use style="fill:#ffa256;stroke:#ffa256;stroke-width:0.3;" x="179.775" xlink:href="#m512a9e2e4f" y="152.999989704"/>
     <use style="fill:#ffa256;stroke:#ffa256;stroke-width:0.3;" x="186.75" xlink:href="#m512a9e2e4f" y="151.832511434"/>
     <use style="fill:#ffa256;stroke:#ffa256;stroke-width:0.3;" x="193.725" xlink:href="#m512a9e2e4f" y="150.637007666"/>
     <use style="fill:#ffa256;stroke:#ffa256;stroke-width:0.3;" x="200.7" xlink:href="#m512a9e2e4f" y="149.476327179"/>
     <use style="fill:#ffa256;stroke:#ffa256;stroke-width:0.3;" x="207.675" xlink:href="#m512a9e2e4f" y="148.366802695"/>
     <use style="fill:#ffa256;stroke:#ffa256;stroke-width:0.3;" x="214.65" xlink:href="#m512a9e2e4f" y="147.42094646"/>
     <use style="fill:#ffa256;stroke:#ffa256;stroke-width:0.3;" x="221.625" xlink:href="#m512a9e2e4f" y="146.483453379"/>
     <use style="fill:#ffa256;stroke:#ffa256;stroke-width:0.3;" x="228.6" xlink:href="#m512a9e2e4f" y="145.38982639"/>
     <use style="fill:#ffa256;stroke:#ffa256;stroke-width:0.3;" x="235.575" xlink:href="#m512a9e2e4f" y="144.562003824"/>
     <use style="fill:#ffa256;stroke:#ffa256;stroke-width:0.3;" x="242.55" xlink:href="#m512a9e2e4f" y="143.573529847"/>
     <use style="fill:#ffa256;stroke:#ffa256;stroke-width:0.3;" x="249.525" xlink:href="#m512a9e2e4f" y="142.540927575"/>
     <use style="fill:#ffa256;stroke:#ffa256;stroke-width:0.3;" x="256.5" xlink:href="#m512a9e2e4f" y="141.537070223"/>
     <use style="fill:#ffa256;stroke:#ffa256;stroke-width:0.3;" x="263.475" xlink:href="#m512a9e2e4f" y="140.450500878"/>
     <use style="fill:#ffa256;stroke:#ffa256;stroke-width:0.3;" x="270.45" xlink:href="#m512a9e2e4f" y="139.189497141"/>
     <use style="fill:#ffa256;stroke:#ffa256;stroke-width:0.3;" x="277.425" xlink:href="#m512a9e2e4f" y="138.015738902"/>
     <use style="fill:#ffa256;stroke:#ffa256;stroke-width:0.3;" x="284.4" xlink:href="#m512a9e2e4f" y="136.867204884"/>
     <use style="fill:#ffa256;stroke:#ffa256;stroke-width:0.3;" x="291.375" xlink:href="#m512a9e2e4f" y="135.688011715"/>
     <use style="fill:#ffa256;stroke:#ffa256;stroke-width:0.3;" x="298.35" xlink:href="#m512a9e2e4f" y="134.656125788"/>
     <use style="fill:#ffa256;stroke:#ffa256;stroke-width:0.3;" x="305.325" xlink:href="#m512a9e2e4f" y="133.730343645"/>
     <use style="fill:#ffa256;stroke:#ffa256;stroke-width:0.3;" x="312.3" xlink:href="#m512a9e2e4f" y="132.773329283"/>
     <use style="fill:#ffa256;stroke:#ffa256;stroke-width:0.3;" x="319.275" xlink:href="#m512a9e2e4f" y="131.848301758"/>
     <use style="fill:#ffa256;stroke:#ffa256;stroke-width:0.3;" x="326.25" xlink:href="#m512a9e2e4f" y="130.921291167"/>
     <use style="fill:#ffa256;stroke:#ffa256;stroke-width:0.3;" x="333.225" xlink:href="#m512a9e2e4f" y="129.912876415"/>
     <use style="fill:#ffa256;stroke:#ffa256;stroke-width:0.3;" x="340.2" xlink:href="#m512a9e2e4f" y="128.764769435"/>
     <use style="fill:#ffa256;stroke:#ffa256;stroke-width:0.3;" x="347.175" xlink:href="#m512a9e2e4f" y="127.595501764"/>
     <use style="fill:#ffa256;stroke:#ffa256;stroke-width:0.3;" x="354.15" xlink:href="#m512a9e2e4f" y="126.47647061"/>
     <use style="fill:#ffa256;stroke:#ffa256;stroke-width:0.3;" x="361.125" xlink:href="#m512a9e2e4f" y="125.338530595"/>
     <use style="fill:#ffa256;stroke:#ffa256;stroke-width:0.3;" x="368.1" xlink:href="#m512a9e2e4f" y="124.245530424"/>
     <use style="fill:#ffa256;stroke:#ffa256;stroke-width:0.3;" x="375.075" xlink:href="#m512a9e2e4f" y="123.153039832"/>
     <use style="fill:#ffa256;stroke:#ffa256;stroke-width:0.3;" x="382.05" xlink:href="#m512a9e2e4f" y="122.094941692"/>
     <use style="fill:#ffa256;stroke:#ffa256;stroke-width:0.3;" x="389.025" xlink:href="#m512a9e2e4f" y="121.158161836"/>
     <use style="fill:#ffa256;stroke:#ffa256;stroke-width:0.3;" x="396.0" xlink:href="#m512a9e2e4f" y="120.320373016"/>
     <use style="fill:#ffa256;stroke:#ffa256;stroke-width:0.3;" x="402.975" xlink:href="#m512a9e2e4f" y="119.41853676"/>
     <use style="fill:#ffa256;stroke:#ffa256;stroke-width:0.3;" x="409.95" xlink:href="#m512a9e2e4f" y="118.53855778"/>
     <use style="fill:#ffa256;stroke:#ffa256;stroke-width:0.3;" x="416.925" xlink:href="#m512a9e2e4f" y="117.578764769"/>
     <use style="fill:#ffa256;stroke:#ffa256;stroke-width:0.3;" x="423.9" xlink:href="#m512a9e2e4f" y="116.570226942"/>
     <use style="fill:#ffa256;stroke:#ffa256;stroke-width:0.3;" x="430.875" xlink:href="#m512a9e2e4f" y="115.439091018"/>
     <use style="fill:#ffa256;stroke:#ffa256;stroke-width:0.3;" x="437.85" xlink:href="#m512a9e2e4f" y="114.321000771"/>
     <use style="fill:#ffa256;stroke:#ffa256;stroke-width:0.3;" x="444.825" xlink:href="#m512a9e2e4f" y="113.2469727"/>
     <use style="fill:#ffa256;stroke:#ffa256;stroke-width:0.3;" x="451.8" xlink:href="#m512a9e2e4f" y="112.083048545"/>
     <use style="fill:#ffa256;stroke:#ffa256;stroke-width:0.3;" x="458.775" xlink:href="#m512a9e2e4f" y="111.061662362"/>
     <use style="fill:#ffa256;stroke:#ffa256;stroke-width:0.3;" x="465.75" xlink:href="#m512a9e2e4f" y="109.934605094"/>
     <use style="fill:#ffa256;stroke:#ffa256;stroke-width:0.3;" x="472.725" xlink:href="#m512a9e2e4f" y="108.885946771"/>
     <use style="fill:#ffa256;stroke:#ffa256;stroke-width:0.3;" x="479.7" xlink:href="#m512a9e2e4f" y="107.870787369"/>
     <use style="fill:#ffa256;stroke:#ffa256;stroke-width:0.3;" x="486.675" xlink:href="#m512a9e2e4f" y="106.938615039"/>
     <use style="fill:#ffa256;stroke:#ffa256;stroke-width:0.3;" x="493.65" xlink:href="#m512a9e2e4f" y="106.05315417"/>
     <use style="fill:#ffa256;stroke:#ffa256;stroke-width:0.3;" x="500.625" xlink:href="#m512a9e2e4f" y="105.122560555"/>
     <use style="fill:#ffa256;stroke:#ffa256;stroke-width:0.3;" x="507.6" xlink:href="#m512a9e2e4f" y="104.057947154"/>
     <use style="fill:#ffa256;stroke:#ffa256;stroke-width:0.3;" x="514.575" xlink:href="#m512a9e2e4f" y="102.997394307"/>
     <use style="fill:#ffa256;stroke:#ffa256;stroke-width:0.3;" x="521.55" xlink:href="#m512a9e2e4f" y="101.781023248"/>
     <use style="fill:#ffa256;stroke:#ffa256;stroke-width:0.3;" x="528.525" xlink:href="#m512a9e2e4f" y="100.55261131"/>
     <use style="fill:#ffa256;stroke:#ffa256;stroke-width:0.3;" x="535.5" xlink:href="#m512a9e2e4f" y="99.6039866735"/>
     <use style="fill:#ffa256;stroke:#ffa256;stroke-width:0.3;" x="542.475" xlink:href="#m512a9e2e4f" y="98.4808871275"/>
     <use style="fill:#ffa256;stroke:#ffa256;stroke-width:0.3;" x="549.45" xlink:href="#m512a9e2e4f" y="97.3840587185"/>
     <use style="fill:#ffa256;stroke:#ffa256;stroke-width:0.3;" x="556.425" xlink:href="#m512a9e2e4f" y="96.2931457242"/>
     <use style="fill:#ffa256;stroke:#ffa256;stroke-width:0.3;" x="563.4" xlink:href="#m512a9e2e4f" y="95.311854752"/>
     <use style="fill:#ffa256;stroke:#ffa256;stroke-width:0.3;" x="570.375" xlink:href="#m512a9e2e4f" y="94.3941118324"/>
     <use style="fill:#ffa256;stroke:#ffa256;stroke-width:0.3;" x="577.35" xlink:href="#m512a9e2e4f" y="93.4887547711"/>
     <use style="fill:#ffa256;stroke:#ffa256;stroke-width:0.3;" x="584.325" xlink:href="#m512a9e2e4f" y="92.5487801552"/>
     <use style="fill:#ffa256;stroke:#ffa256;stroke-width:0.3;" x="591.3" xlink:href="#m512a9e2e4f" y="91.5417352208"/>
     <use style="fill:#ffa256;stroke:#ffa256;stroke-width:0.3;" x="598.275" xlink:href="#m512a9e2e4f" y="90.4451464696"/>
     <use style="fill:#ffa256;stroke:#ffa256;stroke-width:0.3;" x="605.25" xlink:href="#m512a9e2e4f" y="89.3633743931"/>
     <use style="fill:#ffa256;stroke:#ffa256;stroke-width:0.3;" x="612.225" xlink:href="#m512a9e2e4f" y="88.1662829953"/>
     <use style="fill:#ffa256;stroke:#ffa256;stroke-width:0.3;" x="619.2" xlink:href="#m512a9e2e4f" y="87.0261042067"/>
     <use style="fill:#ffa256;stroke:#ffa256;stroke-width:0.3;" x="626.175" xlink:href="#m512a9e2e4f" y="86.0170601293"/>
     <use style="fill:#ffa256;stroke:#ffa256;stroke-width:0.3;" x="633.15" xlink:href="#m512a9e2e4f" y="84.8980948068"/>
     <use style="fill:#ffa256;stroke:#ffa256;stroke-width:0.3;" x="640.125" xlink:href="#m512a9e2e4f" y="83.794175007"/>
     <use style="fill:#ffa256;stroke:#ffa256;stroke-width:0.3;" x="647.1" xlink:href="#m512a9e2e4f" y="82.7970831704"/>
     <use style="fill:#ffa256;stroke:#ffa256;stroke-width:0.3;" x="654.075" xlink:href="#m512a9e2e4f" y="81.8406850381"/>
     <use style="fill:#ffa256;stroke:#ffa256;stroke-width:0.3;" x="661.05" xlink:href="#m512a9e2e4f" y="80.8916294342"/>
     <use style="fill:#ffa256;stroke:#ffa256;stroke-width:0.3;" x="668.025" xlink:href="#m512a9e2e4f" y="79.9200219973"/>
     <use style="fill:#ffa256;stroke:#ffa256;stroke-width:0.3;" x="675.0" xlink:href="#m512a9e2e4f" y="79.0167569701"/>
     <use style="fill:#ffa256;stroke:#ffa256;stroke-width:0.3;" x="681.975" xlink:href="#m512a9e2e4f" y="77.864989654"/>
     <use style="fill:#ffa256;stroke:#ffa256;stroke-width:0.3;" x="688.95" xlink:href="#m512a9e2e4f" y="76.6879080277"/>
     <use style="fill:#ffa256;stroke:#ffa256;stroke-width:0.3;" x="695.925" xlink:href="#m512a9e2e4f" y="75.4897341357"/>
     <use style="fill:#ffa256;stroke:#ffa256;stroke-width:0.3;" x="702.9" xlink:href="#m512a9e2e4f" y="74.3169512129"/>
     <use style="fill:#ffa256;stroke:#ffa256;stroke-width:0.3;" x="709.875" xlink:href="#m512a9e2e4f" y="73.194578808"/>
     <use style="fill:#ffa256;stroke:#ffa256;stroke-width:0.3;" x="716.85" xlink:href="#m512a9e2e4f" y="72.1413680976"/>
     <use style="fill:#ffa256;stroke:#ffa256;stroke-width:0.3;" x="723.825" xlink:href="#m512a9e2e4f" y="71.1829195094"/>
     <use style="fill:#ffa256;stroke:#ffa256;stroke-width:0.3;" x="730.8" xlink:href="#m512a9e2e4f" y="70.2083991526"/>
     <use style="fill:#ffa256;stroke:#ffa256;stroke-width:0.3;" x="737.775" xlink:href="#m512a9e2e4f" y="69.2638741967"/>
     <use style="fill:#ffa256;stroke:#ffa256;stroke-width:0.3;" x="744.75" xlink:href="#m512a9e2e4f" y="68.3471504536"/>
     <use style="fill:#ffa256;stroke:#ffa256;stroke-width:0.3;" x="751.725" xlink:href="#m512a9e2e4f" y="67.4292797655"/>
     <use style="fill:#ffa256;stroke:#ffa256;stroke-width:0.3;" x="758.7" xlink:href="#m512a9e2e4f" y="66.4208328209"/>
     <use style="fill:#ffa256;stroke:#ffa256;stroke-width:0.3;" x="765.675" xlink:href="#m512a9e2e4f" y="65.4959954408"/>
     <use style="fill:#ffa256;stroke:#ffa256;stroke-width:0.3;" x="772.65" xlink:href="#m512a9e2e4f" y="64.2848390942"/>
     <use style="fill:#ffa256;stroke:#ffa256;stroke-width:0.3;" x="779.625" xlink:href="#m512a9e2e4f" y="63.1009464131"/>
     <use style="fill:#ffa256;stroke:#ffa256;stroke-width:0.3;" x="786.6" xlink:href="#m512a9e2e4f" y="61.8919597251"/>
     <use style="fill:#ffa256;stroke:#ffa256;stroke-width:0.3;" x="793.575" xlink:href="#m512a9e2e4f" y="60.6868448926"/>
     <use style="fill:#ffa256;stroke:#ffa256;stroke-width:0.3;" x="800.55" xlink:href="#m512a9e2e4f" y="59.6201030893"/>
     <use style="fill:#ffa256;stroke:#ffa256;stroke-width:0.3;" x="807.525" xlink:href="#m512a9e2e4f" y="58.6550972485"/>
     <use style="fill:#ffa256;stroke:#ffa256;stroke-width:0.3;" x="814.5" xlink:href="#m512a9e2e4f" y="57.905905076"/>
    </g>
   </g>
   <g id="line2d_40">
    <path clip-path="url(#p26dc8854d3)" d="M 144.9 154.363636 
L 151.875 153.306818 
L 158.85 152.25 
L 165.825 151.193182 
L 172.8 150.136364 
L 179.775 149.079545 
L 186.75 148.022727 
L 193.725 146.965909 
L 200.7 145.909091 
L 207.675 144.852273 
L 214.65 143.795455 
L 221.625 142.738636 
L 228.6 141.681818 
L 235.575 140.625 
L 242.55 139.568182 
L 249.525 138.511364 
L 256.5 137.454545 
L 263.475 136.397727 
L 270.45 135.340909 
L 277.425 134.284091 
L 284.4 133.227273 
L 291.375 132.170455 
L 298.35 131.113636 
L 305.325 130.056818 
L 312.3 129 
L 319.275 127.943182 
L 326.25 126.886364 
L 333.225 125.829545 
L 340.2 124.772727 
L 347.175 123.715909 
L 354.15 122.659091 
L 361.125 121.602273 
L 368.1 120.545455 
L 375.075 119.488636 
L 382.05 118.431818 
L 389.025 117.375 
L 396 116.318182 
L 402.975 115.261364 
L 409.95 114.204545 
L 416.925 113.147727 
L 423.9 112.090909 
L 430.875 111.034091 
L 437.85 109.977273 
L 444.825 108.920455 
L 451.8 107.863636 
L 458.775 106.806818 
L 465.75 105.75 
L 472.725 104.693182 
L 479.7 103.636364 
L 486.675 102.579545 
L 493.65 101.522727 
L 500.625 100.465909 
L 507.6 99.409091 
L 514.575 98.352273 
L 521.55 97.295455 
L 528.525 96.238636 
L 535.5 95.181818 
L 542.475 94.125 
L 549.45 93.068182 
L 556.425 92.011364 
L 563.4 90.954545 
L 570.375 89.897727 
L 577.35 88.840909 
L 584.325 87.784091 
L 591.3 86.727273 
L 598.275 85.670455 
L 605.25 84.613636 
L 612.225 83.556818 
L 619.2 82.5 
L 626.175 81.443182 
L 633.15 80.386364 
L 640.125 79.329545 
L 647.1 78.272727 
L 654.075 77.215909 
L 661.05 76.159091 
L 668.025 75.102273 
L 675 74.045455 
L 681.975 72.988636 
L 688.95 71.931818 
L 695.925 70.875 
L 702.9 69.818182 
L 709.875 68.761364 
L 716.85 67.704545 
L 723.825 66.647727 
L 730.8 65.590909 
L 737.775 64.534091 
L 744.75 63.477273 
L 751.725 62.420455 
L 758.7 61.363636 
L 765.675 60.306818 
L 772.65 59.25 
L 779.625 58.193182 
L 786.6 57.136364 
L 793.575 56.079545 
L 800.55 55.022727 
L 807.525 53.965909 
L 814.5 52.909091 
" style="fill:none;stroke:#ffa256;stroke-linecap:round;stroke-width:1.75;"/>
   </g>
   <g id="patch_3">
    <path d="M 117 162.818182 
L 117 36 
" style="fill:none;"/>
   </g>
   <g id="patch_4">
    <path d="M 842.4 162.818182 
L 842.4 36 
" style="fill:none;"/>
   </g>
   <g id="patch_5">
    <path d="M 117 36 
L 842.4 36 
" style="fill:none;"/>
   </g>
   <g id="patch_6">
    <path d="M 117 162.818182 
L 842.4 162.818182 
" style="fill:none;"/>
   </g>
  </g>
  <g id="axes_2">
   <g id="patch_7">
    <path d="M 117 315 
L 842.4 315 
L 842.4 188.181818 
L 117 188.181818 
z
" style="fill:#eaeaf2;"/>
   </g>
   <g id="matplotlib.axis_3">
    <g id="xtick_7">
     <g id="line2d_41">
      <path clip-path="url(#p20c13d2846)" d="M 117 315 
L 117 188.181818 
" style="fill:none;stroke:#ffffff;stroke-linecap:round;"/>
     </g>
     <g id="line2d_42"/>
     <g id="line2d_43"/>
     <g id="text_8">
      <!-- $0.0$ -->
      <defs>
       <path d="M 18.40625 4.796875 
C 18.40625 7.6875 16 9.671875 13.59375 9.671875 
C 10.703125 9.671875 8.703125 7.28125 8.703125 4.890625 
C 8.703125 2 11.09375 0 13.5 0 
C 16.40625 0 18.40625 2.390625 18.40625 4.796875 
" id="CMMI12-58"/>
      </defs>
      <g style="fill:#262626;" transform="translate(110.634960512 328.91849838)scale(0.1 -0.1)">
       <use transform="scale(0.9962640099626402)" xlink:href="#CMR17-48"/>
       <use transform="translate(45.69047711706103 0.0)scale(0.9962640099626402)" xlink:href="#CMMI12-58"/>
       <use transform="translate(72.78765420688046 0.0)scale(0.9962640099626402)" xlink:href="#CMR17-48"/>
      </g>
     </g>
    </g>
    <g id="xtick_8">
     <g id="line2d_44">
      <path clip-path="url(#p20c13d2846)" d="M 256.5 315 
L 256.5 188.181818 
" style="fill:none;stroke:#ffffff;stroke-linecap:round;"/>
     </g>
     <g id="line2d_45"/>
     <g id="line2d_46"/>
     <g id="text_9">
      <!-- $0.2$ -->
      <g style="fill:#262626;" transform="translate(250.134960512 328.91849838)scale(0.1 -0.1)">
       <use transform="scale(0.9962640099626402)" xlink:href="#CMR17-48"/>
       <use transform="translate(45.69047711706103 0.0)scale(0.9962640099626402)" xlink:href="#CMMI12-58"/>
       <use transform="translate(72.78765420688046 0.0)scale(0.9962640099626402)" xlink:href="#CMR17-50"/>
      </g>
     </g>
    </g>
    <g id="xtick_9">
     <g id="line2d_47">
      <path clip-path="url(#p20c13d2846)" d="M 396 315 
L 396 188.181818 
" style="fill:none;stroke:#ffffff;stroke-linecap:round;"/>
     </g>
     <g id="line2d_48"/>
     <g id="line2d_49"/>
     <g id="text_10">
      <!-- $0.4$ -->
      <g style="fill:#262626;" transform="translate(389.634960512 328.91849838)scale(0.1 -0.1)">
       <use transform="scale(0.9962640099626402)" xlink:href="#CMR17-48"/>
       <use transform="translate(45.69047711706103 0.0)scale(0.9962640099626402)" xlink:href="#CMMI12-58"/>
       <use transform="translate(72.78765420688046 0.0)scale(0.9962640099626402)" xlink:href="#CMR17-52"/>
      </g>
     </g>
    </g>
    <g id="xtick_10">
     <g id="line2d_50">
      <path clip-path="url(#p20c13d2846)" d="M 535.5 315 
L 535.5 188.181818 
" style="fill:none;stroke:#ffffff;stroke-linecap:round;"/>
     </g>
     <g id="line2d_51"/>
     <g id="line2d_52"/>
     <g id="text_11">
      <!-- $0.6$ -->
      <g style="fill:#262626;" transform="translate(529.134960512 328.91849838)scale(0.1 -0.1)">
       <use transform="scale(0.9962640099626402)" xlink:href="#CMR17-48"/>
       <use transform="translate(45.69047711706103 0.0)scale(0.9962640099626402)" xlink:href="#CMMI12-58"/>
       <use transform="translate(72.78765420688046 0.0)scale(0.9962640099626402)" xlink:href="#CMR17-54"/>
      </g>
     </g>
    </g>
    <g id="xtick_11">
     <g id="line2d_53">
      <path clip-path="url(#p20c13d2846)" d="M 675 315 
L 675 188.181818 
" style="fill:none;stroke:#ffffff;stroke-linecap:round;"/>
     </g>
     <g id="line2d_54"/>
     <g id="line2d_55"/>
     <g id="text_12">
      <!-- $0.8$ -->
      <g style="fill:#262626;" transform="translate(668.634960512 328.91849838)scale(0.1 -0.1)">
       <use transform="scale(0.9962640099626402)" xlink:href="#CMR17-48"/>
       <use transform="translate(45.69047711706103 0.0)scale(0.9962640099626402)" xlink:href="#CMMI12-58"/>
       <use transform="translate(72.78765420688046 0.0)scale(0.9962640099626402)" xlink:href="#CMR17-56"/>
      </g>
     </g>
    </g>
    <g id="xtick_12">
     <g id="line2d_56">
      <path clip-path="url(#p20c13d2846)" d="M 814.5 315 
L 814.5 188.181818 
" style="fill:none;stroke:#ffffff;stroke-linecap:round;"/>
     </g>
     <g id="line2d_57"/>
     <g id="line2d_58"/>
     <g id="text_13">
      <!-- $1.0$ -->
      <defs>
       <path d="M 26.59375 63.40625 
C 26.59375 65.5 26.5 65.5 25.09375 65.5 
C 21.203125 61.1875 15.296875 59.796875 9.703125 59.796875 
C 9.40625 59.796875 8.90625 59.796875 8.796875 59.5 
C 8.703125 59.296875 8.703125 59.09375 8.703125 57 
C 11.796875 57 17 57.59375 21 59.984375 
L 21 7.203125 
C 21 3.6875 20.796875 2.5 12.203125 2.5 
L 9.203125 2.5 
L 9.203125 0 
C 14 0 19 0 23.796875 0 
C 28.59375 0 33.59375 0 38.40625 0 
L 38.40625 2.5 
L 35.40625 2.5 
C 26.796875 2.5 26.59375 3.59375 26.59375 7.15625 
z
" id="CMR17-49"/>
      </defs>
      <g style="fill:#262626;" transform="translate(808.134960512 328.91849838)scale(0.1 -0.1)">
       <use transform="scale(0.9962640099626402)" xlink:href="#CMR17-49"/>
       <use transform="translate(45.69047711706103 0.0)scale(0.9962640099626402)" xlink:href="#CMMI12-58"/>
       <use transform="translate(72.78765420688046 0.0)scale(0.9962640099626402)" xlink:href="#CMR17-48"/>
      </g>
     </g>
    </g>
   </g>
   <g id="matplotlib.axis_4">
    <g id="ytick_8">
     <g id="line2d_59">
      <path clip-path="url(#p20c13d2846)" d="M 117 315 
L 842.4 315 
" style="fill:none;stroke:#ffffff;stroke-linecap:round;"/>
     </g>
     <g id="line2d_60"/>
     <g id="line2d_61"/>
     <g id="text_14">
      <!-- $-2.5$ -->
      <defs>
       <path d="M 65.90625 23 
C 67.59375 23 69.40625 23 69.40625 25 
C 69.40625 27 67.59375 27 65.90625 27 
L 11.796875 27 
C 10.09375 27 8.296875 27 8.296875 25 
C 8.296875 23 10.09375 23 11.796875 23 
z
" id="CMSY10-0"/>
      </defs>
      <g style="fill:#262626;" transform="translate(89.521177299 317.490660025)scale(0.1 -0.1)">
       <use transform="scale(0.9962640099626402)" xlink:href="#CMSY10-0"/>
       <use transform="translate(77.4874676506071 0.0)scale(0.9962640099626402)" xlink:href="#CMR17-50"/>
       <use transform="translate(123.17794476766814 0.0)scale(0.9962640099626402)" xlink:href="#CMMI12-58"/>
       <use transform="translate(150.27512185748756 0.0)scale(0.9962640099626402)" xlink:href="#CMR17-53"/>
      </g>
     </g>
    </g>
    <g id="ytick_9">
     <g id="line2d_62">
      <path clip-path="url(#p20c13d2846)" d="M 117 289.636364 
L 842.4 289.636364 
" style="fill:none;stroke:#ffffff;stroke-linecap:round;"/>
     </g>
     <g id="line2d_63"/>
     <g id="line2d_64"/>
     <g id="text_15">
      <!-- $-2.0$ -->
      <g style="fill:#262626;" transform="translate(89.521177299 292.127023661)scale(0.1 -0.1)">
       <use transform="scale(0.9962640099626402)" xlink:href="#CMSY10-0"/>
       <use transform="translate(77.4874676506071 0.0)scale(0.9962640099626402)" xlink:href="#CMR17-50"/>
       <use transform="translate(123.17794476766814 0.0)scale(0.9962640099626402)" xlink:href="#CMMI12-58"/>
       <use transform="translate(150.27512185748756 0.0)scale(0.9962640099626402)" xlink:href="#CMR17-48"/>
      </g>
     </g>
    </g>
    <g id="ytick_10">
     <g id="line2d_65">
      <path clip-path="url(#p20c13d2846)" d="M 117 264.272727 
L 842.4 264.272727 
" style="fill:none;stroke:#ffffff;stroke-linecap:round;"/>
     </g>
     <g id="line2d_66"/>
     <g id="line2d_67"/>
     <g id="text_16">
      <!-- $-1.5$ -->
      <g style="fill:#262626;" transform="translate(89.521177299 266.763387298)scale(0.1 -0.1)">
       <use transform="scale(0.9962640099626402)" xlink:href="#CMSY10-0"/>
       <use transform="translate(77.4874676506071 0.0)scale(0.9962640099626402)" xlink:href="#CMR17-49"/>
       <use transform="translate(123.17794476766814 0.0)scale(0.9962640099626402)" xlink:href="#CMMI12-58"/>
       <use transform="translate(150.27512185748756 0.0)scale(0.9962640099626402)" xlink:href="#CMR17-53"/>
      </g>
     </g>
    </g>
    <g id="ytick_11">
     <g id="line2d_68">
      <path clip-path="url(#p20c13d2846)" d="M 117 238.909091 
L 842.4 238.909091 
" style="fill:none;stroke:#ffffff;stroke-linecap:round;"/>
     </g>
     <g id="line2d_69"/>
     <g id="line2d_70"/>
     <g id="text_17">
      <!-- $-1.0$ -->
      <g style="fill:#262626;" transform="translate(89.521177299 241.399750934)scale(0.1 -0.1)">
       <use transform="scale(0.9962640099626402)" xlink:href="#CMSY10-0"/>
       <use transform="translate(77.4874676506071 0.0)scale(0.9962640099626402)" xlink:href="#CMR17-49"/>
       <use transform="translate(123.17794476766814 0.0)scale(0.9962640099626402)" xlink:href="#CMMI12-58"/>
       <use transform="translate(150.27512185748756 0.0)scale(0.9962640099626402)" xlink:href="#CMR17-48"/>
      </g>
     </g>
    </g>
    <g id="ytick_12">
     <g id="line2d_71">
      <path clip-path="url(#p20c13d2846)" d="M 117 213.545455 
L 842.4 213.545455 
" style="fill:none;stroke:#ffffff;stroke-linecap:round;"/>
     </g>
     <g id="line2d_72"/>
     <g id="line2d_73"/>
     <g id="text_18">
      <!-- $-0.5$ -->
      <g style="fill:#262626;" transform="translate(89.521177299 216.03611457)scale(0.1 -0.1)">
       <use transform="scale(0.9962640099626402)" xlink:href="#CMSY10-0"/>
       <use transform="translate(77.4874676506071 0.0)scale(0.9962640099626402)" xlink:href="#CMR17-48"/>
       <use transform="translate(123.17794476766814 0.0)scale(0.9962640099626402)" xlink:href="#CMMI12-58"/>
       <use transform="translate(150.27512185748756 0.0)scale(0.9962640099626402)" xlink:href="#CMR17-53"/>
      </g>
     </g>
    </g>
    <g id="ytick_13">
     <g id="line2d_74">
      <path clip-path="url(#p20c13d2846)" d="M 117 188.181818 
L 842.4 188.181818 
" style="fill:none;stroke:#ffffff;stroke-linecap:round;"/>
     </g>
     <g id="line2d_75"/>
     <g id="line2d_76"/>
     <g id="text_19">
      <!-- $0.0$ -->
      <g style="fill:#262626;" transform="translate(97.2699210237 190.672478207)scale(0.1 -0.1)">
       <use transform="scale(0.9962640099626402)" xlink:href="#CMR17-48"/>
       <use transform="translate(45.69047711706103 0.0)scale(0.9962640099626402)" xlink:href="#CMMI12-58"/>
       <use transform="translate(72.78765420688046 0.0)scale(0.9962640099626402)" xlink:href="#CMR17-48"/>
      </g>
     </g>
    </g>
   </g>
   <g id="patch_8">
    <path clip-path="url(#p20c13d2846)" d="M 144.9 252.01554 
L 150.48 252.01554 
L 150.48 188.181818 
L 144.9 188.181818 
z
" style="fill:#ff0000;stroke:#1a1a1a;stroke-linejoin:miter;stroke-width:0.3;"/>
   </g>
   <g id="patch_9">
    <path clip-path="url(#p20c13d2846)" d="M 151.875 270.574763 
L 157.455 270.574763 
L 157.455 188.181818 
L 151.875 188.181818 
z
" style="fill:#ff0000;stroke:#1a1a1a;stroke-linejoin:miter;stroke-width:0.3;"/>
   </g>
   <g id="patch_10">
    <path clip-path="url(#p20c13d2846)" d="M 158.85 277.876907 
L 164.43 277.876907 
L 164.43 188.181818 
L 158.85 188.181818 
z
" style="fill:#ff0000;stroke:#1a1a1a;stroke-linejoin:miter;stroke-width:0.3;"/>
   </g>
   <g id="patch_11">
    <path clip-path="url(#p20c13d2846)" d="M 165.825 284.527406 
L 171.405 284.527406 
L 171.405 188.181818 
L 165.825 188.181818 
z
" style="fill:#ff0000;stroke:#1a1a1a;stroke-linejoin:miter;stroke-width:0.3;"/>
   </g>
   <g id="patch_12">
    <path clip-path="url(#p20c13d2846)" d="M 172.8 286.713675 
L 178.38 286.713675 
L 178.38 188.181818 
L 172.8 188.181818 
z
" style="fill:#ff0000;stroke:#1a1a1a;stroke-linejoin:miter;stroke-width:0.3;"/>
   </g>
   <g id="patch_13">
    <path clip-path="url(#p20c13d2846)" d="M 179.775 282.27248 
L 185.355 282.27248 
L 185.355 188.181818 
L 179.775 188.181818 
z
" style="fill:#ff0000;stroke:#1a1a1a;stroke-linejoin:miter;stroke-width:0.3;"/>
   </g>
   <g id="patch_14">
    <path clip-path="url(#p20c13d2846)" d="M 186.75 279.616638 
L 192.33 279.616638 
L 192.33 188.181818 
L 186.75 188.181818 
z
" style="fill:#ff0000;stroke:#1a1a1a;stroke-linejoin:miter;stroke-width:0.3;"/>
   </g>
   <g id="patch_15">
    <path clip-path="url(#p20c13d2846)" d="M 193.725 276.288184 
L 199.305 276.288184 
L 199.305 188.181818 
L 193.725 188.181818 
z
" style="fill:#ff0000;stroke:#1a1a1a;stroke-linejoin:miter;stroke-width:0.3;"/>
   </g>
   <g id="patch_16">
    <path clip-path="url(#p20c13d2846)" d="M 200.7 273.795489 
L 206.28 273.795489 
L 206.28 188.181818 
L 200.7 188.181818 
z
" style="fill:#ff0000;stroke:#1a1a1a;stroke-linejoin:miter;stroke-width:0.3;"/>
   </g>
   <g id="patch_17">
    <path clip-path="url(#p20c13d2846)" d="M 207.675 272.530537 
L 213.255 272.530537 
L 213.255 188.181818 
L 207.675 188.181818 
z
" style="fill:#ff0000;stroke:#1a1a1a;stroke-linejoin:miter;stroke-width:0.3;"/>
   </g>
   <g id="patch_18">
    <path clip-path="url(#p20c13d2846)" d="M 214.65 275.193624 
L 220.23 275.193624 
L 220.23 188.181818 
L 214.65 188.181818 
z
" style="fill:#ff0000;stroke:#1a1a1a;stroke-linejoin:miter;stroke-width:0.3;"/>
   </g>
   <g id="patch_19">
    <path clip-path="url(#p20c13d2846)" d="M 221.625 278.057427 
L 227.205 278.057427 
L 227.205 188.181818 
L 221.625 188.181818 
z
" style="fill:#ff0000;stroke:#1a1a1a;stroke-linejoin:miter;stroke-width:0.3;"/>
   </g>
   <g id="patch_20">
    <path clip-path="url(#p20c13d2846)" d="M 228.6 277.174015 
L 234.18 277.174015 
L 234.18 188.181818 
L 228.6 188.181818 
z
" style="fill:#ff0000;stroke:#1a1a1a;stroke-linejoin:miter;stroke-width:0.3;"/>
   </g>
   <g id="patch_21">
    <path clip-path="url(#p20c13d2846)" d="M 235.575 282.66991 
L 241.155 282.66991 
L 241.155 188.181818 
L 235.575 188.181818 
z
" style="fill:#ff0000;stroke:#1a1a1a;stroke-linejoin:miter;stroke-width:0.3;"/>
   </g>
   <g id="patch_22">
    <path clip-path="url(#p20c13d2846)" d="M 242.55 284.310171 
L 248.13 284.310171 
L 248.13 188.181818 
L 242.55 188.181818 
z
" style="fill:#ff0000;stroke:#1a1a1a;stroke-linejoin:miter;stroke-width:0.3;"/>
   </g>
   <g id="patch_23">
    <path clip-path="url(#p20c13d2846)" d="M 249.525 284.891353 
L 255.105 284.891353 
L 255.105 188.181818 
L 249.525 188.181818 
z
" style="fill:#ff0000;stroke:#1a1a1a;stroke-linejoin:miter;stroke-width:0.3;"/>
   </g>
   <g id="patch_24">
    <path clip-path="url(#p20c13d2846)" d="M 256.5 286.162413 
L 262.08 286.162413 
L 262.08 188.181818 
L 256.5 188.181818 
z
" style="fill:#ff0000;stroke:#1a1a1a;stroke-linejoin:miter;stroke-width:0.3;"/>
   </g>
   <g id="patch_25">
    <path clip-path="url(#p20c13d2846)" d="M 263.475 285.448385 
L 269.055 285.448385 
L 269.055 188.181818 
L 263.475 188.181818 
z
" style="fill:#ff0000;stroke:#1a1a1a;stroke-linejoin:miter;stroke-width:0.3;"/>
   </g>
   <g id="patch_26">
    <path clip-path="url(#p20c13d2846)" d="M 270.45 280.547931 
L 276.03 280.547931 
L 276.03 188.181818 
L 270.45 188.181818 
z
" style="fill:#ff0000;stroke:#1a1a1a;stroke-linejoin:miter;stroke-width:0.3;"/>
   </g>
   <g id="patch_27">
    <path clip-path="url(#p20c13d2846)" d="M 277.425 277.74137 
L 283.005 277.74137 
L 283.005 188.181818 
L 277.425 188.181818 
z
" style="fill:#ff0000;stroke:#1a1a1a;stroke-linejoin:miter;stroke-width:0.3;"/>
   </g>
   <g id="patch_28">
    <path clip-path="url(#p20c13d2846)" d="M 284.4 275.54019 
L 289.98 275.54019 
L 289.98 188.181818 
L 284.4 188.181818 
z
" style="fill:#ff0000;stroke:#1a1a1a;stroke-linejoin:miter;stroke-width:0.3;"/>
   </g>
   <g id="patch_29">
    <path clip-path="url(#p20c13d2846)" d="M 291.375 272.60319 
L 296.955 272.60319 
L 296.955 188.181818 
L 291.375 188.181818 
z
" style="fill:#ff0000;stroke:#1a1a1a;stroke-linejoin:miter;stroke-width:0.3;"/>
   </g>
   <g id="patch_30">
    <path clip-path="url(#p20c13d2846)" d="M 298.35 273.201564 
L 303.93 273.201564 
L 303.93 188.181818 
L 298.35 188.181818 
z
" style="fill:#ff0000;stroke:#1a1a1a;stroke-linejoin:miter;stroke-width:0.3;"/>
   </g>
   <g id="patch_31">
    <path clip-path="url(#p20c13d2846)" d="M 305.325 276.346429 
L 310.905 276.346429 
L 310.905 188.181818 
L 305.325 188.181818 
z
" style="fill:#ff0000;stroke:#1a1a1a;stroke-linejoin:miter;stroke-width:0.3;"/>
   </g>
   <g id="patch_32">
    <path clip-path="url(#p20c13d2846)" d="M 312.3 278.741721 
L 317.88 278.741721 
L 317.88 188.181818 
L 312.3 188.181818 
z
" style="fill:#ff0000;stroke:#1a1a1a;stroke-linejoin:miter;stroke-width:0.3;"/>
   </g>
   <g id="patch_33">
    <path clip-path="url(#p20c13d2846)" d="M 319.275 281.904697 
L 324.855 281.904697 
L 324.855 188.181818 
L 319.275 188.181818 
z
" style="fill:#ff0000;stroke:#1a1a1a;stroke-linejoin:miter;stroke-width:0.3;"/>
   </g>
   <g id="patch_34">
    <path clip-path="url(#p20c13d2846)" d="M 326.25 285.020079 
L 331.83 285.020079 
L 331.83 188.181818 
L 326.25 188.181818 
z
" style="fill:#ff0000;stroke:#1a1a1a;stroke-linejoin:miter;stroke-width:0.3;"/>
   </g>
   <g id="patch_35">
    <path clip-path="url(#p20c13d2846)" d="M 333.225 286.181761 
L 338.805 286.181761 
L 338.805 188.181818 
L 333.225 188.181818 
z
" style="fill:#ff0000;stroke:#1a1a1a;stroke-linejoin:miter;stroke-width:0.3;"/>
   </g>
   <g id="patch_36">
    <path clip-path="url(#p20c13d2846)" d="M 340.2 283.99083 
L 345.78 283.99083 
L 345.78 188.181818 
L 340.2 188.181818 
z
" style="fill:#ff0000;stroke:#1a1a1a;stroke-linejoin:miter;stroke-width:0.3;"/>
   </g>
   <g id="patch_37">
    <path clip-path="url(#p20c13d2846)" d="M 347.175 281.292042 
L 352.755 281.292042 
L 352.755 188.181818 
L 347.175 188.181818 
z
" style="fill:#ff0000;stroke:#1a1a1a;stroke-linejoin:miter;stroke-width:0.3;"/>
   </g>
   <g id="patch_38">
    <path clip-path="url(#p20c13d2846)" d="M 354.15 279.798931 
L 359.73 279.798931 
L 359.73 188.181818 
L 354.15 188.181818 
z
" style="fill:#ff0000;stroke:#1a1a1a;stroke-linejoin:miter;stroke-width:0.3;"/>
   </g>
   <g id="patch_39">
    <path clip-path="url(#p20c13d2846)" d="M 361.125 277.852007 
L 366.705 277.852007 
L 366.705 188.181818 
L 361.125 188.181818 
z
" style="fill:#ff0000;stroke:#1a1a1a;stroke-linejoin:miter;stroke-width:0.3;"/>
   </g>
   <g id="patch_40">
    <path clip-path="url(#p20c13d2846)" d="M 368.1 276.983639 
L 373.68 276.983639 
L 373.68 188.181818 
L 368.1 188.181818 
z
" style="fill:#ff0000;stroke:#1a1a1a;stroke-linejoin:miter;stroke-width:0.3;"/>
   </g>
   <g id="patch_41">
    <path clip-path="url(#p20c13d2846)" d="M 375.075 276.127501 
L 380.655 276.127501 
L 380.655 188.181818 
L 375.075 188.181818 
z
" style="fill:#ff0000;stroke:#1a1a1a;stroke-linejoin:miter;stroke-width:0.3;"/>
   </g>
   <g id="patch_42">
    <path clip-path="url(#p20c13d2846)" d="M 382.05 276.096782 
L 387.63 276.096782 
L 387.63 188.181818 
L 382.05 188.181818 
z
" style="fill:#ff0000;stroke:#1a1a1a;stroke-linejoin:miter;stroke-width:0.3;"/>
   </g>
   <g id="patch_43">
    <path clip-path="url(#p20c13d2846)" d="M 389.025 278.977702 
L 394.605 278.977702 
L 394.605 188.181818 
L 389.025 188.181818 
z
" style="fill:#ff0000;stroke:#1a1a1a;stroke-linejoin:miter;stroke-width:0.3;"/>
   </g>
   <g id="patch_44">
    <path clip-path="url(#p20c13d2846)" d="M 396 284.234407 
L 401.58 284.234407 
L 401.58 188.181818 
L 396 188.181818 
z
" style="fill:#ff0000;stroke:#1a1a1a;stroke-linejoin:miter;stroke-width:0.3;"/>
   </g>
   <g id="patch_45">
    <path clip-path="url(#p20c13d2846)" d="M 402.975 287.953973 
L 408.555 287.953973 
L 408.555 188.181818 
L 402.975 188.181818 
z
" style="fill:#ff0000;stroke:#1a1a1a;stroke-linejoin:miter;stroke-width:0.3;"/>
   </g>
   <g id="patch_46">
    <path clip-path="url(#p20c13d2846)" d="M 409.95 292.198114 
L 415.53 292.198114 
L 415.53 188.181818 
L 409.95 188.181818 
z
" style="fill:#ff0000;stroke:#1a1a1a;stroke-linejoin:miter;stroke-width:0.3;"/>
   </g>
   <g id="patch_47">
    <path clip-path="url(#p20c13d2846)" d="M 416.925 294.526718 
L 422.505 294.526718 
L 422.505 188.181818 
L 416.925 188.181818 
z
" style="fill:#ff0000;stroke:#1a1a1a;stroke-linejoin:miter;stroke-width:0.3;"/>
   </g>
   <g id="patch_48">
    <path clip-path="url(#p20c13d2846)" d="M 423.9 295.685447 
L 429.48 295.685447 
L 429.48 188.181818 
L 423.9 188.181818 
z
" style="fill:#ff0000;stroke:#1a1a1a;stroke-linejoin:miter;stroke-width:0.3;"/>
   </g>
   <g id="patch_49">
    <path clip-path="url(#p20c13d2846)" d="M 430.875 293.901821 
L 436.455 293.901821 
L 436.455 188.181818 
L 430.875 188.181818 
z
" style="fill:#ff0000;stroke:#1a1a1a;stroke-linejoin:miter;stroke-width:0.3;"/>
   </g>
   <g id="patch_50">
    <path clip-path="url(#p20c13d2846)" d="M 437.85 292.431291 
L 443.43 292.431291 
L 443.43 188.181818 
L 437.85 188.181818 
z
" style="fill:#ff0000;stroke:#1a1a1a;stroke-linejoin:miter;stroke-width:0.3;"/>
   </g>
   <g id="patch_51">
    <path clip-path="url(#p20c13d2846)" d="M 444.825 292.018254 
L 450.405 292.018254 
L 450.405 188.181818 
L 444.825 188.181818 
z
" style="fill:#ff0000;stroke:#1a1a1a;stroke-linejoin:miter;stroke-width:0.3;"/>
   </g>
   <g id="patch_52">
    <path clip-path="url(#p20c13d2846)" d="M 451.8 289.447711 
L 457.38 289.447711 
L 457.38 188.181818 
L 451.8 188.181818 
z
" style="fill:#ff0000;stroke:#1a1a1a;stroke-linejoin:miter;stroke-width:0.3;"/>
   </g>
   <g id="patch_53">
    <path clip-path="url(#p20c13d2846)" d="M 458.775 290.298079 
L 464.355 290.298079 
L 464.355 188.181818 
L 458.775 188.181818 
z
" style="fill:#ff0000;stroke:#1a1a1a;stroke-linejoin:miter;stroke-width:0.3;"/>
   </g>
   <g id="patch_54">
    <path clip-path="url(#p20c13d2846)" d="M 465.75 288.61234 
L 471.33 288.61234 
L 471.33 188.181818 
L 465.75 188.181818 
z
" style="fill:#ff0000;stroke:#1a1a1a;stroke-linejoin:miter;stroke-width:0.3;"/>
   </g>
   <g id="patch_55">
    <path clip-path="url(#p20c13d2846)" d="M 472.725 288.808177 
L 478.305 288.808177 
L 478.305 188.181818 
L 472.725 188.181818 
z
" style="fill:#ff0000;stroke:#1a1a1a;stroke-linejoin:miter;stroke-width:0.3;"/>
   </g>
   <g id="patch_56">
    <path clip-path="url(#p20c13d2846)" d="M 479.7 289.807988 
L 485.28 289.807988 
L 485.28 188.181818 
L 479.7 188.181818 
z
" style="fill:#ff0000;stroke:#1a1a1a;stroke-linejoin:miter;stroke-width:0.3;"/>
   </g>
   <g id="patch_57">
    <path clip-path="url(#p20c13d2846)" d="M 486.675 292.799488 
L 492.255 292.799488 
L 492.255 188.181818 
L 486.675 188.181818 
z
" style="fill:#ff0000;stroke:#1a1a1a;stroke-linejoin:miter;stroke-width:0.3;"/>
   </g>
   <g id="patch_58">
    <path clip-path="url(#p20c13d2846)" d="M 493.65 296.912064 
L 499.23 296.912064 
L 499.23 188.181818 
L 493.65 188.181818 
z
" style="fill:#ff0000;stroke:#1a1a1a;stroke-linejoin:miter;stroke-width:0.3;"/>
   </g>
   <g id="patch_59">
    <path clip-path="url(#p20c13d2846)" d="M 500.625 299.941453 
L 506.205 299.941453 
L 506.205 188.181818 
L 500.625 188.181818 
z
" style="fill:#ff0000;stroke:#1a1a1a;stroke-linejoin:miter;stroke-width:0.3;"/>
   </g>
   <g id="patch_60">
    <path clip-path="url(#p20c13d2846)" d="M 507.6 299.754368 
L 513.18 299.754368 
L 513.18 188.181818 
L 507.6 188.181818 
z
" style="fill:#ff0000;stroke:#1a1a1a;stroke-linejoin:miter;stroke-width:0.3;"/>
   </g>
   <g id="patch_61">
    <path clip-path="url(#p20c13d2846)" d="M 514.575 299.664736 
L 520.155 299.664736 
L 520.155 188.181818 
L 514.575 188.181818 
z
" style="fill:#ff0000;stroke:#1a1a1a;stroke-linejoin:miter;stroke-width:0.3;"/>
   </g>
   <g id="patch_62">
    <path clip-path="url(#p20c13d2846)" d="M 521.55 295.835467 
L 527.13 295.835467 
L 527.13 188.181818 
L 521.55 188.181818 
z
" style="fill:#ff0000;stroke:#1a1a1a;stroke-linejoin:miter;stroke-width:0.3;"/>
   </g>
   <g id="patch_63">
    <path clip-path="url(#p20c13d2846)" d="M 528.525 291.717217 
L 534.105 291.717217 
L 534.105 188.181818 
L 528.525 188.181818 
z
" style="fill:#ff0000;stroke:#1a1a1a;stroke-linejoin:miter;stroke-width:0.3;"/>
   </g>
   <g id="patch_64">
    <path clip-path="url(#p20c13d2846)" d="M 535.5 294.313862 
L 541.08 294.313862 
L 541.08 188.181818 
L 535.5 188.181818 
z
" style="fill:#ff0000;stroke:#1a1a1a;stroke-linejoin:miter;stroke-width:0.3;"/>
   </g>
   <g id="patch_65">
    <path clip-path="url(#p20c13d2846)" d="M 542.475 292.723109 
L 548.055 292.723109 
L 548.055 188.181818 
L 542.475 188.181818 
z
" style="fill:#ff0000;stroke:#1a1a1a;stroke-linejoin:miter;stroke-width:0.3;"/>
   </g>
   <g id="patch_66">
    <path clip-path="url(#p20c13d2846)" d="M 549.45 291.762864 
L 555.03 291.762864 
L 555.03 188.181818 
L 549.45 188.181818 
z
" style="fill:#ff0000;stroke:#1a1a1a;stroke-linejoin:miter;stroke-width:0.3;"/>
   </g>
   <g id="patch_67">
    <path clip-path="url(#p20c13d2846)" d="M 556.425 290.944588 
L 562.005 290.944588 
L 562.005 188.181818 
L 556.425 188.181818 
z
" style="fill:#ff0000;stroke:#1a1a1a;stroke-linejoin:miter;stroke-width:0.3;"/>
   </g>
   <g id="patch_68">
    <path clip-path="url(#p20c13d2846)" d="M 563.4 292.757241 
L 568.98 292.757241 
L 568.98 188.181818 
L 563.4 188.181818 
z
" style="fill:#ff0000;stroke:#1a1a1a;stroke-linejoin:miter;stroke-width:0.3;"/>
   </g>
   <g id="patch_69">
    <path clip-path="url(#p20c13d2846)" d="M 570.375 296.095048 
L 575.955 296.095048 
L 575.955 188.181818 
L 570.375 188.181818 
z
" style="fill:#ff0000;stroke:#1a1a1a;stroke-linejoin:miter;stroke-width:0.3;"/>
   </g>
   <g id="patch_70">
    <path clip-path="url(#p20c13d2846)" d="M 577.35 299.730115 
L 582.93 299.730115 
L 582.93 188.181818 
L 577.35 188.181818 
z
" style="fill:#ff0000;stroke:#1a1a1a;stroke-linejoin:miter;stroke-width:0.3;"/>
   </g>
   <g id="patch_71">
    <path clip-path="url(#p20c13d2846)" d="M 584.325 302.53436 
L 589.905 302.53436 
L 589.905 188.181818 
L 584.325 188.181818 
z
" style="fill:#ff0000;stroke:#1a1a1a;stroke-linejoin:miter;stroke-width:0.3;"/>
   </g>
   <g id="patch_72">
    <path clip-path="url(#p20c13d2846)" d="M 591.3 303.728918 
L 596.88 303.728918 
L 596.88 188.181818 
L 591.3 188.181818 
z
" style="fill:#ff0000;stroke:#1a1a1a;stroke-linejoin:miter;stroke-width:0.3;"/>
   </g>
   <g id="patch_73">
    <path clip-path="url(#p20c13d2846)" d="M 598.275 302.774424 
L 603.855 302.774424 
L 603.855 188.181818 
L 598.275 188.181818 
z
" style="fill:#ff0000;stroke:#1a1a1a;stroke-linejoin:miter;stroke-width:0.3;"/>
   </g>
   <g id="patch_74">
    <path clip-path="url(#p20c13d2846)" d="M 605.25 302.175531 
L 610.83 302.175531 
L 610.83 188.181818 
L 605.25 188.181818 
z
" style="fill:#ff0000;stroke:#1a1a1a;stroke-linejoin:miter;stroke-width:0.3;"/>
   </g>
   <g id="patch_75">
    <path clip-path="url(#p20c13d2846)" d="M 612.225 298.808974 
L 617.805 298.808974 
L 617.805 188.181818 
L 612.225 188.181818 
z
" style="fill:#ff0000;stroke:#1a1a1a;stroke-linejoin:miter;stroke-width:0.3;"/>
   </g>
   <g id="patch_76">
    <path clip-path="url(#p20c13d2846)" d="M 619.2 296.808319 
L 624.78 296.808319 
L 624.78 188.181818 
L 619.2 188.181818 
z
" style="fill:#ff0000;stroke:#1a1a1a;stroke-linejoin:miter;stroke-width:0.3;"/>
   </g>
   <g id="patch_77">
    <path clip-path="url(#p20c13d2846)" d="M 626.175 297.954898 
L 631.755 297.954898 
L 631.755 188.181818 
L 626.175 188.181818 
z
" style="fill:#ff0000;stroke:#1a1a1a;stroke-linejoin:miter;stroke-width:0.3;"/>
   </g>
   <g id="patch_78">
    <path clip-path="url(#p20c13d2846)" d="M 633.15 296.463366 
L 638.73 296.463366 
L 638.73 188.181818 
L 633.15 188.181818 
z
" style="fill:#ff0000;stroke:#1a1a1a;stroke-linejoin:miter;stroke-width:0.3;"/>
   </g>
   <g id="patch_79">
    <path clip-path="url(#p20c13d2846)" d="M 640.125 295.332927 
L 645.705 295.332927 
L 645.705 188.181818 
L 640.125 188.181818 
z
" style="fill:#ff0000;stroke:#1a1a1a;stroke-linejoin:miter;stroke-width:0.3;"/>
   </g>
   <g id="patch_80">
    <path clip-path="url(#p20c13d2846)" d="M 647.1 296.76636 
L 652.68 296.76636 
L 652.68 188.181818 
L 647.1 188.181818 
z
" style="fill:#ff0000;stroke:#1a1a1a;stroke-linejoin:miter;stroke-width:0.3;"/>
   </g>
   <g id="patch_81">
    <path clip-path="url(#p20c13d2846)" d="M 654.075 299.176441 
L 659.655 299.176441 
L 659.655 188.181818 
L 654.075 188.181818 
z
" style="fill:#ff0000;stroke:#1a1a1a;stroke-linejoin:miter;stroke-width:0.3;"/>
   </g>
   <g id="patch_82">
    <path clip-path="url(#p20c13d2846)" d="M 661.05 301.762743 
L 666.63 301.762743 
L 666.63 188.181818 
L 661.05 188.181818 
z
" style="fill:#ff0000;stroke:#1a1a1a;stroke-linejoin:miter;stroke-width:0.3;"/>
   </g>
   <g id="patch_83">
    <path clip-path="url(#p20c13d2846)" d="M 668.025 303.807801 
L 673.605 303.807801 
L 673.605 188.181818 
L 668.025 188.181818 
z
" style="fill:#ff0000;stroke:#1a1a1a;stroke-linejoin:miter;stroke-width:0.3;"/>
   </g>
   <g id="patch_84">
    <path clip-path="url(#p20c13d2846)" d="M 675 307.493076 
L 680.58 307.493076 
L 680.58 188.181818 
L 675 188.181818 
z
" style="fill:#ff0000;stroke:#1a1a1a;stroke-linejoin:miter;stroke-width:0.3;"/>
   </g>
   <g id="patch_85">
    <path clip-path="url(#p20c13d2846)" d="M 681.975 305.214297 
L 687.555 305.214297 
L 687.555 188.181818 
L 681.975 188.181818 
z
" style="fill:#ff0000;stroke:#1a1a1a;stroke-linejoin:miter;stroke-width:0.3;"/>
   </g>
   <g id="patch_86">
    <path clip-path="url(#p20c13d2846)" d="M 688.95 302.327974 
L 694.53 302.327974 
L 694.53 188.181818 
L 688.95 188.181818 
z
" style="fill:#ff0000;stroke:#1a1a1a;stroke-linejoin:miter;stroke-width:0.3;"/>
   </g>
   <g id="patch_87">
    <path clip-path="url(#p20c13d2846)" d="M 695.925 298.935437 
L 701.505 298.935437 
L 701.505 188.181818 
L 695.925 188.181818 
z
" style="fill:#ff0000;stroke:#1a1a1a;stroke-linejoin:miter;stroke-width:0.3;"/>
   </g>
   <g id="patch_88">
    <path clip-path="url(#p20c13d2846)" d="M 702.9 296.152284 
L 708.48 296.152284 
L 708.48 188.181818 
L 702.9 188.181818 
z
" style="fill:#ff0000;stroke:#1a1a1a;stroke-linejoin:miter;stroke-width:0.3;"/>
   </g>
   <g id="patch_89">
    <path clip-path="url(#p20c13d2846)" d="M 709.875 294.578982 
L 715.455 294.578982 
L 715.455 188.181818 
L 709.875 188.181818 
z
" style="fill:#ff0000;stroke:#1a1a1a;stroke-linejoin:miter;stroke-width:0.3;"/>
   </g>
   <g id="patch_90">
    <path clip-path="url(#p20c13d2846)" d="M 716.85 294.665562 
L 722.43 294.665562 
L 722.43 188.181818 
L 716.85 188.181818 
z
" style="fill:#ff0000;stroke:#1a1a1a;stroke-linejoin:miter;stroke-width:0.3;"/>
   </g>
   <g id="patch_91">
    <path clip-path="url(#p20c13d2846)" d="M 723.825 297.026432 
L 729.405 297.026432 
L 729.405 188.181818 
L 723.825 188.181818 
z
" style="fill:#ff0000;stroke:#1a1a1a;stroke-linejoin:miter;stroke-width:0.3;"/>
   </g>
   <g id="patch_92">
    <path clip-path="url(#p20c13d2846)" d="M 730.8 299.00158 
L 736.38 299.00158 
L 736.38 188.181818 
L 730.8 188.181818 
z
" style="fill:#ff0000;stroke:#1a1a1a;stroke-linejoin:miter;stroke-width:0.3;"/>
   </g>
   <g id="patch_93">
    <path clip-path="url(#p20c13d2846)" d="M 737.775 301.696617 
L 743.355 301.696617 
L 743.355 188.181818 
L 737.775 188.181818 
z
" style="fill:#ff0000;stroke:#1a1a1a;stroke-linejoin:miter;stroke-width:0.3;"/>
   </g>
   <g id="patch_94">
    <path clip-path="url(#p20c13d2846)" d="M 744.75 305.058884 
L 750.33 305.058884 
L 750.33 188.181818 
L 744.75 188.181818 
z
" style="fill:#ff0000;stroke:#1a1a1a;stroke-linejoin:miter;stroke-width:0.3;"/>
   </g>
   <g id="patch_95">
    <path clip-path="url(#p20c13d2846)" d="M 751.725 308.393623 
L 757.305 308.393623 
L 757.305 188.181818 
L 751.725 188.181818 
z
" style="fill:#ff0000;stroke:#1a1a1a;stroke-linejoin:miter;stroke-width:0.3;"/>
   </g>
   <g id="patch_96">
    <path clip-path="url(#p20c13d2846)" d="M 758.7 309.554533 
L 764.28 309.554533 
L 764.28 188.181818 
L 758.7 188.181818 
z
" style="fill:#ff0000;stroke:#1a1a1a;stroke-linejoin:miter;stroke-width:0.3;"/>
   </g>
   <g id="patch_97">
    <path clip-path="url(#p20c13d2846)" d="M 765.675 312.722072 
L 771.255 312.722072 
L 771.255 188.181818 
L 765.675 188.181818 
z
" style="fill:#ff0000;stroke:#1a1a1a;stroke-linejoin:miter;stroke-width:0.3;"/>
   </g>
   <g id="patch_98">
    <path clip-path="url(#p20c13d2846)" d="M 772.65 309.017956 
L 778.23 309.017956 
L 778.23 188.181818 
L 772.65 188.181818 
z
" style="fill:#ff0000;stroke:#1a1a1a;stroke-linejoin:miter;stroke-width:0.3;"/>
   </g>
   <g id="patch_99">
    <path clip-path="url(#p20c13d2846)" d="M 779.625 305.968168 
L 785.205 305.968168 
L 785.205 188.181818 
L 779.625 188.181818 
z
" style="fill:#ff0000;stroke:#1a1a1a;stroke-linejoin:miter;stroke-width:0.3;"/>
   </g>
   <g id="patch_100">
    <path clip-path="url(#p20c13d2846)" d="M 786.6 302.316124 
L 792.18 302.316124 
L 792.18 188.181818 
L 786.6 188.181818 
z
" style="fill:#ff0000;stroke:#1a1a1a;stroke-linejoin:miter;stroke-width:0.3;"/>
   </g>
   <g id="patch_101">
    <path clip-path="url(#p20c13d2846)" d="M 793.575 298.757005 
L 799.155 298.757005 
L 799.155 188.181818 
L 793.575 188.181818 
z
" style="fill:#ff0000;stroke:#1a1a1a;stroke-linejoin:miter;stroke-width:0.3;"/>
   </g>
   <g id="patch_102">
    <path clip-path="url(#p20c13d2846)" d="M 800.55 298.518838 
L 806.13 298.518838 
L 806.13 188.181818 
L 800.55 188.181818 
z
" style="fill:#ff0000;stroke:#1a1a1a;stroke-linejoin:miter;stroke-width:0.3;"/>
   </g>
   <g id="patch_103">
    <path clip-path="url(#p20c13d2846)" d="M 807.525 300.722334 
L 813.105 300.722334 
L 813.105 188.181818 
L 807.525 188.181818 
z
" style="fill:#ff0000;stroke:#1a1a1a;stroke-linejoin:miter;stroke-width:0.3;"/>
   </g>
   <g id="patch_104">
    <path clip-path="url(#p20c13d2846)" d="M 814.5 308.105358 
L 820.08 308.105358 
L 820.08 188.181818 
L 814.5 188.181818 
z
" style="fill:#ff0000;stroke:#1a1a1a;stroke-linejoin:miter;stroke-width:0.3;"/>
   </g>
   <g id="patch_105">
    <path d="M 117 315 
L 117 188.181818 
" style="fill:none;"/>
   </g>
   <g id="patch_106">
    <path d="M 842.4 315 
L 842.4 188.181818 
" style="fill:none;"/>
   </g>
   <g id="patch_107">
    <path d="M 117 188.181818 
L 842.4 188.181818 
" style="fill:none;"/>
   </g>
   <g id="patch_108">
    <path d="M 117 315 
L 842.4 315 
" style="fill:none;"/>
   </g>
  </g>
 </g>
 <defs>
  <clipPath id="p26dc8854d3">
   <rect height="126.818181818" width="725.4" x="117.0" y="36.0"/>
  </clipPath>
  <clipPath id="p20c13d2846">
   <rect height="126.818181818" width="725.4" x="117.0" y="188.181818182"/>
  </clipPath>
 </defs>
</svg>
