G04 #@! TF.FileFunction,Copper,L2,Bot,Signal*
%FSLAX46Y46*%
G04 Gerber Fmt 4.6, Leading zero omitted, Abs format (unit mm)*
G04 Created by KiCad (PCBNEW (2016-10-09 revision 6d27087)-master) date 2016 November 17, Thursday 15:53:54*
%MOMM*%
%LPD*%
G01*
G04 APERTURE LIST*
%ADD10C,0.100000*%
%ADD11C,6.400000*%
%ADD12R,1.727200X1.727200*%
%ADD13O,1.727200X1.727200*%
%ADD14C,1.900000*%
%ADD15C,2.800000*%
%ADD16O,3.500000X6.000000*%
%ADD17O,6.000000X3.500000*%
%ADD18C,0.600000*%
%ADD19C,0.800000*%
%ADD20C,0.300000*%
%ADD21C,0.250000*%
%ADD22C,0.800000*%
%ADD23C,0.254000*%
G04 APERTURE END LIST*
D10*
D11*
X100000000Y-52500000D03*
X99000000Y-126000000D03*
X186000000Y-124000000D03*
X186000000Y-65825000D03*
D12*
X172830000Y-123425000D03*
D13*
X172830000Y-125965000D03*
X170290000Y-123425000D03*
X170290000Y-125965000D03*
X167750000Y-123425000D03*
X167750000Y-125965000D03*
X165210000Y-123425000D03*
X165210000Y-125965000D03*
X162670000Y-123425000D03*
X162670000Y-125965000D03*
X160130000Y-123425000D03*
X160130000Y-125965000D03*
X157590000Y-123425000D03*
X157590000Y-125965000D03*
X155050000Y-123425000D03*
X155050000Y-125965000D03*
X152510000Y-123425000D03*
X152510000Y-125965000D03*
X149970000Y-123425000D03*
X149970000Y-125965000D03*
X147430000Y-123425000D03*
X147430000Y-125965000D03*
X144890000Y-123425000D03*
X144890000Y-125965000D03*
X142350000Y-123425000D03*
X142350000Y-125965000D03*
X139810000Y-123425000D03*
X139810000Y-125965000D03*
X137270000Y-123425000D03*
X137270000Y-125965000D03*
X134730000Y-123425000D03*
X134730000Y-125965000D03*
X132190000Y-123425000D03*
X132190000Y-125965000D03*
X129650000Y-123425000D03*
X129650000Y-125965000D03*
X127110000Y-123425000D03*
X127110000Y-125965000D03*
X124570000Y-123425000D03*
X124570000Y-125965000D03*
D14*
X104580000Y-63920000D03*
X104580000Y-66460000D03*
D15*
X121325000Y-88450000D03*
D14*
X104500000Y-80420000D03*
X104500000Y-82960000D03*
X107080000Y-114295000D03*
X107080000Y-116835000D03*
X107080000Y-100120000D03*
X107080000Y-97580000D03*
X177920000Y-106840000D03*
X177920000Y-109380000D03*
X163920000Y-56580000D03*
X161380000Y-56580000D03*
X178380000Y-56580000D03*
X180920000Y-56580000D03*
D16*
X144130000Y-52400000D03*
X151630000Y-52400000D03*
X113975000Y-52400000D03*
X121475000Y-52400000D03*
X128975000Y-52400000D03*
X136475000Y-52400000D03*
D17*
X185500000Y-74910000D03*
X185500000Y-82410000D03*
X185500000Y-89910000D03*
X185500000Y-97410000D03*
D18*
X167000000Y-109000000D03*
X166000000Y-109000000D03*
X165000000Y-109000000D03*
X165000000Y-108000000D03*
X166000000Y-108000000D03*
X167000000Y-108000000D03*
X156000000Y-102000000D03*
X144000000Y-104500000D03*
X159000000Y-103000000D03*
X160000000Y-103000000D03*
X161000000Y-103000000D03*
X161000000Y-102000000D03*
X159000000Y-102000000D03*
X160000000Y-102000000D03*
X160000000Y-101000000D03*
X159000000Y-101000000D03*
X159000000Y-100000000D03*
X157000000Y-98000000D03*
X158000000Y-99000000D03*
X149500000Y-93000000D03*
X150500000Y-93000000D03*
X151500000Y-94000000D03*
X150500000Y-94000000D03*
X149500000Y-94000000D03*
X148500000Y-94000000D03*
X147500000Y-95000000D03*
X148500000Y-95000000D03*
X149500000Y-95000000D03*
X150500000Y-95000000D03*
X150500000Y-96000000D03*
X149500000Y-96000000D03*
X148500000Y-96000000D03*
X147500000Y-96000000D03*
X148250000Y-118250000D03*
X149250000Y-118250000D03*
X149250000Y-117250000D03*
X148250000Y-117250000D03*
X148250000Y-116250000D03*
X149250000Y-116250000D03*
X149250000Y-115250000D03*
X148250000Y-115250000D03*
X148700000Y-112800000D03*
X153500000Y-116000000D03*
X154500000Y-117000000D03*
X153500000Y-117000000D03*
X153500000Y-118000000D03*
X154500000Y-118000000D03*
X155500000Y-118000000D03*
X156000000Y-103000000D03*
X157000000Y-103000000D03*
X157000000Y-104000000D03*
X157000000Y-105000000D03*
X157000000Y-106000000D03*
X159000000Y-105000000D03*
X159000000Y-106000000D03*
X159000000Y-107000000D03*
X160000000Y-106000000D03*
X160000000Y-105000000D03*
X161000000Y-105000000D03*
X181000000Y-121000000D03*
X182000000Y-121000000D03*
X183000000Y-121000000D03*
X183000000Y-120000000D03*
X183000000Y-119000000D03*
X183000000Y-118000000D03*
X182000000Y-118000000D03*
X181000000Y-118000000D03*
X171000000Y-120000000D03*
X171000000Y-121000000D03*
X172000000Y-121000000D03*
X173000000Y-121000000D03*
X173000000Y-120000000D03*
X161500000Y-115000000D03*
X160500000Y-115000000D03*
X159500000Y-115000000D03*
X158500000Y-115000000D03*
X158500000Y-116000000D03*
X159500000Y-116000000D03*
X160500000Y-116000000D03*
X161500000Y-116000000D03*
X162500000Y-116000000D03*
X162500000Y-115000000D03*
X146000000Y-103000000D03*
X145000000Y-100500000D03*
X144000000Y-100500000D03*
X144000000Y-101500000D03*
X144000000Y-102500000D03*
X144000000Y-103500000D03*
X145000000Y-103500000D03*
X168000000Y-83500000D03*
X174000000Y-84000000D03*
X174000000Y-85000000D03*
X175000000Y-85000000D03*
X176000000Y-85000000D03*
X177000000Y-85000000D03*
X177000000Y-84000000D03*
X168000000Y-79500000D03*
X172000000Y-80000000D03*
X174000000Y-78000000D03*
X173000000Y-78000000D03*
X172000000Y-78000000D03*
X172000000Y-79000000D03*
X171500000Y-74500000D03*
X171500000Y-73500000D03*
X171500000Y-72500000D03*
X170500000Y-72500000D03*
X169500000Y-72500000D03*
X169500000Y-73500000D03*
X169500000Y-74500000D03*
X125000000Y-67000000D03*
X126000000Y-67000000D03*
X127000000Y-67000000D03*
X127000000Y-68000000D03*
X126000000Y-68000000D03*
X125000000Y-68000000D03*
X129000000Y-69000000D03*
X128000000Y-69000000D03*
X128000000Y-70000000D03*
X129000000Y-70000000D03*
X129000000Y-71000000D03*
X129000000Y-72000000D03*
X128000000Y-72000000D03*
X128000000Y-71000000D03*
X127000000Y-71000000D03*
X127000000Y-70000000D03*
X127000000Y-69000000D03*
X126000000Y-69000000D03*
X125000000Y-69000000D03*
X124000000Y-69000000D03*
X124000000Y-68000000D03*
X124000000Y-67000000D03*
X123000000Y-67000000D03*
X122000000Y-67000000D03*
X115500000Y-74000000D03*
X113500000Y-76000000D03*
X115500000Y-75000000D03*
X114500000Y-74000000D03*
X113500000Y-74000000D03*
X113500000Y-75000000D03*
X115500000Y-79000000D03*
X114500000Y-79000000D03*
X114500000Y-80000000D03*
X114500000Y-81000000D03*
X115500000Y-86500000D03*
X116500000Y-86500000D03*
X117500000Y-86500000D03*
X118500000Y-86500000D03*
X118500000Y-85500000D03*
X125000000Y-83000000D03*
X125000000Y-84000000D03*
X126000000Y-84000000D03*
X126000000Y-83000000D03*
X125500000Y-87500000D03*
X125500000Y-88500000D03*
X126500000Y-88500000D03*
X127500000Y-88500000D03*
X128500000Y-88500000D03*
X128500000Y-87500000D03*
X128500000Y-86500000D03*
X150000000Y-76000000D03*
X149000000Y-76000000D03*
X148000000Y-76000000D03*
X147000000Y-76000000D03*
X146000000Y-76000000D03*
X150000000Y-80500000D03*
X149000000Y-80500000D03*
X148000000Y-80500000D03*
X147000000Y-80500000D03*
X146000000Y-80500000D03*
X154000000Y-73000000D03*
X155000000Y-73000000D03*
X155000000Y-74000000D03*
X155000000Y-75000000D03*
X155000000Y-76000000D03*
X154000000Y-76000000D03*
X153000000Y-76000000D03*
X152000000Y-76000000D03*
X151000000Y-76000000D03*
X151000000Y-75000000D03*
X151000000Y-74000000D03*
X151000000Y-73000000D03*
X152000000Y-73000000D03*
X153000000Y-73000000D03*
X141000000Y-76000000D03*
X142000000Y-76000000D03*
X143000000Y-76000000D03*
X144000000Y-76000000D03*
X145000000Y-76000000D03*
X145000000Y-75000000D03*
X145000000Y-74000000D03*
X145000000Y-73000000D03*
X144000000Y-73000000D03*
X143000000Y-73000000D03*
X142000000Y-73000000D03*
X141000000Y-73000000D03*
X138000000Y-81000000D03*
X138000000Y-82000000D03*
X137000000Y-82000000D03*
X136000000Y-82000000D03*
X135000000Y-82000000D03*
X135000000Y-81000000D03*
X135000000Y-80000000D03*
X135000000Y-79000000D03*
X135000000Y-78000000D03*
X136000000Y-78000000D03*
X137000000Y-78000000D03*
X138000000Y-78000000D03*
X138000000Y-79000000D03*
X138000000Y-80000000D03*
X139000000Y-85000000D03*
X138000000Y-85000000D03*
X138000000Y-86000000D03*
X138000000Y-87000000D03*
X138000000Y-88000000D03*
X138000000Y-89000000D03*
X139000000Y-89000000D03*
X140000000Y-89000000D03*
X141000000Y-89000000D03*
X141000000Y-88000000D03*
X141000000Y-87000000D03*
X141000000Y-86000000D03*
X141000000Y-85000000D03*
X140000000Y-85000000D03*
X152500000Y-86500000D03*
X151500000Y-86500000D03*
X150500000Y-86500000D03*
X150500000Y-85500000D03*
X150500000Y-84500000D03*
X150500000Y-83500000D03*
X150500000Y-82500000D03*
X151500000Y-82500000D03*
X152500000Y-82500000D03*
X148326000Y-77209500D03*
X148326000Y-78054500D03*
X148326000Y-78899500D03*
X148326000Y-79744500D03*
X146996000Y-79744500D03*
X146996000Y-78899500D03*
X146996000Y-78054500D03*
X146996000Y-77209500D03*
X114600000Y-126000000D03*
X114100000Y-125500000D03*
X113600000Y-125000000D03*
X114600000Y-124000000D03*
X115100000Y-124500000D03*
X115600000Y-125000000D03*
X147842500Y-106287500D03*
X149567500Y-106287500D03*
X149567500Y-104562500D03*
X147842500Y-104562500D03*
X130250000Y-78405000D03*
X172085000Y-83255000D03*
X171655000Y-83845000D03*
X171345000Y-83215000D03*
X125490000Y-78345000D03*
X125490000Y-79475000D03*
X126210000Y-80285000D03*
X126500000Y-79135000D03*
X126530000Y-77925000D03*
X131155000Y-77490000D03*
X130230000Y-77490000D03*
X129305000Y-77490000D03*
X163500000Y-100000000D03*
X164500000Y-100000000D03*
X164500000Y-101000000D03*
X163500000Y-101000000D03*
D19*
X138700000Y-110275000D03*
X117250000Y-71150000D03*
X130750000Y-76465000D03*
X132305001Y-83689999D03*
X135125000Y-83650000D03*
X118730000Y-81990000D03*
X126005000Y-85765000D03*
D18*
X113390380Y-122940380D03*
X148705000Y-108925000D03*
D19*
X162300000Y-103725000D03*
X152450000Y-89375000D03*
X157424998Y-101750000D03*
X150500000Y-90625000D03*
X153230001Y-97555001D03*
X165650000Y-85250000D03*
X165650000Y-77825000D03*
D18*
X137750010Y-112575000D03*
X137475000Y-114975000D03*
X138200000Y-115900000D03*
D19*
X175925000Y-77455000D03*
X117825000Y-62475000D03*
X163000000Y-76675000D03*
X161900000Y-76800000D03*
X168400000Y-94974998D03*
D20*
X166000000Y-109000000D02*
X167000000Y-109000000D01*
X165000000Y-108000000D02*
X165000000Y-109000000D01*
X167000000Y-108000000D02*
X166000000Y-108000000D01*
X161000000Y-103000000D02*
X160000000Y-103000000D01*
X160000000Y-102000000D02*
X161000000Y-102000000D01*
X160000000Y-101000000D02*
X160000000Y-102000000D01*
X159000000Y-100000000D02*
X159000000Y-101000000D01*
X158000000Y-99000000D02*
X157000000Y-98000000D01*
X150500000Y-93000000D02*
X149500000Y-93000000D01*
X150500000Y-94000000D02*
X151500000Y-94000000D01*
X148500000Y-94000000D02*
X149500000Y-94000000D01*
X148500000Y-95000000D02*
X147500000Y-95000000D01*
X150500000Y-95000000D02*
X149500000Y-95000000D01*
X149500000Y-96000000D02*
X150500000Y-96000000D01*
X147500000Y-96000000D02*
X148500000Y-96000000D01*
X149250000Y-117250000D02*
X149250000Y-118250000D01*
X148250000Y-116250000D02*
X148250000Y-117250000D01*
X149250000Y-115250000D02*
X149250000Y-116250000D01*
X148700000Y-112800000D02*
X148700000Y-114800000D01*
X148700000Y-114800000D02*
X148250000Y-115250000D01*
X154500000Y-117000000D02*
X153500000Y-116000000D01*
X153500000Y-118000000D02*
X153500000Y-117000000D01*
X155500000Y-118000000D02*
X154500000Y-118000000D01*
X157000000Y-104000000D02*
X157000000Y-103000000D01*
X157000000Y-106000000D02*
X157000000Y-105000000D01*
X159000000Y-106000000D02*
X159000000Y-105000000D01*
X160000000Y-106000000D02*
X159000000Y-107000000D01*
X161000000Y-105000000D02*
X160000000Y-105000000D01*
X182000000Y-121000000D02*
X181000000Y-121000000D01*
X183000000Y-120000000D02*
X183000000Y-121000000D01*
X183000000Y-118000000D02*
X183000000Y-119000000D01*
X181000000Y-118000000D02*
X182000000Y-118000000D01*
X172000000Y-121000000D02*
X171000000Y-121000000D01*
X173000000Y-120000000D02*
X173000000Y-121000000D01*
X159500000Y-115000000D02*
X160500000Y-115000000D01*
X158500000Y-116000000D02*
X158500000Y-115000000D01*
X160500000Y-116000000D02*
X159500000Y-116000000D01*
X162500000Y-116000000D02*
X161500000Y-116000000D01*
X162500000Y-115000000D02*
X162500000Y-116000000D01*
X145000000Y-100500000D02*
X144000000Y-100500000D01*
X144000000Y-101500000D02*
X144000000Y-102500000D01*
X144000000Y-103500000D02*
X145000000Y-103500000D01*
X174000000Y-85000000D02*
X174000000Y-84000000D01*
X176000000Y-85000000D02*
X175000000Y-85000000D01*
X177000000Y-84000000D02*
X177000000Y-85000000D01*
X173000000Y-78000000D02*
X174000000Y-78000000D01*
X172000000Y-79000000D02*
X172000000Y-78000000D01*
X171500000Y-72500000D02*
X171500000Y-73500000D01*
X169500000Y-72500000D02*
X170500000Y-72500000D01*
X169500000Y-74500000D02*
X169500000Y-73500000D01*
X127000000Y-67000000D02*
X126000000Y-67000000D01*
X127000000Y-68000000D02*
X127000000Y-67000000D01*
X125000000Y-68000000D02*
X126000000Y-68000000D01*
X128000000Y-69000000D02*
X129000000Y-69000000D01*
X129000000Y-70000000D02*
X128000000Y-70000000D01*
X129000000Y-72000000D02*
X129000000Y-71000000D01*
X128000000Y-71000000D02*
X128000000Y-72000000D01*
X127000000Y-70000000D02*
X127000000Y-71000000D01*
X126000000Y-69000000D02*
X127000000Y-69000000D01*
X124000000Y-69000000D02*
X125000000Y-69000000D01*
X124000000Y-67000000D02*
X124000000Y-68000000D01*
X122000000Y-67000000D02*
X123000000Y-67000000D01*
X114500000Y-74000000D02*
X115500000Y-74000000D01*
X115500000Y-75000000D02*
X115500000Y-74000000D01*
X113500000Y-75000000D02*
X113500000Y-74000000D01*
X114500000Y-79000000D02*
X115500000Y-79000000D01*
X114500000Y-81000000D02*
X114500000Y-80000000D01*
X117500000Y-86500000D02*
X116500000Y-86500000D01*
X118500000Y-85500000D02*
X118500000Y-86500000D01*
X125000000Y-84000000D02*
X125000000Y-83000000D01*
X126000000Y-83000000D02*
X126000000Y-84000000D01*
X126500000Y-88500000D02*
X125500000Y-88500000D01*
X128500000Y-88500000D02*
X127500000Y-88500000D01*
X128500000Y-86500000D02*
X128500000Y-87500000D01*
X149000000Y-76000000D02*
X150000000Y-76000000D01*
X147000000Y-76000000D02*
X148000000Y-76000000D01*
X146996000Y-77209500D02*
X146996000Y-76996000D01*
X146996000Y-76996000D02*
X146000000Y-76000000D01*
X148000000Y-80500000D02*
X149000000Y-80500000D01*
X146000000Y-80500000D02*
X147000000Y-80500000D01*
X155000000Y-73000000D02*
X154000000Y-73000000D01*
X155000000Y-75000000D02*
X155000000Y-74000000D01*
X154000000Y-76000000D02*
X155000000Y-76000000D01*
X152000000Y-76000000D02*
X153000000Y-76000000D01*
X151000000Y-75000000D02*
X151000000Y-76000000D01*
X151000000Y-73000000D02*
X151000000Y-74000000D01*
X153000000Y-73000000D02*
X152000000Y-73000000D01*
X142000000Y-76000000D02*
X141000000Y-76000000D01*
X144000000Y-76000000D02*
X143000000Y-76000000D01*
X145000000Y-75000000D02*
X145000000Y-76000000D01*
X145000000Y-73000000D02*
X145000000Y-74000000D01*
X143000000Y-73000000D02*
X144000000Y-73000000D01*
X141000000Y-73000000D02*
X142000000Y-73000000D01*
X138000000Y-82000000D02*
X138000000Y-81000000D01*
X136000000Y-82000000D02*
X137000000Y-82000000D01*
X135000000Y-81000000D02*
X135000000Y-82000000D01*
X135000000Y-79000000D02*
X135000000Y-80000000D01*
X136000000Y-78000000D02*
X135000000Y-78000000D01*
X138000000Y-78000000D02*
X137000000Y-78000000D01*
X138000000Y-80000000D02*
X138000000Y-79000000D01*
X138000000Y-85000000D02*
X139000000Y-85000000D01*
X138000000Y-87000000D02*
X138000000Y-86000000D01*
X138000000Y-89000000D02*
X138000000Y-88000000D01*
X140000000Y-89000000D02*
X139000000Y-89000000D01*
X141000000Y-88000000D02*
X141000000Y-89000000D01*
X141000000Y-86000000D02*
X141000000Y-87000000D01*
X140000000Y-85000000D02*
X141000000Y-85000000D01*
X150500000Y-86500000D02*
X151500000Y-86500000D01*
X150500000Y-84500000D02*
X150500000Y-85500000D01*
X150500000Y-82500000D02*
X150500000Y-83500000D01*
X152500000Y-82500000D02*
X151500000Y-82500000D01*
X114100000Y-125500000D02*
X114600000Y-126000000D01*
X114600000Y-124000000D02*
X113600000Y-125000000D01*
X115600000Y-125000000D02*
X115100000Y-124500000D01*
D21*
X172085000Y-83255000D02*
X171385000Y-83255000D01*
X171385000Y-83255000D02*
X171345000Y-83215000D01*
X171345000Y-83215000D02*
X171345000Y-83535000D01*
X171345000Y-83535000D02*
X171655000Y-83845000D01*
D22*
X125490000Y-79475000D02*
X125490000Y-78345000D01*
X126500000Y-79135000D02*
X126500000Y-79995000D01*
X126500000Y-79995000D02*
X126210000Y-80285000D01*
X129305000Y-77490000D02*
X126965000Y-77490000D01*
X126965000Y-77490000D02*
X126530000Y-77925000D01*
D21*
X129305000Y-77490000D02*
X130230000Y-77490000D01*
D20*
X164500000Y-100000000D02*
X163500000Y-100000000D01*
X163500000Y-101000000D02*
X164500000Y-101000000D01*
D22*
X138300001Y-110674999D02*
X138700000Y-110275000D01*
X136074988Y-112900012D02*
X138300001Y-110674999D01*
X136074988Y-116717783D02*
X136074988Y-112900012D01*
X140357237Y-121000032D02*
X136074988Y-116717783D01*
X160130000Y-123425000D02*
X157705032Y-121000032D01*
X157705032Y-121000032D02*
X140357237Y-121000032D01*
X135125000Y-83650000D02*
X132345000Y-83650000D01*
X132345000Y-83650000D02*
X132305001Y-83689999D01*
X130750000Y-76465000D02*
X130715000Y-76465000D01*
X130715000Y-76465000D02*
X125400000Y-71150000D01*
X125400000Y-71150000D02*
X117250000Y-71150000D01*
X132320000Y-83675000D02*
X132305001Y-83689999D01*
X118730000Y-81990000D02*
X120755000Y-84015000D01*
X120755000Y-84015000D02*
X123080000Y-84015000D01*
X123080000Y-84015000D02*
X124830000Y-85765000D01*
X125805000Y-85765000D02*
X126005000Y-85765000D01*
X124830000Y-85765000D02*
X125805000Y-85765000D01*
X118730000Y-81990000D02*
X118780000Y-81990000D01*
X118780000Y-81990000D02*
X118977119Y-82187119D01*
D20*
X114625000Y-121700000D02*
X135545000Y-121700000D01*
X136406401Y-122561401D02*
X137270000Y-123425000D01*
X135545000Y-121700000D02*
X136406401Y-122561401D01*
X113390380Y-122934620D02*
X114625000Y-121700000D01*
D22*
X148705000Y-108925000D02*
X159050000Y-108925000D01*
X159050000Y-108925000D02*
X162322499Y-105652501D01*
X162300000Y-105630002D02*
X162300000Y-103725000D01*
D21*
X113390380Y-122940380D02*
X113390380Y-122934620D01*
D22*
X152450000Y-89375000D02*
X152450000Y-91425000D01*
X152450000Y-91425000D02*
X162300000Y-101275000D01*
X162300000Y-101275000D02*
X162300000Y-103725000D01*
X157024999Y-101350001D02*
X157424998Y-101750000D01*
X153630000Y-97955002D02*
X157024999Y-101350001D01*
X153230001Y-97555001D02*
X153630000Y-97955002D01*
X153230001Y-97555001D02*
X153230001Y-93955001D01*
X153230001Y-93955001D02*
X150500000Y-91225000D01*
X150500000Y-91225000D02*
X150500000Y-90625000D01*
X165650000Y-78390685D02*
X165650000Y-85250000D01*
X165650000Y-77825000D02*
X165650000Y-78390685D01*
D20*
X140667902Y-120250022D02*
X136824999Y-116407119D01*
X137450011Y-112874999D02*
X137750010Y-112575000D01*
X163831152Y-120250022D02*
X140667902Y-120250022D01*
X166475000Y-122893870D02*
X163831152Y-120250022D01*
X166475000Y-124690000D02*
X166475000Y-122893870D01*
X167750000Y-125965000D02*
X166475000Y-124690000D01*
X136824999Y-113500011D02*
X137450011Y-112874999D01*
X136824999Y-116407119D02*
X136824999Y-113500011D01*
X164075011Y-119750011D02*
X140892889Y-119750011D01*
X137475000Y-116332122D02*
X137475000Y-115399264D01*
X140892889Y-119750011D02*
X137475000Y-116332122D01*
X167750000Y-123425000D02*
X164075011Y-119750011D01*
X137475000Y-115399264D02*
X137475000Y-114975000D01*
X169025000Y-124700000D02*
X170290000Y-125965000D01*
X169025000Y-122950000D02*
X169025000Y-124700000D01*
X141100000Y-119250000D02*
X165325000Y-119250000D01*
X138200000Y-115900000D02*
X138200000Y-116350000D01*
X138200000Y-116350000D02*
X141100000Y-119250000D01*
X165325000Y-119250000D02*
X169025000Y-122950000D01*
D22*
X175925000Y-77455000D02*
X175925000Y-77450000D01*
X175925000Y-77450000D02*
X178465000Y-74910000D01*
X178465000Y-74910000D02*
X185500000Y-74910000D01*
X113975000Y-52400000D02*
X114225000Y-52400000D01*
X114225000Y-52400000D02*
X117825000Y-56000000D01*
X117825000Y-56000000D02*
X117825000Y-62475000D01*
X113975000Y-52400000D02*
X113975000Y-54505000D01*
X114000000Y-53500000D02*
X114000000Y-52315000D01*
X163000000Y-76675000D02*
X162975000Y-76650000D01*
X162975000Y-76650000D02*
X162975000Y-70245000D01*
X162975000Y-70245000D02*
X160155000Y-67425000D01*
X160155000Y-67425000D02*
X144500000Y-67425000D01*
X144500000Y-67425000D02*
X136475000Y-59400000D01*
X136475000Y-59400000D02*
X136475000Y-52400000D01*
X161900000Y-76800000D02*
X161900000Y-70620000D01*
X161900000Y-70620000D02*
X159830000Y-68550000D01*
X159830000Y-68550000D02*
X143875000Y-68550000D01*
X128975000Y-53650000D02*
X128975000Y-52400000D01*
X143875000Y-68550000D02*
X128975000Y-53650000D01*
X129315000Y-52315000D02*
X129000000Y-52315000D01*
X185500000Y-97410000D02*
X185490000Y-97400000D01*
X183575000Y-97400000D02*
X181150000Y-94975000D01*
X185490000Y-97400000D02*
X183575000Y-97400000D01*
X181150000Y-94975000D02*
X168400002Y-94975000D01*
X168400002Y-94975000D02*
X168400000Y-94974998D01*
D23*
G36*
X97830485Y-49246950D02*
X96750741Y-50324811D01*
X96165667Y-51733825D01*
X96164336Y-53259482D01*
X96746950Y-54669515D01*
X97824811Y-55749259D01*
X99233825Y-56334333D01*
X100759482Y-56335664D01*
X102169515Y-55753050D01*
X103249259Y-54675189D01*
X103834333Y-53266175D01*
X103835664Y-51740518D01*
X103253050Y-50330485D01*
X102175189Y-49250741D01*
X100872941Y-48710000D01*
X113893487Y-48710000D01*
X113062300Y-48875333D01*
X112288550Y-49392336D01*
X111771547Y-50166086D01*
X111590000Y-51078786D01*
X111590000Y-53721214D01*
X111771547Y-54633914D01*
X112288550Y-55407664D01*
X113062300Y-55924667D01*
X113975000Y-56106214D01*
X114887700Y-55924667D01*
X115661450Y-55407664D01*
X115704509Y-55343221D01*
X116790000Y-56428711D01*
X116790000Y-62474670D01*
X116789821Y-62679971D01*
X116947058Y-63060515D01*
X117237954Y-63351919D01*
X117618223Y-63509820D01*
X118029971Y-63510179D01*
X118410515Y-63352942D01*
X118701919Y-63062046D01*
X118859820Y-62681777D01*
X118860179Y-62270029D01*
X118860000Y-62269596D01*
X118860000Y-56000005D01*
X118860001Y-56000000D01*
X118781215Y-55603923D01*
X118662500Y-55426253D01*
X118556856Y-55268144D01*
X118556853Y-55268142D01*
X116360000Y-53071288D01*
X116360000Y-51078786D01*
X116178453Y-50166086D01*
X115661450Y-49392336D01*
X114887700Y-48875333D01*
X114056513Y-48710000D01*
X121393487Y-48710000D01*
X120562300Y-48875333D01*
X119788550Y-49392336D01*
X119271547Y-50166086D01*
X119090000Y-51078786D01*
X119090000Y-53721214D01*
X119271547Y-54633914D01*
X119788550Y-55407664D01*
X120562300Y-55924667D01*
X121475000Y-56106214D01*
X122387700Y-55924667D01*
X123161450Y-55407664D01*
X123678453Y-54633914D01*
X123860000Y-53721214D01*
X123860000Y-51078786D01*
X123678453Y-50166086D01*
X123161450Y-49392336D01*
X122387700Y-48875333D01*
X121556513Y-48710000D01*
X128893487Y-48710000D01*
X128062300Y-48875333D01*
X127288550Y-49392336D01*
X126771547Y-50166086D01*
X126590000Y-51078786D01*
X126590000Y-53721214D01*
X126771547Y-54633914D01*
X127288550Y-55407664D01*
X128062300Y-55924667D01*
X128975000Y-56106214D01*
X129802836Y-55941548D01*
X143143142Y-69281853D01*
X143143144Y-69281856D01*
X143478923Y-69506215D01*
X143875000Y-69585001D01*
X143875005Y-69585000D01*
X159401288Y-69585000D01*
X160865000Y-71048711D01*
X160865000Y-76799670D01*
X160864821Y-77004971D01*
X161022058Y-77385515D01*
X161312954Y-77676919D01*
X161693223Y-77834820D01*
X162104971Y-77835179D01*
X162485515Y-77677942D01*
X162553356Y-77610219D01*
X162793223Y-77709820D01*
X163204971Y-77710179D01*
X163585515Y-77552942D01*
X163876919Y-77262046D01*
X164034820Y-76881777D01*
X164035179Y-76470029D01*
X164010000Y-76409091D01*
X164010000Y-70245005D01*
X164010001Y-70245000D01*
X163931215Y-69848922D01*
X163804536Y-69659333D01*
X163706856Y-69513144D01*
X163706853Y-69513142D01*
X160886856Y-66693144D01*
X160551077Y-66468785D01*
X160155000Y-66389999D01*
X160154995Y-66390000D01*
X144928711Y-66390000D01*
X137510000Y-58971288D01*
X137510000Y-57696350D01*
X160443255Y-57696350D01*
X160535792Y-57958019D01*
X161127398Y-58176188D01*
X161757461Y-58151352D01*
X162224208Y-57958019D01*
X162316745Y-57696350D01*
X161380000Y-56759605D01*
X160443255Y-57696350D01*
X137510000Y-57696350D01*
X137510000Y-56327398D01*
X159783812Y-56327398D01*
X159808648Y-56957461D01*
X160001981Y-57424208D01*
X160263650Y-57516745D01*
X161200395Y-56580000D01*
X161559605Y-56580000D01*
X162496350Y-57516745D01*
X162584439Y-57485593D01*
X163020997Y-57922914D01*
X163603341Y-58164724D01*
X164233893Y-58165275D01*
X164816657Y-57924481D01*
X165045186Y-57696350D01*
X177443255Y-57696350D01*
X177535792Y-57958019D01*
X178127398Y-58176188D01*
X178757461Y-58151352D01*
X179224208Y-57958019D01*
X179316745Y-57696350D01*
X178380000Y-56759605D01*
X177443255Y-57696350D01*
X165045186Y-57696350D01*
X165262914Y-57479003D01*
X165504724Y-56896659D01*
X165505221Y-56327398D01*
X176783812Y-56327398D01*
X176808648Y-56957461D01*
X177001981Y-57424208D01*
X177263650Y-57516745D01*
X178200395Y-56580000D01*
X178559605Y-56580000D01*
X179496350Y-57516745D01*
X179584439Y-57485593D01*
X180020997Y-57922914D01*
X180603341Y-58164724D01*
X181233893Y-58165275D01*
X181816657Y-57924481D01*
X182262914Y-57479003D01*
X182504724Y-56896659D01*
X182505275Y-56266107D01*
X182264481Y-55683343D01*
X181819003Y-55237086D01*
X181236659Y-54995276D01*
X180606107Y-54994725D01*
X180023343Y-55235519D01*
X179583884Y-55674211D01*
X179496350Y-55643255D01*
X178559605Y-56580000D01*
X178200395Y-56580000D01*
X177263650Y-55643255D01*
X177001981Y-55735792D01*
X176783812Y-56327398D01*
X165505221Y-56327398D01*
X165505275Y-56266107D01*
X165264481Y-55683343D01*
X165045172Y-55463650D01*
X177443255Y-55463650D01*
X178380000Y-56400395D01*
X179316745Y-55463650D01*
X179224208Y-55201981D01*
X178632602Y-54983812D01*
X178002539Y-55008648D01*
X177535792Y-55201981D01*
X177443255Y-55463650D01*
X165045172Y-55463650D01*
X164819003Y-55237086D01*
X164236659Y-54995276D01*
X163606107Y-54994725D01*
X163023343Y-55235519D01*
X162583884Y-55674211D01*
X162496350Y-55643255D01*
X161559605Y-56580000D01*
X161200395Y-56580000D01*
X160263650Y-55643255D01*
X160001981Y-55735792D01*
X159783812Y-56327398D01*
X137510000Y-56327398D01*
X137510000Y-55842949D01*
X138161450Y-55407664D01*
X138678453Y-54633914D01*
X138860000Y-53721214D01*
X138860000Y-51078786D01*
X138678453Y-50166086D01*
X138161450Y-49392336D01*
X137387700Y-48875333D01*
X136556513Y-48710000D01*
X144048487Y-48710000D01*
X143217300Y-48875333D01*
X142443550Y-49392336D01*
X141926547Y-50166086D01*
X141745000Y-51078786D01*
X141745000Y-53721214D01*
X141926547Y-54633914D01*
X142443550Y-55407664D01*
X143217300Y-55924667D01*
X144130000Y-56106214D01*
X145042700Y-55924667D01*
X145816450Y-55407664D01*
X146333453Y-54633914D01*
X146515000Y-53721214D01*
X146515000Y-52527000D01*
X149245000Y-52527000D01*
X149245000Y-53777000D01*
X149475148Y-54680033D01*
X150033353Y-55426253D01*
X150834633Y-55902054D01*
X151131997Y-55982427D01*
X151503000Y-55872625D01*
X151503000Y-52527000D01*
X151757000Y-52527000D01*
X151757000Y-55872625D01*
X152128003Y-55982427D01*
X152425367Y-55902054D01*
X153163668Y-55463650D01*
X160443255Y-55463650D01*
X161380000Y-56400395D01*
X162316745Y-55463650D01*
X162224208Y-55201981D01*
X161632602Y-54983812D01*
X161002539Y-55008648D01*
X160535792Y-55201981D01*
X160443255Y-55463650D01*
X153163668Y-55463650D01*
X153226647Y-55426253D01*
X153784852Y-54680033D01*
X154015000Y-53777000D01*
X154015000Y-52527000D01*
X151757000Y-52527000D01*
X151503000Y-52527000D01*
X149245000Y-52527000D01*
X146515000Y-52527000D01*
X146515000Y-51078786D01*
X146503904Y-51023000D01*
X149245000Y-51023000D01*
X149245000Y-52273000D01*
X151503000Y-52273000D01*
X151503000Y-48927375D01*
X151757000Y-48927375D01*
X151757000Y-52273000D01*
X154015000Y-52273000D01*
X154015000Y-51823795D01*
X157204716Y-51823795D01*
X157453106Y-52424943D01*
X157912637Y-52885278D01*
X158513352Y-53134716D01*
X159163795Y-53135284D01*
X159764943Y-52886894D01*
X160225278Y-52427363D01*
X160474716Y-51826648D01*
X160474718Y-51823795D01*
X167364716Y-51823795D01*
X167613106Y-52424943D01*
X168072637Y-52885278D01*
X168673352Y-53134716D01*
X169323795Y-53135284D01*
X169924943Y-52886894D01*
X170385278Y-52427363D01*
X170634716Y-51826648D01*
X170634718Y-51823795D01*
X174204716Y-51823795D01*
X174453106Y-52424943D01*
X174912637Y-52885278D01*
X175513352Y-53134716D01*
X176163795Y-53135284D01*
X176764943Y-52886894D01*
X177225278Y-52427363D01*
X177474716Y-51826648D01*
X177474718Y-51823795D01*
X184364716Y-51823795D01*
X184613106Y-52424943D01*
X185072637Y-52885278D01*
X185673352Y-53134716D01*
X186323795Y-53135284D01*
X186924943Y-52886894D01*
X187385278Y-52427363D01*
X187634716Y-51826648D01*
X187635284Y-51176205D01*
X187386894Y-50575057D01*
X186927363Y-50114722D01*
X186326648Y-49865284D01*
X185676205Y-49864716D01*
X185075057Y-50113106D01*
X184614722Y-50572637D01*
X184365284Y-51173352D01*
X184364716Y-51823795D01*
X177474718Y-51823795D01*
X177475284Y-51176205D01*
X177226894Y-50575057D01*
X176767363Y-50114722D01*
X176166648Y-49865284D01*
X175516205Y-49864716D01*
X174915057Y-50113106D01*
X174454722Y-50572637D01*
X174205284Y-51173352D01*
X174204716Y-51823795D01*
X170634718Y-51823795D01*
X170635284Y-51176205D01*
X170386894Y-50575057D01*
X169927363Y-50114722D01*
X169326648Y-49865284D01*
X168676205Y-49864716D01*
X168075057Y-50113106D01*
X167614722Y-50572637D01*
X167365284Y-51173352D01*
X167364716Y-51823795D01*
X160474718Y-51823795D01*
X160475284Y-51176205D01*
X160226894Y-50575057D01*
X159767363Y-50114722D01*
X159166648Y-49865284D01*
X158516205Y-49864716D01*
X157915057Y-50113106D01*
X157454722Y-50572637D01*
X157205284Y-51173352D01*
X157204716Y-51823795D01*
X154015000Y-51823795D01*
X154015000Y-51023000D01*
X153784852Y-50119967D01*
X153226647Y-49373747D01*
X152425367Y-48897946D01*
X152128003Y-48817573D01*
X151757000Y-48927375D01*
X151503000Y-48927375D01*
X151131997Y-48817573D01*
X150834633Y-48897946D01*
X150033353Y-49373747D01*
X149475148Y-50119967D01*
X149245000Y-51023000D01*
X146503904Y-51023000D01*
X146333453Y-50166086D01*
X145816450Y-49392336D01*
X145042700Y-48875333D01*
X144211513Y-48710000D01*
X186930069Y-48710000D01*
X187871023Y-48897167D01*
X188609439Y-49390561D01*
X189102833Y-50128977D01*
X189290000Y-51069931D01*
X189290000Y-63744911D01*
X189253050Y-63655485D01*
X188175189Y-62575741D01*
X186766175Y-61990667D01*
X185240518Y-61989336D01*
X183830485Y-62571950D01*
X182750741Y-63649811D01*
X182165667Y-65058825D01*
X182164336Y-66584482D01*
X182746950Y-67994515D01*
X183824811Y-69074259D01*
X185233825Y-69659333D01*
X186759482Y-69660664D01*
X188169515Y-69078050D01*
X189249259Y-68000189D01*
X189290000Y-67902074D01*
X189290000Y-108940665D01*
X179186226Y-110355557D01*
X179262914Y-110279003D01*
X179504724Y-109696659D01*
X179505275Y-109066107D01*
X179264481Y-108483343D01*
X178825789Y-108043884D01*
X178856745Y-107956350D01*
X177920000Y-107019605D01*
X176983255Y-107956350D01*
X177014407Y-108044439D01*
X176577086Y-108480997D01*
X176335276Y-109063341D01*
X176334725Y-109693893D01*
X176575519Y-110276657D01*
X176964815Y-110666634D01*
X175499900Y-110871775D01*
X167551121Y-109770978D01*
X167792192Y-109530327D01*
X167934838Y-109186799D01*
X167935162Y-108814833D01*
X167804931Y-108499649D01*
X167934838Y-108186799D01*
X167935162Y-107814833D01*
X167793117Y-107471057D01*
X167530327Y-107207808D01*
X167186799Y-107065162D01*
X166814833Y-107064838D01*
X166499649Y-107195069D01*
X166186799Y-107065162D01*
X165814833Y-107064838D01*
X165499649Y-107195069D01*
X165186799Y-107065162D01*
X164814833Y-107064838D01*
X164471057Y-107206883D01*
X164207808Y-107469673D01*
X164065162Y-107813201D01*
X164064838Y-108185167D01*
X164195069Y-108500351D01*
X164065162Y-108813201D01*
X164064838Y-109185167D01*
X164109983Y-109294427D01*
X160626675Y-108812037D01*
X162851313Y-106587398D01*
X176323812Y-106587398D01*
X176348648Y-107217461D01*
X176541981Y-107684208D01*
X176803650Y-107776745D01*
X177740395Y-106840000D01*
X178099605Y-106840000D01*
X179036350Y-107776745D01*
X179298019Y-107684208D01*
X179516188Y-107092602D01*
X179491352Y-106462539D01*
X179298019Y-105995792D01*
X179036350Y-105903255D01*
X178099605Y-106840000D01*
X177740395Y-106840000D01*
X176803650Y-105903255D01*
X176541981Y-105995792D01*
X176323812Y-106587398D01*
X162851313Y-106587398D01*
X163054354Y-106384357D01*
X163278714Y-106048579D01*
X163343346Y-105723650D01*
X176983255Y-105723650D01*
X177920000Y-106660395D01*
X178856745Y-105723650D01*
X178764208Y-105461981D01*
X178172602Y-105243812D01*
X177542539Y-105268648D01*
X177075792Y-105461981D01*
X176983255Y-105723650D01*
X163343346Y-105723650D01*
X163357499Y-105652501D01*
X163335000Y-105539391D01*
X163335000Y-104623795D01*
X181364716Y-104623795D01*
X181613106Y-105224943D01*
X182072637Y-105685278D01*
X182673352Y-105934716D01*
X183323795Y-105935284D01*
X183924943Y-105686894D01*
X184385278Y-105227363D01*
X184634716Y-104626648D01*
X184635284Y-103976205D01*
X184386894Y-103375057D01*
X183927363Y-102914722D01*
X183326648Y-102665284D01*
X182676205Y-102664716D01*
X182075057Y-102913106D01*
X181614722Y-103372637D01*
X181365284Y-103973352D01*
X181364716Y-104623795D01*
X163335000Y-104623795D01*
X163335000Y-103725000D01*
X163335179Y-103520029D01*
X163335000Y-103519596D01*
X163335000Y-101275005D01*
X163335001Y-101275000D01*
X163256215Y-100878923D01*
X163081970Y-100618146D01*
X163031856Y-100543144D01*
X163031853Y-100543142D01*
X157668681Y-95179969D01*
X167364821Y-95179969D01*
X167522058Y-95560513D01*
X167812954Y-95851917D01*
X168193223Y-96009818D01*
X168399988Y-96009998D01*
X168400002Y-96010001D01*
X168400007Y-96010000D01*
X168401964Y-96010000D01*
X168604971Y-96010177D01*
X168605399Y-96010000D01*
X180721288Y-96010000D01*
X181848122Y-97136834D01*
X181793786Y-97410000D01*
X181975333Y-98322700D01*
X182492336Y-99096450D01*
X183266086Y-99613453D01*
X184178786Y-99795000D01*
X186821214Y-99795000D01*
X187733914Y-99613453D01*
X188507664Y-99096450D01*
X189024667Y-98322700D01*
X189206214Y-97410000D01*
X189024667Y-96497300D01*
X188507664Y-95723550D01*
X187733914Y-95206547D01*
X186821214Y-95025000D01*
X184178786Y-95025000D01*
X183266086Y-95206547D01*
X183013818Y-95375107D01*
X181881856Y-94243144D01*
X181546077Y-94018785D01*
X181150000Y-93939999D01*
X181149995Y-93940000D01*
X168402623Y-93940000D01*
X168400004Y-93939998D01*
X168400000Y-93939997D01*
X168399996Y-93939998D01*
X168195029Y-93939819D01*
X167814485Y-94097056D01*
X167523081Y-94387952D01*
X167365180Y-94768221D01*
X167365000Y-94974994D01*
X167364999Y-94974998D01*
X167365000Y-94975002D01*
X167364821Y-95179969D01*
X157668681Y-95179969D01*
X153485000Y-90996288D01*
X153485000Y-89910000D01*
X181793786Y-89910000D01*
X181975333Y-90822700D01*
X182492336Y-91596450D01*
X183266086Y-92113453D01*
X184178786Y-92295000D01*
X186821214Y-92295000D01*
X187733914Y-92113453D01*
X188507664Y-91596450D01*
X189024667Y-90822700D01*
X189206214Y-89910000D01*
X189024667Y-88997300D01*
X188507664Y-88223550D01*
X187733914Y-87706547D01*
X186821214Y-87525000D01*
X184178786Y-87525000D01*
X183266086Y-87706547D01*
X182492336Y-88223550D01*
X181975333Y-88997300D01*
X181793786Y-89910000D01*
X153485000Y-89910000D01*
X153485000Y-89375000D01*
X153485179Y-89170029D01*
X153327942Y-88789485D01*
X153037046Y-88498081D01*
X152656777Y-88340180D01*
X152245029Y-88339821D01*
X151864485Y-88497058D01*
X151573081Y-88787954D01*
X151415180Y-89168223D01*
X151414821Y-89579971D01*
X151415000Y-89580404D01*
X151415000Y-90129173D01*
X151377942Y-90039485D01*
X151087046Y-89748081D01*
X150706777Y-89590180D01*
X150295029Y-89589821D01*
X149914485Y-89747058D01*
X149623081Y-90037954D01*
X149465180Y-90418223D01*
X149464821Y-90829971D01*
X149465000Y-90830404D01*
X149465000Y-91224995D01*
X149464999Y-91225000D01*
X149543785Y-91621077D01*
X149768144Y-91956856D01*
X152195001Y-94383712D01*
X152195001Y-97554994D01*
X152195000Y-97554998D01*
X152195001Y-97555001D01*
X152194822Y-97759972D01*
X152352059Y-98140516D01*
X152642955Y-98431920D01*
X152643388Y-98432100D01*
X152898142Y-98686855D01*
X152898144Y-98686858D01*
X156293141Y-102081854D01*
X156293143Y-102081857D01*
X156693077Y-102481791D01*
X156837952Y-102626919D01*
X157218221Y-102784820D01*
X157424994Y-102785000D01*
X157424998Y-102785001D01*
X157425002Y-102785000D01*
X157629969Y-102785179D01*
X158010513Y-102627942D01*
X158301917Y-102337046D01*
X158459818Y-101956777D01*
X158459998Y-101750004D01*
X158459999Y-101750000D01*
X158459998Y-101749996D01*
X158460177Y-101545029D01*
X158302940Y-101164485D01*
X158012044Y-100873081D01*
X158011611Y-100872901D01*
X157756855Y-100618145D01*
X157756852Y-100618143D01*
X154361856Y-97223146D01*
X154361853Y-97223144D01*
X154265001Y-97126292D01*
X154265001Y-94703713D01*
X161265000Y-101703711D01*
X161265000Y-103724670D01*
X161264821Y-103929971D01*
X161265000Y-103930404D01*
X161265000Y-104198000D01*
X158725000Y-104198000D01*
X158654652Y-104219264D01*
X158619544Y-104254233D01*
X157365854Y-106122477D01*
X156847468Y-106338472D01*
X151744466Y-104431039D01*
X151700000Y-104423000D01*
X151651399Y-104432667D01*
X151610197Y-104460197D01*
X151582667Y-104501399D01*
X151573000Y-104550000D01*
X151573000Y-104775000D01*
X151584439Y-104827676D01*
X151613394Y-104867889D01*
X151655534Y-104893961D01*
X156805534Y-106818961D01*
X156852058Y-106826983D01*
X156900496Y-106816530D01*
X157650496Y-106491530D01*
X157705670Y-106445447D01*
X158917968Y-104627000D01*
X161265000Y-104627000D01*
X161265000Y-105246289D01*
X158621288Y-107890000D01*
X148705000Y-107890000D01*
X148308923Y-107968785D01*
X147973144Y-108193144D01*
X147748785Y-108528923D01*
X147670000Y-108925000D01*
X147748785Y-109321077D01*
X147973144Y-109656856D01*
X148308923Y-109881215D01*
X148705000Y-109960000D01*
X159049995Y-109960000D01*
X159050000Y-109960001D01*
X159060873Y-109957838D01*
X175483378Y-112125908D01*
X175518718Y-112125613D01*
X189290000Y-110073519D01*
X189290000Y-121919911D01*
X189253050Y-121830485D01*
X188175189Y-120750741D01*
X186766175Y-120165667D01*
X185240518Y-120164336D01*
X183830485Y-120746950D01*
X182750741Y-121824811D01*
X182165667Y-123233825D01*
X182164336Y-124759482D01*
X182746950Y-126169515D01*
X183824811Y-127249259D01*
X185233825Y-127834333D01*
X186759482Y-127835664D01*
X188169515Y-127253050D01*
X189249259Y-126175189D01*
X189290000Y-126077074D01*
X189290000Y-126930069D01*
X189102833Y-127871023D01*
X188609439Y-128609439D01*
X187871023Y-129102833D01*
X186930069Y-129290000D01*
X101080089Y-129290000D01*
X101169515Y-129253050D01*
X102249259Y-128175189D01*
X102834333Y-126766175D01*
X102835664Y-125240518D01*
X102253050Y-123830485D01*
X101549342Y-123125547D01*
X112455218Y-123125547D01*
X112597263Y-123469323D01*
X112860053Y-123732572D01*
X113203581Y-123875218D01*
X113575547Y-123875542D01*
X113919323Y-123733497D01*
X114182572Y-123470707D01*
X114325218Y-123127179D01*
X114325233Y-123109925D01*
X114950158Y-122485000D01*
X123410752Y-122485000D01*
X123185474Y-122822152D01*
X123071400Y-123395641D01*
X123071400Y-123454359D01*
X123185474Y-124027848D01*
X123510330Y-124514029D01*
X123781172Y-124695000D01*
X123510330Y-124875971D01*
X123185474Y-125362152D01*
X123071400Y-125935641D01*
X123071400Y-125994359D01*
X123185474Y-126567848D01*
X123510330Y-127054029D01*
X123996511Y-127378885D01*
X124570000Y-127492959D01*
X125143489Y-127378885D01*
X125629670Y-127054029D01*
X125840000Y-126739248D01*
X126050330Y-127054029D01*
X126536511Y-127378885D01*
X127110000Y-127492959D01*
X127683489Y-127378885D01*
X128169670Y-127054029D01*
X128380000Y-126739248D01*
X128590330Y-127054029D01*
X129076511Y-127378885D01*
X129650000Y-127492959D01*
X130223489Y-127378885D01*
X130709670Y-127054029D01*
X130920000Y-126739248D01*
X131130330Y-127054029D01*
X131616511Y-127378885D01*
X132190000Y-127492959D01*
X132763489Y-127378885D01*
X133249670Y-127054029D01*
X133460000Y-126739248D01*
X133670330Y-127054029D01*
X134156511Y-127378885D01*
X134730000Y-127492959D01*
X135303489Y-127378885D01*
X135789670Y-127054029D01*
X136005664Y-126730772D01*
X136063179Y-126853490D01*
X136495053Y-127247688D01*
X136910974Y-127419958D01*
X137143000Y-127298817D01*
X137143000Y-126092000D01*
X137123000Y-126092000D01*
X137123000Y-125838000D01*
X137143000Y-125838000D01*
X137143000Y-125818000D01*
X137397000Y-125818000D01*
X137397000Y-125838000D01*
X137417000Y-125838000D01*
X137417000Y-126092000D01*
X137397000Y-126092000D01*
X137397000Y-127298817D01*
X137629026Y-127419958D01*
X138044947Y-127247688D01*
X138476821Y-126853490D01*
X138534336Y-126730772D01*
X138750330Y-127054029D01*
X139236511Y-127378885D01*
X139810000Y-127492959D01*
X140383489Y-127378885D01*
X140869670Y-127054029D01*
X141080000Y-126739248D01*
X141290330Y-127054029D01*
X141776511Y-127378885D01*
X142350000Y-127492959D01*
X142923489Y-127378885D01*
X143409670Y-127054029D01*
X143620000Y-126739248D01*
X143830330Y-127054029D01*
X144316511Y-127378885D01*
X144890000Y-127492959D01*
X145463489Y-127378885D01*
X145949670Y-127054029D01*
X146160000Y-126739248D01*
X146370330Y-127054029D01*
X146856511Y-127378885D01*
X147430000Y-127492959D01*
X148003489Y-127378885D01*
X148489670Y-127054029D01*
X148700000Y-126739248D01*
X148910330Y-127054029D01*
X149396511Y-127378885D01*
X149970000Y-127492959D01*
X150543489Y-127378885D01*
X151029670Y-127054029D01*
X151240000Y-126739248D01*
X151450330Y-127054029D01*
X151936511Y-127378885D01*
X152510000Y-127492959D01*
X153083489Y-127378885D01*
X153569670Y-127054029D01*
X153780000Y-126739248D01*
X153990330Y-127054029D01*
X154476511Y-127378885D01*
X155050000Y-127492959D01*
X155623489Y-127378885D01*
X156109670Y-127054029D01*
X156320000Y-126739248D01*
X156530330Y-127054029D01*
X157016511Y-127378885D01*
X157590000Y-127492959D01*
X158163489Y-127378885D01*
X158649670Y-127054029D01*
X158865664Y-126730772D01*
X158923179Y-126853490D01*
X159355053Y-127247688D01*
X159770974Y-127419958D01*
X160003000Y-127298817D01*
X160003000Y-126092000D01*
X159983000Y-126092000D01*
X159983000Y-125838000D01*
X160003000Y-125838000D01*
X160003000Y-125818000D01*
X160257000Y-125818000D01*
X160257000Y-125838000D01*
X160277000Y-125838000D01*
X160277000Y-126092000D01*
X160257000Y-126092000D01*
X160257000Y-127298817D01*
X160489026Y-127419958D01*
X160904947Y-127247688D01*
X161336821Y-126853490D01*
X161394336Y-126730772D01*
X161610330Y-127054029D01*
X162096511Y-127378885D01*
X162670000Y-127492959D01*
X163243489Y-127378885D01*
X163729670Y-127054029D01*
X163940000Y-126739248D01*
X164150330Y-127054029D01*
X164636511Y-127378885D01*
X165210000Y-127492959D01*
X165783489Y-127378885D01*
X166269670Y-127054029D01*
X166480000Y-126739248D01*
X166690330Y-127054029D01*
X167176511Y-127378885D01*
X167750000Y-127492959D01*
X168323489Y-127378885D01*
X168809670Y-127054029D01*
X169020000Y-126739248D01*
X169230330Y-127054029D01*
X169716511Y-127378885D01*
X170290000Y-127492959D01*
X170863489Y-127378885D01*
X171349670Y-127054029D01*
X171560000Y-126739248D01*
X171770330Y-127054029D01*
X172256511Y-127378885D01*
X172830000Y-127492959D01*
X173403489Y-127378885D01*
X173889670Y-127054029D01*
X174214526Y-126567848D01*
X174328600Y-125994359D01*
X174328600Y-125935641D01*
X174214526Y-125362152D01*
X173902096Y-124894568D01*
X173941365Y-124886757D01*
X174151409Y-124746409D01*
X174291757Y-124536365D01*
X174341040Y-124288600D01*
X174341040Y-122561400D01*
X174291757Y-122313635D01*
X174151409Y-122103591D01*
X173941365Y-121963243D01*
X173693600Y-121913960D01*
X171966400Y-121913960D01*
X171718635Y-121963243D01*
X171508591Y-122103591D01*
X171368243Y-122313635D01*
X171360559Y-122352267D01*
X171349670Y-122335971D01*
X170863489Y-122011115D01*
X170290000Y-121897041D01*
X169716511Y-122011115D01*
X169404651Y-122219493D01*
X165880079Y-118694921D01*
X165625407Y-118524755D01*
X165325000Y-118465000D01*
X141425158Y-118465000D01*
X139109053Y-116148895D01*
X139134838Y-116086799D01*
X139135162Y-115714833D01*
X138993117Y-115371057D01*
X138730327Y-115107808D01*
X138410001Y-114974796D01*
X138410162Y-114789833D01*
X138407668Y-114783795D01*
X181364716Y-114783795D01*
X181613106Y-115384943D01*
X182072637Y-115845278D01*
X182673352Y-116094716D01*
X183323795Y-116095284D01*
X183924943Y-115846894D01*
X184385278Y-115387363D01*
X184634716Y-114786648D01*
X184635284Y-114136205D01*
X184386894Y-113535057D01*
X183927363Y-113074722D01*
X183326648Y-112825284D01*
X182676205Y-112824716D01*
X182075057Y-113073106D01*
X181614722Y-113532637D01*
X181365284Y-114133352D01*
X181364716Y-114783795D01*
X138407668Y-114783795D01*
X138268117Y-114446057D01*
X138005327Y-114182808D01*
X137661799Y-114040162D01*
X137609999Y-114040117D01*
X137609999Y-113825169D01*
X137925015Y-113510153D01*
X137935177Y-113510162D01*
X138278953Y-113368117D01*
X138542202Y-113105327D01*
X138684848Y-112761799D01*
X138685172Y-112389833D01*
X138543127Y-112046057D01*
X138467956Y-111970755D01*
X139031854Y-111406857D01*
X139031857Y-111406855D01*
X139431856Y-111006856D01*
X139576919Y-110862046D01*
X139734820Y-110481777D01*
X139735000Y-110275004D01*
X139735001Y-110275000D01*
X139735000Y-110274996D01*
X139735179Y-110070029D01*
X139577942Y-109689485D01*
X139512903Y-109624333D01*
X145741871Y-103805801D01*
X145762924Y-103780222D01*
X145780450Y-103733872D01*
X145778904Y-103684343D01*
X145758522Y-103639176D01*
X145633522Y-103464176D01*
X145583430Y-103422697D01*
X145535254Y-103411094D01*
X145486306Y-103418812D01*
X145444036Y-103444673D01*
X139085275Y-109314299D01*
X138906777Y-109240180D01*
X138700004Y-109240000D01*
X138700000Y-109239999D01*
X138699996Y-109240000D01*
X138495029Y-109239821D01*
X138114485Y-109397058D01*
X137823081Y-109687954D01*
X137822901Y-109688387D01*
X137568145Y-109943143D01*
X137568143Y-109943146D01*
X135343132Y-112168156D01*
X135118773Y-112503935D01*
X135039987Y-112900012D01*
X135039988Y-112900017D01*
X135039988Y-116717778D01*
X135039987Y-116717783D01*
X135118773Y-117113860D01*
X135343132Y-117449639D01*
X139625379Y-121731885D01*
X139625381Y-121731888D01*
X139897873Y-121913960D01*
X139899066Y-121914757D01*
X139810000Y-121897041D01*
X139236511Y-122011115D01*
X138750330Y-122335971D01*
X138540000Y-122650752D01*
X138329670Y-122335971D01*
X137843489Y-122011115D01*
X137270000Y-121897041D01*
X136921517Y-121966359D01*
X136100079Y-121144921D01*
X135845407Y-120974755D01*
X135545000Y-120915000D01*
X114625000Y-120915000D01*
X114324593Y-120974755D01*
X114069921Y-121144921D01*
X113209620Y-122005222D01*
X113205213Y-122005218D01*
X112861437Y-122147263D01*
X112598188Y-122410053D01*
X112455542Y-122753581D01*
X112455218Y-123125547D01*
X101549342Y-123125547D01*
X101175189Y-122750741D01*
X99766175Y-122165667D01*
X98240518Y-122164336D01*
X96830485Y-122746950D01*
X95750741Y-123824811D01*
X95710000Y-123922926D01*
X95710000Y-119698795D01*
X100364716Y-119698795D01*
X100613106Y-120299943D01*
X101072637Y-120760278D01*
X101673352Y-121009716D01*
X102323795Y-121010284D01*
X102924943Y-120761894D01*
X103385278Y-120302363D01*
X103634716Y-119701648D01*
X103635284Y-119051205D01*
X103386894Y-118450057D01*
X102927363Y-117989722D01*
X102834953Y-117951350D01*
X106143255Y-117951350D01*
X106235792Y-118213019D01*
X106827398Y-118431188D01*
X107457461Y-118406352D01*
X107924208Y-118213019D01*
X108016745Y-117951350D01*
X107080000Y-117014605D01*
X106143255Y-117951350D01*
X102834953Y-117951350D01*
X102326648Y-117740284D01*
X101676205Y-117739716D01*
X101075057Y-117988106D01*
X100614722Y-118447637D01*
X100365284Y-119048352D01*
X100364716Y-119698795D01*
X95710000Y-119698795D01*
X95710000Y-116582398D01*
X105483812Y-116582398D01*
X105508648Y-117212461D01*
X105701981Y-117679208D01*
X105963650Y-117771745D01*
X106900395Y-116835000D01*
X107259605Y-116835000D01*
X108196350Y-117771745D01*
X108458019Y-117679208D01*
X108676188Y-117087602D01*
X108651352Y-116457539D01*
X108458019Y-115990792D01*
X108196350Y-115898255D01*
X107259605Y-116835000D01*
X106900395Y-116835000D01*
X105963650Y-115898255D01*
X105701981Y-115990792D01*
X105483812Y-116582398D01*
X95710000Y-116582398D01*
X95710000Y-114608893D01*
X105494725Y-114608893D01*
X105735519Y-115191657D01*
X106174211Y-115631116D01*
X106143255Y-115718650D01*
X107080000Y-116655395D01*
X108016745Y-115718650D01*
X107985593Y-115630561D01*
X108422914Y-115194003D01*
X108664724Y-114611659D01*
X108665275Y-113981107D01*
X108424481Y-113398343D01*
X107979003Y-112952086D01*
X107396659Y-112710276D01*
X106766107Y-112709725D01*
X106183343Y-112950519D01*
X105737086Y-113395997D01*
X105495276Y-113978341D01*
X105494725Y-114608893D01*
X95710000Y-114608893D01*
X95710000Y-109538795D01*
X100364716Y-109538795D01*
X100613106Y-110139943D01*
X101072637Y-110600278D01*
X101673352Y-110849716D01*
X102323795Y-110850284D01*
X102924943Y-110601894D01*
X103385278Y-110142363D01*
X103634716Y-109541648D01*
X103635284Y-108891205D01*
X103386894Y-108290057D01*
X102927363Y-107829722D01*
X102326648Y-107580284D01*
X101676205Y-107579716D01*
X101075057Y-107828106D01*
X100614722Y-108287637D01*
X100365284Y-108888352D01*
X100364716Y-109538795D01*
X95710000Y-109538795D01*
X95710000Y-102983795D01*
X100364716Y-102983795D01*
X100613106Y-103584943D01*
X101072637Y-104045278D01*
X101673352Y-104294716D01*
X102323795Y-104295284D01*
X102924943Y-104046894D01*
X103385278Y-103587363D01*
X103634716Y-102986648D01*
X103635284Y-102336205D01*
X103386894Y-101735057D01*
X102927363Y-101274722D01*
X102834953Y-101236350D01*
X106143255Y-101236350D01*
X106235792Y-101498019D01*
X106827398Y-101716188D01*
X107457461Y-101691352D01*
X107924208Y-101498019D01*
X108016745Y-101236350D01*
X107080000Y-100299605D01*
X106143255Y-101236350D01*
X102834953Y-101236350D01*
X102326648Y-101025284D01*
X101676205Y-101024716D01*
X101075057Y-101273106D01*
X100614722Y-101732637D01*
X100365284Y-102333352D01*
X100364716Y-102983795D01*
X95710000Y-102983795D01*
X95710000Y-99867398D01*
X105483812Y-99867398D01*
X105508648Y-100497461D01*
X105701981Y-100964208D01*
X105963650Y-101056745D01*
X106900395Y-100120000D01*
X107259605Y-100120000D01*
X108196350Y-101056745D01*
X108458019Y-100964208D01*
X108676188Y-100372602D01*
X108651352Y-99742539D01*
X108458019Y-99275792D01*
X108196350Y-99183255D01*
X107259605Y-100120000D01*
X106900395Y-100120000D01*
X105963650Y-99183255D01*
X105701981Y-99275792D01*
X105483812Y-99867398D01*
X95710000Y-99867398D01*
X95710000Y-97893893D01*
X105494725Y-97893893D01*
X105735519Y-98476657D01*
X106174211Y-98916116D01*
X106143255Y-99003650D01*
X107080000Y-99940395D01*
X108016745Y-99003650D01*
X107985593Y-98915561D01*
X108422914Y-98479003D01*
X108664724Y-97896659D01*
X108665275Y-97266107D01*
X108424481Y-96683343D01*
X107979003Y-96237086D01*
X107396659Y-95995276D01*
X106766107Y-95994725D01*
X106183343Y-96235519D01*
X105737086Y-96680997D01*
X105495276Y-97263341D01*
X105494725Y-97893893D01*
X95710000Y-97893893D01*
X95710000Y-92823795D01*
X100364716Y-92823795D01*
X100613106Y-93424943D01*
X101072637Y-93885278D01*
X101673352Y-94134716D01*
X102323795Y-94135284D01*
X102924943Y-93886894D01*
X103385278Y-93427363D01*
X103634716Y-92826648D01*
X103635284Y-92176205D01*
X103386894Y-91575057D01*
X102927363Y-91114722D01*
X102326648Y-90865284D01*
X101676205Y-90864716D01*
X101075057Y-91113106D01*
X100614722Y-91572637D01*
X100365284Y-92173352D01*
X100364716Y-92823795D01*
X95710000Y-92823795D01*
X95710000Y-88853011D01*
X119289648Y-88853011D01*
X119598805Y-89601229D01*
X120170760Y-90174183D01*
X120918438Y-90484646D01*
X121728011Y-90485352D01*
X122476229Y-90176195D01*
X123049183Y-89604240D01*
X123359646Y-88856562D01*
X123360352Y-88046989D01*
X123051195Y-87298771D01*
X122479240Y-86725817D01*
X121731562Y-86415354D01*
X120921989Y-86414648D01*
X120173771Y-86723805D01*
X119600817Y-87295760D01*
X119290354Y-88043438D01*
X119289648Y-88853011D01*
X95710000Y-88853011D01*
X95710000Y-85823795D01*
X97784716Y-85823795D01*
X98033106Y-86424943D01*
X98492637Y-86885278D01*
X99093352Y-87134716D01*
X99743795Y-87135284D01*
X100344943Y-86886894D01*
X100805278Y-86427363D01*
X101054716Y-85826648D01*
X101055284Y-85176205D01*
X100806894Y-84575057D01*
X100347363Y-84114722D01*
X100254953Y-84076350D01*
X103563255Y-84076350D01*
X103655792Y-84338019D01*
X104247398Y-84556188D01*
X104877461Y-84531352D01*
X105344208Y-84338019D01*
X105436745Y-84076350D01*
X104500000Y-83139605D01*
X103563255Y-84076350D01*
X100254953Y-84076350D01*
X99746648Y-83865284D01*
X99096205Y-83864716D01*
X98495057Y-84113106D01*
X98034722Y-84572637D01*
X97785284Y-85173352D01*
X97784716Y-85823795D01*
X95710000Y-85823795D01*
X95710000Y-82707398D01*
X102903812Y-82707398D01*
X102928648Y-83337461D01*
X103121981Y-83804208D01*
X103383650Y-83896745D01*
X104320395Y-82960000D01*
X104679605Y-82960000D01*
X105616350Y-83896745D01*
X105878019Y-83804208D01*
X106096188Y-83212602D01*
X106071352Y-82582539D01*
X105910817Y-82194971D01*
X117694821Y-82194971D01*
X117852058Y-82575515D01*
X118142954Y-82866919D01*
X118143387Y-82867099D01*
X120023142Y-84746853D01*
X120023144Y-84746856D01*
X120224429Y-84881349D01*
X120358922Y-84971215D01*
X120755000Y-85050000D01*
X122651288Y-85050000D01*
X124098142Y-86496853D01*
X124098144Y-86496856D01*
X124433923Y-86721215D01*
X124830000Y-86800001D01*
X124830005Y-86800000D01*
X126004670Y-86800000D01*
X126209971Y-86800179D01*
X126590515Y-86642942D01*
X126881919Y-86352046D01*
X127039820Y-85971777D01*
X127040179Y-85560029D01*
X126882942Y-85179485D01*
X126592046Y-84888081D01*
X126211777Y-84730180D01*
X125800029Y-84729821D01*
X125799596Y-84730000D01*
X125258711Y-84730000D01*
X124423682Y-83894970D01*
X131269822Y-83894970D01*
X131427059Y-84275514D01*
X131717955Y-84566918D01*
X132098224Y-84724819D01*
X132304997Y-84724999D01*
X132305001Y-84725000D01*
X132305005Y-84724999D01*
X132509972Y-84725178D01*
X132607211Y-84685000D01*
X135124670Y-84685000D01*
X135329971Y-84685179D01*
X135710515Y-84527942D01*
X136001919Y-84237046D01*
X136159820Y-83856777D01*
X136160179Y-83445029D01*
X136002942Y-83064485D01*
X135712046Y-82773081D01*
X135331777Y-82615180D01*
X134920029Y-82614821D01*
X134919596Y-82615000D01*
X132345005Y-82615000D01*
X132345000Y-82614999D01*
X132144614Y-82654859D01*
X132100030Y-82654820D01*
X132058460Y-82671996D01*
X131948923Y-82693785D01*
X131856875Y-82755289D01*
X131719486Y-82812057D01*
X131613355Y-82918003D01*
X131613144Y-82918144D01*
X131613142Y-82918147D01*
X131573211Y-82958077D01*
X131428082Y-83102953D01*
X131270181Y-83483222D01*
X131270001Y-83689995D01*
X131270000Y-83689999D01*
X131270001Y-83690003D01*
X131269822Y-83894970D01*
X124423682Y-83894970D01*
X123811856Y-83283144D01*
X123476077Y-83058785D01*
X123080000Y-82979999D01*
X123079995Y-82980000D01*
X121183711Y-82980000D01*
X119809656Y-81605944D01*
X119708974Y-81455263D01*
X119511856Y-81258144D01*
X119361702Y-81157815D01*
X119317046Y-81113081D01*
X119258155Y-81088627D01*
X119176077Y-81033785D01*
X119080104Y-81014695D01*
X118936777Y-80955180D01*
X118780224Y-80955044D01*
X118780000Y-80954999D01*
X118779995Y-80955000D01*
X118730004Y-80955000D01*
X118730000Y-80954999D01*
X118729996Y-80955000D01*
X118525029Y-80954821D01*
X118144485Y-81112058D01*
X117853081Y-81402954D01*
X117695180Y-81783223D01*
X117695000Y-81989996D01*
X117694999Y-81990000D01*
X117695000Y-81990004D01*
X117694821Y-82194971D01*
X105910817Y-82194971D01*
X105878019Y-82115792D01*
X105616350Y-82023255D01*
X104679605Y-82960000D01*
X104320395Y-82960000D01*
X103383650Y-82023255D01*
X103121981Y-82115792D01*
X102903812Y-82707398D01*
X95710000Y-82707398D01*
X95710000Y-80733893D01*
X102914725Y-80733893D01*
X103155519Y-81316657D01*
X103594211Y-81756116D01*
X103563255Y-81843650D01*
X104500000Y-82780395D01*
X105436745Y-81843650D01*
X105405593Y-81755561D01*
X105842914Y-81319003D01*
X106084724Y-80736659D01*
X106085275Y-80106107D01*
X105844481Y-79523343D01*
X105399003Y-79077086D01*
X104816659Y-78835276D01*
X104186107Y-78834725D01*
X103603343Y-79075519D01*
X103157086Y-79520997D01*
X102915276Y-80103341D01*
X102914725Y-80733893D01*
X95710000Y-80733893D01*
X95710000Y-78029971D01*
X164614821Y-78029971D01*
X164615000Y-78030404D01*
X164615000Y-85249670D01*
X164614821Y-85454971D01*
X164772058Y-85835515D01*
X165062954Y-86126919D01*
X165443223Y-86284820D01*
X165854971Y-86285179D01*
X166235515Y-86127942D01*
X166526919Y-85837046D01*
X166684820Y-85456777D01*
X166685179Y-85045029D01*
X166685000Y-85044596D01*
X166685000Y-82410000D01*
X181793786Y-82410000D01*
X181975333Y-83322700D01*
X182492336Y-84096450D01*
X183266086Y-84613453D01*
X184178786Y-84795000D01*
X186821214Y-84795000D01*
X187733914Y-84613453D01*
X188507664Y-84096450D01*
X189024667Y-83322700D01*
X189206214Y-82410000D01*
X189024667Y-81497300D01*
X188507664Y-80723550D01*
X187733914Y-80206547D01*
X186821214Y-80025000D01*
X184178786Y-80025000D01*
X183266086Y-80206547D01*
X182492336Y-80723550D01*
X181975333Y-81497300D01*
X181793786Y-82410000D01*
X166685000Y-82410000D01*
X166685000Y-77825000D01*
X166685144Y-77659971D01*
X174889821Y-77659971D01*
X175047058Y-78040515D01*
X175337954Y-78331919D01*
X175718223Y-78489820D01*
X176129971Y-78490179D01*
X176510515Y-78332942D01*
X176801919Y-78042046D01*
X176805649Y-78033063D01*
X178893711Y-75945000D01*
X182057051Y-75945000D01*
X182492336Y-76596450D01*
X183266086Y-77113453D01*
X184178786Y-77295000D01*
X186821214Y-77295000D01*
X187733914Y-77113453D01*
X188507664Y-76596450D01*
X189024667Y-75822700D01*
X189206214Y-74910000D01*
X189024667Y-73997300D01*
X188507664Y-73223550D01*
X187733914Y-72706547D01*
X186821214Y-72525000D01*
X184178786Y-72525000D01*
X183266086Y-72706547D01*
X182492336Y-73223550D01*
X182057051Y-73875000D01*
X178465000Y-73875000D01*
X178068922Y-73953785D01*
X177934429Y-74043651D01*
X177733144Y-74178144D01*
X177733142Y-74178147D01*
X175193144Y-76718144D01*
X175183111Y-76733159D01*
X175048081Y-76867954D01*
X174974267Y-77045719D01*
X174968785Y-77053923D01*
X174966877Y-77063516D01*
X174890180Y-77248223D01*
X174890004Y-77449974D01*
X174889999Y-77450000D01*
X174890000Y-77450005D01*
X174890000Y-77454670D01*
X174889821Y-77659971D01*
X166685144Y-77659971D01*
X166685179Y-77620029D01*
X166527942Y-77239485D01*
X166237046Y-76948081D01*
X165856777Y-76790180D01*
X165445029Y-76789821D01*
X165064485Y-76947058D01*
X164773081Y-77237954D01*
X164615180Y-77618223D01*
X164614821Y-78029971D01*
X95710000Y-78029971D01*
X95710000Y-75663795D01*
X97784716Y-75663795D01*
X98033106Y-76264943D01*
X98492637Y-76725278D01*
X99093352Y-76974716D01*
X99743795Y-76975284D01*
X100344943Y-76726894D01*
X100805278Y-76267363D01*
X101054716Y-75666648D01*
X101055284Y-75016205D01*
X100806894Y-74415057D01*
X100347363Y-73954722D01*
X99746648Y-73705284D01*
X99096205Y-73704716D01*
X98495057Y-73953106D01*
X98034722Y-74412637D01*
X97785284Y-75013352D01*
X97784716Y-75663795D01*
X95710000Y-75663795D01*
X95710000Y-71354971D01*
X116214821Y-71354971D01*
X116372058Y-71735515D01*
X116662954Y-72026919D01*
X117043223Y-72184820D01*
X117454971Y-72185179D01*
X117455404Y-72185000D01*
X124971288Y-72185000D01*
X129983142Y-77196853D01*
X129983144Y-77196856D01*
X130088252Y-77267086D01*
X130162954Y-77341919D01*
X130261470Y-77382826D01*
X130318923Y-77421215D01*
X130386103Y-77434578D01*
X130543223Y-77499820D01*
X130714842Y-77499970D01*
X130715000Y-77500001D01*
X130715005Y-77500000D01*
X130749670Y-77500000D01*
X130954971Y-77500179D01*
X131335515Y-77342942D01*
X131626919Y-77052046D01*
X131784820Y-76671777D01*
X131785179Y-76260029D01*
X131627942Y-75879485D01*
X131337046Y-75588081D01*
X131276759Y-75563048D01*
X126131856Y-70418144D01*
X125796077Y-70193785D01*
X125400000Y-70114999D01*
X125399995Y-70115000D01*
X117250330Y-70115000D01*
X117045029Y-70114821D01*
X116664485Y-70272058D01*
X116373081Y-70562954D01*
X116215180Y-70943223D01*
X116214821Y-71354971D01*
X95710000Y-71354971D01*
X95710000Y-69323795D01*
X97864716Y-69323795D01*
X98113106Y-69924943D01*
X98572637Y-70385278D01*
X99173352Y-70634716D01*
X99823795Y-70635284D01*
X100424943Y-70386894D01*
X100885278Y-69927363D01*
X101134716Y-69326648D01*
X101135284Y-68676205D01*
X100886894Y-68075057D01*
X100427363Y-67614722D01*
X100334953Y-67576350D01*
X103643255Y-67576350D01*
X103735792Y-67838019D01*
X104327398Y-68056188D01*
X104957461Y-68031352D01*
X105424208Y-67838019D01*
X105516745Y-67576350D01*
X104580000Y-66639605D01*
X103643255Y-67576350D01*
X100334953Y-67576350D01*
X99826648Y-67365284D01*
X99176205Y-67364716D01*
X98575057Y-67613106D01*
X98114722Y-68072637D01*
X97865284Y-68673352D01*
X97864716Y-69323795D01*
X95710000Y-69323795D01*
X95710000Y-66207398D01*
X102983812Y-66207398D01*
X103008648Y-66837461D01*
X103201981Y-67304208D01*
X103463650Y-67396745D01*
X104400395Y-66460000D01*
X104759605Y-66460000D01*
X105696350Y-67396745D01*
X105958019Y-67304208D01*
X106176188Y-66712602D01*
X106151352Y-66082539D01*
X105958019Y-65615792D01*
X105696350Y-65523255D01*
X104759605Y-66460000D01*
X104400395Y-66460000D01*
X103463650Y-65523255D01*
X103201981Y-65615792D01*
X102983812Y-66207398D01*
X95710000Y-66207398D01*
X95710000Y-64233893D01*
X102994725Y-64233893D01*
X103235519Y-64816657D01*
X103674211Y-65256116D01*
X103643255Y-65343650D01*
X104580000Y-66280395D01*
X105516745Y-65343650D01*
X105485593Y-65255561D01*
X105922914Y-64819003D01*
X106164724Y-64236659D01*
X106165275Y-63606107D01*
X105924481Y-63023343D01*
X105479003Y-62577086D01*
X104896659Y-62335276D01*
X104266107Y-62334725D01*
X103683343Y-62575519D01*
X103237086Y-63020997D01*
X102995276Y-63603341D01*
X102994725Y-64233893D01*
X95710000Y-64233893D01*
X95710000Y-59163795D01*
X97864716Y-59163795D01*
X98113106Y-59764943D01*
X98572637Y-60225278D01*
X99173352Y-60474716D01*
X99823795Y-60475284D01*
X100424943Y-60226894D01*
X100885278Y-59767363D01*
X101134716Y-59166648D01*
X101135284Y-58516205D01*
X100886894Y-57915057D01*
X100427363Y-57454722D01*
X99826648Y-57205284D01*
X99176205Y-57204716D01*
X98575057Y-57453106D01*
X98114722Y-57912637D01*
X97865284Y-58513352D01*
X97864716Y-59163795D01*
X95710000Y-59163795D01*
X95710000Y-51069931D01*
X95897167Y-50128977D01*
X96390561Y-49390561D01*
X97128977Y-48897167D01*
X98069931Y-48710000D01*
X99130003Y-48710000D01*
X97830485Y-49246950D01*
X97830485Y-49246950D01*
G37*
X97830485Y-49246950D02*
X96750741Y-50324811D01*
X96165667Y-51733825D01*
X96164336Y-53259482D01*
X96746950Y-54669515D01*
X97824811Y-55749259D01*
X99233825Y-56334333D01*
X100759482Y-56335664D01*
X102169515Y-55753050D01*
X103249259Y-54675189D01*
X103834333Y-53266175D01*
X103835664Y-51740518D01*
X103253050Y-50330485D01*
X102175189Y-49250741D01*
X100872941Y-48710000D01*
X113893487Y-48710000D01*
X113062300Y-48875333D01*
X112288550Y-49392336D01*
X111771547Y-50166086D01*
X111590000Y-51078786D01*
X111590000Y-53721214D01*
X111771547Y-54633914D01*
X112288550Y-55407664D01*
X113062300Y-55924667D01*
X113975000Y-56106214D01*
X114887700Y-55924667D01*
X115661450Y-55407664D01*
X115704509Y-55343221D01*
X116790000Y-56428711D01*
X116790000Y-62474670D01*
X116789821Y-62679971D01*
X116947058Y-63060515D01*
X117237954Y-63351919D01*
X117618223Y-63509820D01*
X118029971Y-63510179D01*
X118410515Y-63352942D01*
X118701919Y-63062046D01*
X118859820Y-62681777D01*
X118860179Y-62270029D01*
X118860000Y-62269596D01*
X118860000Y-56000005D01*
X118860001Y-56000000D01*
X118781215Y-55603923D01*
X118662500Y-55426253D01*
X118556856Y-55268144D01*
X118556853Y-55268142D01*
X116360000Y-53071288D01*
X116360000Y-51078786D01*
X116178453Y-50166086D01*
X115661450Y-49392336D01*
X114887700Y-48875333D01*
X114056513Y-48710000D01*
X121393487Y-48710000D01*
X120562300Y-48875333D01*
X119788550Y-49392336D01*
X119271547Y-50166086D01*
X119090000Y-51078786D01*
X119090000Y-53721214D01*
X119271547Y-54633914D01*
X119788550Y-55407664D01*
X120562300Y-55924667D01*
X121475000Y-56106214D01*
X122387700Y-55924667D01*
X123161450Y-55407664D01*
X123678453Y-54633914D01*
X123860000Y-53721214D01*
X123860000Y-51078786D01*
X123678453Y-50166086D01*
X123161450Y-49392336D01*
X122387700Y-48875333D01*
X121556513Y-48710000D01*
X128893487Y-48710000D01*
X128062300Y-48875333D01*
X127288550Y-49392336D01*
X126771547Y-50166086D01*
X126590000Y-51078786D01*
X126590000Y-53721214D01*
X126771547Y-54633914D01*
X127288550Y-55407664D01*
X128062300Y-55924667D01*
X128975000Y-56106214D01*
X129802836Y-55941548D01*
X143143142Y-69281853D01*
X143143144Y-69281856D01*
X143478923Y-69506215D01*
X143875000Y-69585001D01*
X143875005Y-69585000D01*
X159401288Y-69585000D01*
X160865000Y-71048711D01*
X160865000Y-76799670D01*
X160864821Y-77004971D01*
X161022058Y-77385515D01*
X161312954Y-77676919D01*
X161693223Y-77834820D01*
X162104971Y-77835179D01*
X162485515Y-77677942D01*
X162553356Y-77610219D01*
X162793223Y-77709820D01*
X163204971Y-77710179D01*
X163585515Y-77552942D01*
X163876919Y-77262046D01*
X164034820Y-76881777D01*
X164035179Y-76470029D01*
X164010000Y-76409091D01*
X164010000Y-70245005D01*
X164010001Y-70245000D01*
X163931215Y-69848922D01*
X163804536Y-69659333D01*
X163706856Y-69513144D01*
X163706853Y-69513142D01*
X160886856Y-66693144D01*
X160551077Y-66468785D01*
X160155000Y-66389999D01*
X160154995Y-66390000D01*
X144928711Y-66390000D01*
X137510000Y-58971288D01*
X137510000Y-57696350D01*
X160443255Y-57696350D01*
X160535792Y-57958019D01*
X161127398Y-58176188D01*
X161757461Y-58151352D01*
X162224208Y-57958019D01*
X162316745Y-57696350D01*
X161380000Y-56759605D01*
X160443255Y-57696350D01*
X137510000Y-57696350D01*
X137510000Y-56327398D01*
X159783812Y-56327398D01*
X159808648Y-56957461D01*
X160001981Y-57424208D01*
X160263650Y-57516745D01*
X161200395Y-56580000D01*
X161559605Y-56580000D01*
X162496350Y-57516745D01*
X162584439Y-57485593D01*
X163020997Y-57922914D01*
X163603341Y-58164724D01*
X164233893Y-58165275D01*
X164816657Y-57924481D01*
X165045186Y-57696350D01*
X177443255Y-57696350D01*
X177535792Y-57958019D01*
X178127398Y-58176188D01*
X178757461Y-58151352D01*
X179224208Y-57958019D01*
X179316745Y-57696350D01*
X178380000Y-56759605D01*
X177443255Y-57696350D01*
X165045186Y-57696350D01*
X165262914Y-57479003D01*
X165504724Y-56896659D01*
X165505221Y-56327398D01*
X176783812Y-56327398D01*
X176808648Y-56957461D01*
X177001981Y-57424208D01*
X177263650Y-57516745D01*
X178200395Y-56580000D01*
X178559605Y-56580000D01*
X179496350Y-57516745D01*
X179584439Y-57485593D01*
X180020997Y-57922914D01*
X180603341Y-58164724D01*
X181233893Y-58165275D01*
X181816657Y-57924481D01*
X182262914Y-57479003D01*
X182504724Y-56896659D01*
X182505275Y-56266107D01*
X182264481Y-55683343D01*
X181819003Y-55237086D01*
X181236659Y-54995276D01*
X180606107Y-54994725D01*
X180023343Y-55235519D01*
X179583884Y-55674211D01*
X179496350Y-55643255D01*
X178559605Y-56580000D01*
X178200395Y-56580000D01*
X177263650Y-55643255D01*
X177001981Y-55735792D01*
X176783812Y-56327398D01*
X165505221Y-56327398D01*
X165505275Y-56266107D01*
X165264481Y-55683343D01*
X165045172Y-55463650D01*
X177443255Y-55463650D01*
X178380000Y-56400395D01*
X179316745Y-55463650D01*
X179224208Y-55201981D01*
X178632602Y-54983812D01*
X178002539Y-55008648D01*
X177535792Y-55201981D01*
X177443255Y-55463650D01*
X165045172Y-55463650D01*
X164819003Y-55237086D01*
X164236659Y-54995276D01*
X163606107Y-54994725D01*
X163023343Y-55235519D01*
X162583884Y-55674211D01*
X162496350Y-55643255D01*
X161559605Y-56580000D01*
X161200395Y-56580000D01*
X160263650Y-55643255D01*
X160001981Y-55735792D01*
X159783812Y-56327398D01*
X137510000Y-56327398D01*
X137510000Y-55842949D01*
X138161450Y-55407664D01*
X138678453Y-54633914D01*
X138860000Y-53721214D01*
X138860000Y-51078786D01*
X138678453Y-50166086D01*
X138161450Y-49392336D01*
X137387700Y-48875333D01*
X136556513Y-48710000D01*
X144048487Y-48710000D01*
X143217300Y-48875333D01*
X142443550Y-49392336D01*
X141926547Y-50166086D01*
X141745000Y-51078786D01*
X141745000Y-53721214D01*
X141926547Y-54633914D01*
X142443550Y-55407664D01*
X143217300Y-55924667D01*
X144130000Y-56106214D01*
X145042700Y-55924667D01*
X145816450Y-55407664D01*
X146333453Y-54633914D01*
X146515000Y-53721214D01*
X146515000Y-52527000D01*
X149245000Y-52527000D01*
X149245000Y-53777000D01*
X149475148Y-54680033D01*
X150033353Y-55426253D01*
X150834633Y-55902054D01*
X151131997Y-55982427D01*
X151503000Y-55872625D01*
X151503000Y-52527000D01*
X151757000Y-52527000D01*
X151757000Y-55872625D01*
X152128003Y-55982427D01*
X152425367Y-55902054D01*
X153163668Y-55463650D01*
X160443255Y-55463650D01*
X161380000Y-56400395D01*
X162316745Y-55463650D01*
X162224208Y-55201981D01*
X161632602Y-54983812D01*
X161002539Y-55008648D01*
X160535792Y-55201981D01*
X160443255Y-55463650D01*
X153163668Y-55463650D01*
X153226647Y-55426253D01*
X153784852Y-54680033D01*
X154015000Y-53777000D01*
X154015000Y-52527000D01*
X151757000Y-52527000D01*
X151503000Y-52527000D01*
X149245000Y-52527000D01*
X146515000Y-52527000D01*
X146515000Y-51078786D01*
X146503904Y-51023000D01*
X149245000Y-51023000D01*
X149245000Y-52273000D01*
X151503000Y-52273000D01*
X151503000Y-48927375D01*
X151757000Y-48927375D01*
X151757000Y-52273000D01*
X154015000Y-52273000D01*
X154015000Y-51823795D01*
X157204716Y-51823795D01*
X157453106Y-52424943D01*
X157912637Y-52885278D01*
X158513352Y-53134716D01*
X159163795Y-53135284D01*
X159764943Y-52886894D01*
X160225278Y-52427363D01*
X160474716Y-51826648D01*
X160474718Y-51823795D01*
X167364716Y-51823795D01*
X167613106Y-52424943D01*
X168072637Y-52885278D01*
X168673352Y-53134716D01*
X169323795Y-53135284D01*
X169924943Y-52886894D01*
X170385278Y-52427363D01*
X170634716Y-51826648D01*
X170634718Y-51823795D01*
X174204716Y-51823795D01*
X174453106Y-52424943D01*
X174912637Y-52885278D01*
X175513352Y-53134716D01*
X176163795Y-53135284D01*
X176764943Y-52886894D01*
X177225278Y-52427363D01*
X177474716Y-51826648D01*
X177474718Y-51823795D01*
X184364716Y-51823795D01*
X184613106Y-52424943D01*
X185072637Y-52885278D01*
X185673352Y-53134716D01*
X186323795Y-53135284D01*
X186924943Y-52886894D01*
X187385278Y-52427363D01*
X187634716Y-51826648D01*
X187635284Y-51176205D01*
X187386894Y-50575057D01*
X186927363Y-50114722D01*
X186326648Y-49865284D01*
X185676205Y-49864716D01*
X185075057Y-50113106D01*
X184614722Y-50572637D01*
X184365284Y-51173352D01*
X184364716Y-51823795D01*
X177474718Y-51823795D01*
X177475284Y-51176205D01*
X177226894Y-50575057D01*
X176767363Y-50114722D01*
X176166648Y-49865284D01*
X175516205Y-49864716D01*
X174915057Y-50113106D01*
X174454722Y-50572637D01*
X174205284Y-51173352D01*
X174204716Y-51823795D01*
X170634718Y-51823795D01*
X170635284Y-51176205D01*
X170386894Y-50575057D01*
X169927363Y-50114722D01*
X169326648Y-49865284D01*
X168676205Y-49864716D01*
X168075057Y-50113106D01*
X167614722Y-50572637D01*
X167365284Y-51173352D01*
X167364716Y-51823795D01*
X160474718Y-51823795D01*
X160475284Y-51176205D01*
X160226894Y-50575057D01*
X159767363Y-50114722D01*
X159166648Y-49865284D01*
X158516205Y-49864716D01*
X157915057Y-50113106D01*
X157454722Y-50572637D01*
X157205284Y-51173352D01*
X157204716Y-51823795D01*
X154015000Y-51823795D01*
X154015000Y-51023000D01*
X153784852Y-50119967D01*
X153226647Y-49373747D01*
X152425367Y-48897946D01*
X152128003Y-48817573D01*
X151757000Y-48927375D01*
X151503000Y-48927375D01*
X151131997Y-48817573D01*
X150834633Y-48897946D01*
X150033353Y-49373747D01*
X149475148Y-50119967D01*
X149245000Y-51023000D01*
X146503904Y-51023000D01*
X146333453Y-50166086D01*
X145816450Y-49392336D01*
X145042700Y-48875333D01*
X144211513Y-48710000D01*
X186930069Y-48710000D01*
X187871023Y-48897167D01*
X188609439Y-49390561D01*
X189102833Y-50128977D01*
X189290000Y-51069931D01*
X189290000Y-63744911D01*
X189253050Y-63655485D01*
X188175189Y-62575741D01*
X186766175Y-61990667D01*
X185240518Y-61989336D01*
X183830485Y-62571950D01*
X182750741Y-63649811D01*
X182165667Y-65058825D01*
X182164336Y-66584482D01*
X182746950Y-67994515D01*
X183824811Y-69074259D01*
X185233825Y-69659333D01*
X186759482Y-69660664D01*
X188169515Y-69078050D01*
X189249259Y-68000189D01*
X189290000Y-67902074D01*
X189290000Y-108940665D01*
X179186226Y-110355557D01*
X179262914Y-110279003D01*
X179504724Y-109696659D01*
X179505275Y-109066107D01*
X179264481Y-108483343D01*
X178825789Y-108043884D01*
X178856745Y-107956350D01*
X177920000Y-107019605D01*
X176983255Y-107956350D01*
X177014407Y-108044439D01*
X176577086Y-108480997D01*
X176335276Y-109063341D01*
X176334725Y-109693893D01*
X176575519Y-110276657D01*
X176964815Y-110666634D01*
X175499900Y-110871775D01*
X167551121Y-109770978D01*
X167792192Y-109530327D01*
X167934838Y-109186799D01*
X167935162Y-108814833D01*
X167804931Y-108499649D01*
X167934838Y-108186799D01*
X167935162Y-107814833D01*
X167793117Y-107471057D01*
X167530327Y-107207808D01*
X167186799Y-107065162D01*
X166814833Y-107064838D01*
X166499649Y-107195069D01*
X166186799Y-107065162D01*
X165814833Y-107064838D01*
X165499649Y-107195069D01*
X165186799Y-107065162D01*
X164814833Y-107064838D01*
X164471057Y-107206883D01*
X164207808Y-107469673D01*
X164065162Y-107813201D01*
X164064838Y-108185167D01*
X164195069Y-108500351D01*
X164065162Y-108813201D01*
X164064838Y-109185167D01*
X164109983Y-109294427D01*
X160626675Y-108812037D01*
X162851313Y-106587398D01*
X176323812Y-106587398D01*
X176348648Y-107217461D01*
X176541981Y-107684208D01*
X176803650Y-107776745D01*
X177740395Y-106840000D01*
X178099605Y-106840000D01*
X179036350Y-107776745D01*
X179298019Y-107684208D01*
X179516188Y-107092602D01*
X179491352Y-106462539D01*
X179298019Y-105995792D01*
X179036350Y-105903255D01*
X178099605Y-106840000D01*
X177740395Y-106840000D01*
X176803650Y-105903255D01*
X176541981Y-105995792D01*
X176323812Y-106587398D01*
X162851313Y-106587398D01*
X163054354Y-106384357D01*
X163278714Y-106048579D01*
X163343346Y-105723650D01*
X176983255Y-105723650D01*
X177920000Y-106660395D01*
X178856745Y-105723650D01*
X178764208Y-105461981D01*
X178172602Y-105243812D01*
X177542539Y-105268648D01*
X177075792Y-105461981D01*
X176983255Y-105723650D01*
X163343346Y-105723650D01*
X163357499Y-105652501D01*
X163335000Y-105539391D01*
X163335000Y-104623795D01*
X181364716Y-104623795D01*
X181613106Y-105224943D01*
X182072637Y-105685278D01*
X182673352Y-105934716D01*
X183323795Y-105935284D01*
X183924943Y-105686894D01*
X184385278Y-105227363D01*
X184634716Y-104626648D01*
X184635284Y-103976205D01*
X184386894Y-103375057D01*
X183927363Y-102914722D01*
X183326648Y-102665284D01*
X182676205Y-102664716D01*
X182075057Y-102913106D01*
X181614722Y-103372637D01*
X181365284Y-103973352D01*
X181364716Y-104623795D01*
X163335000Y-104623795D01*
X163335000Y-103725000D01*
X163335179Y-103520029D01*
X163335000Y-103519596D01*
X163335000Y-101275005D01*
X163335001Y-101275000D01*
X163256215Y-100878923D01*
X163081970Y-100618146D01*
X163031856Y-100543144D01*
X163031853Y-100543142D01*
X157668681Y-95179969D01*
X167364821Y-95179969D01*
X167522058Y-95560513D01*
X167812954Y-95851917D01*
X168193223Y-96009818D01*
X168399988Y-96009998D01*
X168400002Y-96010001D01*
X168400007Y-96010000D01*
X168401964Y-96010000D01*
X168604971Y-96010177D01*
X168605399Y-96010000D01*
X180721288Y-96010000D01*
X181848122Y-97136834D01*
X181793786Y-97410000D01*
X181975333Y-98322700D01*
X182492336Y-99096450D01*
X183266086Y-99613453D01*
X184178786Y-99795000D01*
X186821214Y-99795000D01*
X187733914Y-99613453D01*
X188507664Y-99096450D01*
X189024667Y-98322700D01*
X189206214Y-97410000D01*
X189024667Y-96497300D01*
X188507664Y-95723550D01*
X187733914Y-95206547D01*
X186821214Y-95025000D01*
X184178786Y-95025000D01*
X183266086Y-95206547D01*
X183013818Y-95375107D01*
X181881856Y-94243144D01*
X181546077Y-94018785D01*
X181150000Y-93939999D01*
X181149995Y-93940000D01*
X168402623Y-93940000D01*
X168400004Y-93939998D01*
X168400000Y-93939997D01*
X168399996Y-93939998D01*
X168195029Y-93939819D01*
X167814485Y-94097056D01*
X167523081Y-94387952D01*
X167365180Y-94768221D01*
X167365000Y-94974994D01*
X167364999Y-94974998D01*
X167365000Y-94975002D01*
X167364821Y-95179969D01*
X157668681Y-95179969D01*
X153485000Y-90996288D01*
X153485000Y-89910000D01*
X181793786Y-89910000D01*
X181975333Y-90822700D01*
X182492336Y-91596450D01*
X183266086Y-92113453D01*
X184178786Y-92295000D01*
X186821214Y-92295000D01*
X187733914Y-92113453D01*
X188507664Y-91596450D01*
X189024667Y-90822700D01*
X189206214Y-89910000D01*
X189024667Y-88997300D01*
X188507664Y-88223550D01*
X187733914Y-87706547D01*
X186821214Y-87525000D01*
X184178786Y-87525000D01*
X183266086Y-87706547D01*
X182492336Y-88223550D01*
X181975333Y-88997300D01*
X181793786Y-89910000D01*
X153485000Y-89910000D01*
X153485000Y-89375000D01*
X153485179Y-89170029D01*
X153327942Y-88789485D01*
X153037046Y-88498081D01*
X152656777Y-88340180D01*
X152245029Y-88339821D01*
X151864485Y-88497058D01*
X151573081Y-88787954D01*
X151415180Y-89168223D01*
X151414821Y-89579971D01*
X151415000Y-89580404D01*
X151415000Y-90129173D01*
X151377942Y-90039485D01*
X151087046Y-89748081D01*
X150706777Y-89590180D01*
X150295029Y-89589821D01*
X149914485Y-89747058D01*
X149623081Y-90037954D01*
X149465180Y-90418223D01*
X149464821Y-90829971D01*
X149465000Y-90830404D01*
X149465000Y-91224995D01*
X149464999Y-91225000D01*
X149543785Y-91621077D01*
X149768144Y-91956856D01*
X152195001Y-94383712D01*
X152195001Y-97554994D01*
X152195000Y-97554998D01*
X152195001Y-97555001D01*
X152194822Y-97759972D01*
X152352059Y-98140516D01*
X152642955Y-98431920D01*
X152643388Y-98432100D01*
X152898142Y-98686855D01*
X152898144Y-98686858D01*
X156293141Y-102081854D01*
X156293143Y-102081857D01*
X156693077Y-102481791D01*
X156837952Y-102626919D01*
X157218221Y-102784820D01*
X157424994Y-102785000D01*
X157424998Y-102785001D01*
X157425002Y-102785000D01*
X157629969Y-102785179D01*
X158010513Y-102627942D01*
X158301917Y-102337046D01*
X158459818Y-101956777D01*
X158459998Y-101750004D01*
X158459999Y-101750000D01*
X158459998Y-101749996D01*
X158460177Y-101545029D01*
X158302940Y-101164485D01*
X158012044Y-100873081D01*
X158011611Y-100872901D01*
X157756855Y-100618145D01*
X157756852Y-100618143D01*
X154361856Y-97223146D01*
X154361853Y-97223144D01*
X154265001Y-97126292D01*
X154265001Y-94703713D01*
X161265000Y-101703711D01*
X161265000Y-103724670D01*
X161264821Y-103929971D01*
X161265000Y-103930404D01*
X161265000Y-104198000D01*
X158725000Y-104198000D01*
X158654652Y-104219264D01*
X158619544Y-104254233D01*
X157365854Y-106122477D01*
X156847468Y-106338472D01*
X151744466Y-104431039D01*
X151700000Y-104423000D01*
X151651399Y-104432667D01*
X151610197Y-104460197D01*
X151582667Y-104501399D01*
X151573000Y-104550000D01*
X151573000Y-104775000D01*
X151584439Y-104827676D01*
X151613394Y-104867889D01*
X151655534Y-104893961D01*
X156805534Y-106818961D01*
X156852058Y-106826983D01*
X156900496Y-106816530D01*
X157650496Y-106491530D01*
X157705670Y-106445447D01*
X158917968Y-104627000D01*
X161265000Y-104627000D01*
X161265000Y-105246289D01*
X158621288Y-107890000D01*
X148705000Y-107890000D01*
X148308923Y-107968785D01*
X147973144Y-108193144D01*
X147748785Y-108528923D01*
X147670000Y-108925000D01*
X147748785Y-109321077D01*
X147973144Y-109656856D01*
X148308923Y-109881215D01*
X148705000Y-109960000D01*
X159049995Y-109960000D01*
X159050000Y-109960001D01*
X159060873Y-109957838D01*
X175483378Y-112125908D01*
X175518718Y-112125613D01*
X189290000Y-110073519D01*
X189290000Y-121919911D01*
X189253050Y-121830485D01*
X188175189Y-120750741D01*
X186766175Y-120165667D01*
X185240518Y-120164336D01*
X183830485Y-120746950D01*
X182750741Y-121824811D01*
X182165667Y-123233825D01*
X182164336Y-124759482D01*
X182746950Y-126169515D01*
X183824811Y-127249259D01*
X185233825Y-127834333D01*
X186759482Y-127835664D01*
X188169515Y-127253050D01*
X189249259Y-126175189D01*
X189290000Y-126077074D01*
X189290000Y-126930069D01*
X189102833Y-127871023D01*
X188609439Y-128609439D01*
X187871023Y-129102833D01*
X186930069Y-129290000D01*
X101080089Y-129290000D01*
X101169515Y-129253050D01*
X102249259Y-128175189D01*
X102834333Y-126766175D01*
X102835664Y-125240518D01*
X102253050Y-123830485D01*
X101549342Y-123125547D01*
X112455218Y-123125547D01*
X112597263Y-123469323D01*
X112860053Y-123732572D01*
X113203581Y-123875218D01*
X113575547Y-123875542D01*
X113919323Y-123733497D01*
X114182572Y-123470707D01*
X114325218Y-123127179D01*
X114325233Y-123109925D01*
X114950158Y-122485000D01*
X123410752Y-122485000D01*
X123185474Y-122822152D01*
X123071400Y-123395641D01*
X123071400Y-123454359D01*
X123185474Y-124027848D01*
X123510330Y-124514029D01*
X123781172Y-124695000D01*
X123510330Y-124875971D01*
X123185474Y-125362152D01*
X123071400Y-125935641D01*
X123071400Y-125994359D01*
X123185474Y-126567848D01*
X123510330Y-127054029D01*
X123996511Y-127378885D01*
X124570000Y-127492959D01*
X125143489Y-127378885D01*
X125629670Y-127054029D01*
X125840000Y-126739248D01*
X126050330Y-127054029D01*
X126536511Y-127378885D01*
X127110000Y-127492959D01*
X127683489Y-127378885D01*
X128169670Y-127054029D01*
X128380000Y-126739248D01*
X128590330Y-127054029D01*
X129076511Y-127378885D01*
X129650000Y-127492959D01*
X130223489Y-127378885D01*
X130709670Y-127054029D01*
X130920000Y-126739248D01*
X131130330Y-127054029D01*
X131616511Y-127378885D01*
X132190000Y-127492959D01*
X132763489Y-127378885D01*
X133249670Y-127054029D01*
X133460000Y-126739248D01*
X133670330Y-127054029D01*
X134156511Y-127378885D01*
X134730000Y-127492959D01*
X135303489Y-127378885D01*
X135789670Y-127054029D01*
X136005664Y-126730772D01*
X136063179Y-126853490D01*
X136495053Y-127247688D01*
X136910974Y-127419958D01*
X137143000Y-127298817D01*
X137143000Y-126092000D01*
X137123000Y-126092000D01*
X137123000Y-125838000D01*
X137143000Y-125838000D01*
X137143000Y-125818000D01*
X137397000Y-125818000D01*
X137397000Y-125838000D01*
X137417000Y-125838000D01*
X137417000Y-126092000D01*
X137397000Y-126092000D01*
X137397000Y-127298817D01*
X137629026Y-127419958D01*
X138044947Y-127247688D01*
X138476821Y-126853490D01*
X138534336Y-126730772D01*
X138750330Y-127054029D01*
X139236511Y-127378885D01*
X139810000Y-127492959D01*
X140383489Y-127378885D01*
X140869670Y-127054029D01*
X141080000Y-126739248D01*
X141290330Y-127054029D01*
X141776511Y-127378885D01*
X142350000Y-127492959D01*
X142923489Y-127378885D01*
X143409670Y-127054029D01*
X143620000Y-126739248D01*
X143830330Y-127054029D01*
X144316511Y-127378885D01*
X144890000Y-127492959D01*
X145463489Y-127378885D01*
X145949670Y-127054029D01*
X146160000Y-126739248D01*
X146370330Y-127054029D01*
X146856511Y-127378885D01*
X147430000Y-127492959D01*
X148003489Y-127378885D01*
X148489670Y-127054029D01*
X148700000Y-126739248D01*
X148910330Y-127054029D01*
X149396511Y-127378885D01*
X149970000Y-127492959D01*
X150543489Y-127378885D01*
X151029670Y-127054029D01*
X151240000Y-126739248D01*
X151450330Y-127054029D01*
X151936511Y-127378885D01*
X152510000Y-127492959D01*
X153083489Y-127378885D01*
X153569670Y-127054029D01*
X153780000Y-126739248D01*
X153990330Y-127054029D01*
X154476511Y-127378885D01*
X155050000Y-127492959D01*
X155623489Y-127378885D01*
X156109670Y-127054029D01*
X156320000Y-126739248D01*
X156530330Y-127054029D01*
X157016511Y-127378885D01*
X157590000Y-127492959D01*
X158163489Y-127378885D01*
X158649670Y-127054029D01*
X158865664Y-126730772D01*
X158923179Y-126853490D01*
X159355053Y-127247688D01*
X159770974Y-127419958D01*
X160003000Y-127298817D01*
X160003000Y-126092000D01*
X159983000Y-126092000D01*
X159983000Y-125838000D01*
X160003000Y-125838000D01*
X160003000Y-125818000D01*
X160257000Y-125818000D01*
X160257000Y-125838000D01*
X160277000Y-125838000D01*
X160277000Y-126092000D01*
X160257000Y-126092000D01*
X160257000Y-127298817D01*
X160489026Y-127419958D01*
X160904947Y-127247688D01*
X161336821Y-126853490D01*
X161394336Y-126730772D01*
X161610330Y-127054029D01*
X162096511Y-127378885D01*
X162670000Y-127492959D01*
X163243489Y-127378885D01*
X163729670Y-127054029D01*
X163940000Y-126739248D01*
X164150330Y-127054029D01*
X164636511Y-127378885D01*
X165210000Y-127492959D01*
X165783489Y-127378885D01*
X166269670Y-127054029D01*
X166480000Y-126739248D01*
X166690330Y-127054029D01*
X167176511Y-127378885D01*
X167750000Y-127492959D01*
X168323489Y-127378885D01*
X168809670Y-127054029D01*
X169020000Y-126739248D01*
X169230330Y-127054029D01*
X169716511Y-127378885D01*
X170290000Y-127492959D01*
X170863489Y-127378885D01*
X171349670Y-127054029D01*
X171560000Y-126739248D01*
X171770330Y-127054029D01*
X172256511Y-127378885D01*
X172830000Y-127492959D01*
X173403489Y-127378885D01*
X173889670Y-127054029D01*
X174214526Y-126567848D01*
X174328600Y-125994359D01*
X174328600Y-125935641D01*
X174214526Y-125362152D01*
X173902096Y-124894568D01*
X173941365Y-124886757D01*
X174151409Y-124746409D01*
X174291757Y-124536365D01*
X174341040Y-124288600D01*
X174341040Y-122561400D01*
X174291757Y-122313635D01*
X174151409Y-122103591D01*
X173941365Y-121963243D01*
X173693600Y-121913960D01*
X171966400Y-121913960D01*
X171718635Y-121963243D01*
X171508591Y-122103591D01*
X171368243Y-122313635D01*
X171360559Y-122352267D01*
X171349670Y-122335971D01*
X170863489Y-122011115D01*
X170290000Y-121897041D01*
X169716511Y-122011115D01*
X169404651Y-122219493D01*
X165880079Y-118694921D01*
X165625407Y-118524755D01*
X165325000Y-118465000D01*
X141425158Y-118465000D01*
X139109053Y-116148895D01*
X139134838Y-116086799D01*
X139135162Y-115714833D01*
X138993117Y-115371057D01*
X138730327Y-115107808D01*
X138410001Y-114974796D01*
X138410162Y-114789833D01*
X138407668Y-114783795D01*
X181364716Y-114783795D01*
X181613106Y-115384943D01*
X182072637Y-115845278D01*
X182673352Y-116094716D01*
X183323795Y-116095284D01*
X183924943Y-115846894D01*
X184385278Y-115387363D01*
X184634716Y-114786648D01*
X184635284Y-114136205D01*
X184386894Y-113535057D01*
X183927363Y-113074722D01*
X183326648Y-112825284D01*
X182676205Y-112824716D01*
X182075057Y-113073106D01*
X181614722Y-113532637D01*
X181365284Y-114133352D01*
X181364716Y-114783795D01*
X138407668Y-114783795D01*
X138268117Y-114446057D01*
X138005327Y-114182808D01*
X137661799Y-114040162D01*
X137609999Y-114040117D01*
X137609999Y-113825169D01*
X137925015Y-113510153D01*
X137935177Y-113510162D01*
X138278953Y-113368117D01*
X138542202Y-113105327D01*
X138684848Y-112761799D01*
X138685172Y-112389833D01*
X138543127Y-112046057D01*
X138467956Y-111970755D01*
X139031854Y-111406857D01*
X139031857Y-111406855D01*
X139431856Y-111006856D01*
X139576919Y-110862046D01*
X139734820Y-110481777D01*
X139735000Y-110275004D01*
X139735001Y-110275000D01*
X139735000Y-110274996D01*
X139735179Y-110070029D01*
X139577942Y-109689485D01*
X139512903Y-109624333D01*
X145741871Y-103805801D01*
X145762924Y-103780222D01*
X145780450Y-103733872D01*
X145778904Y-103684343D01*
X145758522Y-103639176D01*
X145633522Y-103464176D01*
X145583430Y-103422697D01*
X145535254Y-103411094D01*
X145486306Y-103418812D01*
X145444036Y-103444673D01*
X139085275Y-109314299D01*
X138906777Y-109240180D01*
X138700004Y-109240000D01*
X138700000Y-109239999D01*
X138699996Y-109240000D01*
X138495029Y-109239821D01*
X138114485Y-109397058D01*
X137823081Y-109687954D01*
X137822901Y-109688387D01*
X137568145Y-109943143D01*
X137568143Y-109943146D01*
X135343132Y-112168156D01*
X135118773Y-112503935D01*
X135039987Y-112900012D01*
X135039988Y-112900017D01*
X135039988Y-116717778D01*
X135039987Y-116717783D01*
X135118773Y-117113860D01*
X135343132Y-117449639D01*
X139625379Y-121731885D01*
X139625381Y-121731888D01*
X139897873Y-121913960D01*
X139899066Y-121914757D01*
X139810000Y-121897041D01*
X139236511Y-122011115D01*
X138750330Y-122335971D01*
X138540000Y-122650752D01*
X138329670Y-122335971D01*
X137843489Y-122011115D01*
X137270000Y-121897041D01*
X136921517Y-121966359D01*
X136100079Y-121144921D01*
X135845407Y-120974755D01*
X135545000Y-120915000D01*
X114625000Y-120915000D01*
X114324593Y-120974755D01*
X114069921Y-121144921D01*
X113209620Y-122005222D01*
X113205213Y-122005218D01*
X112861437Y-122147263D01*
X112598188Y-122410053D01*
X112455542Y-122753581D01*
X112455218Y-123125547D01*
X101549342Y-123125547D01*
X101175189Y-122750741D01*
X99766175Y-122165667D01*
X98240518Y-122164336D01*
X96830485Y-122746950D01*
X95750741Y-123824811D01*
X95710000Y-123922926D01*
X95710000Y-119698795D01*
X100364716Y-119698795D01*
X100613106Y-120299943D01*
X101072637Y-120760278D01*
X101673352Y-121009716D01*
X102323795Y-121010284D01*
X102924943Y-120761894D01*
X103385278Y-120302363D01*
X103634716Y-119701648D01*
X103635284Y-119051205D01*
X103386894Y-118450057D01*
X102927363Y-117989722D01*
X102834953Y-117951350D01*
X106143255Y-117951350D01*
X106235792Y-118213019D01*
X106827398Y-118431188D01*
X107457461Y-118406352D01*
X107924208Y-118213019D01*
X108016745Y-117951350D01*
X107080000Y-117014605D01*
X106143255Y-117951350D01*
X102834953Y-117951350D01*
X102326648Y-117740284D01*
X101676205Y-117739716D01*
X101075057Y-117988106D01*
X100614722Y-118447637D01*
X100365284Y-119048352D01*
X100364716Y-119698795D01*
X95710000Y-119698795D01*
X95710000Y-116582398D01*
X105483812Y-116582398D01*
X105508648Y-117212461D01*
X105701981Y-117679208D01*
X105963650Y-117771745D01*
X106900395Y-116835000D01*
X107259605Y-116835000D01*
X108196350Y-117771745D01*
X108458019Y-117679208D01*
X108676188Y-117087602D01*
X108651352Y-116457539D01*
X108458019Y-115990792D01*
X108196350Y-115898255D01*
X107259605Y-116835000D01*
X106900395Y-116835000D01*
X105963650Y-115898255D01*
X105701981Y-115990792D01*
X105483812Y-116582398D01*
X95710000Y-116582398D01*
X95710000Y-114608893D01*
X105494725Y-114608893D01*
X105735519Y-115191657D01*
X106174211Y-115631116D01*
X106143255Y-115718650D01*
X107080000Y-116655395D01*
X108016745Y-115718650D01*
X107985593Y-115630561D01*
X108422914Y-115194003D01*
X108664724Y-114611659D01*
X108665275Y-113981107D01*
X108424481Y-113398343D01*
X107979003Y-112952086D01*
X107396659Y-112710276D01*
X106766107Y-112709725D01*
X106183343Y-112950519D01*
X105737086Y-113395997D01*
X105495276Y-113978341D01*
X105494725Y-114608893D01*
X95710000Y-114608893D01*
X95710000Y-109538795D01*
X100364716Y-109538795D01*
X100613106Y-110139943D01*
X101072637Y-110600278D01*
X101673352Y-110849716D01*
X102323795Y-110850284D01*
X102924943Y-110601894D01*
X103385278Y-110142363D01*
X103634716Y-109541648D01*
X103635284Y-108891205D01*
X103386894Y-108290057D01*
X102927363Y-107829722D01*
X102326648Y-107580284D01*
X101676205Y-107579716D01*
X101075057Y-107828106D01*
X100614722Y-108287637D01*
X100365284Y-108888352D01*
X100364716Y-109538795D01*
X95710000Y-109538795D01*
X95710000Y-102983795D01*
X100364716Y-102983795D01*
X100613106Y-103584943D01*
X101072637Y-104045278D01*
X101673352Y-104294716D01*
X102323795Y-104295284D01*
X102924943Y-104046894D01*
X103385278Y-103587363D01*
X103634716Y-102986648D01*
X103635284Y-102336205D01*
X103386894Y-101735057D01*
X102927363Y-101274722D01*
X102834953Y-101236350D01*
X106143255Y-101236350D01*
X106235792Y-101498019D01*
X106827398Y-101716188D01*
X107457461Y-101691352D01*
X107924208Y-101498019D01*
X108016745Y-101236350D01*
X107080000Y-100299605D01*
X106143255Y-101236350D01*
X102834953Y-101236350D01*
X102326648Y-101025284D01*
X101676205Y-101024716D01*
X101075057Y-101273106D01*
X100614722Y-101732637D01*
X100365284Y-102333352D01*
X100364716Y-102983795D01*
X95710000Y-102983795D01*
X95710000Y-99867398D01*
X105483812Y-99867398D01*
X105508648Y-100497461D01*
X105701981Y-100964208D01*
X105963650Y-101056745D01*
X106900395Y-100120000D01*
X107259605Y-100120000D01*
X108196350Y-101056745D01*
X108458019Y-100964208D01*
X108676188Y-100372602D01*
X108651352Y-99742539D01*
X108458019Y-99275792D01*
X108196350Y-99183255D01*
X107259605Y-100120000D01*
X106900395Y-100120000D01*
X105963650Y-99183255D01*
X105701981Y-99275792D01*
X105483812Y-99867398D01*
X95710000Y-99867398D01*
X95710000Y-97893893D01*
X105494725Y-97893893D01*
X105735519Y-98476657D01*
X106174211Y-98916116D01*
X106143255Y-99003650D01*
X107080000Y-99940395D01*
X108016745Y-99003650D01*
X107985593Y-98915561D01*
X108422914Y-98479003D01*
X108664724Y-97896659D01*
X108665275Y-97266107D01*
X108424481Y-96683343D01*
X107979003Y-96237086D01*
X107396659Y-95995276D01*
X106766107Y-95994725D01*
X106183343Y-96235519D01*
X105737086Y-96680997D01*
X105495276Y-97263341D01*
X105494725Y-97893893D01*
X95710000Y-97893893D01*
X95710000Y-92823795D01*
X100364716Y-92823795D01*
X100613106Y-93424943D01*
X101072637Y-93885278D01*
X101673352Y-94134716D01*
X102323795Y-94135284D01*
X102924943Y-93886894D01*
X103385278Y-93427363D01*
X103634716Y-92826648D01*
X103635284Y-92176205D01*
X103386894Y-91575057D01*
X102927363Y-91114722D01*
X102326648Y-90865284D01*
X101676205Y-90864716D01*
X101075057Y-91113106D01*
X100614722Y-91572637D01*
X100365284Y-92173352D01*
X100364716Y-92823795D01*
X95710000Y-92823795D01*
X95710000Y-88853011D01*
X119289648Y-88853011D01*
X119598805Y-89601229D01*
X120170760Y-90174183D01*
X120918438Y-90484646D01*
X121728011Y-90485352D01*
X122476229Y-90176195D01*
X123049183Y-89604240D01*
X123359646Y-88856562D01*
X123360352Y-88046989D01*
X123051195Y-87298771D01*
X122479240Y-86725817D01*
X121731562Y-86415354D01*
X120921989Y-86414648D01*
X120173771Y-86723805D01*
X119600817Y-87295760D01*
X119290354Y-88043438D01*
X119289648Y-88853011D01*
X95710000Y-88853011D01*
X95710000Y-85823795D01*
X97784716Y-85823795D01*
X98033106Y-86424943D01*
X98492637Y-86885278D01*
X99093352Y-87134716D01*
X99743795Y-87135284D01*
X100344943Y-86886894D01*
X100805278Y-86427363D01*
X101054716Y-85826648D01*
X101055284Y-85176205D01*
X100806894Y-84575057D01*
X100347363Y-84114722D01*
X100254953Y-84076350D01*
X103563255Y-84076350D01*
X103655792Y-84338019D01*
X104247398Y-84556188D01*
X104877461Y-84531352D01*
X105344208Y-84338019D01*
X105436745Y-84076350D01*
X104500000Y-83139605D01*
X103563255Y-84076350D01*
X100254953Y-84076350D01*
X99746648Y-83865284D01*
X99096205Y-83864716D01*
X98495057Y-84113106D01*
X98034722Y-84572637D01*
X97785284Y-85173352D01*
X97784716Y-85823795D01*
X95710000Y-85823795D01*
X95710000Y-82707398D01*
X102903812Y-82707398D01*
X102928648Y-83337461D01*
X103121981Y-83804208D01*
X103383650Y-83896745D01*
X104320395Y-82960000D01*
X104679605Y-82960000D01*
X105616350Y-83896745D01*
X105878019Y-83804208D01*
X106096188Y-83212602D01*
X106071352Y-82582539D01*
X105910817Y-82194971D01*
X117694821Y-82194971D01*
X117852058Y-82575515D01*
X118142954Y-82866919D01*
X118143387Y-82867099D01*
X120023142Y-84746853D01*
X120023144Y-84746856D01*
X120224429Y-84881349D01*
X120358922Y-84971215D01*
X120755000Y-85050000D01*
X122651288Y-85050000D01*
X124098142Y-86496853D01*
X124098144Y-86496856D01*
X124433923Y-86721215D01*
X124830000Y-86800001D01*
X124830005Y-86800000D01*
X126004670Y-86800000D01*
X126209971Y-86800179D01*
X126590515Y-86642942D01*
X126881919Y-86352046D01*
X127039820Y-85971777D01*
X127040179Y-85560029D01*
X126882942Y-85179485D01*
X126592046Y-84888081D01*
X126211777Y-84730180D01*
X125800029Y-84729821D01*
X125799596Y-84730000D01*
X125258711Y-84730000D01*
X124423682Y-83894970D01*
X131269822Y-83894970D01*
X131427059Y-84275514D01*
X131717955Y-84566918D01*
X132098224Y-84724819D01*
X132304997Y-84724999D01*
X132305001Y-84725000D01*
X132305005Y-84724999D01*
X132509972Y-84725178D01*
X132607211Y-84685000D01*
X135124670Y-84685000D01*
X135329971Y-84685179D01*
X135710515Y-84527942D01*
X136001919Y-84237046D01*
X136159820Y-83856777D01*
X136160179Y-83445029D01*
X136002942Y-83064485D01*
X135712046Y-82773081D01*
X135331777Y-82615180D01*
X134920029Y-82614821D01*
X134919596Y-82615000D01*
X132345005Y-82615000D01*
X132345000Y-82614999D01*
X132144614Y-82654859D01*
X132100030Y-82654820D01*
X132058460Y-82671996D01*
X131948923Y-82693785D01*
X131856875Y-82755289D01*
X131719486Y-82812057D01*
X131613355Y-82918003D01*
X131613144Y-82918144D01*
X131613142Y-82918147D01*
X131573211Y-82958077D01*
X131428082Y-83102953D01*
X131270181Y-83483222D01*
X131270001Y-83689995D01*
X131270000Y-83689999D01*
X131270001Y-83690003D01*
X131269822Y-83894970D01*
X124423682Y-83894970D01*
X123811856Y-83283144D01*
X123476077Y-83058785D01*
X123080000Y-82979999D01*
X123079995Y-82980000D01*
X121183711Y-82980000D01*
X119809656Y-81605944D01*
X119708974Y-81455263D01*
X119511856Y-81258144D01*
X119361702Y-81157815D01*
X119317046Y-81113081D01*
X119258155Y-81088627D01*
X119176077Y-81033785D01*
X119080104Y-81014695D01*
X118936777Y-80955180D01*
X118780224Y-80955044D01*
X118780000Y-80954999D01*
X118779995Y-80955000D01*
X118730004Y-80955000D01*
X118730000Y-80954999D01*
X118729996Y-80955000D01*
X118525029Y-80954821D01*
X118144485Y-81112058D01*
X117853081Y-81402954D01*
X117695180Y-81783223D01*
X117695000Y-81989996D01*
X117694999Y-81990000D01*
X117695000Y-81990004D01*
X117694821Y-82194971D01*
X105910817Y-82194971D01*
X105878019Y-82115792D01*
X105616350Y-82023255D01*
X104679605Y-82960000D01*
X104320395Y-82960000D01*
X103383650Y-82023255D01*
X103121981Y-82115792D01*
X102903812Y-82707398D01*
X95710000Y-82707398D01*
X95710000Y-80733893D01*
X102914725Y-80733893D01*
X103155519Y-81316657D01*
X103594211Y-81756116D01*
X103563255Y-81843650D01*
X104500000Y-82780395D01*
X105436745Y-81843650D01*
X105405593Y-81755561D01*
X105842914Y-81319003D01*
X106084724Y-80736659D01*
X106085275Y-80106107D01*
X105844481Y-79523343D01*
X105399003Y-79077086D01*
X104816659Y-78835276D01*
X104186107Y-78834725D01*
X103603343Y-79075519D01*
X103157086Y-79520997D01*
X102915276Y-80103341D01*
X102914725Y-80733893D01*
X95710000Y-80733893D01*
X95710000Y-78029971D01*
X164614821Y-78029971D01*
X164615000Y-78030404D01*
X164615000Y-85249670D01*
X164614821Y-85454971D01*
X164772058Y-85835515D01*
X165062954Y-86126919D01*
X165443223Y-86284820D01*
X165854971Y-86285179D01*
X166235515Y-86127942D01*
X166526919Y-85837046D01*
X166684820Y-85456777D01*
X166685179Y-85045029D01*
X166685000Y-85044596D01*
X166685000Y-82410000D01*
X181793786Y-82410000D01*
X181975333Y-83322700D01*
X182492336Y-84096450D01*
X183266086Y-84613453D01*
X184178786Y-84795000D01*
X186821214Y-84795000D01*
X187733914Y-84613453D01*
X188507664Y-84096450D01*
X189024667Y-83322700D01*
X189206214Y-82410000D01*
X189024667Y-81497300D01*
X188507664Y-80723550D01*
X187733914Y-80206547D01*
X186821214Y-80025000D01*
X184178786Y-80025000D01*
X183266086Y-80206547D01*
X182492336Y-80723550D01*
X181975333Y-81497300D01*
X181793786Y-82410000D01*
X166685000Y-82410000D01*
X166685000Y-77825000D01*
X166685144Y-77659971D01*
X174889821Y-77659971D01*
X175047058Y-78040515D01*
X175337954Y-78331919D01*
X175718223Y-78489820D01*
X176129971Y-78490179D01*
X176510515Y-78332942D01*
X176801919Y-78042046D01*
X176805649Y-78033063D01*
X178893711Y-75945000D01*
X182057051Y-75945000D01*
X182492336Y-76596450D01*
X183266086Y-77113453D01*
X184178786Y-77295000D01*
X186821214Y-77295000D01*
X187733914Y-77113453D01*
X188507664Y-76596450D01*
X189024667Y-75822700D01*
X189206214Y-74910000D01*
X189024667Y-73997300D01*
X188507664Y-73223550D01*
X187733914Y-72706547D01*
X186821214Y-72525000D01*
X184178786Y-72525000D01*
X183266086Y-72706547D01*
X182492336Y-73223550D01*
X182057051Y-73875000D01*
X178465000Y-73875000D01*
X178068922Y-73953785D01*
X177934429Y-74043651D01*
X177733144Y-74178144D01*
X177733142Y-74178147D01*
X175193144Y-76718144D01*
X175183111Y-76733159D01*
X175048081Y-76867954D01*
X174974267Y-77045719D01*
X174968785Y-77053923D01*
X174966877Y-77063516D01*
X174890180Y-77248223D01*
X174890004Y-77449974D01*
X174889999Y-77450000D01*
X174890000Y-77450005D01*
X174890000Y-77454670D01*
X174889821Y-77659971D01*
X166685144Y-77659971D01*
X166685179Y-77620029D01*
X166527942Y-77239485D01*
X166237046Y-76948081D01*
X165856777Y-76790180D01*
X165445029Y-76789821D01*
X165064485Y-76947058D01*
X164773081Y-77237954D01*
X164615180Y-77618223D01*
X164614821Y-78029971D01*
X95710000Y-78029971D01*
X95710000Y-75663795D01*
X97784716Y-75663795D01*
X98033106Y-76264943D01*
X98492637Y-76725278D01*
X99093352Y-76974716D01*
X99743795Y-76975284D01*
X100344943Y-76726894D01*
X100805278Y-76267363D01*
X101054716Y-75666648D01*
X101055284Y-75016205D01*
X100806894Y-74415057D01*
X100347363Y-73954722D01*
X99746648Y-73705284D01*
X99096205Y-73704716D01*
X98495057Y-73953106D01*
X98034722Y-74412637D01*
X97785284Y-75013352D01*
X97784716Y-75663795D01*
X95710000Y-75663795D01*
X95710000Y-71354971D01*
X116214821Y-71354971D01*
X116372058Y-71735515D01*
X116662954Y-72026919D01*
X117043223Y-72184820D01*
X117454971Y-72185179D01*
X117455404Y-72185000D01*
X124971288Y-72185000D01*
X129983142Y-77196853D01*
X129983144Y-77196856D01*
X130088252Y-77267086D01*
X130162954Y-77341919D01*
X130261470Y-77382826D01*
X130318923Y-77421215D01*
X130386103Y-77434578D01*
X130543223Y-77499820D01*
X130714842Y-77499970D01*
X130715000Y-77500001D01*
X130715005Y-77500000D01*
X130749670Y-77500000D01*
X130954971Y-77500179D01*
X131335515Y-77342942D01*
X131626919Y-77052046D01*
X131784820Y-76671777D01*
X131785179Y-76260029D01*
X131627942Y-75879485D01*
X131337046Y-75588081D01*
X131276759Y-75563048D01*
X126131856Y-70418144D01*
X125796077Y-70193785D01*
X125400000Y-70114999D01*
X125399995Y-70115000D01*
X117250330Y-70115000D01*
X117045029Y-70114821D01*
X116664485Y-70272058D01*
X116373081Y-70562954D01*
X116215180Y-70943223D01*
X116214821Y-71354971D01*
X95710000Y-71354971D01*
X95710000Y-69323795D01*
X97864716Y-69323795D01*
X98113106Y-69924943D01*
X98572637Y-70385278D01*
X99173352Y-70634716D01*
X99823795Y-70635284D01*
X100424943Y-70386894D01*
X100885278Y-69927363D01*
X101134716Y-69326648D01*
X101135284Y-68676205D01*
X100886894Y-68075057D01*
X100427363Y-67614722D01*
X100334953Y-67576350D01*
X103643255Y-67576350D01*
X103735792Y-67838019D01*
X104327398Y-68056188D01*
X104957461Y-68031352D01*
X105424208Y-67838019D01*
X105516745Y-67576350D01*
X104580000Y-66639605D01*
X103643255Y-67576350D01*
X100334953Y-67576350D01*
X99826648Y-67365284D01*
X99176205Y-67364716D01*
X98575057Y-67613106D01*
X98114722Y-68072637D01*
X97865284Y-68673352D01*
X97864716Y-69323795D01*
X95710000Y-69323795D01*
X95710000Y-66207398D01*
X102983812Y-66207398D01*
X103008648Y-66837461D01*
X103201981Y-67304208D01*
X103463650Y-67396745D01*
X104400395Y-66460000D01*
X104759605Y-66460000D01*
X105696350Y-67396745D01*
X105958019Y-67304208D01*
X106176188Y-66712602D01*
X106151352Y-66082539D01*
X105958019Y-65615792D01*
X105696350Y-65523255D01*
X104759605Y-66460000D01*
X104400395Y-66460000D01*
X103463650Y-65523255D01*
X103201981Y-65615792D01*
X102983812Y-66207398D01*
X95710000Y-66207398D01*
X95710000Y-64233893D01*
X102994725Y-64233893D01*
X103235519Y-64816657D01*
X103674211Y-65256116D01*
X103643255Y-65343650D01*
X104580000Y-66280395D01*
X105516745Y-65343650D01*
X105485593Y-65255561D01*
X105922914Y-64819003D01*
X106164724Y-64236659D01*
X106165275Y-63606107D01*
X105924481Y-63023343D01*
X105479003Y-62577086D01*
X104896659Y-62335276D01*
X104266107Y-62334725D01*
X103683343Y-62575519D01*
X103237086Y-63020997D01*
X102995276Y-63603341D01*
X102994725Y-64233893D01*
X95710000Y-64233893D01*
X95710000Y-59163795D01*
X97864716Y-59163795D01*
X98113106Y-59764943D01*
X98572637Y-60225278D01*
X99173352Y-60474716D01*
X99823795Y-60475284D01*
X100424943Y-60226894D01*
X100885278Y-59767363D01*
X101134716Y-59166648D01*
X101135284Y-58516205D01*
X100886894Y-57915057D01*
X100427363Y-57454722D01*
X99826648Y-57205284D01*
X99176205Y-57204716D01*
X98575057Y-57453106D01*
X98114722Y-57912637D01*
X97865284Y-58513352D01*
X97864716Y-59163795D01*
X95710000Y-59163795D01*
X95710000Y-51069931D01*
X95897167Y-50128977D01*
X96390561Y-49390561D01*
X97128977Y-48897167D01*
X98069931Y-48710000D01*
X99130003Y-48710000D01*
X97830485Y-49246950D01*
M02*
