G04 #@! TF.FileFunction,Soldermask,Bot*
%FSLAX46Y46*%
G04 Gerber Fmt 4.6, Leading zero omitted, Abs format (unit mm)*
G04 Created by KiCad (PCBNEW (2016-10-09 revision 6d27087)-master) date 2016 November 17, Thursday 15:53:54*
%MOMM*%
%LPD*%
G01*
G04 APERTURE LIST*
%ADD10C,0.100000*%
%ADD11C,6.800000*%
%ADD12R,2.127200X2.127200*%
%ADD13O,2.127200X2.127200*%
%ADD14C,2.400000*%
%ADD15C,2.300000*%
%ADD16C,3.200000*%
%ADD17O,3.900000X6.400000*%
%ADD18O,6.400000X3.900000*%
G04 APERTURE END LIST*
D10*
D11*
X100000000Y-52500000D03*
X99000000Y-126000000D03*
X186000000Y-124000000D03*
X186000000Y-65825000D03*
D12*
X172830000Y-123425000D03*
D13*
X172830000Y-125965000D03*
X170290000Y-123425000D03*
X170290000Y-125965000D03*
X167750000Y-123425000D03*
X167750000Y-125965000D03*
X165210000Y-123425000D03*
X165210000Y-125965000D03*
X162670000Y-123425000D03*
X162670000Y-125965000D03*
X160130000Y-123425000D03*
X160130000Y-125965000D03*
X157590000Y-123425000D03*
X157590000Y-125965000D03*
X155050000Y-123425000D03*
X155050000Y-125965000D03*
X152510000Y-123425000D03*
X152510000Y-125965000D03*
X149970000Y-123425000D03*
X149970000Y-125965000D03*
X147430000Y-123425000D03*
X147430000Y-125965000D03*
X144890000Y-123425000D03*
X144890000Y-125965000D03*
X142350000Y-123425000D03*
X142350000Y-125965000D03*
X139810000Y-123425000D03*
X139810000Y-125965000D03*
X137270000Y-123425000D03*
X137270000Y-125965000D03*
X134730000Y-123425000D03*
X134730000Y-125965000D03*
X132190000Y-123425000D03*
X132190000Y-125965000D03*
X129650000Y-123425000D03*
X129650000Y-125965000D03*
X127110000Y-123425000D03*
X127110000Y-125965000D03*
X124570000Y-123425000D03*
X124570000Y-125965000D03*
D14*
X99500000Y-58840000D03*
X99500000Y-69000000D03*
D15*
X104580000Y-63920000D03*
X104580000Y-66460000D03*
D16*
X121325000Y-88450000D03*
D14*
X99420000Y-75340000D03*
X99420000Y-85500000D03*
D15*
X104500000Y-80420000D03*
X104500000Y-82960000D03*
D14*
X102000000Y-109215000D03*
X102000000Y-119375000D03*
D15*
X107080000Y-114295000D03*
X107080000Y-116835000D03*
X107080000Y-100120000D03*
X107080000Y-97580000D03*
D14*
X102000000Y-102660000D03*
X102000000Y-92500000D03*
D15*
X177920000Y-106840000D03*
X177920000Y-109380000D03*
D14*
X183000000Y-104300000D03*
X183000000Y-114460000D03*
X169000000Y-51500000D03*
X158840000Y-51500000D03*
D15*
X163920000Y-56580000D03*
X161380000Y-56580000D03*
X178380000Y-56580000D03*
X180920000Y-56580000D03*
D14*
X175840000Y-51500000D03*
X186000000Y-51500000D03*
D17*
X144130000Y-52400000D03*
X151630000Y-52400000D03*
X113975000Y-52400000D03*
X121475000Y-52400000D03*
X128975000Y-52400000D03*
X136475000Y-52400000D03*
D18*
X185500000Y-74910000D03*
X185500000Y-82410000D03*
X185500000Y-89910000D03*
X185500000Y-97410000D03*
M02*
