M48
;DRILL file {KiCad (2016-10-09 revision 6d27087)-master} date 2016 November 17, Thursday 15:44:58
;FORMAT={-:-/ absolute / metric / decimal}
FMAT,2
METRIC,TZ
T1C0.300
T2C0.400
T3C0.900
T4C1.016
T5C1.500
T6C1.600
T7C3.200
%
G90
G05
M71
T1
X117.25Y-71.15
X117.825Y-62.475
X130.75Y-76.465
X132.305Y-83.69
X135.125Y-83.65
X138.7Y-110.275
X150.5Y-90.625
X152.45Y-89.375
X153.23Y-97.555
X157.425Y-101.75
X161.9Y-76.8
X162.3Y-103.725
X163.Y-76.675
X165.65Y-77.825
X165.65Y-85.25
X168.4Y-94.975
X175.925Y-77.455
T2
X113.39Y-122.94
X113.5Y-74.
X113.5Y-75.
X113.5Y-76.
X113.6Y-125.
X114.1Y-125.5
X114.5Y-74.
X114.5Y-79.
X114.5Y-80.
X114.5Y-81.
X114.6Y-124.
X114.6Y-126.
X115.1Y-124.5
X115.5Y-74.
X115.5Y-75.
X115.5Y-79.
X115.5Y-86.5
X115.6Y-125.
X116.5Y-86.5
X117.5Y-86.5
X118.5Y-85.5
X118.5Y-86.5
X118.73Y-81.99
X122.Y-67.
X123.Y-67.
X124.Y-67.
X124.Y-68.
X124.Y-69.
X125.Y-67.
X125.Y-68.
X125.Y-69.
X125.Y-83.
X125.Y-84.
X125.49Y-78.345
X125.49Y-79.475
X125.5Y-87.5
X125.5Y-88.5
X126.Y-67.
X126.Y-68.
X126.Y-69.
X126.Y-83.
X126.Y-84.
X126.005Y-85.765
X126.21Y-80.285
X126.5Y-79.135
X126.5Y-88.5
X126.53Y-77.925
X127.Y-67.
X127.Y-68.
X127.Y-69.
X127.Y-70.
X127.Y-71.
X127.5Y-88.5
X128.Y-69.
X128.Y-70.
X128.Y-71.
X128.Y-72.
X128.5Y-86.5
X128.5Y-87.5
X128.5Y-88.5
X129.Y-69.
X129.Y-70.
X129.Y-71.
X129.Y-72.
X129.305Y-77.49
X130.23Y-77.49
X130.25Y-78.405
X131.155Y-77.49
X135.Y-78.
X135.Y-79.
X135.Y-80.
X135.Y-81.
X135.Y-82.
X136.Y-78.
X136.Y-82.
X137.Y-78.
X137.Y-82.
X137.475Y-114.975
X137.75Y-112.575
X138.Y-78.
X138.Y-79.
X138.Y-80.
X138.Y-81.
X138.Y-82.
X138.Y-85.
X138.Y-86.
X138.Y-87.
X138.Y-88.
X138.Y-89.
X138.2Y-115.9
X139.Y-85.
X139.Y-89.
X140.Y-85.
X140.Y-89.
X141.Y-73.
X141.Y-76.
X141.Y-85.
X141.Y-86.
X141.Y-87.
X141.Y-88.
X141.Y-89.
X142.Y-73.
X142.Y-76.
X143.Y-73.
X143.Y-76.
X144.Y-73.
X144.Y-76.
X144.Y-100.5
X144.Y-101.5
X144.Y-102.5
X144.Y-103.5
X144.Y-104.5
X145.Y-73.
X145.Y-74.
X145.Y-75.
X145.Y-76.
X145.Y-100.5
X145.Y-103.5
X146.Y-76.
X146.Y-80.5
X146.Y-103.
X146.996Y-77.209
X146.996Y-78.054
X146.996Y-78.9
X146.996Y-79.745
X147.Y-76.
X147.Y-80.5
X147.5Y-95.
X147.5Y-96.
X147.843Y-104.562
X147.843Y-106.287
X148.Y-76.
X148.Y-80.5
X148.25Y-115.25
X148.25Y-116.25
X148.25Y-117.25
X148.25Y-118.25
X148.326Y-77.209
X148.326Y-78.054
X148.326Y-78.9
X148.326Y-79.745
X148.5Y-94.
X148.5Y-95.
X148.5Y-96.
X148.7Y-112.8
X148.705Y-108.925
X149.Y-76.
X149.Y-80.5
X149.25Y-115.25
X149.25Y-116.25
X149.25Y-117.25
X149.25Y-118.25
X149.5Y-93.
X149.5Y-94.
X149.5Y-95.
X149.5Y-96.
X149.567Y-104.562
X149.567Y-106.287
X150.Y-76.
X150.Y-80.5
X150.5Y-82.5
X150.5Y-83.5
X150.5Y-84.5
X150.5Y-85.5
X150.5Y-86.5
X150.5Y-93.
X150.5Y-94.
X150.5Y-95.
X150.5Y-96.
X151.Y-73.
X151.Y-74.
X151.Y-75.
X151.Y-76.
X151.5Y-82.5
X151.5Y-86.5
X151.5Y-94.
X152.Y-73.
X152.Y-76.
X152.5Y-82.5
X152.5Y-86.5
X153.Y-73.
X153.Y-76.
X153.5Y-116.
X153.5Y-117.
X153.5Y-118.
X154.Y-73.
X154.Y-76.
X154.5Y-117.
X154.5Y-118.
X155.Y-73.
X155.Y-74.
X155.Y-75.
X155.Y-76.
X155.5Y-118.
X156.Y-102.
X156.Y-103.
X157.Y-98.
X157.Y-103.
X157.Y-104.
X157.Y-105.
X157.Y-106.
X158.Y-99.
X158.5Y-115.
X158.5Y-116.
X159.Y-100.
X159.Y-101.
X159.Y-102.
X159.Y-103.
X159.Y-105.
X159.Y-106.
X159.Y-107.
X159.5Y-115.
X159.5Y-116.
X160.Y-101.
X160.Y-102.
X160.Y-103.
X160.Y-105.
X160.Y-106.
X160.5Y-115.
X160.5Y-116.
X161.Y-102.
X161.Y-103.
X161.Y-105.
X161.5Y-115.
X161.5Y-116.
X162.5Y-115.
X162.5Y-116.
X163.5Y-100.
X163.5Y-101.
X164.5Y-100.
X164.5Y-101.
X165.Y-108.
X165.Y-109.
X166.Y-108.
X166.Y-109.
X167.Y-108.
X167.Y-109.
X168.Y-79.5
X168.Y-83.5
X169.5Y-72.5
X169.5Y-73.5
X169.5Y-74.5
X170.5Y-72.5
X171.Y-120.
X171.Y-121.
X171.345Y-83.215
X171.5Y-72.5
X171.5Y-73.5
X171.5Y-74.5
X171.655Y-83.845
X172.Y-78.
X172.Y-79.
X172.Y-80.
X172.Y-121.
X172.085Y-83.255
X173.Y-78.
X173.Y-120.
X173.Y-121.
X174.Y-78.
X174.Y-84.
X174.Y-85.
X175.Y-85.
X176.Y-85.
X177.Y-84.
X177.Y-85.
X181.Y-118.
X181.Y-121.
X182.Y-118.
X182.Y-121.
X183.Y-118.
X183.Y-119.
X183.Y-120.
X183.Y-121.
T3
X104.5Y-80.42
X104.5Y-82.96
X104.58Y-63.92
X104.58Y-66.46
X107.08Y-97.58
X107.08Y-100.12
X107.08Y-114.295
X107.08Y-116.835
X161.38Y-56.58
X163.92Y-56.58
X177.92Y-106.84
X177.92Y-109.38
X178.38Y-56.58
X180.92Y-56.58
T4
X124.57Y-123.425
X124.57Y-125.965
X127.11Y-123.425
X127.11Y-125.965
X129.65Y-123.425
X129.65Y-125.965
X132.19Y-123.425
X132.19Y-125.965
X134.73Y-123.425
X134.73Y-125.965
X137.27Y-123.425
X137.27Y-125.965
X139.81Y-123.425
X139.81Y-125.965
X142.35Y-123.425
X142.35Y-125.965
X144.89Y-123.425
X144.89Y-125.965
X147.43Y-123.425
X147.43Y-125.965
X149.97Y-123.425
X149.97Y-125.965
X152.51Y-123.425
X152.51Y-125.965
X155.05Y-123.425
X155.05Y-125.965
X157.59Y-123.425
X157.59Y-125.965
X160.13Y-123.425
X160.13Y-125.965
X162.67Y-123.425
X162.67Y-125.965
X165.21Y-123.425
X165.21Y-125.965
X167.75Y-123.425
X167.75Y-125.965
X170.29Y-123.425
X170.29Y-125.965
X172.83Y-123.425
X172.83Y-125.965
T5
X113.975Y-52.4
X121.475Y-52.4
X128.975Y-52.4
X136.475Y-52.4
X144.13Y-52.4
X151.63Y-52.4
X185.5Y-74.91
X185.5Y-82.41
X185.5Y-89.91
X185.5Y-97.41
T6
X121.325Y-88.45
T7
X99.Y-126.
X100.Y-52.5
X186.Y-65.825
X186.Y-124.
T0
M30
