G04 #@! TF.FileFunction,Legend,Top*
%FSLAX46Y46*%
G04 Gerber Fmt 4.6, Leading zero omitted, Abs format (unit mm)*
G04 Created by KiCad (PCBNEW (2016-10-09 revision 6d27087)-master) date 2016 November 17, Thursday 15:53:54*
%MOMM*%
%LPD*%
G01*
G04 APERTURE LIST*
%ADD10C,0.100000*%
%ADD11C,0.250000*%
%ADD12C,0.300000*%
%ADD13C,0.200000*%
%ADD14C,0.150000*%
%ADD15C,0.120000*%
%ADD16C,0.119380*%
G04 APERTURE END LIST*
D10*
D11*
X119342857Y-57342857D02*
X119571428Y-57342857D01*
X119685714Y-57400000D01*
X119800000Y-57514285D01*
X119857142Y-57742857D01*
X119857142Y-58142857D01*
X119800000Y-58371428D01*
X119685714Y-58485714D01*
X119571428Y-58542857D01*
X119342857Y-58542857D01*
X119228571Y-58485714D01*
X119114285Y-58371428D01*
X119057142Y-58142857D01*
X119057142Y-57742857D01*
X119114285Y-57514285D01*
X119228571Y-57400000D01*
X119342857Y-57342857D01*
X120371428Y-58085714D02*
X121285714Y-58085714D01*
X120828571Y-58542857D02*
X120828571Y-57628571D01*
X123000000Y-57342857D02*
X123228571Y-57342857D01*
X123342857Y-57400000D01*
X123457142Y-57514285D01*
X123514285Y-57742857D01*
X123514285Y-58142857D01*
X123457142Y-58371428D01*
X123342857Y-58485714D01*
X123228571Y-58542857D01*
X123000000Y-58542857D01*
X122885714Y-58485714D01*
X122771428Y-58371428D01*
X122714285Y-58142857D01*
X122714285Y-57742857D01*
X122771428Y-57514285D01*
X122885714Y-57400000D01*
X123000000Y-57342857D01*
X124028571Y-58085714D02*
X124942857Y-58085714D01*
X126428571Y-58542857D02*
X126428571Y-57342857D01*
X127000000Y-58085714D02*
X127914285Y-58085714D01*
X129400000Y-58542857D02*
X129400000Y-57342857D01*
X129971428Y-58085714D02*
X130885714Y-58085714D01*
X130428571Y-58542857D02*
X130428571Y-57628571D01*
D12*
X168446428Y-109139285D02*
X169946428Y-109139285D01*
X168446428Y-109853571D02*
X169946428Y-109853571D01*
X168446428Y-110710714D01*
X169946428Y-110710714D01*
X171410000Y-71218571D02*
X171695714Y-71218571D01*
X171838571Y-71290000D01*
X171981428Y-71432857D01*
X172052857Y-71718571D01*
X172052857Y-72218571D01*
X171981428Y-72504285D01*
X171838571Y-72647142D01*
X171695714Y-72718571D01*
X171410000Y-72718571D01*
X171267142Y-72647142D01*
X171124285Y-72504285D01*
X171052857Y-72218571D01*
X171052857Y-71718571D01*
X171124285Y-71432857D01*
X171267142Y-71290000D01*
X171410000Y-71218571D01*
X172695714Y-71218571D02*
X172695714Y-72432857D01*
X172767142Y-72575714D01*
X172838571Y-72647142D01*
X172981428Y-72718571D01*
X173267142Y-72718571D01*
X173410000Y-72647142D01*
X173481428Y-72575714D01*
X173552857Y-72432857D01*
X173552857Y-71218571D01*
X174052857Y-71218571D02*
X174910000Y-71218571D01*
X174481428Y-72718571D02*
X174481428Y-71218571D01*
X165384285Y-72668571D02*
X165384285Y-71168571D01*
X166098571Y-72668571D02*
X166098571Y-71168571D01*
X166955714Y-72668571D01*
X166955714Y-71168571D01*
X151170000Y-61392857D02*
X151098571Y-61535714D01*
X151098571Y-61750000D01*
X151170000Y-61964285D01*
X151312857Y-62107142D01*
X151455714Y-62178571D01*
X151741428Y-62250000D01*
X151955714Y-62250000D01*
X152241428Y-62178571D01*
X152384285Y-62107142D01*
X152527142Y-61964285D01*
X152598571Y-61750000D01*
X152598571Y-61607142D01*
X152527142Y-61392857D01*
X152455714Y-61321428D01*
X151955714Y-61321428D01*
X151955714Y-61607142D01*
X152598571Y-60678571D02*
X151098571Y-60678571D01*
X152598571Y-59821428D01*
X151098571Y-59821428D01*
X152598571Y-59107142D02*
X151098571Y-59107142D01*
X151098571Y-58750000D01*
X151170000Y-58535714D01*
X151312857Y-58392857D01*
X151455714Y-58321428D01*
X151741428Y-58250000D01*
X151955714Y-58250000D01*
X152241428Y-58321428D01*
X152384285Y-58392857D01*
X152527142Y-58535714D01*
X152598571Y-58750000D01*
X152598571Y-59107142D01*
X143398571Y-59725714D02*
X143398571Y-60440000D01*
X144112857Y-60511428D01*
X144041428Y-60440000D01*
X143970000Y-60297142D01*
X143970000Y-59940000D01*
X144041428Y-59797142D01*
X144112857Y-59725714D01*
X144255714Y-59654285D01*
X144612857Y-59654285D01*
X144755714Y-59725714D01*
X144827142Y-59797142D01*
X144898571Y-59940000D01*
X144898571Y-60297142D01*
X144827142Y-60440000D01*
X144755714Y-60511428D01*
X143398571Y-59225714D02*
X144898571Y-58725714D01*
X143398571Y-58225714D01*
X121253571Y-63950000D02*
X121253571Y-63664285D01*
X121325000Y-63521428D01*
X121467857Y-63378571D01*
X121753571Y-63307142D01*
X122253571Y-63307142D01*
X122539285Y-63378571D01*
X122682142Y-63521428D01*
X122753571Y-63664285D01*
X122753571Y-63950000D01*
X122682142Y-64092857D01*
X122539285Y-64235714D01*
X122253571Y-64307142D01*
X121753571Y-64307142D01*
X121467857Y-64235714D01*
X121325000Y-64092857D01*
X121253571Y-63950000D01*
X121253571Y-62664285D02*
X122467857Y-62664285D01*
X122610714Y-62592857D01*
X122682142Y-62521428D01*
X122753571Y-62378571D01*
X122753571Y-62092857D01*
X122682142Y-61950000D01*
X122610714Y-61878571D01*
X122467857Y-61807142D01*
X121253571Y-61807142D01*
X121253571Y-61307142D02*
X121253571Y-60450000D01*
X122753571Y-60878571D02*
X121253571Y-60878571D01*
X112378571Y-78765714D02*
X110878571Y-78765714D01*
X112378571Y-78051428D02*
X110878571Y-78051428D01*
X112378571Y-77194285D01*
X110878571Y-77194285D01*
X110678571Y-95710000D02*
X110678571Y-95424285D01*
X110750000Y-95281428D01*
X110892857Y-95138571D01*
X111178571Y-95067142D01*
X111678571Y-95067142D01*
X111964285Y-95138571D01*
X112107142Y-95281428D01*
X112178571Y-95424285D01*
X112178571Y-95710000D01*
X112107142Y-95852857D01*
X111964285Y-95995714D01*
X111678571Y-96067142D01*
X111178571Y-96067142D01*
X110892857Y-95995714D01*
X110750000Y-95852857D01*
X110678571Y-95710000D01*
X110678571Y-94424285D02*
X111892857Y-94424285D01*
X112035714Y-94352857D01*
X112107142Y-94281428D01*
X112178571Y-94138571D01*
X112178571Y-93852857D01*
X112107142Y-93710000D01*
X112035714Y-93638571D01*
X111892857Y-93567142D01*
X110678571Y-93567142D01*
X110678571Y-93067142D02*
X110678571Y-92210000D01*
X112178571Y-92638571D02*
X110678571Y-92638571D01*
X88678571Y-124285714D02*
X87178571Y-124285714D01*
X88678571Y-123571428D02*
X87178571Y-123571428D01*
X88678571Y-122714285D01*
X87178571Y-122714285D01*
X137107142Y-72678571D02*
X137107142Y-71178571D01*
X137678571Y-71178571D01*
X137821428Y-71250000D01*
X137892857Y-71321428D01*
X137964285Y-71464285D01*
X137964285Y-71678571D01*
X137892857Y-71821428D01*
X137821428Y-71892857D01*
X137678571Y-71964285D01*
X137107142Y-71964285D01*
X138535714Y-72607142D02*
X138750000Y-72678571D01*
X139107142Y-72678571D01*
X139250000Y-72607142D01*
X139321428Y-72535714D01*
X139392857Y-72392857D01*
X139392857Y-72250000D01*
X139321428Y-72107142D01*
X139250000Y-72035714D01*
X139107142Y-71964285D01*
X138821428Y-71892857D01*
X138678571Y-71821428D01*
X138607142Y-71750000D01*
X138535714Y-71607142D01*
X138535714Y-71464285D01*
X138607142Y-71321428D01*
X138678571Y-71250000D01*
X138821428Y-71178571D01*
X139178571Y-71178571D01*
X139392857Y-71250000D01*
X140035714Y-71178571D02*
X140035714Y-72392857D01*
X140107142Y-72535714D01*
X140178571Y-72607142D01*
X140321428Y-72678571D01*
X140607142Y-72678571D01*
X140750000Y-72607142D01*
X140821428Y-72535714D01*
X140892857Y-72392857D01*
X140892857Y-71178571D01*
D13*
X158000000Y-70000000D02*
X136000000Y-70000000D01*
X158000000Y-90000000D02*
X158000000Y-70000000D01*
X136000000Y-90000000D02*
X158000000Y-90000000D01*
X136000000Y-70000000D02*
X136000000Y-90000000D01*
D12*
X133064285Y-120403571D02*
X132350000Y-120403571D01*
X132350000Y-118903571D01*
X133564285Y-120403571D02*
X133564285Y-118903571D01*
X134135714Y-118903571D01*
X134278571Y-118975000D01*
X134350000Y-119046428D01*
X134421428Y-119189285D01*
X134421428Y-119403571D01*
X134350000Y-119546428D01*
X134278571Y-119617857D01*
X134135714Y-119689285D01*
X133564285Y-119689285D01*
X141142857Y-93250000D02*
X141857142Y-93250000D01*
X141000000Y-93678571D02*
X141500000Y-92178571D01*
X142000000Y-93678571D01*
X142500000Y-93678571D02*
X142500000Y-92178571D01*
X142857142Y-92178571D01*
X143071428Y-92250000D01*
X143214285Y-92392857D01*
X143285714Y-92535714D01*
X143357142Y-92821428D01*
X143357142Y-93035714D01*
X143285714Y-93321428D01*
X143214285Y-93464285D01*
X143071428Y-93607142D01*
X142857142Y-93678571D01*
X142500000Y-93678571D01*
X144857142Y-93535714D02*
X144785714Y-93607142D01*
X144571428Y-93678571D01*
X144428571Y-93678571D01*
X144214285Y-93607142D01*
X144071428Y-93464285D01*
X144000000Y-93321428D01*
X143928571Y-93035714D01*
X143928571Y-92821428D01*
X144000000Y-92535714D01*
X144071428Y-92392857D01*
X144214285Y-92250000D01*
X144428571Y-92178571D01*
X144571428Y-92178571D01*
X144785714Y-92250000D01*
X144857142Y-92321428D01*
X130607142Y-60178571D02*
X131107142Y-61678571D01*
X131607142Y-60178571D01*
X132892857Y-60250000D02*
X132750000Y-60178571D01*
X132535714Y-60178571D01*
X132321428Y-60250000D01*
X132178571Y-60392857D01*
X132107142Y-60535714D01*
X132035714Y-60821428D01*
X132035714Y-61035714D01*
X132107142Y-61321428D01*
X132178571Y-61464285D01*
X132321428Y-61607142D01*
X132535714Y-61678571D01*
X132678571Y-61678571D01*
X132892857Y-61607142D01*
X132964285Y-61535714D01*
X132964285Y-61035714D01*
X132678571Y-61035714D01*
X133535714Y-61250000D02*
X134250000Y-61250000D01*
X133392857Y-61678571D02*
X133892857Y-60178571D01*
X134392857Y-61678571D01*
X160571428Y-86178571D02*
X159857142Y-86178571D01*
X159857142Y-84678571D01*
X161857142Y-84750000D02*
X161714285Y-84678571D01*
X161500000Y-84678571D01*
X161285714Y-84750000D01*
X161142857Y-84892857D01*
X161071428Y-85035714D01*
X161000000Y-85321428D01*
X161000000Y-85535714D01*
X161071428Y-85821428D01*
X161142857Y-85964285D01*
X161285714Y-86107142D01*
X161500000Y-86178571D01*
X161642857Y-86178571D01*
X161857142Y-86107142D01*
X161928571Y-86035714D01*
X161928571Y-85535714D01*
X161642857Y-85535714D01*
X162500000Y-85750000D02*
X163214285Y-85750000D01*
X162357142Y-86178571D02*
X162857142Y-84678571D01*
X163357142Y-86178571D01*
D13*
X158500000Y-90000000D02*
X158500000Y-70500000D01*
X158500000Y-70500000D02*
X181000000Y-70500000D01*
X138500000Y-116500000D02*
X138500000Y-90500000D01*
X170500000Y-116500000D02*
X138500000Y-116500000D01*
X170500000Y-90500000D02*
X170500000Y-116500000D01*
X138500000Y-90500000D02*
X170500000Y-90500000D01*
X135000000Y-91500000D02*
X110000000Y-91500000D01*
X135000000Y-121500000D02*
X135000000Y-91500000D01*
X110000000Y-121500000D02*
X135000000Y-121500000D01*
X110000000Y-91500000D02*
X110000000Y-121500000D01*
X110000000Y-91000000D02*
X110000000Y-59500000D01*
X135000000Y-91000000D02*
X110000000Y-91000000D01*
X135000000Y-59500000D02*
X135000000Y-91000000D01*
X110000000Y-59500000D02*
X135000000Y-59500000D01*
X170695000Y-83745000D02*
X169485000Y-84375000D01*
X118770000Y-71260000D02*
X119280000Y-70800000D01*
X123590000Y-69270000D02*
X122350000Y-70040000D01*
D14*
X151330000Y-108050000D02*
X151330000Y-107525000D01*
X146080000Y-108050000D02*
X146080000Y-107525000D01*
X146080000Y-102800000D02*
X146080000Y-103325000D01*
X151330000Y-102800000D02*
X151330000Y-103325000D01*
X146080000Y-108050000D02*
X146605000Y-108050000D01*
X146080000Y-102800000D02*
X146605000Y-102800000D01*
X151330000Y-108050000D02*
X150805000Y-108050000D01*
X116105000Y-118215000D02*
X116805000Y-118215000D01*
X116805000Y-119415000D02*
X116105000Y-119415000D01*
X143248500Y-80347000D02*
X142548500Y-80347000D01*
X142548500Y-79147000D02*
X143248500Y-79147000D01*
X125280000Y-117540000D02*
X124580000Y-117540000D01*
X124580000Y-116340000D02*
X125280000Y-116340000D01*
X131700000Y-101050000D02*
X131000000Y-101050000D01*
X131000000Y-99850000D02*
X131700000Y-99850000D01*
X117255000Y-95415000D02*
X117955000Y-95415000D01*
X117955000Y-96615000D02*
X117255000Y-96615000D01*
X163405000Y-114080000D02*
X162705000Y-114080000D01*
X162705000Y-112880000D02*
X163405000Y-112880000D01*
X115680000Y-104290000D02*
X114980000Y-104290000D01*
X114980000Y-103090000D02*
X115680000Y-103090000D01*
X160180000Y-114680000D02*
X159480000Y-114680000D01*
X159480000Y-113480000D02*
X160180000Y-113480000D01*
X154350000Y-103550000D02*
X153650000Y-103550000D01*
X153650000Y-102350000D02*
X154350000Y-102350000D01*
X146255000Y-102325000D02*
X145555000Y-102325000D01*
X145555000Y-101125000D02*
X146255000Y-101125000D01*
X149305000Y-109325000D02*
X149305000Y-110025000D01*
X148105000Y-110025000D02*
X148105000Y-109325000D01*
X160505000Y-92850000D02*
X161205000Y-92850000D01*
X161205000Y-94050000D02*
X160505000Y-94050000D01*
X161200000Y-95550000D02*
X160500000Y-95550000D01*
X160500000Y-94350000D02*
X161200000Y-94350000D01*
X159205000Y-93850000D02*
X159205000Y-94550000D01*
X158005000Y-94550000D02*
X158005000Y-93850000D01*
X151705000Y-97800000D02*
X151005000Y-97800000D01*
X151005000Y-96600000D02*
X151705000Y-96600000D01*
X171335000Y-119640000D02*
X171335000Y-118940000D01*
X172535000Y-118940000D02*
X172535000Y-119640000D01*
X157255000Y-100775000D02*
X156555000Y-100775000D01*
X156555000Y-99575000D02*
X157255000Y-99575000D01*
X154555000Y-103775000D02*
X155255000Y-103775000D01*
X155255000Y-104975000D02*
X154555000Y-104975000D01*
X149555000Y-97675000D02*
X149555000Y-98375000D01*
X148355000Y-98375000D02*
X148355000Y-97675000D01*
X147855000Y-99675000D02*
X148555000Y-99675000D01*
X148555000Y-100875000D02*
X147855000Y-100875000D01*
X146855000Y-98375000D02*
X146855000Y-97675000D01*
X148055000Y-97675000D02*
X148055000Y-98375000D01*
X117435700Y-125830000D02*
X117185700Y-125580000D01*
X117435700Y-125330000D02*
X117435700Y-125830000D01*
X117185700Y-125580000D02*
X117435700Y-125330000D01*
X117185700Y-125330000D02*
X117185700Y-125830000D01*
X117235700Y-125580000D02*
X117685700Y-125580000D01*
X116335700Y-125030000D02*
X118235700Y-125030000D01*
X116335700Y-126130000D02*
X118235700Y-126130000D01*
X116355000Y-124460000D02*
X118255000Y-124460000D01*
X116355000Y-123360000D02*
X118255000Y-123360000D01*
X117255000Y-123910000D02*
X117705000Y-123910000D01*
X117205000Y-123660000D02*
X117205000Y-124160000D01*
X117205000Y-123910000D02*
X117455000Y-123660000D01*
X117455000Y-123660000D02*
X117455000Y-124160000D01*
X117455000Y-124160000D02*
X117205000Y-123910000D01*
X159230000Y-111355000D02*
G75*
G03X159230000Y-111355000I-50000J0D01*
G01*
X157380000Y-111055000D02*
X157380000Y-111955000D01*
X159480000Y-111055000D02*
X159480000Y-111955000D01*
X157380000Y-111955000D02*
X159480000Y-111955000D01*
X157380000Y-111055000D02*
X159480000Y-111055000D01*
X174100000Y-127489000D02*
X174100000Y-130029000D01*
X174100000Y-127489000D02*
X171560000Y-127489000D01*
X171560000Y-127489000D02*
X171560000Y-130029000D01*
X173084000Y-130029000D02*
X173084000Y-136125000D01*
X173084000Y-136125000D02*
X172576000Y-136125000D01*
X172576000Y-136125000D02*
X172576000Y-130029000D01*
X171560000Y-130029000D02*
X174100000Y-130029000D01*
X169020000Y-130029000D02*
X171560000Y-130029000D01*
X170036000Y-136125000D02*
X170036000Y-130029000D01*
X170544000Y-136125000D02*
X170036000Y-136125000D01*
X170544000Y-130029000D02*
X170544000Y-136125000D01*
X169020000Y-127489000D02*
X169020000Y-130029000D01*
X171560000Y-127489000D02*
X169020000Y-127489000D01*
X171560000Y-127489000D02*
X171560000Y-130029000D01*
X166480000Y-127489000D02*
X166480000Y-130029000D01*
X166480000Y-127489000D02*
X163940000Y-127489000D01*
X163940000Y-127489000D02*
X163940000Y-130029000D01*
X165464000Y-130029000D02*
X165464000Y-136125000D01*
X165464000Y-136125000D02*
X164956000Y-136125000D01*
X164956000Y-136125000D02*
X164956000Y-130029000D01*
X163940000Y-130029000D02*
X166480000Y-130029000D01*
X166480000Y-130029000D02*
X169020000Y-130029000D01*
X167496000Y-136125000D02*
X167496000Y-130029000D01*
X168004000Y-136125000D02*
X167496000Y-136125000D01*
X168004000Y-130029000D02*
X168004000Y-136125000D01*
X166480000Y-127489000D02*
X166480000Y-130029000D01*
X169020000Y-127489000D02*
X166480000Y-127489000D01*
X169020000Y-127489000D02*
X169020000Y-130029000D01*
X158860000Y-127489000D02*
X158860000Y-130029000D01*
X158860000Y-127489000D02*
X156320000Y-127489000D01*
X156320000Y-127489000D02*
X156320000Y-130029000D01*
X157844000Y-130029000D02*
X157844000Y-136125000D01*
X157844000Y-136125000D02*
X157336000Y-136125000D01*
X157336000Y-136125000D02*
X157336000Y-130029000D01*
X156320000Y-130029000D02*
X158860000Y-130029000D01*
X153780000Y-130029000D02*
X156320000Y-130029000D01*
X154796000Y-136125000D02*
X154796000Y-130029000D01*
X155304000Y-136125000D02*
X154796000Y-136125000D01*
X155304000Y-130029000D02*
X155304000Y-136125000D01*
X153780000Y-127489000D02*
X153780000Y-130029000D01*
X156320000Y-127489000D02*
X153780000Y-127489000D01*
X156320000Y-127489000D02*
X156320000Y-130029000D01*
X161400000Y-127489000D02*
X161400000Y-130029000D01*
X161400000Y-127489000D02*
X158860000Y-127489000D01*
X158860000Y-127489000D02*
X158860000Y-130029000D01*
X160384000Y-130029000D02*
X160384000Y-136125000D01*
X160384000Y-136125000D02*
X159876000Y-136125000D01*
X159876000Y-136125000D02*
X159876000Y-130029000D01*
X158860000Y-130029000D02*
X161400000Y-130029000D01*
X161400000Y-130029000D02*
X163940000Y-130029000D01*
X162416000Y-136125000D02*
X162416000Y-130029000D01*
X162924000Y-136125000D02*
X162416000Y-136125000D01*
X162924000Y-130029000D02*
X162924000Y-136125000D01*
X161400000Y-127489000D02*
X161400000Y-130029000D01*
X163940000Y-127489000D02*
X161400000Y-127489000D01*
X163940000Y-127489000D02*
X163940000Y-130029000D01*
X143620000Y-127489000D02*
X143620000Y-130029000D01*
X143620000Y-127489000D02*
X141080000Y-127489000D01*
X141080000Y-127489000D02*
X141080000Y-130029000D01*
X142604000Y-130029000D02*
X142604000Y-136125000D01*
X142604000Y-136125000D02*
X142096000Y-136125000D01*
X142096000Y-136125000D02*
X142096000Y-130029000D01*
X141080000Y-130029000D02*
X143620000Y-130029000D01*
X138540000Y-130029000D02*
X141080000Y-130029000D01*
X139556000Y-136125000D02*
X139556000Y-130029000D01*
X140064000Y-136125000D02*
X139556000Y-136125000D01*
X140064000Y-130029000D02*
X140064000Y-136125000D01*
X138540000Y-127489000D02*
X138540000Y-130029000D01*
X141080000Y-127489000D02*
X138540000Y-127489000D01*
X141080000Y-127489000D02*
X141080000Y-130029000D01*
X136000000Y-127489000D02*
X136000000Y-130029000D01*
X136000000Y-127489000D02*
X133460000Y-127489000D01*
X133460000Y-127489000D02*
X133460000Y-130029000D01*
X134984000Y-130029000D02*
X134984000Y-136125000D01*
X134984000Y-136125000D02*
X134476000Y-136125000D01*
X134476000Y-136125000D02*
X134476000Y-130029000D01*
X133460000Y-130029000D02*
X136000000Y-130029000D01*
X136000000Y-130029000D02*
X138540000Y-130029000D01*
X137016000Y-136125000D02*
X137016000Y-130029000D01*
X137524000Y-136125000D02*
X137016000Y-136125000D01*
X137524000Y-130029000D02*
X137524000Y-136125000D01*
X136000000Y-127489000D02*
X136000000Y-130029000D01*
X138540000Y-127489000D02*
X136000000Y-127489000D01*
X138540000Y-127489000D02*
X138540000Y-130029000D01*
X148700000Y-127489000D02*
X148700000Y-130029000D01*
X148700000Y-127489000D02*
X146160000Y-127489000D01*
X146160000Y-127489000D02*
X146160000Y-130029000D01*
X147684000Y-130029000D02*
X147684000Y-136125000D01*
X147684000Y-136125000D02*
X147176000Y-136125000D01*
X147176000Y-136125000D02*
X147176000Y-130029000D01*
X146160000Y-130029000D02*
X148700000Y-130029000D01*
X143620000Y-130029000D02*
X146160000Y-130029000D01*
X144636000Y-136125000D02*
X144636000Y-130029000D01*
X145144000Y-136125000D02*
X144636000Y-136125000D01*
X145144000Y-130029000D02*
X145144000Y-136125000D01*
X143620000Y-127489000D02*
X143620000Y-130029000D01*
X146160000Y-127489000D02*
X143620000Y-127489000D01*
X146160000Y-127489000D02*
X146160000Y-130029000D01*
X151240000Y-127489000D02*
X151240000Y-130029000D01*
X151240000Y-127489000D02*
X148700000Y-127489000D01*
X148700000Y-127489000D02*
X148700000Y-130029000D01*
X150224000Y-130029000D02*
X150224000Y-136125000D01*
X150224000Y-136125000D02*
X149716000Y-136125000D01*
X149716000Y-136125000D02*
X149716000Y-130029000D01*
X148700000Y-130029000D02*
X151240000Y-130029000D01*
X151240000Y-130029000D02*
X153780000Y-130029000D01*
X152256000Y-136125000D02*
X152256000Y-130029000D01*
X152764000Y-136125000D02*
X152256000Y-136125000D01*
X152764000Y-130029000D02*
X152764000Y-136125000D01*
X151240000Y-127489000D02*
X151240000Y-130029000D01*
X153780000Y-127489000D02*
X151240000Y-127489000D01*
X153780000Y-127489000D02*
X153780000Y-130029000D01*
X123300000Y-127489000D02*
X123300000Y-130029000D01*
X128380000Y-127489000D02*
X128380000Y-130029000D01*
X128380000Y-127489000D02*
X125840000Y-127489000D01*
X125840000Y-127489000D02*
X125840000Y-130029000D01*
X127364000Y-130029000D02*
X127364000Y-136125000D01*
X127364000Y-136125000D02*
X126856000Y-136125000D01*
X126856000Y-136125000D02*
X126856000Y-130029000D01*
X125840000Y-130029000D02*
X128380000Y-130029000D01*
X123300000Y-130029000D02*
X125840000Y-130029000D01*
X124316000Y-136125000D02*
X124316000Y-130029000D01*
X124824000Y-136125000D02*
X124316000Y-136125000D01*
X124824000Y-130029000D02*
X124824000Y-136125000D01*
X125840000Y-127489000D02*
X123300000Y-127489000D01*
X125840000Y-127489000D02*
X125840000Y-130029000D01*
X130920000Y-127489000D02*
X130920000Y-130029000D01*
X130920000Y-127489000D02*
X128380000Y-127489000D01*
X128380000Y-127489000D02*
X128380000Y-130029000D01*
X129904000Y-130029000D02*
X129904000Y-136125000D01*
X129904000Y-136125000D02*
X129396000Y-136125000D01*
X129396000Y-136125000D02*
X129396000Y-130029000D01*
X128380000Y-130029000D02*
X130920000Y-130029000D01*
X130920000Y-130029000D02*
X133460000Y-130029000D01*
X131936000Y-136125000D02*
X131936000Y-130029000D01*
X132444000Y-136125000D02*
X131936000Y-136125000D01*
X132444000Y-130029000D02*
X132444000Y-136125000D01*
X130920000Y-127489000D02*
X130920000Y-130029000D01*
X133460000Y-127489000D02*
X130920000Y-127489000D01*
X133460000Y-127489000D02*
X133460000Y-130029000D01*
X172830000Y-130156000D02*
X172830000Y-135998000D01*
X172703000Y-130156000D02*
X172830000Y-130156000D01*
X172703000Y-135998000D02*
X172703000Y-130156000D01*
X172957000Y-135998000D02*
X172703000Y-135998000D01*
X172957000Y-130029000D02*
X172957000Y-135998000D01*
X174380000Y-122275000D02*
X172830000Y-122275000D01*
X174380000Y-123425000D02*
X174380000Y-122275000D01*
X168004000Y-127489000D02*
X168004000Y-126981000D01*
X167496000Y-127489000D02*
X167496000Y-126981000D01*
X165464000Y-127489000D02*
X165464000Y-126981000D01*
X164956000Y-127489000D02*
X164956000Y-126981000D01*
X170036000Y-127489000D02*
X170036000Y-126981000D01*
X170544000Y-127489000D02*
X170544000Y-126981000D01*
X172576000Y-127489000D02*
X172576000Y-126981000D01*
X173084000Y-127489000D02*
X173084000Y-126981000D01*
X162924000Y-127489000D02*
X162924000Y-126981000D01*
X162416000Y-127489000D02*
X162416000Y-126981000D01*
X160384000Y-127489000D02*
X160384000Y-126981000D01*
X159876000Y-127489000D02*
X159876000Y-126981000D01*
X154796000Y-127489000D02*
X154796000Y-126981000D01*
X155304000Y-127489000D02*
X155304000Y-126981000D01*
X157336000Y-127489000D02*
X157336000Y-126981000D01*
X157844000Y-127489000D02*
X157844000Y-126981000D01*
X137524000Y-127489000D02*
X137524000Y-126981000D01*
X137016000Y-127489000D02*
X137016000Y-126981000D01*
X134984000Y-127489000D02*
X134984000Y-126981000D01*
X134476000Y-127489000D02*
X134476000Y-126981000D01*
X139556000Y-127489000D02*
X139556000Y-126981000D01*
X140064000Y-127489000D02*
X140064000Y-126981000D01*
X142096000Y-127489000D02*
X142096000Y-126981000D01*
X142604000Y-127489000D02*
X142604000Y-126981000D01*
X152764000Y-127489000D02*
X152764000Y-126981000D01*
X152256000Y-127489000D02*
X152256000Y-126981000D01*
X150224000Y-127489000D02*
X150224000Y-126981000D01*
X149716000Y-127489000D02*
X149716000Y-126981000D01*
X144636000Y-127489000D02*
X144636000Y-126981000D01*
X145144000Y-127489000D02*
X145144000Y-126981000D01*
X147176000Y-127489000D02*
X147176000Y-126981000D01*
X147684000Y-127489000D02*
X147684000Y-126981000D01*
X132444000Y-127489000D02*
X132444000Y-126981000D01*
X131936000Y-127489000D02*
X131936000Y-126981000D01*
X129904000Y-127489000D02*
X129904000Y-126981000D01*
X129396000Y-127489000D02*
X129396000Y-126981000D01*
X124316000Y-127489000D02*
X124316000Y-126981000D01*
X124824000Y-127489000D02*
X124824000Y-126981000D01*
X126856000Y-127489000D02*
X126856000Y-126981000D01*
X127364000Y-127489000D02*
X127364000Y-126981000D01*
X152764000Y-124949000D02*
X152764000Y-124441000D01*
X152256000Y-124949000D02*
X152256000Y-124441000D01*
X150224000Y-124949000D02*
X150224000Y-124441000D01*
X149716000Y-124949000D02*
X149716000Y-124441000D01*
X154796000Y-124949000D02*
X154796000Y-124441000D01*
X155304000Y-124949000D02*
X155304000Y-124441000D01*
X157336000Y-124949000D02*
X157336000Y-124441000D01*
X157844000Y-124949000D02*
X157844000Y-124441000D01*
X147684000Y-124949000D02*
X147684000Y-124441000D01*
X147176000Y-124949000D02*
X147176000Y-124441000D01*
X145144000Y-124949000D02*
X145144000Y-124441000D01*
X144636000Y-124949000D02*
X144636000Y-124441000D01*
X139556000Y-124949000D02*
X139556000Y-124441000D01*
X140064000Y-124949000D02*
X140064000Y-124441000D01*
X142096000Y-124949000D02*
X142096000Y-124441000D01*
X142604000Y-124949000D02*
X142604000Y-124441000D01*
X124316000Y-124949000D02*
X124316000Y-124441000D01*
X124824000Y-124949000D02*
X124824000Y-124441000D01*
X126856000Y-124949000D02*
X126856000Y-124441000D01*
X127364000Y-124949000D02*
X127364000Y-124441000D01*
X137524000Y-124949000D02*
X137524000Y-124441000D01*
X137016000Y-124949000D02*
X137016000Y-124441000D01*
X134984000Y-124949000D02*
X134984000Y-124441000D01*
X134476000Y-124949000D02*
X134476000Y-124441000D01*
X129396000Y-124949000D02*
X129396000Y-124441000D01*
X129904000Y-124949000D02*
X129904000Y-124441000D01*
X131936000Y-124949000D02*
X131936000Y-124441000D01*
X132444000Y-124949000D02*
X132444000Y-124441000D01*
X173084000Y-124949000D02*
X173084000Y-124441000D01*
X172576000Y-124949000D02*
X172576000Y-124441000D01*
X170544000Y-124949000D02*
X170544000Y-124441000D01*
X170036000Y-124949000D02*
X170036000Y-124441000D01*
X168004000Y-124949000D02*
X168004000Y-124441000D01*
X167496000Y-124949000D02*
X167496000Y-124441000D01*
X165464000Y-124949000D02*
X165464000Y-124441000D01*
X164956000Y-124949000D02*
X164956000Y-124441000D01*
X159876000Y-124949000D02*
X159876000Y-124441000D01*
X160384000Y-124949000D02*
X160384000Y-124441000D01*
X162416000Y-124949000D02*
X162416000Y-124441000D01*
X162924000Y-124949000D02*
X162924000Y-124441000D01*
X112980000Y-114065000D02*
X112980000Y-112865000D01*
X121980000Y-116065000D02*
X121980000Y-117265000D01*
X112980000Y-112865000D02*
X120130000Y-112865000D01*
X121980000Y-117265000D02*
X114830000Y-117265000D01*
X123680000Y-110490000D02*
X123680000Y-109290000D01*
X132680000Y-112490000D02*
X132680000Y-113690000D01*
X123680000Y-109290000D02*
X130830000Y-109290000D01*
X132680000Y-113690000D02*
X125530000Y-113690000D01*
X122680000Y-94065000D02*
X129830000Y-94065000D01*
X131680000Y-98465000D02*
X124530000Y-98465000D01*
X122680000Y-95265000D02*
X122680000Y-94065000D01*
X131680000Y-97265000D02*
X131680000Y-98465000D01*
X112005000Y-97665000D02*
X119155000Y-97665000D01*
X121005000Y-102065000D02*
X113855000Y-102065000D01*
X112005000Y-98865000D02*
X112005000Y-97665000D01*
X121005000Y-100865000D02*
X121005000Y-102065000D01*
X163555000Y-105905000D02*
X162555000Y-105905000D01*
X162555000Y-104555000D02*
X163555000Y-104555000D01*
X164475000Y-102475000D02*
X164475000Y-103475000D01*
X163125000Y-103475000D02*
X163125000Y-102475000D01*
X151431000Y-80616000D02*
X151431000Y-79616000D01*
X152781000Y-79616000D02*
X152781000Y-80616000D01*
X154876500Y-79628000D02*
X154876500Y-80628000D01*
X153526500Y-80628000D02*
X153526500Y-79628000D01*
X119745000Y-124905000D02*
X120745000Y-124905000D01*
X120745000Y-126255000D02*
X119745000Y-126255000D01*
X120745000Y-124585000D02*
X119745000Y-124585000D01*
X119745000Y-123235000D02*
X120745000Y-123235000D01*
X169975000Y-119215000D02*
X168975000Y-119215000D01*
X168975000Y-117865000D02*
X169975000Y-117865000D01*
X150855000Y-98125000D02*
X151855000Y-98125000D01*
X151855000Y-99475000D02*
X150855000Y-99475000D01*
X156830000Y-97525000D02*
X156830000Y-98525000D01*
X155480000Y-98525000D02*
X155480000Y-97525000D01*
X155180000Y-97525000D02*
X155180000Y-98525000D01*
X153830000Y-98525000D02*
X153830000Y-97525000D01*
X156280000Y-109900000D02*
X155280000Y-109900000D01*
X155280000Y-108550000D02*
X156280000Y-108550000D01*
X155280000Y-106900000D02*
X156280000Y-106900000D01*
X156280000Y-108250000D02*
X155280000Y-108250000D01*
X149830000Y-101450000D02*
X149830000Y-100450000D01*
X151180000Y-100450000D02*
X151180000Y-101450000D01*
X155180000Y-100450000D02*
X155180000Y-101450000D01*
X153830000Y-101450000D02*
X153830000Y-100450000D01*
X152855000Y-100450000D02*
X152855000Y-101450000D01*
X151505000Y-101450000D02*
X151505000Y-100450000D01*
X155705000Y-106625000D02*
X154705000Y-106625000D01*
X154705000Y-105275000D02*
X155705000Y-105275000D01*
X170200000Y-97200000D02*
X170200000Y-98200000D01*
X168850000Y-98200000D02*
X168850000Y-97200000D01*
X175250000Y-97125000D02*
X175250000Y-98125000D01*
X173900000Y-98125000D02*
X173900000Y-97125000D01*
X160325000Y-75375000D02*
X160325000Y-74375000D01*
X161675000Y-74375000D02*
X161675000Y-75375000D01*
X163675000Y-74375000D02*
X163675000Y-75375000D01*
X162325000Y-75375000D02*
X162325000Y-74375000D01*
X148455000Y-112000000D02*
X148455000Y-113600000D01*
X141855000Y-112000000D02*
X141855000Y-113600000D01*
X148955000Y-112000000D02*
X148955000Y-113600000D01*
X155555000Y-112000000D02*
X155555000Y-113600000D01*
X175600000Y-120285000D02*
X175600000Y-126735000D01*
X180125000Y-120285000D02*
X177525000Y-120285000D01*
X182050000Y-120285000D02*
X182050000Y-126735000D01*
X180125000Y-126735000D02*
X177525000Y-126735000D01*
X182025000Y-120285000D02*
X182050000Y-120285000D01*
X175600000Y-120285000D02*
X175625000Y-120285000D01*
X175600000Y-126735000D02*
X175625000Y-126735000D01*
X182050000Y-126735000D02*
X182025000Y-126735000D01*
X180575714Y-123510000D02*
G75*
G03X180575714Y-123510000I-1750714J0D01*
G01*
X85784000Y-70270000D02*
X85022000Y-57570000D01*
X86546000Y-70270000D02*
X85784000Y-57570000D01*
X87308000Y-70270000D02*
X86546000Y-57570000D01*
X88070000Y-70270000D02*
X87308000Y-57570000D01*
X88832000Y-70270000D02*
X88070000Y-57570000D01*
X89594000Y-70270000D02*
X88832000Y-57570000D01*
X90356000Y-70270000D02*
X89594000Y-57570000D01*
X91118000Y-70270000D02*
X90356000Y-57570000D01*
X91880000Y-70270000D02*
X91118000Y-57570000D01*
X84895000Y-70270000D02*
X92261000Y-70270000D01*
X84895000Y-57570000D02*
X92261000Y-57570000D01*
X84895000Y-57570000D02*
X84895000Y-70270000D01*
X84895000Y-69000000D02*
X72195000Y-69000000D01*
X72195000Y-69000000D02*
X72195000Y-58840000D01*
X72195000Y-58840000D02*
X84895000Y-58840000D01*
X92261000Y-56554000D02*
X92261000Y-71286000D01*
X105850000Y-71286000D02*
X105850000Y-56554000D01*
X105850000Y-71286000D02*
X92261000Y-71286000D01*
X105850000Y-56554000D02*
X92261000Y-56554000D01*
X159706617Y-111089951D02*
X159806617Y-111089951D01*
X159706617Y-107789951D02*
X159806617Y-107789951D01*
X164906617Y-111189951D02*
X164806617Y-111189951D01*
X164906617Y-107789951D02*
X164806617Y-107789951D01*
X159706617Y-107789951D02*
X159706617Y-111089951D01*
X164906617Y-107789951D02*
X164906617Y-111089951D01*
X116130000Y-79990000D02*
X116830000Y-79990000D01*
X116830000Y-81190000D02*
X116130000Y-81190000D01*
X124880000Y-72390000D02*
X124180000Y-72390000D01*
X124180000Y-71190000D02*
X124880000Y-71190000D01*
X137275000Y-81825000D02*
X139275000Y-81825000D01*
X139275000Y-78875000D02*
X137275000Y-78875000D01*
X139175000Y-85375000D02*
X137175000Y-85375000D01*
X137175000Y-88325000D02*
X139175000Y-88325000D01*
X151520000Y-75127500D02*
X151520000Y-77127500D01*
X154470000Y-77127500D02*
X154470000Y-75127500D01*
X153050000Y-86050000D02*
X155050000Y-86050000D01*
X155050000Y-83100000D02*
X153050000Y-83100000D01*
X114730000Y-82740000D02*
X114030000Y-82740000D01*
X114030000Y-81540000D02*
X114730000Y-81540000D01*
X115130000Y-75490000D02*
X115130000Y-76190000D01*
X113930000Y-76190000D02*
X113930000Y-75490000D01*
X114530000Y-84740000D02*
X114530000Y-84040000D01*
X115730000Y-84040000D02*
X115730000Y-84740000D01*
X117505000Y-84390000D02*
X117505000Y-85090000D01*
X116305000Y-85090000D02*
X116305000Y-84390000D01*
X120380000Y-81690000D02*
X121080000Y-81690000D01*
X121080000Y-82890000D02*
X120380000Y-82890000D01*
X121080000Y-81340000D02*
X120380000Y-81340000D01*
X120380000Y-80140000D02*
X121080000Y-80140000D01*
X124880000Y-73940000D02*
X124180000Y-73940000D01*
X124180000Y-72740000D02*
X124880000Y-72740000D01*
X124580000Y-78990000D02*
X124580000Y-79690000D01*
X123380000Y-79690000D02*
X123380000Y-78990000D01*
X121805000Y-67815000D02*
X122505000Y-67815000D01*
X122505000Y-69015000D02*
X121805000Y-69015000D01*
X124180000Y-69615000D02*
X124880000Y-69615000D01*
X124880000Y-70815000D02*
X124180000Y-70815000D01*
X117430000Y-67965000D02*
X116730000Y-67965000D01*
X116730000Y-66765000D02*
X117430000Y-66765000D01*
X119230000Y-70240000D02*
X119230000Y-69540000D01*
X120430000Y-69540000D02*
X120430000Y-70240000D01*
X170005000Y-75225000D02*
X170005000Y-74525000D01*
X171205000Y-74525000D02*
X171205000Y-75225000D01*
X168255000Y-83875000D02*
X168955000Y-83875000D01*
X168955000Y-85075000D02*
X168255000Y-85075000D01*
X167955000Y-77975000D02*
X168655000Y-77975000D01*
X168655000Y-79175000D02*
X167955000Y-79175000D01*
X115980000Y-76990000D02*
G75*
G03X115980000Y-76990000I-50000J0D01*
G01*
X123980000Y-74190000D02*
X115430000Y-74190000D01*
X115430000Y-77490000D02*
X123980000Y-77490000D01*
X123980000Y-77490000D02*
X123980000Y-74190000D01*
X115430000Y-77490000D02*
X115430000Y-74190000D01*
X168455000Y-80225000D02*
G75*
G03X168455000Y-80225000I-50000J0D01*
G01*
X168105000Y-79925000D02*
X168455000Y-79925000D01*
X168105000Y-79925000D02*
X168105000Y-80275000D01*
X170755000Y-79925000D02*
X171105000Y-79925000D01*
X171105000Y-79925000D02*
X171105000Y-80275000D01*
X171105000Y-82575000D02*
X171105000Y-82925000D01*
X171105000Y-82925000D02*
X170755000Y-82925000D01*
X168105000Y-82575000D02*
X168105000Y-82925000D01*
X168105000Y-82925000D02*
X168455000Y-82925000D01*
X117130000Y-81765000D02*
X118130000Y-81765000D01*
X118130000Y-83115000D02*
X117130000Y-83115000D01*
X118330000Y-70265000D02*
X117330000Y-70265000D01*
X117330000Y-68915000D02*
X118330000Y-68915000D01*
X137325000Y-84600000D02*
G75*
G03X139175000Y-84550000I900000J950000D01*
G01*
X139175000Y-82750000D02*
G75*
G03X137325000Y-82700000I-950000J-900000D01*
G01*
X154900000Y-87025000D02*
G75*
G03X153050000Y-87075000I-900000J-950000D01*
G01*
X153050000Y-88875000D02*
G75*
G03X154900000Y-88925000I950000J900000D01*
G01*
X169105000Y-86750000D02*
X168105000Y-86750000D01*
X168105000Y-85400000D02*
X169105000Y-85400000D01*
X168805000Y-77650000D02*
X167805000Y-77650000D01*
X167805000Y-76300000D02*
X168805000Y-76300000D01*
X118730000Y-83415000D02*
X119730000Y-83415000D01*
X119730000Y-84765000D02*
X118730000Y-84765000D01*
X117580000Y-66440000D02*
X116580000Y-66440000D01*
X116580000Y-65090000D02*
X117580000Y-65090000D01*
X118955000Y-67040000D02*
X118955000Y-66040000D01*
X120305000Y-66040000D02*
X120305000Y-67040000D01*
X122655000Y-70040000D02*
X122655000Y-71040000D01*
X121305000Y-71040000D02*
X121305000Y-70040000D01*
X166680000Y-79600000D02*
X166680000Y-80600000D01*
X165330000Y-80600000D02*
X165330000Y-79600000D01*
X165330000Y-83225000D02*
X165330000Y-82225000D01*
X166680000Y-82225000D02*
X166680000Y-83225000D01*
X169930000Y-78175000D02*
X169930000Y-77175000D01*
X171280000Y-77175000D02*
X171280000Y-78175000D01*
X174180000Y-82900000D02*
X173180000Y-82900000D01*
X173180000Y-81550000D02*
X174180000Y-81550000D01*
X128705000Y-79940000D02*
X128705000Y-79240000D01*
X129905000Y-79240000D02*
X129905000Y-79940000D01*
X126505000Y-86840000D02*
X126505000Y-86140000D01*
X127705000Y-86140000D02*
X127705000Y-86840000D01*
X127905000Y-81190000D02*
G75*
G03X127905000Y-81190000I-100000J0D01*
G01*
X128455000Y-81440000D02*
X127955000Y-81440000D01*
X128455000Y-84340000D02*
X128455000Y-81440000D01*
X127955000Y-84340000D02*
X128455000Y-84340000D01*
X127955000Y-81440000D02*
X127955000Y-84340000D01*
X123075000Y-88450000D02*
G75*
G03X123075000Y-88450000I-1750000J0D01*
G01*
X131930000Y-83290000D02*
X131930000Y-84290000D01*
X130580000Y-84290000D02*
X130580000Y-83290000D01*
X131930000Y-79090000D02*
X131930000Y-80090000D01*
X130580000Y-80090000D02*
X130580000Y-79090000D01*
X175230000Y-83300000D02*
X175230000Y-82600000D01*
X176430000Y-82600000D02*
X176430000Y-83300000D01*
X174030000Y-79550000D02*
X173330000Y-79550000D01*
X173330000Y-78350000D02*
X174030000Y-78350000D01*
X125255000Y-82615000D02*
X124255000Y-82615000D01*
X124255000Y-81265000D02*
X125255000Y-81265000D01*
X176600000Y-73850000D02*
X176600000Y-74850000D01*
X175250000Y-74850000D02*
X175250000Y-73850000D01*
X178325000Y-73850000D02*
X178325000Y-74850000D01*
X176975000Y-74850000D02*
X176975000Y-73850000D01*
X171580000Y-85075000D02*
X171580000Y-86075000D01*
X170230000Y-86075000D02*
X170230000Y-85075000D01*
X174180000Y-81250000D02*
X173180000Y-81250000D01*
X173180000Y-79900000D02*
X174180000Y-79900000D01*
X127930000Y-75790000D02*
X128930000Y-75790000D01*
X128930000Y-77140000D02*
X127930000Y-77140000D01*
X130455000Y-74240000D02*
X131455000Y-74240000D01*
X131455000Y-75590000D02*
X130455000Y-75590000D01*
X116575000Y-62925000D02*
X117575000Y-62925000D01*
X117575000Y-64275000D02*
X116575000Y-64275000D01*
X118375000Y-60375000D02*
X119375000Y-60375000D01*
X119375000Y-61725000D02*
X118375000Y-61725000D01*
X85704000Y-86770000D02*
X84942000Y-74070000D01*
X86466000Y-86770000D02*
X85704000Y-74070000D01*
X87228000Y-86770000D02*
X86466000Y-74070000D01*
X87990000Y-86770000D02*
X87228000Y-74070000D01*
X88752000Y-86770000D02*
X87990000Y-74070000D01*
X89514000Y-86770000D02*
X88752000Y-74070000D01*
X90276000Y-86770000D02*
X89514000Y-74070000D01*
X91038000Y-86770000D02*
X90276000Y-74070000D01*
X91800000Y-86770000D02*
X91038000Y-74070000D01*
X84815000Y-86770000D02*
X92181000Y-86770000D01*
X84815000Y-74070000D02*
X92181000Y-74070000D01*
X84815000Y-74070000D02*
X84815000Y-86770000D01*
X84815000Y-85500000D02*
X72115000Y-85500000D01*
X72115000Y-85500000D02*
X72115000Y-75340000D01*
X72115000Y-75340000D02*
X84815000Y-75340000D01*
X92181000Y-73054000D02*
X92181000Y-87786000D01*
X105770000Y-87786000D02*
X105770000Y-73054000D01*
X105770000Y-87786000D02*
X92181000Y-87786000D01*
X105770000Y-73054000D02*
X92181000Y-73054000D01*
X88284000Y-120645000D02*
X87522000Y-107945000D01*
X89046000Y-120645000D02*
X88284000Y-107945000D01*
X89808000Y-120645000D02*
X89046000Y-107945000D01*
X90570000Y-120645000D02*
X89808000Y-107945000D01*
X91332000Y-120645000D02*
X90570000Y-107945000D01*
X92094000Y-120645000D02*
X91332000Y-107945000D01*
X92856000Y-120645000D02*
X92094000Y-107945000D01*
X93618000Y-120645000D02*
X92856000Y-107945000D01*
X94380000Y-120645000D02*
X93618000Y-107945000D01*
X87395000Y-120645000D02*
X94761000Y-120645000D01*
X87395000Y-107945000D02*
X94761000Y-107945000D01*
X87395000Y-107945000D02*
X87395000Y-120645000D01*
X87395000Y-119375000D02*
X74695000Y-119375000D01*
X74695000Y-119375000D02*
X74695000Y-109215000D01*
X74695000Y-109215000D02*
X87395000Y-109215000D01*
X94761000Y-106929000D02*
X94761000Y-121661000D01*
X108350000Y-121661000D02*
X108350000Y-106929000D01*
X108350000Y-121661000D02*
X94761000Y-121661000D01*
X108350000Y-106929000D02*
X94761000Y-106929000D01*
X108350000Y-90214000D02*
X94761000Y-90214000D01*
X108350000Y-104946000D02*
X94761000Y-104946000D01*
X108350000Y-104946000D02*
X108350000Y-90214000D01*
X94761000Y-90214000D02*
X94761000Y-104946000D01*
X74695000Y-92500000D02*
X87395000Y-92500000D01*
X74695000Y-102660000D02*
X74695000Y-92500000D01*
X87395000Y-102660000D02*
X74695000Y-102660000D01*
X87395000Y-91230000D02*
X87395000Y-103930000D01*
X87395000Y-91230000D02*
X94761000Y-91230000D01*
X87395000Y-103930000D02*
X94761000Y-103930000D01*
X94380000Y-103930000D02*
X93618000Y-91230000D01*
X93618000Y-103930000D02*
X92856000Y-91230000D01*
X92856000Y-103930000D02*
X92094000Y-91230000D01*
X92094000Y-103930000D02*
X91332000Y-91230000D01*
X91332000Y-103930000D02*
X90570000Y-91230000D01*
X90570000Y-103930000D02*
X89808000Y-91230000D01*
X89808000Y-103930000D02*
X89046000Y-91230000D01*
X89046000Y-103930000D02*
X88284000Y-91230000D01*
X88284000Y-103930000D02*
X87522000Y-91230000D01*
X176650000Y-116746000D02*
X190239000Y-116746000D01*
X176650000Y-102014000D02*
X190239000Y-102014000D01*
X176650000Y-102014000D02*
X176650000Y-116746000D01*
X190239000Y-116746000D02*
X190239000Y-102014000D01*
X210305000Y-114460000D02*
X197605000Y-114460000D01*
X210305000Y-104300000D02*
X210305000Y-114460000D01*
X197605000Y-104300000D02*
X210305000Y-104300000D01*
X197605000Y-115730000D02*
X197605000Y-103030000D01*
X197605000Y-115730000D02*
X190239000Y-115730000D01*
X197605000Y-103030000D02*
X190239000Y-103030000D01*
X190620000Y-103030000D02*
X191382000Y-115730000D01*
X191382000Y-103030000D02*
X192144000Y-115730000D01*
X192144000Y-103030000D02*
X192906000Y-115730000D01*
X192906000Y-103030000D02*
X193668000Y-115730000D01*
X193668000Y-103030000D02*
X194430000Y-115730000D01*
X194430000Y-103030000D02*
X195192000Y-115730000D01*
X195192000Y-103030000D02*
X195954000Y-115730000D01*
X195954000Y-103030000D02*
X196716000Y-115730000D01*
X196716000Y-103030000D02*
X197478000Y-115730000D01*
X157570000Y-37784000D02*
X170270000Y-37022000D01*
X157570000Y-38546000D02*
X170270000Y-37784000D01*
X157570000Y-39308000D02*
X170270000Y-38546000D01*
X157570000Y-40070000D02*
X170270000Y-39308000D01*
X157570000Y-40832000D02*
X170270000Y-40070000D01*
X157570000Y-41594000D02*
X170270000Y-40832000D01*
X157570000Y-42356000D02*
X170270000Y-41594000D01*
X157570000Y-43118000D02*
X170270000Y-42356000D01*
X157570000Y-43880000D02*
X170270000Y-43118000D01*
X157570000Y-36895000D02*
X157570000Y-44261000D01*
X170270000Y-36895000D02*
X170270000Y-44261000D01*
X170270000Y-36895000D02*
X157570000Y-36895000D01*
X158840000Y-36895000D02*
X158840000Y-24195000D01*
X158840000Y-24195000D02*
X169000000Y-24195000D01*
X169000000Y-24195000D02*
X169000000Y-36895000D01*
X171286000Y-44261000D02*
X156554000Y-44261000D01*
X156554000Y-57850000D02*
X171286000Y-57850000D01*
X156554000Y-57850000D02*
X156554000Y-44261000D01*
X171286000Y-57850000D02*
X171286000Y-44261000D01*
X188286000Y-57850000D02*
X188286000Y-44261000D01*
X173554000Y-57850000D02*
X173554000Y-44261000D01*
X173554000Y-57850000D02*
X188286000Y-57850000D01*
X188286000Y-44261000D02*
X173554000Y-44261000D01*
X186000000Y-24195000D02*
X186000000Y-36895000D01*
X175840000Y-24195000D02*
X186000000Y-24195000D01*
X175840000Y-36895000D02*
X175840000Y-24195000D01*
X187270000Y-36895000D02*
X174570000Y-36895000D01*
X187270000Y-36895000D02*
X187270000Y-44261000D01*
X174570000Y-36895000D02*
X174570000Y-44261000D01*
X174570000Y-43880000D02*
X187270000Y-43118000D01*
X174570000Y-43118000D02*
X187270000Y-42356000D01*
X174570000Y-42356000D02*
X187270000Y-41594000D01*
X174570000Y-41594000D02*
X187270000Y-40832000D01*
X174570000Y-40832000D02*
X187270000Y-40070000D01*
X174570000Y-40070000D02*
X187270000Y-39308000D01*
X174570000Y-39308000D02*
X187270000Y-38546000D01*
X174570000Y-38546000D02*
X187270000Y-37784000D01*
X174570000Y-37784000D02*
X187270000Y-37022000D01*
X157730000Y-91625000D02*
X157730000Y-94025000D01*
X153130000Y-94025000D02*
X153130000Y-91625000D01*
X157730000Y-94025000D02*
X153130000Y-94025000D01*
X157730000Y-91625000D02*
X153130000Y-91625000D01*
X157705000Y-94200000D02*
X153105000Y-94200000D01*
X157705000Y-96600000D02*
X153105000Y-96600000D01*
X153105000Y-96600000D02*
X153105000Y-94200000D01*
X157705000Y-94200000D02*
X157705000Y-96600000D01*
X148255000Y-102150000D02*
X148755000Y-102150000D01*
X148755000Y-101200000D02*
X148255000Y-101200000D01*
X105850000Y-125575000D02*
X105850000Y-124825000D01*
X105450000Y-129575000D02*
X111400000Y-129575000D01*
X104900000Y-126475000D02*
X103400000Y-126475000D01*
X104900000Y-125575000D02*
X104900000Y-126475000D01*
X105850000Y-125575000D02*
X104900000Y-125575000D01*
X111950000Y-126475000D02*
X113450000Y-126475000D01*
X111950000Y-125575000D02*
X111950000Y-126475000D01*
X111000000Y-125575000D02*
X111950000Y-125575000D01*
D10*
X141880000Y-48400000D02*
X141880000Y-47900000D01*
X146380000Y-48400000D02*
X141880000Y-48400000D01*
X146380000Y-48400000D02*
X146380000Y-47900000D01*
X153880000Y-48400000D02*
X153880000Y-47900000D01*
X149380000Y-48400000D02*
X149380000Y-47900000D01*
X153880000Y-48400000D02*
X149380000Y-48400000D01*
X155380000Y-47900000D02*
X155380000Y-56900000D01*
X140380000Y-47900000D02*
X155380000Y-47900000D01*
X140380000Y-56900000D02*
X140380000Y-47900000D01*
X155380000Y-56900000D02*
X140380000Y-56900000D01*
X111725000Y-48400000D02*
X111725000Y-47900000D01*
X116225000Y-48400000D02*
X111725000Y-48400000D01*
X116225000Y-47900000D02*
X116225000Y-48400000D01*
X119225000Y-48400000D02*
X119225000Y-47900000D01*
X123725000Y-48400000D02*
X119225000Y-48400000D01*
X123725000Y-47900000D02*
X123725000Y-48400000D01*
X123725000Y-48400000D02*
X123725000Y-47900000D01*
X126725000Y-48400000D02*
X126725000Y-47900000D01*
X131225000Y-48400000D02*
X126725000Y-48400000D01*
X131225000Y-48400000D02*
X131225000Y-47900000D01*
X138725000Y-48400000D02*
X138725000Y-47900000D01*
X134225000Y-48400000D02*
X134225000Y-47900000D01*
X138725000Y-48400000D02*
X134225000Y-48400000D01*
X140225000Y-47900000D02*
X140225000Y-56900000D01*
X110225000Y-47900000D02*
X140225000Y-47900000D01*
X110225000Y-56900000D02*
X110225000Y-47900000D01*
X140225000Y-56900000D02*
X110225000Y-56900000D01*
X189500000Y-72660000D02*
X190000000Y-72660000D01*
X189500000Y-77160000D02*
X189500000Y-72660000D01*
X190000000Y-77160000D02*
X189500000Y-77160000D01*
X189500000Y-80160000D02*
X190000000Y-80160000D01*
X189500000Y-84660000D02*
X189500000Y-80160000D01*
X190000000Y-84660000D02*
X189500000Y-84660000D01*
X189500000Y-84660000D02*
X190000000Y-84660000D01*
X189500000Y-87660000D02*
X190000000Y-87660000D01*
X189500000Y-92160000D02*
X189500000Y-87660000D01*
X189500000Y-92160000D02*
X190000000Y-92160000D01*
X189500000Y-99660000D02*
X190000000Y-99660000D01*
X189500000Y-95160000D02*
X190000000Y-95160000D01*
X189500000Y-99660000D02*
X189500000Y-95160000D01*
X190000000Y-101160000D02*
X181000000Y-101160000D01*
X190000000Y-71160000D02*
X190000000Y-101160000D01*
X181000000Y-71160000D02*
X190000000Y-71160000D01*
X181000000Y-101160000D02*
X181000000Y-71160000D01*
D14*
X144005000Y-77060000D02*
X144005000Y-75060000D01*
X141055000Y-75060000D02*
X141055000Y-77060000D01*
X180660000Y-69810000D02*
X168340000Y-69810000D01*
X180660000Y-62190000D02*
X168340000Y-62190000D01*
X114270000Y-71660000D02*
X114270000Y-59340000D01*
X106650000Y-71660000D02*
X106650000Y-59340000D01*
X175860000Y-114235000D02*
X175860000Y-101915000D01*
X168240000Y-114235000D02*
X168240000Y-101915000D01*
X151840000Y-62190000D02*
X164160000Y-62190000D01*
X151840000Y-69810000D02*
X164160000Y-69810000D01*
X145377380Y-107876190D02*
X144377380Y-107876190D01*
X145282142Y-106828571D02*
X145329761Y-106876190D01*
X145377380Y-107019047D01*
X145377380Y-107114285D01*
X145329761Y-107257142D01*
X145234523Y-107352380D01*
X145139285Y-107400000D01*
X144948809Y-107447619D01*
X144805952Y-107447619D01*
X144615476Y-107400000D01*
X144520238Y-107352380D01*
X144425000Y-107257142D01*
X144377380Y-107114285D01*
X144377380Y-107019047D01*
X144425000Y-106876190D01*
X144472619Y-106828571D01*
X144377380Y-105923809D02*
X144377380Y-106400000D01*
X144853571Y-106447619D01*
X144805952Y-106400000D01*
X144758333Y-106304761D01*
X144758333Y-106066666D01*
X144805952Y-105971428D01*
X144853571Y-105923809D01*
X144948809Y-105876190D01*
X145186904Y-105876190D01*
X145282142Y-105923809D01*
X145329761Y-105971428D01*
X145377380Y-106066666D01*
X145377380Y-106304761D01*
X145329761Y-106400000D01*
X145282142Y-106447619D01*
X115802142Y-120732142D02*
X115754523Y-120779761D01*
X115611666Y-120827380D01*
X115516428Y-120827380D01*
X115373571Y-120779761D01*
X115278333Y-120684523D01*
X115230714Y-120589285D01*
X115183095Y-120398809D01*
X115183095Y-120255952D01*
X115230714Y-120065476D01*
X115278333Y-119970238D01*
X115373571Y-119875000D01*
X115516428Y-119827380D01*
X115611666Y-119827380D01*
X115754523Y-119875000D01*
X115802142Y-119922619D01*
X116183095Y-119922619D02*
X116230714Y-119875000D01*
X116325952Y-119827380D01*
X116564047Y-119827380D01*
X116659285Y-119875000D01*
X116706904Y-119922619D01*
X116754523Y-120017857D01*
X116754523Y-120113095D01*
X116706904Y-120255952D01*
X116135476Y-120827380D01*
X116754523Y-120827380D01*
X117611666Y-119827380D02*
X117421190Y-119827380D01*
X117325952Y-119875000D01*
X117278333Y-119922619D01*
X117183095Y-120065476D01*
X117135476Y-120255952D01*
X117135476Y-120636904D01*
X117183095Y-120732142D01*
X117230714Y-120779761D01*
X117325952Y-120827380D01*
X117516428Y-120827380D01*
X117611666Y-120779761D01*
X117659285Y-120732142D01*
X117706904Y-120636904D01*
X117706904Y-120398809D01*
X117659285Y-120303571D01*
X117611666Y-120255952D01*
X117516428Y-120208333D01*
X117325952Y-120208333D01*
X117230714Y-120255952D01*
X117183095Y-120303571D01*
X117135476Y-120398809D01*
X142255642Y-82004142D02*
X142208023Y-82051761D01*
X142065166Y-82099380D01*
X141969928Y-82099380D01*
X141827071Y-82051761D01*
X141731833Y-81956523D01*
X141684214Y-81861285D01*
X141636595Y-81670809D01*
X141636595Y-81527952D01*
X141684214Y-81337476D01*
X141731833Y-81242238D01*
X141827071Y-81147000D01*
X141969928Y-81099380D01*
X142065166Y-81099380D01*
X142208023Y-81147000D01*
X142255642Y-81194619D01*
X142636595Y-81194619D02*
X142684214Y-81147000D01*
X142779452Y-81099380D01*
X143017547Y-81099380D01*
X143112785Y-81147000D01*
X143160404Y-81194619D01*
X143208023Y-81289857D01*
X143208023Y-81385095D01*
X143160404Y-81527952D01*
X142588976Y-82099380D01*
X143208023Y-82099380D01*
X143779452Y-81527952D02*
X143684214Y-81480333D01*
X143636595Y-81432714D01*
X143588976Y-81337476D01*
X143588976Y-81289857D01*
X143636595Y-81194619D01*
X143684214Y-81147000D01*
X143779452Y-81099380D01*
X143969928Y-81099380D01*
X144065166Y-81147000D01*
X144112785Y-81194619D01*
X144160404Y-81289857D01*
X144160404Y-81337476D01*
X144112785Y-81432714D01*
X144065166Y-81480333D01*
X143969928Y-81527952D01*
X143779452Y-81527952D01*
X143684214Y-81575571D01*
X143636595Y-81623190D01*
X143588976Y-81718428D01*
X143588976Y-81908904D01*
X143636595Y-82004142D01*
X143684214Y-82051761D01*
X143779452Y-82099380D01*
X143969928Y-82099380D01*
X144065166Y-82051761D01*
X144112785Y-82004142D01*
X144160404Y-81908904D01*
X144160404Y-81718428D01*
X144112785Y-81623190D01*
X144065166Y-81575571D01*
X143969928Y-81527952D01*
X124312142Y-119022142D02*
X124264523Y-119069761D01*
X124121666Y-119117380D01*
X124026428Y-119117380D01*
X123883571Y-119069761D01*
X123788333Y-118974523D01*
X123740714Y-118879285D01*
X123693095Y-118688809D01*
X123693095Y-118545952D01*
X123740714Y-118355476D01*
X123788333Y-118260238D01*
X123883571Y-118165000D01*
X124026428Y-118117380D01*
X124121666Y-118117380D01*
X124264523Y-118165000D01*
X124312142Y-118212619D01*
X124693095Y-118212619D02*
X124740714Y-118165000D01*
X124835952Y-118117380D01*
X125074047Y-118117380D01*
X125169285Y-118165000D01*
X125216904Y-118212619D01*
X125264523Y-118307857D01*
X125264523Y-118403095D01*
X125216904Y-118545952D01*
X124645476Y-119117380D01*
X125264523Y-119117380D01*
X125740714Y-119117380D02*
X125931190Y-119117380D01*
X126026428Y-119069761D01*
X126074047Y-119022142D01*
X126169285Y-118879285D01*
X126216904Y-118688809D01*
X126216904Y-118307857D01*
X126169285Y-118212619D01*
X126121666Y-118165000D01*
X126026428Y-118117380D01*
X125835952Y-118117380D01*
X125740714Y-118165000D01*
X125693095Y-118212619D01*
X125645476Y-118307857D01*
X125645476Y-118545952D01*
X125693095Y-118641190D01*
X125740714Y-118688809D01*
X125835952Y-118736428D01*
X126026428Y-118736428D01*
X126121666Y-118688809D01*
X126169285Y-118641190D01*
X126216904Y-118545952D01*
X130707142Y-102382142D02*
X130659523Y-102429761D01*
X130516666Y-102477380D01*
X130421428Y-102477380D01*
X130278571Y-102429761D01*
X130183333Y-102334523D01*
X130135714Y-102239285D01*
X130088095Y-102048809D01*
X130088095Y-101905952D01*
X130135714Y-101715476D01*
X130183333Y-101620238D01*
X130278571Y-101525000D01*
X130421428Y-101477380D01*
X130516666Y-101477380D01*
X130659523Y-101525000D01*
X130707142Y-101572619D01*
X131040476Y-101477380D02*
X131659523Y-101477380D01*
X131326190Y-101858333D01*
X131469047Y-101858333D01*
X131564285Y-101905952D01*
X131611904Y-101953571D01*
X131659523Y-102048809D01*
X131659523Y-102286904D01*
X131611904Y-102382142D01*
X131564285Y-102429761D01*
X131469047Y-102477380D01*
X131183333Y-102477380D01*
X131088095Y-102429761D01*
X131040476Y-102382142D01*
X132278571Y-101477380D02*
X132373809Y-101477380D01*
X132469047Y-101525000D01*
X132516666Y-101572619D01*
X132564285Y-101667857D01*
X132611904Y-101858333D01*
X132611904Y-102096428D01*
X132564285Y-102286904D01*
X132516666Y-102382142D01*
X132469047Y-102429761D01*
X132373809Y-102477380D01*
X132278571Y-102477380D01*
X132183333Y-102429761D01*
X132135714Y-102382142D01*
X132088095Y-102286904D01*
X132040476Y-102096428D01*
X132040476Y-101858333D01*
X132088095Y-101667857D01*
X132135714Y-101572619D01*
X132183333Y-101525000D01*
X132278571Y-101477380D01*
X116977142Y-94807142D02*
X116929523Y-94854761D01*
X116786666Y-94902380D01*
X116691428Y-94902380D01*
X116548571Y-94854761D01*
X116453333Y-94759523D01*
X116405714Y-94664285D01*
X116358095Y-94473809D01*
X116358095Y-94330952D01*
X116405714Y-94140476D01*
X116453333Y-94045238D01*
X116548571Y-93950000D01*
X116691428Y-93902380D01*
X116786666Y-93902380D01*
X116929523Y-93950000D01*
X116977142Y-93997619D01*
X117310476Y-93902380D02*
X117929523Y-93902380D01*
X117596190Y-94283333D01*
X117739047Y-94283333D01*
X117834285Y-94330952D01*
X117881904Y-94378571D01*
X117929523Y-94473809D01*
X117929523Y-94711904D01*
X117881904Y-94807142D01*
X117834285Y-94854761D01*
X117739047Y-94902380D01*
X117453333Y-94902380D01*
X117358095Y-94854761D01*
X117310476Y-94807142D01*
X118881904Y-94902380D02*
X118310476Y-94902380D01*
X118596190Y-94902380D02*
X118596190Y-93902380D01*
X118500952Y-94045238D01*
X118405714Y-94140476D01*
X118310476Y-94188095D01*
X165357142Y-113857142D02*
X165309523Y-113904761D01*
X165166666Y-113952380D01*
X165071428Y-113952380D01*
X164928571Y-113904761D01*
X164833333Y-113809523D01*
X164785714Y-113714285D01*
X164738095Y-113523809D01*
X164738095Y-113380952D01*
X164785714Y-113190476D01*
X164833333Y-113095238D01*
X164928571Y-113000000D01*
X165071428Y-112952380D01*
X165166666Y-112952380D01*
X165309523Y-113000000D01*
X165357142Y-113047619D01*
X165690476Y-112952380D02*
X166309523Y-112952380D01*
X165976190Y-113333333D01*
X166119047Y-113333333D01*
X166214285Y-113380952D01*
X166261904Y-113428571D01*
X166309523Y-113523809D01*
X166309523Y-113761904D01*
X166261904Y-113857142D01*
X166214285Y-113904761D01*
X166119047Y-113952380D01*
X165833333Y-113952380D01*
X165738095Y-113904761D01*
X165690476Y-113857142D01*
X166690476Y-113047619D02*
X166738095Y-113000000D01*
X166833333Y-112952380D01*
X167071428Y-112952380D01*
X167166666Y-113000000D01*
X167214285Y-113047619D01*
X167261904Y-113142857D01*
X167261904Y-113238095D01*
X167214285Y-113380952D01*
X166642857Y-113952380D01*
X167261904Y-113952380D01*
X114677142Y-105727142D02*
X114629523Y-105774761D01*
X114486666Y-105822380D01*
X114391428Y-105822380D01*
X114248571Y-105774761D01*
X114153333Y-105679523D01*
X114105714Y-105584285D01*
X114058095Y-105393809D01*
X114058095Y-105250952D01*
X114105714Y-105060476D01*
X114153333Y-104965238D01*
X114248571Y-104870000D01*
X114391428Y-104822380D01*
X114486666Y-104822380D01*
X114629523Y-104870000D01*
X114677142Y-104917619D01*
X115010476Y-104822380D02*
X115629523Y-104822380D01*
X115296190Y-105203333D01*
X115439047Y-105203333D01*
X115534285Y-105250952D01*
X115581904Y-105298571D01*
X115629523Y-105393809D01*
X115629523Y-105631904D01*
X115581904Y-105727142D01*
X115534285Y-105774761D01*
X115439047Y-105822380D01*
X115153333Y-105822380D01*
X115058095Y-105774761D01*
X115010476Y-105727142D01*
X115962857Y-104822380D02*
X116581904Y-104822380D01*
X116248571Y-105203333D01*
X116391428Y-105203333D01*
X116486666Y-105250952D01*
X116534285Y-105298571D01*
X116581904Y-105393809D01*
X116581904Y-105631904D01*
X116534285Y-105727142D01*
X116486666Y-105774761D01*
X116391428Y-105822380D01*
X116105714Y-105822380D01*
X116010476Y-105774761D01*
X115962857Y-105727142D01*
X159282142Y-115907142D02*
X159234523Y-115954761D01*
X159091666Y-116002380D01*
X158996428Y-116002380D01*
X158853571Y-115954761D01*
X158758333Y-115859523D01*
X158710714Y-115764285D01*
X158663095Y-115573809D01*
X158663095Y-115430952D01*
X158710714Y-115240476D01*
X158758333Y-115145238D01*
X158853571Y-115050000D01*
X158996428Y-115002380D01*
X159091666Y-115002380D01*
X159234523Y-115050000D01*
X159282142Y-115097619D01*
X159615476Y-115002380D02*
X160234523Y-115002380D01*
X159901190Y-115383333D01*
X160044047Y-115383333D01*
X160139285Y-115430952D01*
X160186904Y-115478571D01*
X160234523Y-115573809D01*
X160234523Y-115811904D01*
X160186904Y-115907142D01*
X160139285Y-115954761D01*
X160044047Y-116002380D01*
X159758333Y-116002380D01*
X159663095Y-115954761D01*
X159615476Y-115907142D01*
X161091666Y-115335714D02*
X161091666Y-116002380D01*
X160853571Y-114954761D02*
X160615476Y-115669047D01*
X161234523Y-115669047D01*
X156332142Y-103382142D02*
X156284523Y-103429761D01*
X156141666Y-103477380D01*
X156046428Y-103477380D01*
X155903571Y-103429761D01*
X155808333Y-103334523D01*
X155760714Y-103239285D01*
X155713095Y-103048809D01*
X155713095Y-102905952D01*
X155760714Y-102715476D01*
X155808333Y-102620238D01*
X155903571Y-102525000D01*
X156046428Y-102477380D01*
X156141666Y-102477380D01*
X156284523Y-102525000D01*
X156332142Y-102572619D01*
X156665476Y-102477380D02*
X157284523Y-102477380D01*
X156951190Y-102858333D01*
X157094047Y-102858333D01*
X157189285Y-102905952D01*
X157236904Y-102953571D01*
X157284523Y-103048809D01*
X157284523Y-103286904D01*
X157236904Y-103382142D01*
X157189285Y-103429761D01*
X157094047Y-103477380D01*
X156808333Y-103477380D01*
X156713095Y-103429761D01*
X156665476Y-103382142D01*
X158189285Y-102477380D02*
X157713095Y-102477380D01*
X157665476Y-102953571D01*
X157713095Y-102905952D01*
X157808333Y-102858333D01*
X158046428Y-102858333D01*
X158141666Y-102905952D01*
X158189285Y-102953571D01*
X158236904Y-103048809D01*
X158236904Y-103286904D01*
X158189285Y-103382142D01*
X158141666Y-103429761D01*
X158046428Y-103477380D01*
X157808333Y-103477380D01*
X157713095Y-103429761D01*
X157665476Y-103382142D01*
X139532142Y-102057142D02*
X139484523Y-102104761D01*
X139341666Y-102152380D01*
X139246428Y-102152380D01*
X139103571Y-102104761D01*
X139008333Y-102009523D01*
X138960714Y-101914285D01*
X138913095Y-101723809D01*
X138913095Y-101580952D01*
X138960714Y-101390476D01*
X139008333Y-101295238D01*
X139103571Y-101200000D01*
X139246428Y-101152380D01*
X139341666Y-101152380D01*
X139484523Y-101200000D01*
X139532142Y-101247619D01*
X139865476Y-101152380D02*
X140484523Y-101152380D01*
X140151190Y-101533333D01*
X140294047Y-101533333D01*
X140389285Y-101580952D01*
X140436904Y-101628571D01*
X140484523Y-101723809D01*
X140484523Y-101961904D01*
X140436904Y-102057142D01*
X140389285Y-102104761D01*
X140294047Y-102152380D01*
X140008333Y-102152380D01*
X139913095Y-102104761D01*
X139865476Y-102057142D01*
X141341666Y-101152380D02*
X141151190Y-101152380D01*
X141055952Y-101200000D01*
X141008333Y-101247619D01*
X140913095Y-101390476D01*
X140865476Y-101580952D01*
X140865476Y-101961904D01*
X140913095Y-102057142D01*
X140960714Y-102104761D01*
X141055952Y-102152380D01*
X141246428Y-102152380D01*
X141341666Y-102104761D01*
X141389285Y-102057142D01*
X141436904Y-101961904D01*
X141436904Y-101723809D01*
X141389285Y-101628571D01*
X141341666Y-101580952D01*
X141246428Y-101533333D01*
X141055952Y-101533333D01*
X140960714Y-101580952D01*
X140913095Y-101628571D01*
X140865476Y-101723809D01*
X147737142Y-110367857D02*
X147784761Y-110415476D01*
X147832380Y-110558333D01*
X147832380Y-110653571D01*
X147784761Y-110796428D01*
X147689523Y-110891666D01*
X147594285Y-110939285D01*
X147403809Y-110986904D01*
X147260952Y-110986904D01*
X147070476Y-110939285D01*
X146975238Y-110891666D01*
X146880000Y-110796428D01*
X146832380Y-110653571D01*
X146832380Y-110558333D01*
X146880000Y-110415476D01*
X146927619Y-110367857D01*
X146832380Y-110034523D02*
X146832380Y-109415476D01*
X147213333Y-109748809D01*
X147213333Y-109605952D01*
X147260952Y-109510714D01*
X147308571Y-109463095D01*
X147403809Y-109415476D01*
X147641904Y-109415476D01*
X147737142Y-109463095D01*
X147784761Y-109510714D01*
X147832380Y-109605952D01*
X147832380Y-109891666D01*
X147784761Y-109986904D01*
X147737142Y-110034523D01*
X146832380Y-109082142D02*
X146832380Y-108415476D01*
X147832380Y-108844047D01*
X160232142Y-92382142D02*
X160184523Y-92429761D01*
X160041666Y-92477380D01*
X159946428Y-92477380D01*
X159803571Y-92429761D01*
X159708333Y-92334523D01*
X159660714Y-92239285D01*
X159613095Y-92048809D01*
X159613095Y-91905952D01*
X159660714Y-91715476D01*
X159708333Y-91620238D01*
X159803571Y-91525000D01*
X159946428Y-91477380D01*
X160041666Y-91477380D01*
X160184523Y-91525000D01*
X160232142Y-91572619D01*
X160565476Y-91477380D02*
X161184523Y-91477380D01*
X160851190Y-91858333D01*
X160994047Y-91858333D01*
X161089285Y-91905952D01*
X161136904Y-91953571D01*
X161184523Y-92048809D01*
X161184523Y-92286904D01*
X161136904Y-92382142D01*
X161089285Y-92429761D01*
X160994047Y-92477380D01*
X160708333Y-92477380D01*
X160613095Y-92429761D01*
X160565476Y-92382142D01*
X161755952Y-91905952D02*
X161660714Y-91858333D01*
X161613095Y-91810714D01*
X161565476Y-91715476D01*
X161565476Y-91667857D01*
X161613095Y-91572619D01*
X161660714Y-91525000D01*
X161755952Y-91477380D01*
X161946428Y-91477380D01*
X162041666Y-91525000D01*
X162089285Y-91572619D01*
X162136904Y-91667857D01*
X162136904Y-91715476D01*
X162089285Y-91810714D01*
X162041666Y-91858333D01*
X161946428Y-91905952D01*
X161755952Y-91905952D01*
X161660714Y-91953571D01*
X161613095Y-92001190D01*
X161565476Y-92096428D01*
X161565476Y-92286904D01*
X161613095Y-92382142D01*
X161660714Y-92429761D01*
X161755952Y-92477380D01*
X161946428Y-92477380D01*
X162041666Y-92429761D01*
X162089285Y-92382142D01*
X162136904Y-92286904D01*
X162136904Y-92096428D01*
X162089285Y-92001190D01*
X162041666Y-91953571D01*
X161946428Y-91905952D01*
X160202142Y-96807142D02*
X160154523Y-96854761D01*
X160011666Y-96902380D01*
X159916428Y-96902380D01*
X159773571Y-96854761D01*
X159678333Y-96759523D01*
X159630714Y-96664285D01*
X159583095Y-96473809D01*
X159583095Y-96330952D01*
X159630714Y-96140476D01*
X159678333Y-96045238D01*
X159773571Y-95950000D01*
X159916428Y-95902380D01*
X160011666Y-95902380D01*
X160154523Y-95950000D01*
X160202142Y-95997619D01*
X160535476Y-95902380D02*
X161154523Y-95902380D01*
X160821190Y-96283333D01*
X160964047Y-96283333D01*
X161059285Y-96330952D01*
X161106904Y-96378571D01*
X161154523Y-96473809D01*
X161154523Y-96711904D01*
X161106904Y-96807142D01*
X161059285Y-96854761D01*
X160964047Y-96902380D01*
X160678333Y-96902380D01*
X160583095Y-96854761D01*
X160535476Y-96807142D01*
X161630714Y-96902380D02*
X161821190Y-96902380D01*
X161916428Y-96854761D01*
X161964047Y-96807142D01*
X162059285Y-96664285D01*
X162106904Y-96473809D01*
X162106904Y-96092857D01*
X162059285Y-95997619D01*
X162011666Y-95950000D01*
X161916428Y-95902380D01*
X161725952Y-95902380D01*
X161630714Y-95950000D01*
X161583095Y-95997619D01*
X161535476Y-96092857D01*
X161535476Y-96330952D01*
X161583095Y-96426190D01*
X161630714Y-96473809D01*
X161725952Y-96521428D01*
X161916428Y-96521428D01*
X162011666Y-96473809D01*
X162059285Y-96426190D01*
X162106904Y-96330952D01*
X159157142Y-97817857D02*
X159204761Y-97865476D01*
X159252380Y-98008333D01*
X159252380Y-98103571D01*
X159204761Y-98246428D01*
X159109523Y-98341666D01*
X159014285Y-98389285D01*
X158823809Y-98436904D01*
X158680952Y-98436904D01*
X158490476Y-98389285D01*
X158395238Y-98341666D01*
X158300000Y-98246428D01*
X158252380Y-98103571D01*
X158252380Y-98008333D01*
X158300000Y-97865476D01*
X158347619Y-97817857D01*
X158585714Y-96960714D02*
X159252380Y-96960714D01*
X158204761Y-97198809D02*
X158919047Y-97436904D01*
X158919047Y-96817857D01*
X158252380Y-96246428D02*
X158252380Y-96151190D01*
X158300000Y-96055952D01*
X158347619Y-96008333D01*
X158442857Y-95960714D01*
X158633333Y-95913095D01*
X158871428Y-95913095D01*
X159061904Y-95960714D01*
X159157142Y-96008333D01*
X159204761Y-96055952D01*
X159252380Y-96151190D01*
X159252380Y-96246428D01*
X159204761Y-96341666D01*
X159157142Y-96389285D01*
X159061904Y-96436904D01*
X158871428Y-96484523D01*
X158633333Y-96484523D01*
X158442857Y-96436904D01*
X158347619Y-96389285D01*
X158300000Y-96341666D01*
X158252380Y-96246428D01*
X150682142Y-92007142D02*
X150634523Y-92054761D01*
X150491666Y-92102380D01*
X150396428Y-92102380D01*
X150253571Y-92054761D01*
X150158333Y-91959523D01*
X150110714Y-91864285D01*
X150063095Y-91673809D01*
X150063095Y-91530952D01*
X150110714Y-91340476D01*
X150158333Y-91245238D01*
X150253571Y-91150000D01*
X150396428Y-91102380D01*
X150491666Y-91102380D01*
X150634523Y-91150000D01*
X150682142Y-91197619D01*
X151539285Y-91435714D02*
X151539285Y-92102380D01*
X151301190Y-91054761D02*
X151063095Y-91769047D01*
X151682142Y-91769047D01*
X152586904Y-92102380D02*
X152015476Y-92102380D01*
X152301190Y-92102380D02*
X152301190Y-91102380D01*
X152205952Y-91245238D01*
X152110714Y-91340476D01*
X152015476Y-91388095D01*
X174357142Y-120642857D02*
X174404761Y-120690476D01*
X174452380Y-120833333D01*
X174452380Y-120928571D01*
X174404761Y-121071428D01*
X174309523Y-121166666D01*
X174214285Y-121214285D01*
X174023809Y-121261904D01*
X173880952Y-121261904D01*
X173690476Y-121214285D01*
X173595238Y-121166666D01*
X173500000Y-121071428D01*
X173452380Y-120928571D01*
X173452380Y-120833333D01*
X173500000Y-120690476D01*
X173547619Y-120642857D01*
X173785714Y-119785714D02*
X174452380Y-119785714D01*
X173404761Y-120023809D02*
X174119047Y-120261904D01*
X174119047Y-119642857D01*
X173547619Y-119309523D02*
X173500000Y-119261904D01*
X173452380Y-119166666D01*
X173452380Y-118928571D01*
X173500000Y-118833333D01*
X173547619Y-118785714D01*
X173642857Y-118738095D01*
X173738095Y-118738095D01*
X173880952Y-118785714D01*
X174452380Y-119357142D01*
X174452380Y-118738095D01*
X159307142Y-100532142D02*
X159259523Y-100579761D01*
X159116666Y-100627380D01*
X159021428Y-100627380D01*
X158878571Y-100579761D01*
X158783333Y-100484523D01*
X158735714Y-100389285D01*
X158688095Y-100198809D01*
X158688095Y-100055952D01*
X158735714Y-99865476D01*
X158783333Y-99770238D01*
X158878571Y-99675000D01*
X159021428Y-99627380D01*
X159116666Y-99627380D01*
X159259523Y-99675000D01*
X159307142Y-99722619D01*
X160164285Y-99960714D02*
X160164285Y-100627380D01*
X159926190Y-99579761D02*
X159688095Y-100294047D01*
X160307142Y-100294047D01*
X160592857Y-99627380D02*
X161211904Y-99627380D01*
X160878571Y-100008333D01*
X161021428Y-100008333D01*
X161116666Y-100055952D01*
X161164285Y-100103571D01*
X161211904Y-100198809D01*
X161211904Y-100436904D01*
X161164285Y-100532142D01*
X161116666Y-100579761D01*
X161021428Y-100627380D01*
X160735714Y-100627380D01*
X160640476Y-100579761D01*
X160592857Y-100532142D01*
X157182142Y-104832142D02*
X157134523Y-104879761D01*
X156991666Y-104927380D01*
X156896428Y-104927380D01*
X156753571Y-104879761D01*
X156658333Y-104784523D01*
X156610714Y-104689285D01*
X156563095Y-104498809D01*
X156563095Y-104355952D01*
X156610714Y-104165476D01*
X156658333Y-104070238D01*
X156753571Y-103975000D01*
X156896428Y-103927380D01*
X156991666Y-103927380D01*
X157134523Y-103975000D01*
X157182142Y-104022619D01*
X158039285Y-104260714D02*
X158039285Y-104927380D01*
X157801190Y-103879761D02*
X157563095Y-104594047D01*
X158182142Y-104594047D01*
X158991666Y-104260714D02*
X158991666Y-104927380D01*
X158753571Y-103879761D02*
X158515476Y-104594047D01*
X159134523Y-104594047D01*
X149362142Y-95667857D02*
X149409761Y-95715476D01*
X149457380Y-95858333D01*
X149457380Y-95953571D01*
X149409761Y-96096428D01*
X149314523Y-96191666D01*
X149219285Y-96239285D01*
X149028809Y-96286904D01*
X148885952Y-96286904D01*
X148695476Y-96239285D01*
X148600238Y-96191666D01*
X148505000Y-96096428D01*
X148457380Y-95953571D01*
X148457380Y-95858333D01*
X148505000Y-95715476D01*
X148552619Y-95667857D01*
X148790714Y-94810714D02*
X149457380Y-94810714D01*
X148409761Y-95048809D02*
X149124047Y-95286904D01*
X149124047Y-94667857D01*
X148457380Y-93810714D02*
X148457380Y-94286904D01*
X148933571Y-94334523D01*
X148885952Y-94286904D01*
X148838333Y-94191666D01*
X148838333Y-93953571D01*
X148885952Y-93858333D01*
X148933571Y-93810714D01*
X149028809Y-93763095D01*
X149266904Y-93763095D01*
X149362142Y-93810714D01*
X149409761Y-93858333D01*
X149457380Y-93953571D01*
X149457380Y-94191666D01*
X149409761Y-94286904D01*
X149362142Y-94334523D01*
X144562142Y-100632142D02*
X144514523Y-100679761D01*
X144371666Y-100727380D01*
X144276428Y-100727380D01*
X144133571Y-100679761D01*
X144038333Y-100584523D01*
X143990714Y-100489285D01*
X143943095Y-100298809D01*
X143943095Y-100155952D01*
X143990714Y-99965476D01*
X144038333Y-99870238D01*
X144133571Y-99775000D01*
X144276428Y-99727380D01*
X144371666Y-99727380D01*
X144514523Y-99775000D01*
X144562142Y-99822619D01*
X145419285Y-100060714D02*
X145419285Y-100727380D01*
X145181190Y-99679761D02*
X144943095Y-100394047D01*
X145562142Y-100394047D01*
X145847857Y-99727380D02*
X146514523Y-99727380D01*
X146085952Y-100727380D01*
X147857142Y-95617857D02*
X147904761Y-95665476D01*
X147952380Y-95808333D01*
X147952380Y-95903571D01*
X147904761Y-96046428D01*
X147809523Y-96141666D01*
X147714285Y-96189285D01*
X147523809Y-96236904D01*
X147380952Y-96236904D01*
X147190476Y-96189285D01*
X147095238Y-96141666D01*
X147000000Y-96046428D01*
X146952380Y-95903571D01*
X146952380Y-95808333D01*
X147000000Y-95665476D01*
X147047619Y-95617857D01*
X147285714Y-94760714D02*
X147952380Y-94760714D01*
X146904761Y-94998809D02*
X147619047Y-95236904D01*
X147619047Y-94617857D01*
X147380952Y-94094047D02*
X147333333Y-94189285D01*
X147285714Y-94236904D01*
X147190476Y-94284523D01*
X147142857Y-94284523D01*
X147047619Y-94236904D01*
X147000000Y-94189285D01*
X146952380Y-94094047D01*
X146952380Y-93903571D01*
X147000000Y-93808333D01*
X147047619Y-93760714D01*
X147142857Y-93713095D01*
X147190476Y-93713095D01*
X147285714Y-93760714D01*
X147333333Y-93808333D01*
X147380952Y-93903571D01*
X147380952Y-94094047D01*
X147428571Y-94189285D01*
X147476190Y-94236904D01*
X147571428Y-94284523D01*
X147761904Y-94284523D01*
X147857142Y-94236904D01*
X147904761Y-94189285D01*
X147952380Y-94094047D01*
X147952380Y-93903571D01*
X147904761Y-93808333D01*
X147857142Y-93760714D01*
X147761904Y-93713095D01*
X147571428Y-93713095D01*
X147476190Y-93760714D01*
X147428571Y-93808333D01*
X147380952Y-93903571D01*
X116736904Y-127577380D02*
X116736904Y-126577380D01*
X116975000Y-126577380D01*
X117117857Y-126625000D01*
X117213095Y-126720238D01*
X117260714Y-126815476D01*
X117308333Y-127005952D01*
X117308333Y-127148809D01*
X117260714Y-127339285D01*
X117213095Y-127434523D01*
X117117857Y-127529761D01*
X116975000Y-127577380D01*
X116736904Y-127577380D01*
X118260714Y-127577380D02*
X117689285Y-127577380D01*
X117975000Y-127577380D02*
X117975000Y-126577380D01*
X117879761Y-126720238D01*
X117784523Y-126815476D01*
X117689285Y-126863095D01*
X116716904Y-122862380D02*
X116716904Y-121862380D01*
X116955000Y-121862380D01*
X117097857Y-121910000D01*
X117193095Y-122005238D01*
X117240714Y-122100476D01*
X117288333Y-122290952D01*
X117288333Y-122433809D01*
X117240714Y-122624285D01*
X117193095Y-122719523D01*
X117097857Y-122814761D01*
X116955000Y-122862380D01*
X116716904Y-122862380D01*
X117669285Y-121957619D02*
X117716904Y-121910000D01*
X117812142Y-121862380D01*
X118050238Y-121862380D01*
X118145476Y-121910000D01*
X118193095Y-121957619D01*
X118240714Y-122052857D01*
X118240714Y-122148095D01*
X118193095Y-122290952D01*
X117621666Y-122862380D01*
X118240714Y-122862380D01*
D15*
X157171428Y-111710714D02*
X156571428Y-111710714D01*
X157114285Y-111082142D02*
X157142857Y-111110714D01*
X157171428Y-111196428D01*
X157171428Y-111253571D01*
X157142857Y-111339285D01*
X157085714Y-111396428D01*
X157028571Y-111425000D01*
X156914285Y-111453571D01*
X156828571Y-111453571D01*
X156714285Y-111425000D01*
X156657142Y-111396428D01*
X156600000Y-111339285D01*
X156571428Y-111253571D01*
X156571428Y-111196428D01*
X156600000Y-111110714D01*
X156628571Y-111082142D01*
X156771428Y-110567857D02*
X157171428Y-110567857D01*
X156542857Y-110710714D02*
X156971428Y-110853571D01*
X156971428Y-110482142D01*
D14*
X174452380Y-129033333D02*
X175166666Y-129033333D01*
X175309523Y-129080952D01*
X175404761Y-129176190D01*
X175452380Y-129319047D01*
X175452380Y-129414285D01*
X175452380Y-128557142D02*
X174452380Y-128557142D01*
X174452380Y-128176190D01*
X174500000Y-128080952D01*
X174547619Y-128033333D01*
X174642857Y-127985714D01*
X174785714Y-127985714D01*
X174880952Y-128033333D01*
X174928571Y-128080952D01*
X174976190Y-128176190D01*
X174976190Y-128557142D01*
X175452380Y-127033333D02*
X175452380Y-127604761D01*
X175452380Y-127319047D02*
X174452380Y-127319047D01*
X174595238Y-127414285D01*
X174690476Y-127509523D01*
X174738095Y-127604761D01*
D15*
X111985000Y-113856428D02*
X111699285Y-113856428D01*
X111699285Y-113256428D01*
X112127857Y-113256428D02*
X112527857Y-113256428D01*
X112270714Y-113856428D01*
X122765000Y-110166428D02*
X122479285Y-110166428D01*
X122479285Y-109566428D01*
X123050714Y-109823571D02*
X122993571Y-109795000D01*
X122965000Y-109766428D01*
X122936428Y-109709285D01*
X122936428Y-109680714D01*
X122965000Y-109623571D01*
X122993571Y-109595000D01*
X123050714Y-109566428D01*
X123165000Y-109566428D01*
X123222142Y-109595000D01*
X123250714Y-109623571D01*
X123279285Y-109680714D01*
X123279285Y-109709285D01*
X123250714Y-109766428D01*
X123222142Y-109795000D01*
X123165000Y-109823571D01*
X123050714Y-109823571D01*
X122993571Y-109852142D01*
X122965000Y-109880714D01*
X122936428Y-109937857D01*
X122936428Y-110052142D01*
X122965000Y-110109285D01*
X122993571Y-110137857D01*
X123050714Y-110166428D01*
X123165000Y-110166428D01*
X123222142Y-110137857D01*
X123250714Y-110109285D01*
X123279285Y-110052142D01*
X123279285Y-109937857D01*
X123250714Y-109880714D01*
X123222142Y-109852142D01*
X123165000Y-109823571D01*
X121770000Y-94951428D02*
X121484285Y-94951428D01*
X121484285Y-94351428D01*
X121998571Y-94951428D02*
X122112857Y-94951428D01*
X122170000Y-94922857D01*
X122198571Y-94894285D01*
X122255714Y-94808571D01*
X122284285Y-94694285D01*
X122284285Y-94465714D01*
X122255714Y-94408571D01*
X122227142Y-94380000D01*
X122170000Y-94351428D01*
X122055714Y-94351428D01*
X121998571Y-94380000D01*
X121970000Y-94408571D01*
X121941428Y-94465714D01*
X121941428Y-94608571D01*
X121970000Y-94665714D01*
X121998571Y-94694285D01*
X122055714Y-94722857D01*
X122170000Y-94722857D01*
X122227142Y-94694285D01*
X122255714Y-94665714D01*
X122284285Y-94608571D01*
X111371428Y-98755714D02*
X111371428Y-99041428D01*
X110771428Y-99041428D01*
X111371428Y-98241428D02*
X111371428Y-98584285D01*
X111371428Y-98412857D02*
X110771428Y-98412857D01*
X110857142Y-98470000D01*
X110914285Y-98527142D01*
X110942857Y-98584285D01*
X110771428Y-97870000D02*
X110771428Y-97812857D01*
X110800000Y-97755714D01*
X110828571Y-97727142D01*
X110885714Y-97698571D01*
X111000000Y-97670000D01*
X111142857Y-97670000D01*
X111257142Y-97698571D01*
X111314285Y-97727142D01*
X111342857Y-97755714D01*
X111371428Y-97812857D01*
X111371428Y-97870000D01*
X111342857Y-97927142D01*
X111314285Y-97955714D01*
X111257142Y-97984285D01*
X111142857Y-98012857D01*
X111000000Y-98012857D01*
X110885714Y-97984285D01*
X110828571Y-97955714D01*
X110800000Y-97927142D01*
X110771428Y-97870000D01*
D14*
X161002380Y-105417857D02*
X160526190Y-105751190D01*
X161002380Y-105989285D02*
X160002380Y-105989285D01*
X160002380Y-105608333D01*
X160050000Y-105513095D01*
X160097619Y-105465476D01*
X160192857Y-105417857D01*
X160335714Y-105417857D01*
X160430952Y-105465476D01*
X160478571Y-105513095D01*
X160526190Y-105608333D01*
X160526190Y-105989285D01*
X161002380Y-104465476D02*
X161002380Y-105036904D01*
X161002380Y-104751190D02*
X160002380Y-104751190D01*
X160145238Y-104846428D01*
X160240476Y-104941666D01*
X160288095Y-105036904D01*
X161002380Y-103989285D02*
X161002380Y-103798809D01*
X160954761Y-103703571D01*
X160907142Y-103655952D01*
X160764285Y-103560714D01*
X160573809Y-103513095D01*
X160192857Y-103513095D01*
X160097619Y-103560714D01*
X160050000Y-103608333D01*
X160002380Y-103703571D01*
X160002380Y-103894047D01*
X160050000Y-103989285D01*
X160097619Y-104036904D01*
X160192857Y-104084523D01*
X160430952Y-104084523D01*
X160526190Y-104036904D01*
X160573809Y-103989285D01*
X160621428Y-103894047D01*
X160621428Y-103703571D01*
X160573809Y-103608333D01*
X160526190Y-103560714D01*
X160430952Y-103513095D01*
X162452380Y-103592857D02*
X161976190Y-103926190D01*
X162452380Y-104164285D02*
X161452380Y-104164285D01*
X161452380Y-103783333D01*
X161500000Y-103688095D01*
X161547619Y-103640476D01*
X161642857Y-103592857D01*
X161785714Y-103592857D01*
X161880952Y-103640476D01*
X161928571Y-103688095D01*
X161976190Y-103783333D01*
X161976190Y-104164285D01*
X161547619Y-103211904D02*
X161500000Y-103164285D01*
X161452380Y-103069047D01*
X161452380Y-102830952D01*
X161500000Y-102735714D01*
X161547619Y-102688095D01*
X161642857Y-102640476D01*
X161738095Y-102640476D01*
X161880952Y-102688095D01*
X162452380Y-103259523D01*
X162452380Y-102640476D01*
X161452380Y-102021428D02*
X161452380Y-101926190D01*
X161500000Y-101830952D01*
X161547619Y-101783333D01*
X161642857Y-101735714D01*
X161833333Y-101688095D01*
X162071428Y-101688095D01*
X162261904Y-101735714D01*
X162357142Y-101783333D01*
X162404761Y-101830952D01*
X162452380Y-101926190D01*
X162452380Y-102021428D01*
X162404761Y-102116666D01*
X162357142Y-102164285D01*
X162261904Y-102211904D01*
X162071428Y-102259523D01*
X161833333Y-102259523D01*
X161642857Y-102211904D01*
X161547619Y-102164285D01*
X161500000Y-102116666D01*
X161452380Y-102021428D01*
X151162380Y-80772857D02*
X150686190Y-81106190D01*
X151162380Y-81344285D02*
X150162380Y-81344285D01*
X150162380Y-80963333D01*
X150210000Y-80868095D01*
X150257619Y-80820476D01*
X150352857Y-80772857D01*
X150495714Y-80772857D01*
X150590952Y-80820476D01*
X150638571Y-80868095D01*
X150686190Y-80963333D01*
X150686190Y-81344285D01*
X150257619Y-80391904D02*
X150210000Y-80344285D01*
X150162380Y-80249047D01*
X150162380Y-80010952D01*
X150210000Y-79915714D01*
X150257619Y-79868095D01*
X150352857Y-79820476D01*
X150448095Y-79820476D01*
X150590952Y-79868095D01*
X151162380Y-80439523D01*
X151162380Y-79820476D01*
X151162380Y-78868095D02*
X151162380Y-79439523D01*
X151162380Y-79153809D02*
X150162380Y-79153809D01*
X150305238Y-79249047D01*
X150400476Y-79344285D01*
X150448095Y-79439523D01*
X156252380Y-80702857D02*
X155776190Y-81036190D01*
X156252380Y-81274285D02*
X155252380Y-81274285D01*
X155252380Y-80893333D01*
X155300000Y-80798095D01*
X155347619Y-80750476D01*
X155442857Y-80702857D01*
X155585714Y-80702857D01*
X155680952Y-80750476D01*
X155728571Y-80798095D01*
X155776190Y-80893333D01*
X155776190Y-81274285D01*
X155347619Y-80321904D02*
X155300000Y-80274285D01*
X155252380Y-80179047D01*
X155252380Y-79940952D01*
X155300000Y-79845714D01*
X155347619Y-79798095D01*
X155442857Y-79750476D01*
X155538095Y-79750476D01*
X155680952Y-79798095D01*
X156252380Y-80369523D01*
X156252380Y-79750476D01*
X155347619Y-79369523D02*
X155300000Y-79321904D01*
X155252380Y-79226666D01*
X155252380Y-78988571D01*
X155300000Y-78893333D01*
X155347619Y-78845714D01*
X155442857Y-78798095D01*
X155538095Y-78798095D01*
X155680952Y-78845714D01*
X156252380Y-79417142D01*
X156252380Y-78798095D01*
X119632142Y-127577380D02*
X119298809Y-127101190D01*
X119060714Y-127577380D02*
X119060714Y-126577380D01*
X119441666Y-126577380D01*
X119536904Y-126625000D01*
X119584523Y-126672619D01*
X119632142Y-126767857D01*
X119632142Y-126910714D01*
X119584523Y-127005952D01*
X119536904Y-127053571D01*
X119441666Y-127101190D01*
X119060714Y-127101190D01*
X120013095Y-126672619D02*
X120060714Y-126625000D01*
X120155952Y-126577380D01*
X120394047Y-126577380D01*
X120489285Y-126625000D01*
X120536904Y-126672619D01*
X120584523Y-126767857D01*
X120584523Y-126863095D01*
X120536904Y-127005952D01*
X119965476Y-127577380D01*
X120584523Y-127577380D01*
X120917857Y-126577380D02*
X121536904Y-126577380D01*
X121203571Y-126958333D01*
X121346428Y-126958333D01*
X121441666Y-127005952D01*
X121489285Y-127053571D01*
X121536904Y-127148809D01*
X121536904Y-127386904D01*
X121489285Y-127482142D01*
X121441666Y-127529761D01*
X121346428Y-127577380D01*
X121060714Y-127577380D01*
X120965476Y-127529761D01*
X120917857Y-127482142D01*
X119607142Y-122852380D02*
X119273809Y-122376190D01*
X119035714Y-122852380D02*
X119035714Y-121852380D01*
X119416666Y-121852380D01*
X119511904Y-121900000D01*
X119559523Y-121947619D01*
X119607142Y-122042857D01*
X119607142Y-122185714D01*
X119559523Y-122280952D01*
X119511904Y-122328571D01*
X119416666Y-122376190D01*
X119035714Y-122376190D01*
X119988095Y-121947619D02*
X120035714Y-121900000D01*
X120130952Y-121852380D01*
X120369047Y-121852380D01*
X120464285Y-121900000D01*
X120511904Y-121947619D01*
X120559523Y-122042857D01*
X120559523Y-122138095D01*
X120511904Y-122280952D01*
X119940476Y-122852380D01*
X120559523Y-122852380D01*
X121416666Y-122185714D02*
X121416666Y-122852380D01*
X121178571Y-121804761D02*
X120940476Y-122519047D01*
X121559523Y-122519047D01*
X168357142Y-120892380D02*
X168023809Y-120416190D01*
X167785714Y-120892380D02*
X167785714Y-119892380D01*
X168166666Y-119892380D01*
X168261904Y-119940000D01*
X168309523Y-119987619D01*
X168357142Y-120082857D01*
X168357142Y-120225714D01*
X168309523Y-120320952D01*
X168261904Y-120368571D01*
X168166666Y-120416190D01*
X167785714Y-120416190D01*
X168738095Y-119987619D02*
X168785714Y-119940000D01*
X168880952Y-119892380D01*
X169119047Y-119892380D01*
X169214285Y-119940000D01*
X169261904Y-119987619D01*
X169309523Y-120082857D01*
X169309523Y-120178095D01*
X169261904Y-120320952D01*
X168690476Y-120892380D01*
X169309523Y-120892380D01*
X170214285Y-119892380D02*
X169738095Y-119892380D01*
X169690476Y-120368571D01*
X169738095Y-120320952D01*
X169833333Y-120273333D01*
X170071428Y-120273333D01*
X170166666Y-120320952D01*
X170214285Y-120368571D01*
X170261904Y-120463809D01*
X170261904Y-120701904D01*
X170214285Y-120797142D01*
X170166666Y-120844761D01*
X170071428Y-120892380D01*
X169833333Y-120892380D01*
X169738095Y-120844761D01*
X169690476Y-120797142D01*
X150632142Y-93302380D02*
X150298809Y-92826190D01*
X150060714Y-93302380D02*
X150060714Y-92302380D01*
X150441666Y-92302380D01*
X150536904Y-92350000D01*
X150584523Y-92397619D01*
X150632142Y-92492857D01*
X150632142Y-92635714D01*
X150584523Y-92730952D01*
X150536904Y-92778571D01*
X150441666Y-92826190D01*
X150060714Y-92826190D01*
X151013095Y-92397619D02*
X151060714Y-92350000D01*
X151155952Y-92302380D01*
X151394047Y-92302380D01*
X151489285Y-92350000D01*
X151536904Y-92397619D01*
X151584523Y-92492857D01*
X151584523Y-92588095D01*
X151536904Y-92730952D01*
X150965476Y-93302380D01*
X151584523Y-93302380D01*
X152441666Y-92302380D02*
X152251190Y-92302380D01*
X152155952Y-92350000D01*
X152108333Y-92397619D01*
X152013095Y-92540476D01*
X151965476Y-92730952D01*
X151965476Y-93111904D01*
X152013095Y-93207142D01*
X152060714Y-93254761D01*
X152155952Y-93302380D01*
X152346428Y-93302380D01*
X152441666Y-93254761D01*
X152489285Y-93207142D01*
X152536904Y-93111904D01*
X152536904Y-92873809D01*
X152489285Y-92778571D01*
X152441666Y-92730952D01*
X152346428Y-92683333D01*
X152155952Y-92683333D01*
X152060714Y-92730952D01*
X152013095Y-92778571D01*
X151965476Y-92873809D01*
X157952380Y-98642857D02*
X157476190Y-98976190D01*
X157952380Y-99214285D02*
X156952380Y-99214285D01*
X156952380Y-98833333D01*
X157000000Y-98738095D01*
X157047619Y-98690476D01*
X157142857Y-98642857D01*
X157285714Y-98642857D01*
X157380952Y-98690476D01*
X157428571Y-98738095D01*
X157476190Y-98833333D01*
X157476190Y-99214285D01*
X157047619Y-98261904D02*
X157000000Y-98214285D01*
X156952380Y-98119047D01*
X156952380Y-97880952D01*
X157000000Y-97785714D01*
X157047619Y-97738095D01*
X157142857Y-97690476D01*
X157238095Y-97690476D01*
X157380952Y-97738095D01*
X157952380Y-98309523D01*
X157952380Y-97690476D01*
X156952380Y-97357142D02*
X156952380Y-96690476D01*
X157952380Y-97119047D01*
X153702380Y-98767857D02*
X153226190Y-99101190D01*
X153702380Y-99339285D02*
X152702380Y-99339285D01*
X152702380Y-98958333D01*
X152750000Y-98863095D01*
X152797619Y-98815476D01*
X152892857Y-98767857D01*
X153035714Y-98767857D01*
X153130952Y-98815476D01*
X153178571Y-98863095D01*
X153226190Y-98958333D01*
X153226190Y-99339285D01*
X152797619Y-98386904D02*
X152750000Y-98339285D01*
X152702380Y-98244047D01*
X152702380Y-98005952D01*
X152750000Y-97910714D01*
X152797619Y-97863095D01*
X152892857Y-97815476D01*
X152988095Y-97815476D01*
X153130952Y-97863095D01*
X153702380Y-98434523D01*
X153702380Y-97815476D01*
X153130952Y-97244047D02*
X153083333Y-97339285D01*
X153035714Y-97386904D01*
X152940476Y-97434523D01*
X152892857Y-97434523D01*
X152797619Y-97386904D01*
X152750000Y-97339285D01*
X152702380Y-97244047D01*
X152702380Y-97053571D01*
X152750000Y-96958333D01*
X152797619Y-96910714D01*
X152892857Y-96863095D01*
X152940476Y-96863095D01*
X153035714Y-96910714D01*
X153083333Y-96958333D01*
X153130952Y-97053571D01*
X153130952Y-97244047D01*
X153178571Y-97339285D01*
X153226190Y-97386904D01*
X153321428Y-97434523D01*
X153511904Y-97434523D01*
X153607142Y-97386904D01*
X153654761Y-97339285D01*
X153702380Y-97244047D01*
X153702380Y-97053571D01*
X153654761Y-96958333D01*
X153607142Y-96910714D01*
X153511904Y-96863095D01*
X153321428Y-96863095D01*
X153226190Y-96910714D01*
X153178571Y-96958333D01*
X153130952Y-97053571D01*
X152207142Y-109827380D02*
X151873809Y-109351190D01*
X151635714Y-109827380D02*
X151635714Y-108827380D01*
X152016666Y-108827380D01*
X152111904Y-108875000D01*
X152159523Y-108922619D01*
X152207142Y-109017857D01*
X152207142Y-109160714D01*
X152159523Y-109255952D01*
X152111904Y-109303571D01*
X152016666Y-109351190D01*
X151635714Y-109351190D01*
X152588095Y-108922619D02*
X152635714Y-108875000D01*
X152730952Y-108827380D01*
X152969047Y-108827380D01*
X153064285Y-108875000D01*
X153111904Y-108922619D01*
X153159523Y-109017857D01*
X153159523Y-109113095D01*
X153111904Y-109255952D01*
X152540476Y-109827380D01*
X153159523Y-109827380D01*
X153635714Y-109827380D02*
X153826190Y-109827380D01*
X153921428Y-109779761D01*
X153969047Y-109732142D01*
X154064285Y-109589285D01*
X154111904Y-109398809D01*
X154111904Y-109017857D01*
X154064285Y-108922619D01*
X154016666Y-108875000D01*
X153921428Y-108827380D01*
X153730952Y-108827380D01*
X153635714Y-108875000D01*
X153588095Y-108922619D01*
X153540476Y-109017857D01*
X153540476Y-109255952D01*
X153588095Y-109351190D01*
X153635714Y-109398809D01*
X153730952Y-109446428D01*
X153921428Y-109446428D01*
X154016666Y-109398809D01*
X154064285Y-109351190D01*
X154111904Y-109255952D01*
X157757142Y-108052380D02*
X157423809Y-107576190D01*
X157185714Y-108052380D02*
X157185714Y-107052380D01*
X157566666Y-107052380D01*
X157661904Y-107100000D01*
X157709523Y-107147619D01*
X157757142Y-107242857D01*
X157757142Y-107385714D01*
X157709523Y-107480952D01*
X157661904Y-107528571D01*
X157566666Y-107576190D01*
X157185714Y-107576190D01*
X158090476Y-107052380D02*
X158709523Y-107052380D01*
X158376190Y-107433333D01*
X158519047Y-107433333D01*
X158614285Y-107480952D01*
X158661904Y-107528571D01*
X158709523Y-107623809D01*
X158709523Y-107861904D01*
X158661904Y-107957142D01*
X158614285Y-108004761D01*
X158519047Y-108052380D01*
X158233333Y-108052380D01*
X158138095Y-108004761D01*
X158090476Y-107957142D01*
X159328571Y-107052380D02*
X159423809Y-107052380D01*
X159519047Y-107100000D01*
X159566666Y-107147619D01*
X159614285Y-107242857D01*
X159661904Y-107433333D01*
X159661904Y-107671428D01*
X159614285Y-107861904D01*
X159566666Y-107957142D01*
X159519047Y-108004761D01*
X159423809Y-108052380D01*
X159328571Y-108052380D01*
X159233333Y-108004761D01*
X159185714Y-107957142D01*
X159138095Y-107861904D01*
X159090476Y-107671428D01*
X159090476Y-107433333D01*
X159138095Y-107242857D01*
X159185714Y-107147619D01*
X159233333Y-107100000D01*
X159328571Y-107052380D01*
X151002380Y-95567857D02*
X150526190Y-95901190D01*
X151002380Y-96139285D02*
X150002380Y-96139285D01*
X150002380Y-95758333D01*
X150050000Y-95663095D01*
X150097619Y-95615476D01*
X150192857Y-95567857D01*
X150335714Y-95567857D01*
X150430952Y-95615476D01*
X150478571Y-95663095D01*
X150526190Y-95758333D01*
X150526190Y-96139285D01*
X150002380Y-95234523D02*
X150002380Y-94615476D01*
X150383333Y-94948809D01*
X150383333Y-94805952D01*
X150430952Y-94710714D01*
X150478571Y-94663095D01*
X150573809Y-94615476D01*
X150811904Y-94615476D01*
X150907142Y-94663095D01*
X150954761Y-94710714D01*
X151002380Y-94805952D01*
X151002380Y-95091666D01*
X150954761Y-95186904D01*
X150907142Y-95234523D01*
X151002380Y-93663095D02*
X151002380Y-94234523D01*
X151002380Y-93948809D02*
X150002380Y-93948809D01*
X150145238Y-94044047D01*
X150240476Y-94139285D01*
X150288095Y-94234523D01*
X156157142Y-102102380D02*
X155823809Y-101626190D01*
X155585714Y-102102380D02*
X155585714Y-101102380D01*
X155966666Y-101102380D01*
X156061904Y-101150000D01*
X156109523Y-101197619D01*
X156157142Y-101292857D01*
X156157142Y-101435714D01*
X156109523Y-101530952D01*
X156061904Y-101578571D01*
X155966666Y-101626190D01*
X155585714Y-101626190D01*
X156490476Y-101102380D02*
X157109523Y-101102380D01*
X156776190Y-101483333D01*
X156919047Y-101483333D01*
X157014285Y-101530952D01*
X157061904Y-101578571D01*
X157109523Y-101673809D01*
X157109523Y-101911904D01*
X157061904Y-102007142D01*
X157014285Y-102054761D01*
X156919047Y-102102380D01*
X156633333Y-102102380D01*
X156538095Y-102054761D01*
X156490476Y-102007142D01*
X157490476Y-101197619D02*
X157538095Y-101150000D01*
X157633333Y-101102380D01*
X157871428Y-101102380D01*
X157966666Y-101150000D01*
X158014285Y-101197619D01*
X158061904Y-101292857D01*
X158061904Y-101388095D01*
X158014285Y-101530952D01*
X157442857Y-102102380D01*
X158061904Y-102102380D01*
X152577380Y-95492857D02*
X152101190Y-95826190D01*
X152577380Y-96064285D02*
X151577380Y-96064285D01*
X151577380Y-95683333D01*
X151625000Y-95588095D01*
X151672619Y-95540476D01*
X151767857Y-95492857D01*
X151910714Y-95492857D01*
X152005952Y-95540476D01*
X152053571Y-95588095D01*
X152101190Y-95683333D01*
X152101190Y-96064285D01*
X151577380Y-95159523D02*
X151577380Y-94540476D01*
X151958333Y-94873809D01*
X151958333Y-94730952D01*
X152005952Y-94635714D01*
X152053571Y-94588095D01*
X152148809Y-94540476D01*
X152386904Y-94540476D01*
X152482142Y-94588095D01*
X152529761Y-94635714D01*
X152577380Y-94730952D01*
X152577380Y-95016666D01*
X152529761Y-95111904D01*
X152482142Y-95159523D01*
X151577380Y-94207142D02*
X151577380Y-93588095D01*
X151958333Y-93921428D01*
X151958333Y-93778571D01*
X152005952Y-93683333D01*
X152053571Y-93635714D01*
X152148809Y-93588095D01*
X152386904Y-93588095D01*
X152482142Y-93635714D01*
X152529761Y-93683333D01*
X152577380Y-93778571D01*
X152577380Y-94064285D01*
X152529761Y-94159523D01*
X152482142Y-94207142D01*
X157282142Y-106452380D02*
X156948809Y-105976190D01*
X156710714Y-106452380D02*
X156710714Y-105452380D01*
X157091666Y-105452380D01*
X157186904Y-105500000D01*
X157234523Y-105547619D01*
X157282142Y-105642857D01*
X157282142Y-105785714D01*
X157234523Y-105880952D01*
X157186904Y-105928571D01*
X157091666Y-105976190D01*
X156710714Y-105976190D01*
X157615476Y-105452380D02*
X158234523Y-105452380D01*
X157901190Y-105833333D01*
X158044047Y-105833333D01*
X158139285Y-105880952D01*
X158186904Y-105928571D01*
X158234523Y-106023809D01*
X158234523Y-106261904D01*
X158186904Y-106357142D01*
X158139285Y-106404761D01*
X158044047Y-106452380D01*
X157758333Y-106452380D01*
X157663095Y-106404761D01*
X157615476Y-106357142D01*
X159091666Y-105785714D02*
X159091666Y-106452380D01*
X158853571Y-105404761D02*
X158615476Y-106119047D01*
X159234523Y-106119047D01*
X168497380Y-98342857D02*
X168021190Y-98676190D01*
X168497380Y-98914285D02*
X167497380Y-98914285D01*
X167497380Y-98533333D01*
X167545000Y-98438095D01*
X167592619Y-98390476D01*
X167687857Y-98342857D01*
X167830714Y-98342857D01*
X167925952Y-98390476D01*
X167973571Y-98438095D01*
X168021190Y-98533333D01*
X168021190Y-98914285D01*
X167497380Y-98009523D02*
X167497380Y-97390476D01*
X167878333Y-97723809D01*
X167878333Y-97580952D01*
X167925952Y-97485714D01*
X167973571Y-97438095D01*
X168068809Y-97390476D01*
X168306904Y-97390476D01*
X168402142Y-97438095D01*
X168449761Y-97485714D01*
X168497380Y-97580952D01*
X168497380Y-97866666D01*
X168449761Y-97961904D01*
X168402142Y-98009523D01*
X167497380Y-96485714D02*
X167497380Y-96961904D01*
X167973571Y-97009523D01*
X167925952Y-96961904D01*
X167878333Y-96866666D01*
X167878333Y-96628571D01*
X167925952Y-96533333D01*
X167973571Y-96485714D01*
X168068809Y-96438095D01*
X168306904Y-96438095D01*
X168402142Y-96485714D01*
X168449761Y-96533333D01*
X168497380Y-96628571D01*
X168497380Y-96866666D01*
X168449761Y-96961904D01*
X168402142Y-97009523D01*
X176672380Y-98267857D02*
X176196190Y-98601190D01*
X176672380Y-98839285D02*
X175672380Y-98839285D01*
X175672380Y-98458333D01*
X175720000Y-98363095D01*
X175767619Y-98315476D01*
X175862857Y-98267857D01*
X176005714Y-98267857D01*
X176100952Y-98315476D01*
X176148571Y-98363095D01*
X176196190Y-98458333D01*
X176196190Y-98839285D01*
X175672380Y-97934523D02*
X175672380Y-97315476D01*
X176053333Y-97648809D01*
X176053333Y-97505952D01*
X176100952Y-97410714D01*
X176148571Y-97363095D01*
X176243809Y-97315476D01*
X176481904Y-97315476D01*
X176577142Y-97363095D01*
X176624761Y-97410714D01*
X176672380Y-97505952D01*
X176672380Y-97791666D01*
X176624761Y-97886904D01*
X176577142Y-97934523D01*
X175672380Y-96458333D02*
X175672380Y-96648809D01*
X175720000Y-96744047D01*
X175767619Y-96791666D01*
X175910476Y-96886904D01*
X176100952Y-96934523D01*
X176481904Y-96934523D01*
X176577142Y-96886904D01*
X176624761Y-96839285D01*
X176672380Y-96744047D01*
X176672380Y-96553571D01*
X176624761Y-96458333D01*
X176577142Y-96410714D01*
X176481904Y-96363095D01*
X176243809Y-96363095D01*
X176148571Y-96410714D01*
X176100952Y-96458333D01*
X176053333Y-96553571D01*
X176053333Y-96744047D01*
X176100952Y-96839285D01*
X176148571Y-96886904D01*
X176243809Y-96934523D01*
X159952380Y-75497857D02*
X159476190Y-75831190D01*
X159952380Y-76069285D02*
X158952380Y-76069285D01*
X158952380Y-75688333D01*
X159000000Y-75593095D01*
X159047619Y-75545476D01*
X159142857Y-75497857D01*
X159285714Y-75497857D01*
X159380952Y-75545476D01*
X159428571Y-75593095D01*
X159476190Y-75688333D01*
X159476190Y-76069285D01*
X158952380Y-75164523D02*
X158952380Y-74545476D01*
X159333333Y-74878809D01*
X159333333Y-74735952D01*
X159380952Y-74640714D01*
X159428571Y-74593095D01*
X159523809Y-74545476D01*
X159761904Y-74545476D01*
X159857142Y-74593095D01*
X159904761Y-74640714D01*
X159952380Y-74735952D01*
X159952380Y-75021666D01*
X159904761Y-75116904D01*
X159857142Y-75164523D01*
X158952380Y-74212142D02*
X158952380Y-73545476D01*
X159952380Y-73974047D01*
X164952380Y-75517857D02*
X164476190Y-75851190D01*
X164952380Y-76089285D02*
X163952380Y-76089285D01*
X163952380Y-75708333D01*
X164000000Y-75613095D01*
X164047619Y-75565476D01*
X164142857Y-75517857D01*
X164285714Y-75517857D01*
X164380952Y-75565476D01*
X164428571Y-75613095D01*
X164476190Y-75708333D01*
X164476190Y-76089285D01*
X163952380Y-75184523D02*
X163952380Y-74565476D01*
X164333333Y-74898809D01*
X164333333Y-74755952D01*
X164380952Y-74660714D01*
X164428571Y-74613095D01*
X164523809Y-74565476D01*
X164761904Y-74565476D01*
X164857142Y-74613095D01*
X164904761Y-74660714D01*
X164952380Y-74755952D01*
X164952380Y-75041666D01*
X164904761Y-75136904D01*
X164857142Y-75184523D01*
X164380952Y-73994047D02*
X164333333Y-74089285D01*
X164285714Y-74136904D01*
X164190476Y-74184523D01*
X164142857Y-74184523D01*
X164047619Y-74136904D01*
X164000000Y-74089285D01*
X163952380Y-73994047D01*
X163952380Y-73803571D01*
X164000000Y-73708333D01*
X164047619Y-73660714D01*
X164142857Y-73613095D01*
X164190476Y-73613095D01*
X164285714Y-73660714D01*
X164333333Y-73708333D01*
X164380952Y-73803571D01*
X164380952Y-73994047D01*
X164428571Y-74089285D01*
X164476190Y-74136904D01*
X164571428Y-74184523D01*
X164761904Y-74184523D01*
X164857142Y-74136904D01*
X164904761Y-74089285D01*
X164952380Y-73994047D01*
X164952380Y-73803571D01*
X164904761Y-73708333D01*
X164857142Y-73660714D01*
X164761904Y-73613095D01*
X164571428Y-73613095D01*
X164476190Y-73660714D01*
X164428571Y-73708333D01*
X164380952Y-73803571D01*
D15*
X141526428Y-113200000D02*
X141240714Y-113400000D01*
X141526428Y-113542857D02*
X140926428Y-113542857D01*
X140926428Y-113314285D01*
X140955000Y-113257142D01*
X140983571Y-113228571D01*
X141040714Y-113200000D01*
X141126428Y-113200000D01*
X141183571Y-113228571D01*
X141212142Y-113257142D01*
X141240714Y-113314285D01*
X141240714Y-113542857D01*
X141526428Y-112942857D02*
X140926428Y-112942857D01*
X140926428Y-112714285D01*
X140955000Y-112657142D01*
X140983571Y-112628571D01*
X141040714Y-112600000D01*
X141126428Y-112600000D01*
X141183571Y-112628571D01*
X141212142Y-112657142D01*
X141240714Y-112714285D01*
X141240714Y-112942857D01*
X141526428Y-112028571D02*
X141526428Y-112371428D01*
X141526428Y-112200000D02*
X140926428Y-112200000D01*
X141012142Y-112257142D01*
X141069285Y-112314285D01*
X141097857Y-112371428D01*
X156426428Y-113175000D02*
X156140714Y-113375000D01*
X156426428Y-113517857D02*
X155826428Y-113517857D01*
X155826428Y-113289285D01*
X155855000Y-113232142D01*
X155883571Y-113203571D01*
X155940714Y-113175000D01*
X156026428Y-113175000D01*
X156083571Y-113203571D01*
X156112142Y-113232142D01*
X156140714Y-113289285D01*
X156140714Y-113517857D01*
X156426428Y-112917857D02*
X155826428Y-112917857D01*
X155826428Y-112689285D01*
X155855000Y-112632142D01*
X155883571Y-112603571D01*
X155940714Y-112575000D01*
X156026428Y-112575000D01*
X156083571Y-112603571D01*
X156112142Y-112632142D01*
X156140714Y-112689285D01*
X156140714Y-112917857D01*
X155883571Y-112346428D02*
X155855000Y-112317857D01*
X155826428Y-112260714D01*
X155826428Y-112117857D01*
X155855000Y-112060714D01*
X155883571Y-112032142D01*
X155940714Y-112003571D01*
X155997857Y-112003571D01*
X156083571Y-112032142D01*
X156426428Y-112375000D01*
X156426428Y-112003571D01*
D14*
X183479761Y-129333333D02*
X183527380Y-129190476D01*
X183527380Y-128952380D01*
X183479761Y-128857142D01*
X183432142Y-128809523D01*
X183336904Y-128761904D01*
X183241666Y-128761904D01*
X183146428Y-128809523D01*
X183098809Y-128857142D01*
X183051190Y-128952380D01*
X183003571Y-129142857D01*
X182955952Y-129238095D01*
X182908333Y-129285714D01*
X182813095Y-129333333D01*
X182717857Y-129333333D01*
X182622619Y-129285714D01*
X182575000Y-129238095D01*
X182527380Y-129142857D01*
X182527380Y-128904761D01*
X182575000Y-128761904D01*
X182527380Y-128428571D02*
X183527380Y-128190476D01*
X182813095Y-128000000D01*
X183527380Y-127809523D01*
X182527380Y-127571428D01*
X183527380Y-126666666D02*
X183527380Y-127238095D01*
X183527380Y-126952380D02*
X182527380Y-126952380D01*
X182670238Y-127047619D01*
X182765476Y-127142857D01*
X182813095Y-127238095D01*
D15*
X104971428Y-56160714D02*
X105571428Y-55760714D01*
X104971428Y-55760714D02*
X105571428Y-56160714D01*
X104971428Y-55589285D02*
X104971428Y-55189285D01*
X105571428Y-55446428D01*
X165560714Y-108485714D02*
X165846428Y-108485714D01*
X165246428Y-108685714D02*
X165560714Y-108485714D01*
X165246428Y-108285714D01*
X165846428Y-107771428D02*
X165846428Y-108114285D01*
X165846428Y-107942857D02*
X165246428Y-107942857D01*
X165332142Y-108000000D01*
X165389285Y-108057142D01*
X165417857Y-108114285D01*
D14*
X113663333Y-80947142D02*
X113615714Y-80994761D01*
X113472857Y-81042380D01*
X113377619Y-81042380D01*
X113234761Y-80994761D01*
X113139523Y-80899523D01*
X113091904Y-80804285D01*
X113044285Y-80613809D01*
X113044285Y-80470952D01*
X113091904Y-80280476D01*
X113139523Y-80185238D01*
X113234761Y-80090000D01*
X113377619Y-80042380D01*
X113472857Y-80042380D01*
X113615714Y-80090000D01*
X113663333Y-80137619D01*
X114044285Y-80137619D02*
X114091904Y-80090000D01*
X114187142Y-80042380D01*
X114425238Y-80042380D01*
X114520476Y-80090000D01*
X114568095Y-80137619D01*
X114615714Y-80232857D01*
X114615714Y-80328095D01*
X114568095Y-80470952D01*
X113996666Y-81042380D01*
X114615714Y-81042380D01*
X126883333Y-72037142D02*
X126835714Y-72084761D01*
X126692857Y-72132380D01*
X126597619Y-72132380D01*
X126454761Y-72084761D01*
X126359523Y-71989523D01*
X126311904Y-71894285D01*
X126264285Y-71703809D01*
X126264285Y-71560952D01*
X126311904Y-71370476D01*
X126359523Y-71275238D01*
X126454761Y-71180000D01*
X126597619Y-71132380D01*
X126692857Y-71132380D01*
X126835714Y-71180000D01*
X126883333Y-71227619D01*
X127359523Y-72132380D02*
X127550000Y-72132380D01*
X127645238Y-72084761D01*
X127692857Y-72037142D01*
X127788095Y-71894285D01*
X127835714Y-71703809D01*
X127835714Y-71322857D01*
X127788095Y-71227619D01*
X127740476Y-71180000D01*
X127645238Y-71132380D01*
X127454761Y-71132380D01*
X127359523Y-71180000D01*
X127311904Y-71227619D01*
X127264285Y-71322857D01*
X127264285Y-71560952D01*
X127311904Y-71656190D01*
X127359523Y-71703809D01*
X127454761Y-71751428D01*
X127645238Y-71751428D01*
X127740476Y-71703809D01*
X127788095Y-71656190D01*
X127835714Y-71560952D01*
X137662142Y-78327142D02*
X137614523Y-78374761D01*
X137471666Y-78422380D01*
X137376428Y-78422380D01*
X137233571Y-78374761D01*
X137138333Y-78279523D01*
X137090714Y-78184285D01*
X137043095Y-77993809D01*
X137043095Y-77850952D01*
X137090714Y-77660476D01*
X137138333Y-77565238D01*
X137233571Y-77470000D01*
X137376428Y-77422380D01*
X137471666Y-77422380D01*
X137614523Y-77470000D01*
X137662142Y-77517619D01*
X138614523Y-78422380D02*
X138043095Y-78422380D01*
X138328809Y-78422380D02*
X138328809Y-77422380D01*
X138233571Y-77565238D01*
X138138333Y-77660476D01*
X138043095Y-77708095D01*
X138947857Y-77422380D02*
X139566904Y-77422380D01*
X139233571Y-77803333D01*
X139376428Y-77803333D01*
X139471666Y-77850952D01*
X139519285Y-77898571D01*
X139566904Y-77993809D01*
X139566904Y-78231904D01*
X139519285Y-78327142D01*
X139471666Y-78374761D01*
X139376428Y-78422380D01*
X139090714Y-78422380D01*
X138995476Y-78374761D01*
X138947857Y-78327142D01*
X137527142Y-89547142D02*
X137479523Y-89594761D01*
X137336666Y-89642380D01*
X137241428Y-89642380D01*
X137098571Y-89594761D01*
X137003333Y-89499523D01*
X136955714Y-89404285D01*
X136908095Y-89213809D01*
X136908095Y-89070952D01*
X136955714Y-88880476D01*
X137003333Y-88785238D01*
X137098571Y-88690000D01*
X137241428Y-88642380D01*
X137336666Y-88642380D01*
X137479523Y-88690000D01*
X137527142Y-88737619D01*
X138479523Y-89642380D02*
X137908095Y-89642380D01*
X138193809Y-89642380D02*
X138193809Y-88642380D01*
X138098571Y-88785238D01*
X138003333Y-88880476D01*
X137908095Y-88928095D01*
X139384285Y-88642380D02*
X138908095Y-88642380D01*
X138860476Y-89118571D01*
X138908095Y-89070952D01*
X139003333Y-89023333D01*
X139241428Y-89023333D01*
X139336666Y-89070952D01*
X139384285Y-89118571D01*
X139431904Y-89213809D01*
X139431904Y-89451904D01*
X139384285Y-89547142D01*
X139336666Y-89594761D01*
X139241428Y-89642380D01*
X139003333Y-89642380D01*
X138908095Y-89594761D01*
X138860476Y-89547142D01*
X153415642Y-72706357D02*
X153463261Y-72753976D01*
X153510880Y-72896833D01*
X153510880Y-72992071D01*
X153463261Y-73134928D01*
X153368023Y-73230166D01*
X153272785Y-73277785D01*
X153082309Y-73325404D01*
X152939452Y-73325404D01*
X152748976Y-73277785D01*
X152653738Y-73230166D01*
X152558500Y-73134928D01*
X152510880Y-72992071D01*
X152510880Y-72896833D01*
X152558500Y-72753976D01*
X152606119Y-72706357D01*
X153510880Y-71753976D02*
X153510880Y-72325404D01*
X153510880Y-72039690D02*
X152510880Y-72039690D01*
X152653738Y-72134928D01*
X152748976Y-72230166D01*
X152796595Y-72325404D01*
X152510880Y-71420642D02*
X152510880Y-70753976D01*
X153510880Y-71182547D01*
X152427142Y-82707142D02*
X152379523Y-82754761D01*
X152236666Y-82802380D01*
X152141428Y-82802380D01*
X151998571Y-82754761D01*
X151903333Y-82659523D01*
X151855714Y-82564285D01*
X151808095Y-82373809D01*
X151808095Y-82230952D01*
X151855714Y-82040476D01*
X151903333Y-81945238D01*
X151998571Y-81850000D01*
X152141428Y-81802380D01*
X152236666Y-81802380D01*
X152379523Y-81850000D01*
X152427142Y-81897619D01*
X152808095Y-81897619D02*
X152855714Y-81850000D01*
X152950952Y-81802380D01*
X153189047Y-81802380D01*
X153284285Y-81850000D01*
X153331904Y-81897619D01*
X153379523Y-81992857D01*
X153379523Y-82088095D01*
X153331904Y-82230952D01*
X152760476Y-82802380D01*
X153379523Y-82802380D01*
X153998571Y-81802380D02*
X154093809Y-81802380D01*
X154189047Y-81850000D01*
X154236666Y-81897619D01*
X154284285Y-81992857D01*
X154331904Y-82183333D01*
X154331904Y-82421428D01*
X154284285Y-82611904D01*
X154236666Y-82707142D01*
X154189047Y-82754761D01*
X154093809Y-82802380D01*
X153998571Y-82802380D01*
X153903333Y-82754761D01*
X153855714Y-82707142D01*
X153808095Y-82611904D01*
X153760476Y-82421428D01*
X153760476Y-82183333D01*
X153808095Y-81992857D01*
X153855714Y-81897619D01*
X153903333Y-81850000D01*
X153998571Y-81802380D01*
X111703333Y-82517142D02*
X111655714Y-82564761D01*
X111512857Y-82612380D01*
X111417619Y-82612380D01*
X111274761Y-82564761D01*
X111179523Y-82469523D01*
X111131904Y-82374285D01*
X111084285Y-82183809D01*
X111084285Y-82040952D01*
X111131904Y-81850476D01*
X111179523Y-81755238D01*
X111274761Y-81660000D01*
X111417619Y-81612380D01*
X111512857Y-81612380D01*
X111655714Y-81660000D01*
X111703333Y-81707619D01*
X112655714Y-82612380D02*
X112084285Y-82612380D01*
X112370000Y-82612380D02*
X112370000Y-81612380D01*
X112274761Y-81755238D01*
X112179523Y-81850476D01*
X112084285Y-81898095D01*
X113407142Y-75986666D02*
X113454761Y-76034285D01*
X113502380Y-76177142D01*
X113502380Y-76272380D01*
X113454761Y-76415238D01*
X113359523Y-76510476D01*
X113264285Y-76558095D01*
X113073809Y-76605714D01*
X112930952Y-76605714D01*
X112740476Y-76558095D01*
X112645238Y-76510476D01*
X112550000Y-76415238D01*
X112502380Y-76272380D01*
X112502380Y-76177142D01*
X112550000Y-76034285D01*
X112597619Y-75986666D01*
X112502380Y-75653333D02*
X112502380Y-75034285D01*
X112883333Y-75367619D01*
X112883333Y-75224761D01*
X112930952Y-75129523D01*
X112978571Y-75081904D01*
X113073809Y-75034285D01*
X113311904Y-75034285D01*
X113407142Y-75081904D01*
X113454761Y-75129523D01*
X113502380Y-75224761D01*
X113502380Y-75510476D01*
X113454761Y-75605714D01*
X113407142Y-75653333D01*
X114007142Y-84196666D02*
X114054761Y-84244285D01*
X114102380Y-84387142D01*
X114102380Y-84482380D01*
X114054761Y-84625238D01*
X113959523Y-84720476D01*
X113864285Y-84768095D01*
X113673809Y-84815714D01*
X113530952Y-84815714D01*
X113340476Y-84768095D01*
X113245238Y-84720476D01*
X113150000Y-84625238D01*
X113102380Y-84482380D01*
X113102380Y-84387142D01*
X113150000Y-84244285D01*
X113197619Y-84196666D01*
X113102380Y-83291904D02*
X113102380Y-83768095D01*
X113578571Y-83815714D01*
X113530952Y-83768095D01*
X113483333Y-83672857D01*
X113483333Y-83434761D01*
X113530952Y-83339523D01*
X113578571Y-83291904D01*
X113673809Y-83244285D01*
X113911904Y-83244285D01*
X114007142Y-83291904D01*
X114054761Y-83339523D01*
X114102380Y-83434761D01*
X114102380Y-83672857D01*
X114054761Y-83768095D01*
X114007142Y-83815714D01*
X117307142Y-87436666D02*
X117354761Y-87484285D01*
X117402380Y-87627142D01*
X117402380Y-87722380D01*
X117354761Y-87865238D01*
X117259523Y-87960476D01*
X117164285Y-88008095D01*
X116973809Y-88055714D01*
X116830952Y-88055714D01*
X116640476Y-88008095D01*
X116545238Y-87960476D01*
X116450000Y-87865238D01*
X116402380Y-87722380D01*
X116402380Y-87627142D01*
X116450000Y-87484285D01*
X116497619Y-87436666D01*
X116402380Y-86579523D02*
X116402380Y-86770000D01*
X116450000Y-86865238D01*
X116497619Y-86912857D01*
X116640476Y-87008095D01*
X116830952Y-87055714D01*
X117211904Y-87055714D01*
X117307142Y-87008095D01*
X117354761Y-86960476D01*
X117402380Y-86865238D01*
X117402380Y-86674761D01*
X117354761Y-86579523D01*
X117307142Y-86531904D01*
X117211904Y-86484285D01*
X116973809Y-86484285D01*
X116878571Y-86531904D01*
X116830952Y-86579523D01*
X116783333Y-86674761D01*
X116783333Y-86865238D01*
X116830952Y-86960476D01*
X116878571Y-87008095D01*
X116973809Y-87055714D01*
X121453333Y-84357142D02*
X121405714Y-84404761D01*
X121262857Y-84452380D01*
X121167619Y-84452380D01*
X121024761Y-84404761D01*
X120929523Y-84309523D01*
X120881904Y-84214285D01*
X120834285Y-84023809D01*
X120834285Y-83880952D01*
X120881904Y-83690476D01*
X120929523Y-83595238D01*
X121024761Y-83500000D01*
X121167619Y-83452380D01*
X121262857Y-83452380D01*
X121405714Y-83500000D01*
X121453333Y-83547619D01*
X121786666Y-83452380D02*
X122453333Y-83452380D01*
X122024761Y-84452380D01*
X123187142Y-81016666D02*
X123234761Y-81064285D01*
X123282380Y-81207142D01*
X123282380Y-81302380D01*
X123234761Y-81445238D01*
X123139523Y-81540476D01*
X123044285Y-81588095D01*
X122853809Y-81635714D01*
X122710952Y-81635714D01*
X122520476Y-81588095D01*
X122425238Y-81540476D01*
X122330000Y-81445238D01*
X122282380Y-81302380D01*
X122282380Y-81207142D01*
X122330000Y-81064285D01*
X122377619Y-81016666D01*
X122710952Y-80445238D02*
X122663333Y-80540476D01*
X122615714Y-80588095D01*
X122520476Y-80635714D01*
X122472857Y-80635714D01*
X122377619Y-80588095D01*
X122330000Y-80540476D01*
X122282380Y-80445238D01*
X122282380Y-80254761D01*
X122330000Y-80159523D01*
X122377619Y-80111904D01*
X122472857Y-80064285D01*
X122520476Y-80064285D01*
X122615714Y-80111904D01*
X122663333Y-80159523D01*
X122710952Y-80254761D01*
X122710952Y-80445238D01*
X122758571Y-80540476D01*
X122806190Y-80588095D01*
X122901428Y-80635714D01*
X123091904Y-80635714D01*
X123187142Y-80588095D01*
X123234761Y-80540476D01*
X123282380Y-80445238D01*
X123282380Y-80254761D01*
X123234761Y-80159523D01*
X123187142Y-80111904D01*
X123091904Y-80064285D01*
X122901428Y-80064285D01*
X122806190Y-80111904D01*
X122758571Y-80159523D01*
X122710952Y-80254761D01*
X126957142Y-73607142D02*
X126909523Y-73654761D01*
X126766666Y-73702380D01*
X126671428Y-73702380D01*
X126528571Y-73654761D01*
X126433333Y-73559523D01*
X126385714Y-73464285D01*
X126338095Y-73273809D01*
X126338095Y-73130952D01*
X126385714Y-72940476D01*
X126433333Y-72845238D01*
X126528571Y-72750000D01*
X126671428Y-72702380D01*
X126766666Y-72702380D01*
X126909523Y-72750000D01*
X126957142Y-72797619D01*
X127909523Y-73702380D02*
X127338095Y-73702380D01*
X127623809Y-73702380D02*
X127623809Y-72702380D01*
X127528571Y-72845238D01*
X127433333Y-72940476D01*
X127338095Y-72988095D01*
X128528571Y-72702380D02*
X128623809Y-72702380D01*
X128719047Y-72750000D01*
X128766666Y-72797619D01*
X128814285Y-72892857D01*
X128861904Y-73083333D01*
X128861904Y-73321428D01*
X128814285Y-73511904D01*
X128766666Y-73607142D01*
X128719047Y-73654761D01*
X128623809Y-73702380D01*
X128528571Y-73702380D01*
X128433333Y-73654761D01*
X128385714Y-73607142D01*
X128338095Y-73511904D01*
X128290476Y-73321428D01*
X128290476Y-73083333D01*
X128338095Y-72892857D01*
X128385714Y-72797619D01*
X128433333Y-72750000D01*
X128528571Y-72702380D01*
X125907142Y-79912857D02*
X125954761Y-79960476D01*
X126002380Y-80103333D01*
X126002380Y-80198571D01*
X125954761Y-80341428D01*
X125859523Y-80436666D01*
X125764285Y-80484285D01*
X125573809Y-80531904D01*
X125430952Y-80531904D01*
X125240476Y-80484285D01*
X125145238Y-80436666D01*
X125050000Y-80341428D01*
X125002380Y-80198571D01*
X125002380Y-80103333D01*
X125050000Y-79960476D01*
X125097619Y-79912857D01*
X126002380Y-78960476D02*
X126002380Y-79531904D01*
X126002380Y-79246190D02*
X125002380Y-79246190D01*
X125145238Y-79341428D01*
X125240476Y-79436666D01*
X125288095Y-79531904D01*
X125097619Y-78579523D02*
X125050000Y-78531904D01*
X125002380Y-78436666D01*
X125002380Y-78198571D01*
X125050000Y-78103333D01*
X125097619Y-78055714D01*
X125192857Y-78008095D01*
X125288095Y-78008095D01*
X125430952Y-78055714D01*
X126002380Y-78627142D01*
X126002380Y-78008095D01*
X122537142Y-67317142D02*
X122489523Y-67364761D01*
X122346666Y-67412380D01*
X122251428Y-67412380D01*
X122108571Y-67364761D01*
X122013333Y-67269523D01*
X121965714Y-67174285D01*
X121918095Y-66983809D01*
X121918095Y-66840952D01*
X121965714Y-66650476D01*
X122013333Y-66555238D01*
X122108571Y-66460000D01*
X122251428Y-66412380D01*
X122346666Y-66412380D01*
X122489523Y-66460000D01*
X122537142Y-66507619D01*
X123489523Y-67412380D02*
X122918095Y-67412380D01*
X123203809Y-67412380D02*
X123203809Y-66412380D01*
X123108571Y-66555238D01*
X123013333Y-66650476D01*
X122918095Y-66698095D01*
X124346666Y-66745714D02*
X124346666Y-67412380D01*
X124108571Y-66364761D02*
X123870476Y-67079047D01*
X124489523Y-67079047D01*
X126857142Y-70527142D02*
X126809523Y-70574761D01*
X126666666Y-70622380D01*
X126571428Y-70622380D01*
X126428571Y-70574761D01*
X126333333Y-70479523D01*
X126285714Y-70384285D01*
X126238095Y-70193809D01*
X126238095Y-70050952D01*
X126285714Y-69860476D01*
X126333333Y-69765238D01*
X126428571Y-69670000D01*
X126571428Y-69622380D01*
X126666666Y-69622380D01*
X126809523Y-69670000D01*
X126857142Y-69717619D01*
X127809523Y-70622380D02*
X127238095Y-70622380D01*
X127523809Y-70622380D02*
X127523809Y-69622380D01*
X127428571Y-69765238D01*
X127333333Y-69860476D01*
X127238095Y-69908095D01*
X128666666Y-69622380D02*
X128476190Y-69622380D01*
X128380952Y-69670000D01*
X128333333Y-69717619D01*
X128238095Y-69860476D01*
X128190476Y-70050952D01*
X128190476Y-70431904D01*
X128238095Y-70527142D01*
X128285714Y-70574761D01*
X128380952Y-70622380D01*
X128571428Y-70622380D01*
X128666666Y-70574761D01*
X128714285Y-70527142D01*
X128761904Y-70431904D01*
X128761904Y-70193809D01*
X128714285Y-70098571D01*
X128666666Y-70050952D01*
X128571428Y-70003333D01*
X128380952Y-70003333D01*
X128285714Y-70050952D01*
X128238095Y-70098571D01*
X128190476Y-70193809D01*
X115332142Y-68192857D02*
X115379761Y-68240476D01*
X115427380Y-68383333D01*
X115427380Y-68478571D01*
X115379761Y-68621428D01*
X115284523Y-68716666D01*
X115189285Y-68764285D01*
X114998809Y-68811904D01*
X114855952Y-68811904D01*
X114665476Y-68764285D01*
X114570238Y-68716666D01*
X114475000Y-68621428D01*
X114427380Y-68478571D01*
X114427380Y-68383333D01*
X114475000Y-68240476D01*
X114522619Y-68192857D01*
X115427380Y-67240476D02*
X115427380Y-67811904D01*
X115427380Y-67526190D02*
X114427380Y-67526190D01*
X114570238Y-67621428D01*
X114665476Y-67716666D01*
X114713095Y-67811904D01*
X114855952Y-66669047D02*
X114808333Y-66764285D01*
X114760714Y-66811904D01*
X114665476Y-66859523D01*
X114617857Y-66859523D01*
X114522619Y-66811904D01*
X114475000Y-66764285D01*
X114427380Y-66669047D01*
X114427380Y-66478571D01*
X114475000Y-66383333D01*
X114522619Y-66335714D01*
X114617857Y-66288095D01*
X114665476Y-66288095D01*
X114760714Y-66335714D01*
X114808333Y-66383333D01*
X114855952Y-66478571D01*
X114855952Y-66669047D01*
X114903571Y-66764285D01*
X114951190Y-66811904D01*
X115046428Y-66859523D01*
X115236904Y-66859523D01*
X115332142Y-66811904D01*
X115379761Y-66764285D01*
X115427380Y-66669047D01*
X115427380Y-66478571D01*
X115379761Y-66383333D01*
X115332142Y-66335714D01*
X115236904Y-66288095D01*
X115046428Y-66288095D01*
X114951190Y-66335714D01*
X114903571Y-66383333D01*
X114855952Y-66478571D01*
X116567142Y-71447142D02*
X116519523Y-71494761D01*
X116376666Y-71542380D01*
X116281428Y-71542380D01*
X116138571Y-71494761D01*
X116043333Y-71399523D01*
X115995714Y-71304285D01*
X115948095Y-71113809D01*
X115948095Y-70970952D01*
X115995714Y-70780476D01*
X116043333Y-70685238D01*
X116138571Y-70590000D01*
X116281428Y-70542380D01*
X116376666Y-70542380D01*
X116519523Y-70590000D01*
X116567142Y-70637619D01*
X117519523Y-71542380D02*
X116948095Y-71542380D01*
X117233809Y-71542380D02*
X117233809Y-70542380D01*
X117138571Y-70685238D01*
X117043333Y-70780476D01*
X116948095Y-70828095D01*
X117995714Y-71542380D02*
X118186190Y-71542380D01*
X118281428Y-71494761D01*
X118329047Y-71447142D01*
X118424285Y-71304285D01*
X118471904Y-71113809D01*
X118471904Y-70732857D01*
X118424285Y-70637619D01*
X118376666Y-70590000D01*
X118281428Y-70542380D01*
X118090952Y-70542380D01*
X117995714Y-70590000D01*
X117948095Y-70637619D01*
X117900476Y-70732857D01*
X117900476Y-70970952D01*
X117948095Y-71066190D01*
X117995714Y-71113809D01*
X118090952Y-71161428D01*
X118281428Y-71161428D01*
X118376666Y-71113809D01*
X118424285Y-71066190D01*
X118471904Y-70970952D01*
X172507142Y-74992857D02*
X172554761Y-75040476D01*
X172602380Y-75183333D01*
X172602380Y-75278571D01*
X172554761Y-75421428D01*
X172459523Y-75516666D01*
X172364285Y-75564285D01*
X172173809Y-75611904D01*
X172030952Y-75611904D01*
X171840476Y-75564285D01*
X171745238Y-75516666D01*
X171650000Y-75421428D01*
X171602380Y-75278571D01*
X171602380Y-75183333D01*
X171650000Y-75040476D01*
X171697619Y-74992857D01*
X171697619Y-74611904D02*
X171650000Y-74564285D01*
X171602380Y-74469047D01*
X171602380Y-74230952D01*
X171650000Y-74135714D01*
X171697619Y-74088095D01*
X171792857Y-74040476D01*
X171888095Y-74040476D01*
X172030952Y-74088095D01*
X172602380Y-74659523D01*
X172602380Y-74040476D01*
X172602380Y-73088095D02*
X172602380Y-73659523D01*
X172602380Y-73373809D02*
X171602380Y-73373809D01*
X171745238Y-73469047D01*
X171840476Y-73564285D01*
X171888095Y-73659523D01*
X167957142Y-88207142D02*
X167909523Y-88254761D01*
X167766666Y-88302380D01*
X167671428Y-88302380D01*
X167528571Y-88254761D01*
X167433333Y-88159523D01*
X167385714Y-88064285D01*
X167338095Y-87873809D01*
X167338095Y-87730952D01*
X167385714Y-87540476D01*
X167433333Y-87445238D01*
X167528571Y-87350000D01*
X167671428Y-87302380D01*
X167766666Y-87302380D01*
X167909523Y-87350000D01*
X167957142Y-87397619D01*
X168338095Y-87397619D02*
X168385714Y-87350000D01*
X168480952Y-87302380D01*
X168719047Y-87302380D01*
X168814285Y-87350000D01*
X168861904Y-87397619D01*
X168909523Y-87492857D01*
X168909523Y-87588095D01*
X168861904Y-87730952D01*
X168290476Y-88302380D01*
X168909523Y-88302380D01*
X169290476Y-87397619D02*
X169338095Y-87350000D01*
X169433333Y-87302380D01*
X169671428Y-87302380D01*
X169766666Y-87350000D01*
X169814285Y-87397619D01*
X169861904Y-87492857D01*
X169861904Y-87588095D01*
X169814285Y-87730952D01*
X169242857Y-88302380D01*
X169861904Y-88302380D01*
X167602142Y-75762142D02*
X167554523Y-75809761D01*
X167411666Y-75857380D01*
X167316428Y-75857380D01*
X167173571Y-75809761D01*
X167078333Y-75714523D01*
X167030714Y-75619285D01*
X166983095Y-75428809D01*
X166983095Y-75285952D01*
X167030714Y-75095476D01*
X167078333Y-75000238D01*
X167173571Y-74905000D01*
X167316428Y-74857380D01*
X167411666Y-74857380D01*
X167554523Y-74905000D01*
X167602142Y-74952619D01*
X167983095Y-74952619D02*
X168030714Y-74905000D01*
X168125952Y-74857380D01*
X168364047Y-74857380D01*
X168459285Y-74905000D01*
X168506904Y-74952619D01*
X168554523Y-75047857D01*
X168554523Y-75143095D01*
X168506904Y-75285952D01*
X167935476Y-75857380D01*
X168554523Y-75857380D01*
X168887857Y-74857380D02*
X169506904Y-74857380D01*
X169173571Y-75238333D01*
X169316428Y-75238333D01*
X169411666Y-75285952D01*
X169459285Y-75333571D01*
X169506904Y-75428809D01*
X169506904Y-75666904D01*
X169459285Y-75762142D01*
X169411666Y-75809761D01*
X169316428Y-75857380D01*
X169030714Y-75857380D01*
X168935476Y-75809761D01*
X168887857Y-75762142D01*
D15*
X116041428Y-73865714D02*
X115441428Y-73865714D01*
X115984285Y-73237142D02*
X116012857Y-73265714D01*
X116041428Y-73351428D01*
X116041428Y-73408571D01*
X116012857Y-73494285D01*
X115955714Y-73551428D01*
X115898571Y-73580000D01*
X115784285Y-73608571D01*
X115698571Y-73608571D01*
X115584285Y-73580000D01*
X115527142Y-73551428D01*
X115470000Y-73494285D01*
X115441428Y-73408571D01*
X115441428Y-73351428D01*
X115470000Y-73265714D01*
X115498571Y-73237142D01*
X116041428Y-72665714D02*
X116041428Y-73008571D01*
X116041428Y-72837142D02*
X115441428Y-72837142D01*
X115527142Y-72894285D01*
X115584285Y-72951428D01*
X115612857Y-73008571D01*
X169269285Y-79196428D02*
X169269285Y-78596428D01*
X169897857Y-79139285D02*
X169869285Y-79167857D01*
X169783571Y-79196428D01*
X169726428Y-79196428D01*
X169640714Y-79167857D01*
X169583571Y-79110714D01*
X169555000Y-79053571D01*
X169526428Y-78939285D01*
X169526428Y-78853571D01*
X169555000Y-78739285D01*
X169583571Y-78682142D01*
X169640714Y-78625000D01*
X169726428Y-78596428D01*
X169783571Y-78596428D01*
X169869285Y-78625000D01*
X169897857Y-78653571D01*
X170126428Y-78653571D02*
X170155000Y-78625000D01*
X170212142Y-78596428D01*
X170355000Y-78596428D01*
X170412142Y-78625000D01*
X170440714Y-78653571D01*
X170469285Y-78710714D01*
X170469285Y-78767857D01*
X170440714Y-78853571D01*
X170097857Y-79196428D01*
X170469285Y-79196428D01*
D14*
X118463333Y-81262380D02*
X117987142Y-81262380D01*
X117987142Y-80262380D01*
X119320476Y-81262380D02*
X118749047Y-81262380D01*
X119034761Y-81262380D02*
X119034761Y-80262380D01*
X118939523Y-80405238D01*
X118844285Y-80500476D01*
X118749047Y-80548095D01*
X115473333Y-70012380D02*
X114997142Y-70012380D01*
X114997142Y-69012380D01*
X115759047Y-69107619D02*
X115806666Y-69060000D01*
X115901904Y-69012380D01*
X116140000Y-69012380D01*
X116235238Y-69060000D01*
X116282857Y-69107619D01*
X116330476Y-69202857D01*
X116330476Y-69298095D01*
X116282857Y-69440952D01*
X115711428Y-70012380D01*
X116330476Y-70012380D01*
D15*
X139720000Y-82661428D02*
X139434285Y-82661428D01*
X139434285Y-82061428D01*
X139862857Y-82061428D02*
X140234285Y-82061428D01*
X140034285Y-82290000D01*
X140120000Y-82290000D01*
X140177142Y-82318571D01*
X140205714Y-82347142D01*
X140234285Y-82404285D01*
X140234285Y-82547142D01*
X140205714Y-82604285D01*
X140177142Y-82632857D01*
X140120000Y-82661428D01*
X139948571Y-82661428D01*
X139891428Y-82632857D01*
X139862857Y-82604285D01*
X155760000Y-89671428D02*
X155474285Y-89671428D01*
X155474285Y-89071428D01*
X156217142Y-89271428D02*
X156217142Y-89671428D01*
X156074285Y-89042857D02*
X155931428Y-89471428D01*
X156302857Y-89471428D01*
D14*
X168593333Y-89782380D02*
X168117142Y-89782380D01*
X168117142Y-88782380D01*
X169402857Y-88782380D02*
X168926666Y-88782380D01*
X168879047Y-89258571D01*
X168926666Y-89210952D01*
X169021904Y-89163333D01*
X169260000Y-89163333D01*
X169355238Y-89210952D01*
X169402857Y-89258571D01*
X169450476Y-89353809D01*
X169450476Y-89591904D01*
X169402857Y-89687142D01*
X169355238Y-89734761D01*
X169260000Y-89782380D01*
X169021904Y-89782380D01*
X168926666Y-89734761D01*
X168879047Y-89687142D01*
X168048333Y-74427380D02*
X167572142Y-74427380D01*
X167572142Y-73427380D01*
X168810238Y-73427380D02*
X168619761Y-73427380D01*
X168524523Y-73475000D01*
X168476904Y-73522619D01*
X168381666Y-73665476D01*
X168334047Y-73855952D01*
X168334047Y-74236904D01*
X168381666Y-74332142D01*
X168429285Y-74379761D01*
X168524523Y-74427380D01*
X168715000Y-74427380D01*
X168810238Y-74379761D01*
X168857857Y-74332142D01*
X168905476Y-74236904D01*
X168905476Y-73998809D01*
X168857857Y-73903571D01*
X168810238Y-73855952D01*
X168715000Y-73808333D01*
X168524523Y-73808333D01*
X168429285Y-73855952D01*
X168381666Y-73903571D01*
X168334047Y-73998809D01*
X119143333Y-86112380D02*
X118810000Y-85636190D01*
X118571904Y-86112380D02*
X118571904Y-85112380D01*
X118952857Y-85112380D01*
X119048095Y-85160000D01*
X119095714Y-85207619D01*
X119143333Y-85302857D01*
X119143333Y-85445714D01*
X119095714Y-85540952D01*
X119048095Y-85588571D01*
X118952857Y-85636190D01*
X118571904Y-85636190D01*
X119476666Y-85112380D02*
X120095714Y-85112380D01*
X119762380Y-85493333D01*
X119905238Y-85493333D01*
X120000476Y-85540952D01*
X120048095Y-85588571D01*
X120095714Y-85683809D01*
X120095714Y-85921904D01*
X120048095Y-86017142D01*
X120000476Y-86064761D01*
X119905238Y-86112380D01*
X119619523Y-86112380D01*
X119524285Y-86064761D01*
X119476666Y-86017142D01*
X115502380Y-65241666D02*
X115026190Y-65575000D01*
X115502380Y-65813095D02*
X114502380Y-65813095D01*
X114502380Y-65432142D01*
X114550000Y-65336904D01*
X114597619Y-65289285D01*
X114692857Y-65241666D01*
X114835714Y-65241666D01*
X114930952Y-65289285D01*
X114978571Y-65336904D01*
X115026190Y-65432142D01*
X115026190Y-65813095D01*
X114502380Y-64908333D02*
X114502380Y-64241666D01*
X115502380Y-64670238D01*
X121612380Y-66516666D02*
X121136190Y-66850000D01*
X121612380Y-67088095D02*
X120612380Y-67088095D01*
X120612380Y-66707142D01*
X120660000Y-66611904D01*
X120707619Y-66564285D01*
X120802857Y-66516666D01*
X120945714Y-66516666D01*
X121040952Y-66564285D01*
X121088571Y-66611904D01*
X121136190Y-66707142D01*
X121136190Y-67088095D01*
X121040952Y-65945238D02*
X120993333Y-66040476D01*
X120945714Y-66088095D01*
X120850476Y-66135714D01*
X120802857Y-66135714D01*
X120707619Y-66088095D01*
X120660000Y-66040476D01*
X120612380Y-65945238D01*
X120612380Y-65754761D01*
X120660000Y-65659523D01*
X120707619Y-65611904D01*
X120802857Y-65564285D01*
X120850476Y-65564285D01*
X120945714Y-65611904D01*
X120993333Y-65659523D01*
X121040952Y-65754761D01*
X121040952Y-65945238D01*
X121088571Y-66040476D01*
X121136190Y-66088095D01*
X121231428Y-66135714D01*
X121421904Y-66135714D01*
X121517142Y-66088095D01*
X121564761Y-66040476D01*
X121612380Y-65945238D01*
X121612380Y-65754761D01*
X121564761Y-65659523D01*
X121517142Y-65611904D01*
X121421904Y-65564285D01*
X121231428Y-65564285D01*
X121136190Y-65611904D01*
X121088571Y-65659523D01*
X121040952Y-65754761D01*
X124752380Y-68706666D02*
X124276190Y-69040000D01*
X124752380Y-69278095D02*
X123752380Y-69278095D01*
X123752380Y-68897142D01*
X123800000Y-68801904D01*
X123847619Y-68754285D01*
X123942857Y-68706666D01*
X124085714Y-68706666D01*
X124180952Y-68754285D01*
X124228571Y-68801904D01*
X124276190Y-68897142D01*
X124276190Y-69278095D01*
X124085714Y-67849523D02*
X124752380Y-67849523D01*
X123704761Y-68087619D02*
X124419047Y-68325714D01*
X124419047Y-67706666D01*
X166622380Y-77992857D02*
X166146190Y-78326190D01*
X166622380Y-78564285D02*
X165622380Y-78564285D01*
X165622380Y-78183333D01*
X165670000Y-78088095D01*
X165717619Y-78040476D01*
X165812857Y-77992857D01*
X165955714Y-77992857D01*
X166050952Y-78040476D01*
X166098571Y-78088095D01*
X166146190Y-78183333D01*
X166146190Y-78564285D01*
X166622380Y-77040476D02*
X166622380Y-77611904D01*
X166622380Y-77326190D02*
X165622380Y-77326190D01*
X165765238Y-77421428D01*
X165860476Y-77516666D01*
X165908095Y-77611904D01*
X165622380Y-76421428D02*
X165622380Y-76326190D01*
X165670000Y-76230952D01*
X165717619Y-76183333D01*
X165812857Y-76135714D01*
X166003333Y-76088095D01*
X166241428Y-76088095D01*
X166431904Y-76135714D01*
X166527142Y-76183333D01*
X166574761Y-76230952D01*
X166622380Y-76326190D01*
X166622380Y-76421428D01*
X166574761Y-76516666D01*
X166527142Y-76564285D01*
X166431904Y-76611904D01*
X166241428Y-76659523D01*
X166003333Y-76659523D01*
X165812857Y-76611904D01*
X165717619Y-76564285D01*
X165670000Y-76516666D01*
X165622380Y-76421428D01*
X164972380Y-83392857D02*
X164496190Y-83726190D01*
X164972380Y-83964285D02*
X163972380Y-83964285D01*
X163972380Y-83583333D01*
X164020000Y-83488095D01*
X164067619Y-83440476D01*
X164162857Y-83392857D01*
X164305714Y-83392857D01*
X164400952Y-83440476D01*
X164448571Y-83488095D01*
X164496190Y-83583333D01*
X164496190Y-83964285D01*
X164972380Y-82440476D02*
X164972380Y-83011904D01*
X164972380Y-82726190D02*
X163972380Y-82726190D01*
X164115238Y-82821428D01*
X164210476Y-82916666D01*
X164258095Y-83011904D01*
X164972380Y-81488095D02*
X164972380Y-82059523D01*
X164972380Y-81773809D02*
X163972380Y-81773809D01*
X164115238Y-81869047D01*
X164210476Y-81964285D01*
X164258095Y-82059523D01*
X172527380Y-77717857D02*
X172051190Y-78051190D01*
X172527380Y-78289285D02*
X171527380Y-78289285D01*
X171527380Y-77908333D01*
X171575000Y-77813095D01*
X171622619Y-77765476D01*
X171717857Y-77717857D01*
X171860714Y-77717857D01*
X171955952Y-77765476D01*
X172003571Y-77813095D01*
X172051190Y-77908333D01*
X172051190Y-78289285D01*
X172527380Y-76765476D02*
X172527380Y-77336904D01*
X172527380Y-77051190D02*
X171527380Y-77051190D01*
X171670238Y-77146428D01*
X171765476Y-77241666D01*
X171813095Y-77336904D01*
X171622619Y-76384523D02*
X171575000Y-76336904D01*
X171527380Y-76241666D01*
X171527380Y-76003571D01*
X171575000Y-75908333D01*
X171622619Y-75860714D01*
X171717857Y-75813095D01*
X171813095Y-75813095D01*
X171955952Y-75860714D01*
X172527380Y-76432142D01*
X172527380Y-75813095D01*
X173012142Y-84227380D02*
X172678809Y-83751190D01*
X172440714Y-84227380D02*
X172440714Y-83227380D01*
X172821666Y-83227380D01*
X172916904Y-83275000D01*
X172964523Y-83322619D01*
X173012142Y-83417857D01*
X173012142Y-83560714D01*
X172964523Y-83655952D01*
X172916904Y-83703571D01*
X172821666Y-83751190D01*
X172440714Y-83751190D01*
X173964523Y-84227380D02*
X173393095Y-84227380D01*
X173678809Y-84227380D02*
X173678809Y-83227380D01*
X173583571Y-83370238D01*
X173488333Y-83465476D01*
X173393095Y-83513095D01*
X174297857Y-83227380D02*
X174916904Y-83227380D01*
X174583571Y-83608333D01*
X174726428Y-83608333D01*
X174821666Y-83655952D01*
X174869285Y-83703571D01*
X174916904Y-83798809D01*
X174916904Y-84036904D01*
X174869285Y-84132142D01*
X174821666Y-84179761D01*
X174726428Y-84227380D01*
X174440714Y-84227380D01*
X174345476Y-84179761D01*
X174297857Y-84132142D01*
X128277142Y-79946666D02*
X128324761Y-79994285D01*
X128372380Y-80137142D01*
X128372380Y-80232380D01*
X128324761Y-80375238D01*
X128229523Y-80470476D01*
X128134285Y-80518095D01*
X127943809Y-80565714D01*
X127800952Y-80565714D01*
X127610476Y-80518095D01*
X127515238Y-80470476D01*
X127420000Y-80375238D01*
X127372380Y-80232380D01*
X127372380Y-80137142D01*
X127420000Y-79994285D01*
X127467619Y-79946666D01*
X127705714Y-79089523D02*
X128372380Y-79089523D01*
X127324761Y-79327619D02*
X128039047Y-79565714D01*
X128039047Y-78946666D01*
X125907142Y-87052857D02*
X125954761Y-87100476D01*
X126002380Y-87243333D01*
X126002380Y-87338571D01*
X125954761Y-87481428D01*
X125859523Y-87576666D01*
X125764285Y-87624285D01*
X125573809Y-87671904D01*
X125430952Y-87671904D01*
X125240476Y-87624285D01*
X125145238Y-87576666D01*
X125050000Y-87481428D01*
X125002380Y-87338571D01*
X125002380Y-87243333D01*
X125050000Y-87100476D01*
X125097619Y-87052857D01*
X126002380Y-86100476D02*
X126002380Y-86671904D01*
X126002380Y-86386190D02*
X125002380Y-86386190D01*
X125145238Y-86481428D01*
X125240476Y-86576666D01*
X125288095Y-86671904D01*
X126002380Y-85148095D02*
X126002380Y-85719523D01*
X126002380Y-85433809D02*
X125002380Y-85433809D01*
X125145238Y-85529047D01*
X125240476Y-85624285D01*
X125288095Y-85719523D01*
X128578095Y-84612380D02*
X128578095Y-85421904D01*
X128625714Y-85517142D01*
X128673333Y-85564761D01*
X128768571Y-85612380D01*
X128959047Y-85612380D01*
X129054285Y-85564761D01*
X129101904Y-85517142D01*
X129149523Y-85421904D01*
X129149523Y-84612380D01*
X130149523Y-85612380D02*
X129578095Y-85612380D01*
X129863809Y-85612380D02*
X129863809Y-84612380D01*
X129768571Y-84755238D01*
X129673333Y-84850476D01*
X129578095Y-84898095D01*
X123450238Y-88442380D02*
X123688333Y-89442380D01*
X123878809Y-88728095D01*
X124069285Y-89442380D01*
X124307380Y-88442380D01*
X124593095Y-88442380D02*
X125212142Y-88442380D01*
X124878809Y-88823333D01*
X125021666Y-88823333D01*
X125116904Y-88870952D01*
X125164523Y-88918571D01*
X125212142Y-89013809D01*
X125212142Y-89251904D01*
X125164523Y-89347142D01*
X125116904Y-89394761D01*
X125021666Y-89442380D01*
X124735952Y-89442380D01*
X124640714Y-89394761D01*
X124593095Y-89347142D01*
X131782380Y-86266666D02*
X131306190Y-86600000D01*
X131782380Y-86838095D02*
X130782380Y-86838095D01*
X130782380Y-86457142D01*
X130830000Y-86361904D01*
X130877619Y-86314285D01*
X130972857Y-86266666D01*
X131115714Y-86266666D01*
X131210952Y-86314285D01*
X131258571Y-86361904D01*
X131306190Y-86457142D01*
X131306190Y-86838095D01*
X131782380Y-85314285D02*
X131782380Y-85885714D01*
X131782380Y-85600000D02*
X130782380Y-85600000D01*
X130925238Y-85695238D01*
X131020476Y-85790476D01*
X131068095Y-85885714D01*
X133362380Y-79766666D02*
X132886190Y-80100000D01*
X133362380Y-80338095D02*
X132362380Y-80338095D01*
X132362380Y-79957142D01*
X132410000Y-79861904D01*
X132457619Y-79814285D01*
X132552857Y-79766666D01*
X132695714Y-79766666D01*
X132790952Y-79814285D01*
X132838571Y-79861904D01*
X132886190Y-79957142D01*
X132886190Y-80338095D01*
X132457619Y-79385714D02*
X132410000Y-79338095D01*
X132362380Y-79242857D01*
X132362380Y-79004761D01*
X132410000Y-78909523D01*
X132457619Y-78861904D01*
X132552857Y-78814285D01*
X132648095Y-78814285D01*
X132790952Y-78861904D01*
X133362380Y-79433333D01*
X133362380Y-78814285D01*
X177687142Y-83592857D02*
X177734761Y-83640476D01*
X177782380Y-83783333D01*
X177782380Y-83878571D01*
X177734761Y-84021428D01*
X177639523Y-84116666D01*
X177544285Y-84164285D01*
X177353809Y-84211904D01*
X177210952Y-84211904D01*
X177020476Y-84164285D01*
X176925238Y-84116666D01*
X176830000Y-84021428D01*
X176782380Y-83878571D01*
X176782380Y-83783333D01*
X176830000Y-83640476D01*
X176877619Y-83592857D01*
X176877619Y-83211904D02*
X176830000Y-83164285D01*
X176782380Y-83069047D01*
X176782380Y-82830952D01*
X176830000Y-82735714D01*
X176877619Y-82688095D01*
X176972857Y-82640476D01*
X177068095Y-82640476D01*
X177210952Y-82688095D01*
X177782380Y-83259523D01*
X177782380Y-82640476D01*
X177115714Y-81783333D02*
X177782380Y-81783333D01*
X176734761Y-82021428D02*
X177449047Y-82259523D01*
X177449047Y-81640476D01*
X173357142Y-77937142D02*
X173309523Y-77984761D01*
X173166666Y-78032380D01*
X173071428Y-78032380D01*
X172928571Y-77984761D01*
X172833333Y-77889523D01*
X172785714Y-77794285D01*
X172738095Y-77603809D01*
X172738095Y-77460952D01*
X172785714Y-77270476D01*
X172833333Y-77175238D01*
X172928571Y-77080000D01*
X173071428Y-77032380D01*
X173166666Y-77032380D01*
X173309523Y-77080000D01*
X173357142Y-77127619D01*
X173738095Y-77127619D02*
X173785714Y-77080000D01*
X173880952Y-77032380D01*
X174119047Y-77032380D01*
X174214285Y-77080000D01*
X174261904Y-77127619D01*
X174309523Y-77222857D01*
X174309523Y-77318095D01*
X174261904Y-77460952D01*
X173690476Y-78032380D01*
X174309523Y-78032380D01*
X175214285Y-77032380D02*
X174738095Y-77032380D01*
X174690476Y-77508571D01*
X174738095Y-77460952D01*
X174833333Y-77413333D01*
X175071428Y-77413333D01*
X175166666Y-77460952D01*
X175214285Y-77508571D01*
X175261904Y-77603809D01*
X175261904Y-77841904D01*
X175214285Y-77937142D01*
X175166666Y-77984761D01*
X175071428Y-78032380D01*
X174833333Y-78032380D01*
X174738095Y-77984761D01*
X174690476Y-77937142D01*
X124436666Y-83092380D02*
X124436666Y-83806666D01*
X124389047Y-83949523D01*
X124293809Y-84044761D01*
X124150952Y-84092380D01*
X124055714Y-84092380D01*
X125436666Y-84092380D02*
X124865238Y-84092380D01*
X125150952Y-84092380D02*
X125150952Y-83092380D01*
X125055714Y-83235238D01*
X124960476Y-83330476D01*
X124865238Y-83378095D01*
X174927380Y-74491666D02*
X174451190Y-74825000D01*
X174927380Y-75063095D02*
X173927380Y-75063095D01*
X173927380Y-74682142D01*
X173975000Y-74586904D01*
X174022619Y-74539285D01*
X174117857Y-74491666D01*
X174260714Y-74491666D01*
X174355952Y-74539285D01*
X174403571Y-74586904D01*
X174451190Y-74682142D01*
X174451190Y-75063095D01*
X173927380Y-73586904D02*
X173927380Y-74063095D01*
X174403571Y-74110714D01*
X174355952Y-74063095D01*
X174308333Y-73967857D01*
X174308333Y-73729761D01*
X174355952Y-73634523D01*
X174403571Y-73586904D01*
X174498809Y-73539285D01*
X174736904Y-73539285D01*
X174832142Y-73586904D01*
X174879761Y-73634523D01*
X174927380Y-73729761D01*
X174927380Y-73967857D01*
X174879761Y-74063095D01*
X174832142Y-74110714D01*
X179552380Y-74516666D02*
X179076190Y-74850000D01*
X179552380Y-75088095D02*
X178552380Y-75088095D01*
X178552380Y-74707142D01*
X178600000Y-74611904D01*
X178647619Y-74564285D01*
X178742857Y-74516666D01*
X178885714Y-74516666D01*
X178980952Y-74564285D01*
X179028571Y-74611904D01*
X179076190Y-74707142D01*
X179076190Y-75088095D01*
X178552380Y-73659523D02*
X178552380Y-73850000D01*
X178600000Y-73945238D01*
X178647619Y-73992857D01*
X178790476Y-74088095D01*
X178980952Y-74135714D01*
X179361904Y-74135714D01*
X179457142Y-74088095D01*
X179504761Y-74040476D01*
X179552380Y-73945238D01*
X179552380Y-73754761D01*
X179504761Y-73659523D01*
X179457142Y-73611904D01*
X179361904Y-73564285D01*
X179123809Y-73564285D01*
X179028571Y-73611904D01*
X178980952Y-73659523D01*
X178933333Y-73754761D01*
X178933333Y-73945238D01*
X178980952Y-74040476D01*
X179028571Y-74088095D01*
X179123809Y-74135714D01*
X172977380Y-85751666D02*
X172501190Y-86085000D01*
X172977380Y-86323095D02*
X171977380Y-86323095D01*
X171977380Y-85942142D01*
X172025000Y-85846904D01*
X172072619Y-85799285D01*
X172167857Y-85751666D01*
X172310714Y-85751666D01*
X172405952Y-85799285D01*
X172453571Y-85846904D01*
X172501190Y-85942142D01*
X172501190Y-86323095D01*
X172977380Y-85275476D02*
X172977380Y-85085000D01*
X172929761Y-84989761D01*
X172882142Y-84942142D01*
X172739285Y-84846904D01*
X172548809Y-84799285D01*
X172167857Y-84799285D01*
X172072619Y-84846904D01*
X172025000Y-84894523D01*
X171977380Y-84989761D01*
X171977380Y-85180238D01*
X172025000Y-85275476D01*
X172072619Y-85323095D01*
X172167857Y-85370714D01*
X172405952Y-85370714D01*
X172501190Y-85323095D01*
X172548809Y-85275476D01*
X172596428Y-85180238D01*
X172596428Y-84989761D01*
X172548809Y-84894523D01*
X172501190Y-84846904D01*
X172405952Y-84799285D01*
X175867142Y-81052380D02*
X175533809Y-80576190D01*
X175295714Y-81052380D02*
X175295714Y-80052380D01*
X175676666Y-80052380D01*
X175771904Y-80100000D01*
X175819523Y-80147619D01*
X175867142Y-80242857D01*
X175867142Y-80385714D01*
X175819523Y-80480952D01*
X175771904Y-80528571D01*
X175676666Y-80576190D01*
X175295714Y-80576190D01*
X176819523Y-81052380D02*
X176248095Y-81052380D01*
X176533809Y-81052380D02*
X176533809Y-80052380D01*
X176438571Y-80195238D01*
X176343333Y-80290476D01*
X176248095Y-80338095D01*
X177676666Y-80385714D02*
X177676666Y-81052380D01*
X177438571Y-80004761D02*
X177200476Y-80719047D01*
X177819523Y-80719047D01*
X127477142Y-75407380D02*
X127143809Y-74931190D01*
X126905714Y-75407380D02*
X126905714Y-74407380D01*
X127286666Y-74407380D01*
X127381904Y-74455000D01*
X127429523Y-74502619D01*
X127477142Y-74597857D01*
X127477142Y-74740714D01*
X127429523Y-74835952D01*
X127381904Y-74883571D01*
X127286666Y-74931190D01*
X126905714Y-74931190D01*
X128429523Y-75407380D02*
X127858095Y-75407380D01*
X128143809Y-75407380D02*
X128143809Y-74407380D01*
X128048571Y-74550238D01*
X127953333Y-74645476D01*
X127858095Y-74693095D01*
X129334285Y-74407380D02*
X128858095Y-74407380D01*
X128810476Y-74883571D01*
X128858095Y-74835952D01*
X128953333Y-74788333D01*
X129191428Y-74788333D01*
X129286666Y-74835952D01*
X129334285Y-74883571D01*
X129381904Y-74978809D01*
X129381904Y-75216904D01*
X129334285Y-75312142D01*
X129286666Y-75359761D01*
X129191428Y-75407380D01*
X128953333Y-75407380D01*
X128858095Y-75359761D01*
X128810476Y-75312142D01*
X130287142Y-73922380D02*
X129953809Y-73446190D01*
X129715714Y-73922380D02*
X129715714Y-72922380D01*
X130096666Y-72922380D01*
X130191904Y-72970000D01*
X130239523Y-73017619D01*
X130287142Y-73112857D01*
X130287142Y-73255714D01*
X130239523Y-73350952D01*
X130191904Y-73398571D01*
X130096666Y-73446190D01*
X129715714Y-73446190D01*
X131239523Y-73922380D02*
X130668095Y-73922380D01*
X130953809Y-73922380D02*
X130953809Y-72922380D01*
X130858571Y-73065238D01*
X130763333Y-73160476D01*
X130668095Y-73208095D01*
X132096666Y-72922380D02*
X131906190Y-72922380D01*
X131810952Y-72970000D01*
X131763333Y-73017619D01*
X131668095Y-73160476D01*
X131620476Y-73350952D01*
X131620476Y-73731904D01*
X131668095Y-73827142D01*
X131715714Y-73874761D01*
X131810952Y-73922380D01*
X132001428Y-73922380D01*
X132096666Y-73874761D01*
X132144285Y-73827142D01*
X132191904Y-73731904D01*
X132191904Y-73493809D01*
X132144285Y-73398571D01*
X132096666Y-73350952D01*
X132001428Y-73303333D01*
X131810952Y-73303333D01*
X131715714Y-73350952D01*
X131668095Y-73398571D01*
X131620476Y-73493809D01*
X119107142Y-64202380D02*
X118773809Y-63726190D01*
X118535714Y-64202380D02*
X118535714Y-63202380D01*
X118916666Y-63202380D01*
X119011904Y-63250000D01*
X119059523Y-63297619D01*
X119107142Y-63392857D01*
X119107142Y-63535714D01*
X119059523Y-63630952D01*
X119011904Y-63678571D01*
X118916666Y-63726190D01*
X118535714Y-63726190D01*
X120059523Y-64202380D02*
X119488095Y-64202380D01*
X119773809Y-64202380D02*
X119773809Y-63202380D01*
X119678571Y-63345238D01*
X119583333Y-63440476D01*
X119488095Y-63488095D01*
X120392857Y-63202380D02*
X121059523Y-63202380D01*
X120630952Y-64202380D01*
X115332142Y-61327380D02*
X114998809Y-60851190D01*
X114760714Y-61327380D02*
X114760714Y-60327380D01*
X115141666Y-60327380D01*
X115236904Y-60375000D01*
X115284523Y-60422619D01*
X115332142Y-60517857D01*
X115332142Y-60660714D01*
X115284523Y-60755952D01*
X115236904Y-60803571D01*
X115141666Y-60851190D01*
X114760714Y-60851190D01*
X116284523Y-61327380D02*
X115713095Y-61327380D01*
X115998809Y-61327380D02*
X115998809Y-60327380D01*
X115903571Y-60470238D01*
X115808333Y-60565476D01*
X115713095Y-60613095D01*
X116855952Y-60755952D02*
X116760714Y-60708333D01*
X116713095Y-60660714D01*
X116665476Y-60565476D01*
X116665476Y-60517857D01*
X116713095Y-60422619D01*
X116760714Y-60375000D01*
X116855952Y-60327380D01*
X117046428Y-60327380D01*
X117141666Y-60375000D01*
X117189285Y-60422619D01*
X117236904Y-60517857D01*
X117236904Y-60565476D01*
X117189285Y-60660714D01*
X117141666Y-60708333D01*
X117046428Y-60755952D01*
X116855952Y-60755952D01*
X116760714Y-60803571D01*
X116713095Y-60851190D01*
X116665476Y-60946428D01*
X116665476Y-61136904D01*
X116713095Y-61232142D01*
X116760714Y-61279761D01*
X116855952Y-61327380D01*
X117046428Y-61327380D01*
X117141666Y-61279761D01*
X117189285Y-61232142D01*
X117236904Y-61136904D01*
X117236904Y-60946428D01*
X117189285Y-60851190D01*
X117141666Y-60803571D01*
X117046428Y-60755952D01*
D15*
X106091428Y-86390714D02*
X106691428Y-85990714D01*
X106091428Y-85990714D02*
X106691428Y-86390714D01*
X106691428Y-85447857D02*
X106691428Y-85790714D01*
X106691428Y-85619285D02*
X106091428Y-85619285D01*
X106177142Y-85676428D01*
X106234285Y-85733571D01*
X106262857Y-85790714D01*
X108801428Y-121545714D02*
X109401428Y-121145714D01*
X108801428Y-121145714D02*
X109401428Y-121545714D01*
X108858571Y-120945714D02*
X108830000Y-120917142D01*
X108801428Y-120860000D01*
X108801428Y-120717142D01*
X108830000Y-120660000D01*
X108858571Y-120631428D01*
X108915714Y-120602857D01*
X108972857Y-120602857D01*
X109058571Y-120631428D01*
X109401428Y-120974285D01*
X109401428Y-120602857D01*
X107571428Y-89975714D02*
X108171428Y-89575714D01*
X107571428Y-89575714D02*
X108171428Y-89975714D01*
X107571428Y-89404285D02*
X107571428Y-89032857D01*
X107800000Y-89232857D01*
X107800000Y-89147142D01*
X107828571Y-89090000D01*
X107857142Y-89061428D01*
X107914285Y-89032857D01*
X108057142Y-89032857D01*
X108114285Y-89061428D01*
X108142857Y-89090000D01*
X108171428Y-89147142D01*
X108171428Y-89318571D01*
X108142857Y-89375714D01*
X108114285Y-89404285D01*
X175751428Y-116535714D02*
X176351428Y-116135714D01*
X175751428Y-116135714D02*
X176351428Y-116535714D01*
X175951428Y-115650000D02*
X176351428Y-115650000D01*
X175722857Y-115792857D02*
X176151428Y-115935714D01*
X176151428Y-115564285D01*
X155721428Y-57860714D02*
X156321428Y-57460714D01*
X155721428Y-57460714D02*
X156321428Y-57860714D01*
X155721428Y-56946428D02*
X155721428Y-57232142D01*
X156007142Y-57260714D01*
X155978571Y-57232142D01*
X155950000Y-57175000D01*
X155950000Y-57032142D01*
X155978571Y-56975000D01*
X156007142Y-56946428D01*
X156064285Y-56917857D01*
X156207142Y-56917857D01*
X156264285Y-56946428D01*
X156292857Y-56975000D01*
X156321428Y-57032142D01*
X156321428Y-57175000D01*
X156292857Y-57232142D01*
X156264285Y-57260714D01*
X187374285Y-58146428D02*
X187774285Y-58746428D01*
X187774285Y-58146428D02*
X187374285Y-58746428D01*
X188260000Y-58146428D02*
X188145714Y-58146428D01*
X188088571Y-58175000D01*
X188060000Y-58203571D01*
X188002857Y-58289285D01*
X187974285Y-58403571D01*
X187974285Y-58632142D01*
X188002857Y-58689285D01*
X188031428Y-58717857D01*
X188088571Y-58746428D01*
X188202857Y-58746428D01*
X188260000Y-58717857D01*
X188288571Y-58689285D01*
X188317142Y-58632142D01*
X188317142Y-58489285D01*
X188288571Y-58432142D01*
X188260000Y-58403571D01*
X188202857Y-58375000D01*
X188088571Y-58375000D01*
X188031428Y-58403571D01*
X188002857Y-58432142D01*
X187974285Y-58489285D01*
D16*
X156789645Y-91371175D02*
X156504198Y-91371175D01*
X156504198Y-90771735D01*
X157303451Y-91371175D02*
X156960914Y-91371175D01*
X157132182Y-91371175D02*
X157132182Y-90771735D01*
X157075093Y-90857369D01*
X157018003Y-90914459D01*
X156960914Y-90943003D01*
X157874346Y-91371175D02*
X157531809Y-91371175D01*
X157703078Y-91371175D02*
X157703078Y-90771735D01*
X157645988Y-90857369D01*
X157588899Y-90914459D01*
X157531809Y-90943003D01*
X153789645Y-91371175D02*
X153504198Y-91371175D01*
X153504198Y-90771735D01*
X154303451Y-91371175D02*
X153960914Y-91371175D01*
X154132182Y-91371175D02*
X154132182Y-90771735D01*
X154075093Y-90857369D01*
X154018003Y-90914459D01*
X153960914Y-90943003D01*
X154531809Y-90828824D02*
X154560354Y-90800280D01*
X154617443Y-90771735D01*
X154760167Y-90771735D01*
X154817257Y-90800280D01*
X154845801Y-90828824D01*
X154874346Y-90885914D01*
X154874346Y-90943003D01*
X154845801Y-91028638D01*
X154503264Y-91371175D01*
X154874346Y-91371175D01*
D14*
X142382142Y-102082142D02*
X142334523Y-102129761D01*
X142191666Y-102177380D01*
X142096428Y-102177380D01*
X141953571Y-102129761D01*
X141858333Y-102034523D01*
X141810714Y-101939285D01*
X141763095Y-101748809D01*
X141763095Y-101605952D01*
X141810714Y-101415476D01*
X141858333Y-101320238D01*
X141953571Y-101225000D01*
X142096428Y-101177380D01*
X142191666Y-101177380D01*
X142334523Y-101225000D01*
X142382142Y-101272619D01*
X143239285Y-101510714D02*
X143239285Y-102177380D01*
X143001190Y-101129761D02*
X142763095Y-101844047D01*
X143382142Y-101844047D01*
X144191666Y-101177380D02*
X144001190Y-101177380D01*
X143905952Y-101225000D01*
X143858333Y-101272619D01*
X143763095Y-101415476D01*
X143715476Y-101605952D01*
X143715476Y-101986904D01*
X143763095Y-102082142D01*
X143810714Y-102129761D01*
X143905952Y-102177380D01*
X144096428Y-102177380D01*
X144191666Y-102129761D01*
X144239285Y-102082142D01*
X144286904Y-101986904D01*
X144286904Y-101748809D01*
X144239285Y-101653571D01*
X144191666Y-101605952D01*
X144096428Y-101558333D01*
X143905952Y-101558333D01*
X143810714Y-101605952D01*
X143763095Y-101653571D01*
X143715476Y-101748809D01*
X102411904Y-125502380D02*
X102411904Y-124502380D01*
X102792857Y-124502380D01*
X102888095Y-124550000D01*
X102935714Y-124597619D01*
X102983333Y-124692857D01*
X102983333Y-124835714D01*
X102935714Y-124930952D01*
X102888095Y-124978571D01*
X102792857Y-125026190D01*
X102411904Y-125026190D01*
X103364285Y-124597619D02*
X103411904Y-124550000D01*
X103507142Y-124502380D01*
X103745238Y-124502380D01*
X103840476Y-124550000D01*
X103888095Y-124597619D01*
X103935714Y-124692857D01*
X103935714Y-124788095D01*
X103888095Y-124930952D01*
X103316666Y-125502380D01*
X103935714Y-125502380D01*
X153881904Y-58452380D02*
X153881904Y-57452380D01*
X154262857Y-57452380D01*
X154358095Y-57500000D01*
X154405714Y-57547619D01*
X154453333Y-57642857D01*
X154453333Y-57785714D01*
X154405714Y-57880952D01*
X154358095Y-57928571D01*
X154262857Y-57976190D01*
X153881904Y-57976190D01*
X155405714Y-58452380D02*
X154834285Y-58452380D01*
X155120000Y-58452380D02*
X155120000Y-57452380D01*
X155024761Y-57595238D01*
X154929523Y-57690476D01*
X154834285Y-57738095D01*
X138691904Y-58252380D02*
X138691904Y-57252380D01*
X139072857Y-57252380D01*
X139168095Y-57300000D01*
X139215714Y-57347619D01*
X139263333Y-57442857D01*
X139263333Y-57585714D01*
X139215714Y-57680952D01*
X139168095Y-57728571D01*
X139072857Y-57776190D01*
X138691904Y-57776190D01*
X140120476Y-57585714D02*
X140120476Y-58252380D01*
X139882380Y-57204761D02*
X139644285Y-57919047D01*
X140263333Y-57919047D01*
X189322380Y-70513095D02*
X188322380Y-70513095D01*
X188322380Y-70132142D01*
X188370000Y-70036904D01*
X188417619Y-69989285D01*
X188512857Y-69941666D01*
X188655714Y-69941666D01*
X188750952Y-69989285D01*
X188798571Y-70036904D01*
X188846190Y-70132142D01*
X188846190Y-70513095D01*
X188322380Y-69036904D02*
X188322380Y-69513095D01*
X188798571Y-69560714D01*
X188750952Y-69513095D01*
X188703333Y-69417857D01*
X188703333Y-69179761D01*
X188750952Y-69084523D01*
X188798571Y-69036904D01*
X188893809Y-68989285D01*
X189131904Y-68989285D01*
X189227142Y-69036904D01*
X189274761Y-69084523D01*
X189322380Y-69179761D01*
X189322380Y-69417857D01*
X189274761Y-69513095D01*
X189227142Y-69560714D01*
X145453809Y-76402380D02*
X145453809Y-75402380D01*
X146501428Y-76307142D02*
X146453809Y-76354761D01*
X146310952Y-76402380D01*
X146215714Y-76402380D01*
X146072857Y-76354761D01*
X145977619Y-76259523D01*
X145930000Y-76164285D01*
X145882380Y-75973809D01*
X145882380Y-75830952D01*
X145930000Y-75640476D01*
X145977619Y-75545238D01*
X146072857Y-75450000D01*
X146215714Y-75402380D01*
X146310952Y-75402380D01*
X146453809Y-75450000D01*
X146501428Y-75497619D01*
X146834761Y-75402380D02*
X147453809Y-75402380D01*
X147120476Y-75783333D01*
X147263333Y-75783333D01*
X147358571Y-75830952D01*
X147406190Y-75878571D01*
X147453809Y-75973809D01*
X147453809Y-76211904D01*
X147406190Y-76307142D01*
X147358571Y-76354761D01*
X147263333Y-76402380D01*
X146977619Y-76402380D01*
X146882380Y-76354761D01*
X146834761Y-76307142D01*
X140187142Y-76702857D02*
X140234761Y-76750476D01*
X140282380Y-76893333D01*
X140282380Y-76988571D01*
X140234761Y-77131428D01*
X140139523Y-77226666D01*
X140044285Y-77274285D01*
X139853809Y-77321904D01*
X139710952Y-77321904D01*
X139520476Y-77274285D01*
X139425238Y-77226666D01*
X139330000Y-77131428D01*
X139282380Y-76988571D01*
X139282380Y-76893333D01*
X139330000Y-76750476D01*
X139377619Y-76702857D01*
X139377619Y-76321904D02*
X139330000Y-76274285D01*
X139282380Y-76179047D01*
X139282380Y-75940952D01*
X139330000Y-75845714D01*
X139377619Y-75798095D01*
X139472857Y-75750476D01*
X139568095Y-75750476D01*
X139710952Y-75798095D01*
X140282380Y-76369523D01*
X140282380Y-75750476D01*
X139282380Y-75417142D02*
X139282380Y-74750476D01*
X140282380Y-75179047D01*
X173452380Y-66761904D02*
X173452380Y-66190476D01*
X174452380Y-66476190D02*
X173452380Y-66476190D01*
X174452380Y-65333333D02*
X174452380Y-65904761D01*
X174452380Y-65619047D02*
X173452380Y-65619047D01*
X173595238Y-65714285D01*
X173690476Y-65809523D01*
X173738095Y-65904761D01*
X107363095Y-56127380D02*
X107934523Y-56127380D01*
X107648809Y-57127380D02*
X107648809Y-56127380D01*
X108220238Y-56222619D02*
X108267857Y-56175000D01*
X108363095Y-56127380D01*
X108601190Y-56127380D01*
X108696428Y-56175000D01*
X108744047Y-56222619D01*
X108791666Y-56317857D01*
X108791666Y-56413095D01*
X108744047Y-56555952D01*
X108172619Y-57127380D01*
X108791666Y-57127380D01*
X171288095Y-107027380D02*
X171859523Y-107027380D01*
X171573809Y-108027380D02*
X171573809Y-107027380D01*
X172097619Y-107027380D02*
X172716666Y-107027380D01*
X172383333Y-107408333D01*
X172526190Y-107408333D01*
X172621428Y-107455952D01*
X172669047Y-107503571D01*
X172716666Y-107598809D01*
X172716666Y-107836904D01*
X172669047Y-107932142D01*
X172621428Y-107979761D01*
X172526190Y-108027380D01*
X172240476Y-108027380D01*
X172145238Y-107979761D01*
X172097619Y-107932142D01*
X157952380Y-66761904D02*
X157952380Y-66190476D01*
X158952380Y-66476190D02*
X157952380Y-66476190D01*
X158285714Y-65428571D02*
X158952380Y-65428571D01*
X157904761Y-65666666D02*
X158619047Y-65904761D01*
X158619047Y-65285714D01*
M02*
