G04 #@! TF.FileFunction,Soldermask,Top*
%FSLAX46Y46*%
G04 Gerber Fmt 4.6, Leading zero omitted, Abs format (unit mm)*
G04 Created by KiCad (PCBNEW (2016-10-09 revision 6d27087)-master) date 2016 November 17, Thursday 15:53:54*
%MOMM*%
%LPD*%
G01*
G04 APERTURE LIST*
%ADD10C,0.100000*%
%ADD11C,6.800000*%
%ADD12R,0.650000X1.100000*%
%ADD13R,1.100000X0.650000*%
%ADD14R,2.125000X2.125000*%
%ADD15R,1.200000X1.150000*%
%ADD16R,1.150000X1.200000*%
%ADD17R,1.197560X1.197560*%
%ADD18R,0.700000X1.400000*%
%ADD19R,2.127200X2.127200*%
%ADD20O,2.127200X2.127200*%
%ADD21R,2.500000X5.200000*%
%ADD22R,2.500000X5.150000*%
%ADD23R,0.900000X1.300000*%
%ADD24R,1.300000X0.900000*%
%ADD25R,0.900000X1.600000*%
%ADD26R,1.700000X1.950000*%
%ADD27C,2.400000*%
%ADD28C,2.300000*%
%ADD29R,1.200000X2.500000*%
%ADD30R,1.700000X2.500000*%
%ADD31R,1.400000X2.900000*%
%ADD32R,2.900000X1.400000*%
%ADD33R,0.700000X2.200000*%
%ADD34O,0.700000X2.300000*%
%ADD35R,2.050000X2.050000*%
%ADD36R,0.650000X1.200000*%
%ADD37R,1.200000X0.650000*%
%ADD38O,1.300000X0.650000*%
%ADD39R,1.500000X1.800000*%
%ADD40R,1.460000X1.050000*%
%ADD41C,3.200000*%
%ADD42R,2.000000X2.400000*%
%ADD43R,1.000000X0.900000*%
%ADD44R,1.200000X1.900000*%
%ADD45R,2.600000X3.500000*%
%ADD46O,3.900000X6.400000*%
%ADD47O,6.400000X3.900000*%
%ADD48R,1.000000X0.650000*%
%ADD49R,3.000000X3.400000*%
%ADD50R,3.580000X1.670000*%
%ADD51R,1.670000X3.580000*%
G04 APERTURE END LIST*
D10*
D11*
X100000000Y-52500000D03*
X99000000Y-126000000D03*
X186000000Y-124000000D03*
X186000000Y-65825000D03*
D12*
X150455000Y-103025000D03*
X149955000Y-103025000D03*
X149455000Y-103025000D03*
X148955000Y-103025000D03*
X148455000Y-103025000D03*
X147955000Y-103025000D03*
X147455000Y-103025000D03*
X146955000Y-103025000D03*
D13*
X146305000Y-103675000D03*
X146305000Y-104175000D03*
X146305000Y-104675000D03*
X146305000Y-105175000D03*
X146305000Y-105675000D03*
X146305000Y-106175000D03*
X146305000Y-106675000D03*
X146305000Y-107175000D03*
D12*
X146955000Y-107825000D03*
X147455000Y-107825000D03*
X147955000Y-107825000D03*
X148455000Y-107825000D03*
X148955000Y-107825000D03*
X149455000Y-107825000D03*
X149955000Y-107825000D03*
X150455000Y-107825000D03*
D13*
X151105000Y-107175000D03*
X151105000Y-106675000D03*
X151105000Y-106175000D03*
X151105000Y-105675000D03*
X151105000Y-105175000D03*
X151105000Y-104675000D03*
X151105000Y-104175000D03*
X151105000Y-103675000D03*
D14*
X147842500Y-106287500D03*
X149567500Y-106287500D03*
X147842500Y-104562500D03*
X149567500Y-104562500D03*
D15*
X117205000Y-118815000D03*
X115705000Y-118815000D03*
X142148500Y-79747000D03*
X143648500Y-79747000D03*
X124180000Y-116940000D03*
X125680000Y-116940000D03*
X130600000Y-100450000D03*
X132100000Y-100450000D03*
X118355000Y-96015000D03*
X116855000Y-96015000D03*
X162305000Y-113480000D03*
X163805000Y-113480000D03*
X114580000Y-103690000D03*
X116080000Y-103690000D03*
X159080000Y-114080000D03*
X160580000Y-114080000D03*
X153250000Y-102950000D03*
X154750000Y-102950000D03*
X145155000Y-101725000D03*
X146655000Y-101725000D03*
D16*
X148705000Y-110425000D03*
X148705000Y-108925000D03*
D15*
X161605000Y-93450000D03*
X160105000Y-93450000D03*
X160100000Y-94950000D03*
X161600000Y-94950000D03*
D16*
X158605000Y-94950000D03*
X158605000Y-93450000D03*
D15*
X150605000Y-97200000D03*
X152105000Y-97200000D03*
D16*
X171935000Y-118540000D03*
X171935000Y-120040000D03*
D15*
X156155000Y-100175000D03*
X157655000Y-100175000D03*
X155655000Y-104375000D03*
X154155000Y-104375000D03*
D16*
X148955000Y-98775000D03*
X148955000Y-97275000D03*
D15*
X148955000Y-100275000D03*
X147455000Y-100275000D03*
D16*
X147455000Y-97275000D03*
X147455000Y-98775000D03*
D17*
X118185000Y-125580000D03*
X116686400Y-125580000D03*
X116705700Y-123910000D03*
X118204300Y-123910000D03*
D18*
X159080000Y-112655000D03*
X157780000Y-112655000D03*
X157780000Y-110355000D03*
X158430000Y-110355000D03*
X159080000Y-110355000D03*
D19*
X172830000Y-123425000D03*
D20*
X172830000Y-125965000D03*
X170290000Y-123425000D03*
X170290000Y-125965000D03*
X167750000Y-123425000D03*
X167750000Y-125965000D03*
X165210000Y-123425000D03*
X165210000Y-125965000D03*
X162670000Y-123425000D03*
X162670000Y-125965000D03*
X160130000Y-123425000D03*
X160130000Y-125965000D03*
X157590000Y-123425000D03*
X157590000Y-125965000D03*
X155050000Y-123425000D03*
X155050000Y-125965000D03*
X152510000Y-123425000D03*
X152510000Y-125965000D03*
X149970000Y-123425000D03*
X149970000Y-125965000D03*
X147430000Y-123425000D03*
X147430000Y-125965000D03*
X144890000Y-123425000D03*
X144890000Y-125965000D03*
X142350000Y-123425000D03*
X142350000Y-125965000D03*
X139810000Y-123425000D03*
X139810000Y-125965000D03*
X137270000Y-123425000D03*
X137270000Y-125965000D03*
X134730000Y-123425000D03*
X134730000Y-125965000D03*
X132190000Y-123425000D03*
X132190000Y-125965000D03*
X129650000Y-123425000D03*
X129650000Y-125965000D03*
X127110000Y-123425000D03*
X127110000Y-125965000D03*
X124570000Y-123425000D03*
X124570000Y-125965000D03*
D21*
X113480000Y-116865000D03*
D22*
X121480000Y-113265000D03*
D21*
X124180000Y-113290000D03*
D22*
X132180000Y-109690000D03*
X123180000Y-98065000D03*
D21*
X131180000Y-94465000D03*
D22*
X112505000Y-101665000D03*
D21*
X120505000Y-98065000D03*
D23*
X163805000Y-105230000D03*
X162305000Y-105230000D03*
D24*
X163800000Y-102225000D03*
X163800000Y-103725000D03*
X152106000Y-80866000D03*
X152106000Y-79366000D03*
X154201500Y-79378000D03*
X154201500Y-80878000D03*
D23*
X119495000Y-125580000D03*
X120995000Y-125580000D03*
X120995000Y-123910000D03*
X119495000Y-123910000D03*
X170225000Y-118540000D03*
X168725000Y-118540000D03*
X150605000Y-98800000D03*
X152105000Y-98800000D03*
D24*
X156155000Y-97275000D03*
X156155000Y-98775000D03*
X154505000Y-97275000D03*
X154505000Y-98775000D03*
D23*
X156530000Y-109225000D03*
X155030000Y-109225000D03*
X155030000Y-107575000D03*
X156530000Y-107575000D03*
D24*
X150505000Y-101700000D03*
X150505000Y-100200000D03*
X154505000Y-100200000D03*
X154505000Y-101700000D03*
X152180000Y-100200000D03*
X152180000Y-101700000D03*
D23*
X155955000Y-105950000D03*
X154455000Y-105950000D03*
D24*
X169525000Y-96950000D03*
X169525000Y-98450000D03*
X174575000Y-96875000D03*
X174575000Y-98375000D03*
X161000000Y-75625000D03*
X161000000Y-74125000D03*
X163000000Y-74125000D03*
X163000000Y-75625000D03*
D25*
X147955000Y-111900000D03*
X147155000Y-111900000D03*
X146355000Y-111900000D03*
X145555000Y-111900000D03*
X144755000Y-111900000D03*
X143955000Y-111900000D03*
X143155000Y-111900000D03*
X142355000Y-111900000D03*
X142355000Y-113700000D03*
X143155000Y-113700000D03*
X143955000Y-113700000D03*
X144755000Y-113700000D03*
X145555000Y-113700000D03*
X146355000Y-113700000D03*
X147155000Y-113700000D03*
X147955000Y-113700000D03*
X155055000Y-113700000D03*
X154255000Y-113700000D03*
X153455000Y-113700000D03*
X152655000Y-113700000D03*
X151855000Y-113700000D03*
X151055000Y-113700000D03*
X150255000Y-113700000D03*
X149455000Y-113700000D03*
X149455000Y-111900000D03*
X150255000Y-111900000D03*
X151055000Y-111900000D03*
X151855000Y-111900000D03*
X152655000Y-111900000D03*
X153455000Y-111900000D03*
X154255000Y-111900000D03*
X155055000Y-111900000D03*
D26*
X176575000Y-119535000D03*
X181075000Y-119535000D03*
X181075000Y-127485000D03*
X176575000Y-127485000D03*
D27*
X99500000Y-58840000D03*
X99500000Y-69000000D03*
D28*
X104580000Y-63920000D03*
X104580000Y-66460000D03*
D29*
X162306617Y-110989951D03*
D30*
X163806617Y-110989951D03*
X160806617Y-110989951D03*
X160806617Y-107889951D03*
D29*
X162306617Y-107889951D03*
D30*
X163806617Y-107889951D03*
D15*
X117230000Y-80590000D03*
X115730000Y-80590000D03*
X123780000Y-71790000D03*
X125280000Y-71790000D03*
D31*
X136775000Y-80350000D03*
X139775000Y-80350000D03*
X139675000Y-86850000D03*
X136675000Y-86850000D03*
D32*
X152995000Y-74627500D03*
X152995000Y-77627500D03*
D31*
X152550000Y-84575000D03*
X155550000Y-84575000D03*
D15*
X113630000Y-82140000D03*
X115130000Y-82140000D03*
D16*
X114530000Y-76590000D03*
X114530000Y-75090000D03*
X115130000Y-83640000D03*
X115130000Y-85140000D03*
X116905000Y-85490000D03*
X116905000Y-83990000D03*
D15*
X121480000Y-82290000D03*
X119980000Y-82290000D03*
X119980000Y-80740000D03*
X121480000Y-80740000D03*
X123780000Y-73340000D03*
X125280000Y-73340000D03*
D16*
X123980000Y-80090000D03*
X123980000Y-78590000D03*
D15*
X122905000Y-68415000D03*
X121405000Y-68415000D03*
X125280000Y-70215000D03*
X123780000Y-70215000D03*
X116330000Y-67365000D03*
X117830000Y-67365000D03*
D16*
X119830000Y-69140000D03*
X119830000Y-70640000D03*
X170605000Y-74125000D03*
X170605000Y-75625000D03*
D15*
X169355000Y-84475000D03*
X167855000Y-84475000D03*
X169055000Y-78575000D03*
X167555000Y-78575000D03*
D33*
X116780000Y-72990000D03*
X117430000Y-72990000D03*
X118080000Y-72990000D03*
X118730000Y-72990000D03*
X119380000Y-72990000D03*
X120030000Y-72990000D03*
X120680000Y-72990000D03*
X121330000Y-72990000D03*
X121980000Y-72990000D03*
X122630000Y-72990000D03*
X122630000Y-78690000D03*
X121980000Y-78690000D03*
X121330000Y-78690000D03*
X120680000Y-78690000D03*
X120030000Y-78690000D03*
X119380000Y-78690000D03*
X118730000Y-78690000D03*
X118080000Y-78690000D03*
X117430000Y-78690000D03*
D34*
X116780000Y-78690000D03*
D35*
X169605000Y-81425000D03*
D36*
X168855000Y-79925000D03*
X169355000Y-79925000D03*
X169855000Y-79925000D03*
X170355000Y-79925000D03*
D37*
X171105000Y-80675000D03*
X171105000Y-81175000D03*
X171105000Y-81675000D03*
X171105000Y-82175000D03*
D36*
X170355000Y-82925000D03*
X169855000Y-82925000D03*
X169355000Y-82925000D03*
X168855000Y-82925000D03*
D37*
X168105000Y-82175000D03*
X168105000Y-81675000D03*
X168105000Y-81175000D03*
D38*
X168105000Y-80675000D03*
D23*
X116880000Y-82440000D03*
X118380000Y-82440000D03*
X118580000Y-69590000D03*
X117080000Y-69590000D03*
D39*
X136675000Y-83650000D03*
X139775000Y-83650000D03*
X155550000Y-87975000D03*
X152450000Y-87975000D03*
D23*
X169355000Y-86075000D03*
X167855000Y-86075000D03*
X169055000Y-76975000D03*
X167555000Y-76975000D03*
X118480000Y-84090000D03*
X119980000Y-84090000D03*
X117830000Y-65765000D03*
X116330000Y-65765000D03*
D24*
X119630000Y-67290000D03*
X119630000Y-65790000D03*
X121980000Y-69790000D03*
X121980000Y-71290000D03*
X166005000Y-79350000D03*
X166005000Y-80850000D03*
X166005000Y-83475000D03*
X166005000Y-81975000D03*
X170605000Y-78425000D03*
X170605000Y-76925000D03*
D23*
X174430000Y-82225000D03*
X172930000Y-82225000D03*
D16*
X129305000Y-78840000D03*
X129305000Y-80340000D03*
X127105000Y-85740000D03*
X127105000Y-87240000D03*
D40*
X129305000Y-82890000D03*
X129305000Y-81940000D03*
X129305000Y-83840000D03*
X127105000Y-83840000D03*
X127105000Y-82890000D03*
X127105000Y-81940000D03*
D41*
X121325000Y-88450000D03*
D24*
X131255000Y-83040000D03*
X131255000Y-84540000D03*
X131255000Y-78840000D03*
X131255000Y-80340000D03*
D16*
X175830000Y-83700000D03*
X175830000Y-82200000D03*
D15*
X174430000Y-78950000D03*
X172930000Y-78950000D03*
D23*
X124005000Y-81940000D03*
X125505000Y-81940000D03*
D24*
X175925000Y-75100000D03*
X175925000Y-73600000D03*
X177650000Y-75100000D03*
X177650000Y-73600000D03*
X170905000Y-86325000D03*
X170905000Y-84825000D03*
D23*
X172930000Y-80575000D03*
X174430000Y-80575000D03*
X129180000Y-76465000D03*
X127680000Y-76465000D03*
X131705000Y-74915000D03*
X130205000Y-74915000D03*
X117825000Y-63600000D03*
X116325000Y-63600000D03*
X119625000Y-61050000D03*
X118125000Y-61050000D03*
D27*
X99420000Y-75340000D03*
X99420000Y-85500000D03*
D28*
X104500000Y-80420000D03*
X104500000Y-82960000D03*
D27*
X102000000Y-109215000D03*
X102000000Y-119375000D03*
D28*
X107080000Y-114295000D03*
X107080000Y-116835000D03*
X107080000Y-100120000D03*
X107080000Y-97580000D03*
D27*
X102000000Y-102660000D03*
X102000000Y-92500000D03*
D28*
X177920000Y-106840000D03*
X177920000Y-109380000D03*
D27*
X183000000Y-104300000D03*
X183000000Y-114460000D03*
X169000000Y-51500000D03*
X158840000Y-51500000D03*
D28*
X163920000Y-56580000D03*
X161380000Y-56580000D03*
X178380000Y-56580000D03*
X180920000Y-56580000D03*
D27*
X175840000Y-51500000D03*
X186000000Y-51500000D03*
D42*
X156730000Y-92825000D03*
X154130000Y-92825000D03*
X154105000Y-95400000D03*
X156705000Y-95400000D03*
D43*
X147955000Y-101675000D03*
X149055000Y-101675000D03*
D44*
X106550000Y-125575000D03*
X107800000Y-125575000D03*
X109050000Y-125575000D03*
X110300000Y-125575000D03*
D45*
X104050000Y-128325000D03*
X112800000Y-128325000D03*
D46*
X144130000Y-52400000D03*
X151630000Y-52400000D03*
X113975000Y-52400000D03*
X121475000Y-52400000D03*
X128975000Y-52400000D03*
X136475000Y-52400000D03*
D47*
X185500000Y-74910000D03*
X185500000Y-82410000D03*
X185500000Y-89910000D03*
X185500000Y-97410000D03*
D48*
X149560000Y-77220000D03*
X149560000Y-77720000D03*
X149560000Y-78220000D03*
X149560000Y-78720000D03*
X149560000Y-79220000D03*
X149560000Y-79720000D03*
X145760000Y-79720000D03*
X145760000Y-79220000D03*
X145760000Y-78720000D03*
X145760000Y-78220000D03*
X145760000Y-77720000D03*
X145760000Y-77220000D03*
D49*
X147660000Y-78470000D03*
D32*
X142530000Y-77560000D03*
X142530000Y-74560000D03*
D50*
X168340000Y-66000000D03*
X168340000Y-63460000D03*
X168340000Y-68540000D03*
X180660000Y-68540000D03*
X180660000Y-66000000D03*
X180660000Y-63460000D03*
D51*
X113000000Y-71660000D03*
X110460000Y-71660000D03*
X107920000Y-71660000D03*
X107920000Y-59340000D03*
X113000000Y-59340000D03*
X110460000Y-59340000D03*
X174590000Y-114235000D03*
X172050000Y-114235000D03*
X169510000Y-114235000D03*
X169510000Y-101915000D03*
X174590000Y-101915000D03*
X172050000Y-101915000D03*
D50*
X164160000Y-66000000D03*
X164160000Y-68540000D03*
X164160000Y-63460000D03*
X151840000Y-63460000D03*
X151840000Y-66000000D03*
X151840000Y-68540000D03*
M02*
